<svg xmlns="http://www.w3.org/2000/svg" width="82" height="38" fill="none"><mask id="a" width="86.659" height="43.291" x="-1.99" y="-2.559" fill="#000" maskUnits="userSpaceOnUse"><path fill="#fff" d="M-1.99-2.559h86.659v43.291H-1.99z"/><path d="M5.102 36.478c-.274-.102-.477-.203-.609-.302a.706.706 0 0 1-.202-.431c-.033-.231.014-.568.14-1.01.146-.468.397-1.199.751-2.191.096-.32.287-.89.572-1.707.726-2.035 1.026-3.503.898-4.404a.487.487 0 0 1-.064-.203c-.032-.231.123-.465.467-.702.06-.08.274-.31.644-.692.394-.385.688-.804.883-1.256.203-.735.476-1.552.821-2.449.341-.92.943-2.419 1.804-4.496.822-2.19 1.741-4.193 2.757-6.01a3.01 3.01 0 0 1 .655-.87c.274-.227.515-.355.723-.385.716-.1 1.483.074 2.3.524.842.447 1.417.931 1.726 1.453.115.149.21.489.285 1.02.102.716.192 1.94.272 3.673-.004.307.017.787.062 1.44.077 1.05.13 2.174.158 3.372.11 2.623.211 4.671.301 6.143.09 1.472.225 2.843.404 4.114.092.647.17 1.119.236 1.416l.034.242.078.802c-.12.159-.387.267-.802.326-.463.065-.936.05-1.42-.047-.483-.073-.761-.21-.837-.412a.41.41 0 0 0-.113-.055c-.05-.017-.088-.117-.114-.302l-.073-.767-.17-1.956-.575-5.327-.446.099c-.462.065-1.431.296-2.907.693-1.452.393-2.367.676-2.743.847-.208.03-.443.204-.704.523-.261.32-.476.716-.645 1.187-.037.241-.151.599-.344 1.074-.195.451-.288.712-.278.781a1.506 1.506 0 0 0-.327.435 3.404 3.404 0 0 0-.135.302c.036.254-.102.945-.414 2.073-.292 1.102-.61 2.019-.955 2.75l-.75 1.45-1.344-.765Zm6.6-13.09.95-.277c.472-.16.891-.279 1.258-.354 1.07-.434 1.812-.68 2.228-.739.231-.032.396-.032.495.001a.89.89 0 0 0 .238.179c.095.01.155.013.178.01.02-.191.027-1.477.02-3.856-.005-2.38-.046-3.834-.12-4.366-.053-.37-.109-.68-.168-.93-.062-.275-.11-.445-.142-.51-.208.029-.604.65-1.186 1.864a32.432 32.432 0 0 0-1.625 4.011c-.398 1.022-.7 1.548-.909 1.578-.139.184-.409.776-.81 1.775-.4 1-.537 1.537-.408 1.613Zm23.601-3.51c-.043.36-.145.727-.303 1.103-.16.376-.264.638-.314.786-.112.37-.2.665-.263.886a3.82 3.82 0 0 0-.14.515c.492.142.771.621.84 1.437l-.308.573-1.056.538c-.037.406-.059.75-.066 1.034.013.423-.044 1.02-.17 1.792l-.096.826c-.064.386-.18.65-.348.792-.145.138-.387.266-.723.385a24.95 24.95 0 0 1-.619-.125 3.486 3.486 0 0 1-.589-.164 1.84 1.84 0 0 1-.385-.229 1.18 1.18 0 0 1-.301-.629c-.03-.208-.003-.6.08-1.178.15-.94.251-1.65.301-2.128l-.574.188a4.872 4.872 0 0 0-.783.216c-.181.05-.317.092-.406.128-.171.119-.535.217-1.09.295a6.31 6.31 0 0 1-1.227.068 9.27 9.27 0 0 0-.105.51c-.043.194-.09.448-.14.761-.073.482-.096.815-.07 1l-.007.955a7.79 7.79 0 0 0-.006.956c.045.488-.018.874-.19 1.158-.169.306-.415.482-.739.528-.531.075-1.192-.185-1.983-.78l-.207-.466.177-2.747c.027-.145.052-.302.075-.47.024-.168.034-.346.03-.534l.151-.94.23-1.129c.186-1.016.354-1.747.503-2.192.047-.336.112-.71.195-1.123.106-.416.183-.71.229-.88.036-.077.12-.489.25-1.238.126-.772.218-1.291.274-1.559.12-.488.422-.766.907-.835a1.847 1.847 0 0 1 1.341.235c.41.225.656.556.741.992.013.092.024.255.034.49.006.21-.009.354-.045.43l-1.061 4.25c.204-.052.454-.123.747-.211.291-.112.505-.178.644-.197a5.986 5.986 0 0 1 1.198-.276c.486-.068.872-.087 1.159-.057.09-.201.18-.556.274-1.064a6.12 6.12 0 0 1 .184-.945c.1-.627.273-1.24.518-1.84a2.17 2.17 0 0 0 .03-.287c.004-.142.118-.5.344-1.074.343-.237.665-.377.965-.42.463-.064.877.03 1.242.285.39.251.615.597.677 1.036.023.161.014.351-.026.569ZM38.31 29.88c-.089-.13-.311-.286-.667-.472-.356-.185-.538-.3-.544-.347-.013-.093-.089-.211-.227-.357a4.59 4.59 0 0 0-.346-.446c-.211-.159-.169-.777.127-1.856.295-1.078.715-2.363 1.258-3.854.12-.158.258-.425.417-.8.182-.38.305-.598.368-.654a.336.336 0 0 1 .07-.257c.056-.102.13-.16.222-.173l.2-.593c.062-.221.443-.782 1.14-1.681.698-.9 1.258-1.521 1.681-1.864.397-.362.85-.58 1.358-.651.554-.078 1.05.017 1.49.285l1.047.665c.775.48 1.215.759 1.32.838l1.444.963-.344 1.816a5.654 5.654 0 0 0-.062 1.811 4.545 4.545 0 0 0 1.075 2.358c.151.238.33.413.533.526.228.109.507.164.837.164.521.021.811.24.87.655.072.508.033.903-.116 1.183-.149.28-.346.473-.59.578a7.469 7.469 0 0 1-.753.177 3.431 3.431 0 0 1-1.91-.26c-.603-.269-1.172-.79-1.705-1.562-.112-.126-.275-.362-.489-.709-.19-.35-.307-.593-.35-.728-.129.254-.352.592-.67 1.014-2.04 2.738-3.8 4.212-5.279 4.42a2.457 2.457 0 0 1-1.405-.19Zm1.5-3.146c.376-.006 1.034-.523 1.973-1.551.102-.109.214-.23.337-.366.119-.158.25-.318.392-.48a21.659 21.659 0 0 0 1.304-1.527c.317-.421.625-.913.923-1.473l.586-1.355c-.303-.476-.558-.782-.766-.917-.21-.16-.408-.226-.593-.2-.462.066-.981.563-1.557 1.493-.579.906-1.236 2.26-1.971 4.06-.196.452-.342.92-.438 1.405-.1.462-.163.766-.19.911Zm22.428-.198c-.505.095-.978-.085-1.42-.542a2.867 2.867 0 0 1-.75-1.555 1.968 1.968 0 0 1 .006-.46c.03-.287.06-.657.09-1.109.082-1.095.185-1.864.311-2.306.263-1.145.357-1.983.282-2.514-.059-.416-.2-.667-.425-.753-.3-.123-.818-.203-1.553-.24-.74-.06-1.339-.047-1.797.041a11.88 11.88 0 0 1-.066.787c-.043.36-.095.662-.155.906-.07.34-.148.87-.235 1.588l-.216 1.728c-.08.435-.16 1.035-.24 1.8-.05.314-.137.786-.26 1.416a.906.906 0 0 0 .005.282c.058.416-.002.743-.18.98a2.138 2.138 0 0 1-.63.548c-.238.152-.4.257-.485.316l-.46-.005a2.82 2.82 0 0 1-.801-.665 9.247 9.247 0 0 0-.544-.595c.034-.759.103-1.605.207-2.539.104-.933.229-1.552.374-1.855a2.15 2.15 0 0 0 .02-.357c.024-.168.056-.36.096-.579.084-1.072.174-1.85.27-2.335.117-.512.158-1.224.123-2.139l.001-.742c.063-.056.21-.183.441-.38a1.99 1.99 0 0 1 .793-.395l.03-.287c.5-.471 1.165-.765 1.996-.883a4.29 4.29 0 0 1 1.564.062c.317-.092.847-.013 1.589.235.765.246 1.317.486 1.657.72 1.025.751 1.632 1.797 1.821 3.137.13.924.06 2.254-.214 3.989-.117.676-.155 1.153-.116 1.43.026.185.085.354.177.505.112.126.278.303.5.53a3.693 3.693 0 0 1-.374 1.114c-.185.356-.417.554-.694.593-.066.033-.17.13-.312.291-.145.139-.288.218-.426.237Zm9.596-1.143c-.224.08-.429.132-.614.158-.3.042-.58.058-.841.048-.264-.034-.403-.097-.416-.189-.01-.07-.028-.114-.054-.134-.026-.02-.074-.025-.144-.015-.079-.06-.257-.152-.534-.278a2.757 2.757 0 0 0-.643-.298 2.2 2.2 0 0 1-.597-1.223c-.062-.44-.022-1.164.118-2.173-.104-.904.077-1.955.544-3.152a16.256 16.256 0 0 1 1.882-3.447c.764-1.098 1.475-1.905 2.132-2.422.298-.396.759-.637 1.382-.726.486-.068.928-.024 1.327.131.326.143.751.483 1.275 1.022.547.536.97 1.03 1.27 1.482.069.155.158.367.266.634.132.264.225.593.28.986l.068.98c-.143.986-.161 1.86-.053 2.623-.001.33.06.592.181.787.119.172.259.247.42.224a.87.87 0 0 0 .367-.158 1.1 1.1 0 0 1 .47-.173c.301-.042.568.015.802.17a.897.897 0 0 1 .41.65 1.35 1.35 0 0 1-.08.682c-.143.492-.477.963-1.002 1.414-.503.448-.996.706-1.481.775-.393.055-.804-.099-1.232-.462-.406-.367-.76-.871-1.062-1.512l-.32-.768-1.087 1.32-.684.91c-.318.422-.495.67-.531.746-.09.201-.273.404-.55.608-.255.201-.678.461-1.269.78Zm.466-3.459c.383-.29.69-.627.918-1.013.25-.389.552-.926.903-1.612l.219-.455c.069-.175.162-.353.278-.534.317-.587.534-1.054.65-1.4.14-.35.23-.716.27-1.098a2.838 2.838 0 0 0-.534-.774c-.2-.254-.372-.383-.514-.386-.647.09-1.417.977-2.311 2.659-.093.178-.237.493-.432.945-.173.448-.284.746-.333.895-.093.178-.2.594-.32 1.247-.1.627-.136 1.032-.11 1.217.072.508.258.741.558.699.231-.033.484-.163.758-.39Z"/></mask><path fill="#165298" d="M5.102 36.478c-.274-.102-.477-.203-.609-.302a.706.706 0 0 1-.202-.431c-.033-.231.014-.568.14-1.01.146-.468.397-1.199.751-2.191.096-.32.287-.89.572-1.707.726-2.035 1.026-3.503.898-4.404a.487.487 0 0 1-.064-.203c-.032-.231.123-.465.467-.702.06-.08.274-.31.644-.692.394-.385.688-.804.883-1.256.203-.735.476-1.552.821-2.449.341-.92.943-2.419 1.804-4.496.822-2.19 1.741-4.193 2.757-6.01a3.01 3.01 0 0 1 .655-.87c.274-.227.515-.355.723-.385.716-.1 1.483.074 2.3.524.842.447 1.417.931 1.726 1.453.115.149.21.489.285 1.02.102.716.192 1.94.272 3.673-.004.307.017.787.062 1.44.077 1.05.13 2.174.158 3.372.11 2.623.211 4.671.301 6.143.09 1.472.225 2.843.404 4.114.092.647.17 1.119.236 1.416l.034.242.078.802c-.12.159-.387.267-.802.326-.463.065-.936.05-1.42-.047-.483-.073-.761-.21-.837-.412a.41.41 0 0 0-.113-.055c-.05-.017-.088-.117-.114-.302l-.073-.767-.17-1.956-.575-5.327-.446.099c-.462.065-1.431.296-2.907.693-1.452.393-2.367.676-2.743.847-.208.03-.443.204-.704.523-.261.32-.476.716-.645 1.187-.037.241-.151.599-.344 1.074-.195.451-.288.712-.278.781a1.506 1.506 0 0 0-.327.435 3.404 3.404 0 0 0-.135.302c.036.254-.102.945-.414 2.073-.292 1.102-.61 2.019-.955 2.75l-.75 1.45-1.344-.765Zm6.6-13.09.95-.277c.472-.16.891-.279 1.258-.354 1.07-.434 1.812-.68 2.228-.739.231-.032.396-.032.495.001a.89.89 0 0 0 .238.179c.095.01.155.013.178.01.02-.191.027-1.477.02-3.856-.005-2.38-.046-3.834-.12-4.366-.053-.37-.109-.68-.168-.93-.062-.275-.11-.445-.142-.51-.208.029-.604.65-1.186 1.864a32.432 32.432 0 0 0-1.625 4.011c-.398 1.022-.7 1.548-.909 1.578-.139.184-.409.776-.81 1.775-.4 1-.537 1.537-.408 1.613Zm23.601-3.51c-.043.36-.145.727-.303 1.103-.16.376-.264.638-.314.786-.112.37-.2.665-.263.886a3.82 3.82 0 0 0-.14.515c.492.142.771.621.84 1.437l-.308.573-1.056.538c-.037.406-.059.75-.066 1.034.013.423-.044 1.02-.17 1.792l-.096.826c-.064.386-.18.65-.348.792-.145.138-.387.266-.723.385a24.95 24.95 0 0 1-.619-.125 3.486 3.486 0 0 1-.589-.164 1.84 1.84 0 0 1-.385-.229 1.18 1.18 0 0 1-.301-.629c-.03-.208-.003-.6.08-1.178.15-.94.251-1.65.301-2.128l-.574.188a4.872 4.872 0 0 0-.783.216c-.181.05-.317.092-.406.128-.171.119-.535.217-1.09.295a6.31 6.31 0 0 1-1.227.068 9.27 9.27 0 0 0-.105.51c-.043.194-.09.448-.14.761-.073.482-.096.815-.07 1l-.007.955a7.79 7.79 0 0 0-.006.956c.045.488-.018.874-.19 1.158-.169.306-.415.482-.739.528-.531.075-1.192-.185-1.983-.78l-.207-.466.177-2.747c.027-.145.052-.302.075-.47.024-.168.034-.346.03-.534l.151-.94.23-1.129c.186-1.016.354-1.747.503-2.192.047-.336.112-.71.195-1.123.106-.416.183-.71.229-.88.036-.077.12-.489.25-1.238.126-.772.218-1.291.274-1.559.12-.488.422-.766.907-.835a1.847 1.847 0 0 1 1.341.235c.41.225.656.556.741.992.013.092.024.255.034.49.006.21-.009.354-.045.43l-1.061 4.25c.204-.052.454-.123.747-.211.291-.112.505-.178.644-.197a5.986 5.986 0 0 1 1.198-.276c.486-.068.872-.087 1.159-.057.09-.201.18-.556.274-1.064a6.12 6.12 0 0 1 .184-.945c.1-.627.273-1.24.518-1.84a2.17 2.17 0 0 0 .03-.287c.004-.142.118-.5.344-1.074.343-.237.665-.377.965-.42.463-.064.877.03 1.242.285.39.251.615.597.677 1.036.023.161.014.351-.026.569ZM38.31 29.88c-.089-.13-.311-.286-.667-.472-.356-.185-.538-.3-.544-.347-.013-.093-.089-.211-.227-.357a4.59 4.59 0 0 0-.346-.446c-.211-.159-.169-.777.127-1.856.295-1.078.715-2.363 1.258-3.854.12-.158.258-.425.417-.8.182-.38.305-.598.368-.654a.336.336 0 0 1 .07-.257c.056-.102.13-.16.222-.173l.2-.593c.062-.221.443-.782 1.14-1.681.698-.9 1.258-1.521 1.681-1.864.397-.362.85-.58 1.358-.651.554-.078 1.05.017 1.49.285l1.047.665c.775.48 1.215.759 1.32.838l1.444.963-.344 1.816a5.654 5.654 0 0 0-.062 1.811 4.545 4.545 0 0 0 1.075 2.358c.151.238.33.413.533.526.228.109.507.164.837.164.521.021.811.24.87.655.072.508.033.903-.116 1.183-.149.28-.346.473-.59.578a7.469 7.469 0 0 1-.753.177 3.431 3.431 0 0 1-1.91-.26c-.603-.269-1.172-.79-1.705-1.562-.112-.126-.275-.362-.489-.709-.19-.35-.307-.593-.35-.728-.129.254-.352.592-.67 1.014-2.04 2.738-3.8 4.212-5.279 4.42a2.457 2.457 0 0 1-1.405-.19Zm1.5-3.146c.376-.006 1.034-.523 1.973-1.551.102-.109.214-.23.337-.366.119-.158.25-.318.392-.48a21.659 21.659 0 0 0 1.304-1.527c.317-.421.625-.913.923-1.473l.586-1.355c-.303-.476-.558-.782-.766-.917-.21-.16-.408-.226-.593-.2-.462.066-.981.563-1.557 1.493-.579.906-1.236 2.26-1.971 4.06-.196.452-.342.92-.438 1.405-.1.462-.163.766-.19.911Zm22.428-.198c-.505.095-.978-.085-1.42-.542a2.867 2.867 0 0 1-.75-1.555 1.968 1.968 0 0 1 .006-.46c.03-.287.06-.657.09-1.109.082-1.095.185-1.864.311-2.306.263-1.145.357-1.983.282-2.514-.059-.416-.2-.667-.425-.753-.3-.123-.818-.203-1.553-.24-.74-.06-1.339-.047-1.797.041a11.88 11.88 0 0 1-.066.787c-.043.36-.095.662-.155.906-.07.34-.148.87-.235 1.588l-.216 1.728c-.08.435-.16 1.035-.24 1.8-.05.314-.137.786-.26 1.416a.906.906 0 0 0 .005.282c.058.416-.002.743-.18.98a2.138 2.138 0 0 1-.63.548c-.238.152-.4.257-.485.316l-.46-.005a2.82 2.82 0 0 1-.801-.665 9.247 9.247 0 0 0-.544-.595c.034-.759.103-1.605.207-2.539.104-.933.229-1.552.374-1.855a2.15 2.15 0 0 0 .02-.357c.024-.168.056-.36.096-.579.084-1.072.174-1.85.27-2.335.117-.512.158-1.224.123-2.139l.001-.742c.063-.056.21-.183.441-.38a1.99 1.99 0 0 1 .793-.395l.03-.287c.5-.471 1.165-.765 1.996-.883a4.29 4.29 0 0 1 1.564.062c.317-.092.847-.013 1.589.235.765.246 1.317.486 1.657.72 1.025.751 1.632 1.797 1.821 3.137.13.924.06 2.254-.214 3.989-.117.676-.155 1.153-.116 1.43.026.185.085.354.177.505.112.126.278.303.5.53a3.693 3.693 0 0 1-.374 1.114c-.185.356-.417.554-.694.593-.066.033-.17.13-.312.291-.145.139-.288.218-.426.237Zm9.596-1.143c-.224.08-.429.132-.614.158-.3.042-.58.058-.841.048-.264-.034-.403-.097-.416-.189-.01-.07-.028-.114-.054-.134-.026-.02-.074-.025-.144-.015-.079-.06-.257-.152-.534-.278a2.757 2.757 0 0 0-.643-.298 2.2 2.2 0 0 1-.597-1.223c-.062-.44-.022-1.164.118-2.173-.104-.904.077-1.955.544-3.152a16.256 16.256 0 0 1 1.882-3.447c.764-1.098 1.475-1.905 2.132-2.422.298-.396.759-.637 1.382-.726.486-.068.928-.024 1.327.131.326.143.751.483 1.275 1.022.547.536.97 1.03 1.27 1.482.069.155.158.367.266.634.132.264.225.593.28.986l.068.98c-.143.986-.161 1.86-.053 2.623-.001.33.06.592.181.787.119.172.259.247.42.224a.87.87 0 0 0 .367-.158 1.1 1.1 0 0 1 .47-.173c.301-.042.568.015.802.17a.897.897 0 0 1 .41.65 1.35 1.35 0 0 1-.08.682c-.143.492-.477.963-1.002 1.414-.503.448-.996.706-1.481.775-.393.055-.804-.099-1.232-.462-.406-.367-.76-.871-1.062-1.512l-.32-.768-1.087 1.32-.684.91c-.318.422-.495.67-.531.746-.09.201-.273.404-.55.608-.255.201-.678.461-1.269.78Zm.466-3.459c.383-.29.69-.627.918-1.013.25-.389.552-.926.903-1.612l.219-.455c.069-.175.162-.353.278-.534.317-.587.534-1.054.65-1.4.14-.35.23-.716.27-1.098a2.838 2.838 0 0 0-.534-.774c-.2-.254-.372-.383-.514-.386-.647.09-1.417.977-2.311 2.659-.093.178-.237.493-.432.945-.173.448-.284.746-.333.895-.093.178-.2.594-.32 1.247-.1.627-.136 1.032-.11 1.217.072.508.258.741.558.699.231-.033.484-.163.758-.39Z"/><path fill="#fff" d="m5.102 36.478.988-1.738-.138-.078-.148-.056-.702 1.872Zm-.609-.302L3.122 37.63l.08.076.089.067 1.202-1.598Zm-.062-1.44-1.91-.596-.006.023-.007.023 1.923.55Zm.751-2.192 1.884.673.017-.049.015-.048-1.916-.576Zm.572-1.707-1.883-.672-.003.007-.002.006 1.888.659Zm.898-4.404 1.98-.28-.065-.467-.268-.389-1.647 1.136Zm.403-.905 1.135 1.646.268-.184.195-.26-1.598-1.202Zm.644-.692-1.4-1.428-.018.018-.018.018 1.436 1.392Zm.883-1.256 1.836.794.056-.128.037-.135-1.929-.53Zm.821-2.449 1.867.718.004-.011.004-.011-1.875-.696Zm1.804-4.496 1.848.766.013-.032.012-.031-1.873-.703Zm2.757-6.01 1.745.977.015-.027.014-.026-1.774-.924Zm.655-.87-1.276-1.54-.028.024-.027.024 1.33 1.492Zm3.024.139-.965 1.752.013.007.013.007.939-1.766Zm1.725 1.453-1.72 1.02.063.107.076.098 1.58-1.225Zm.557 4.693 2 .025v-.058l-.003-.059-1.997.092Zm.062 1.44-1.996.139.001.009 1.995-.147Zm.158 3.372-2 .046v.02l.001.018 1.998-.084Zm.301 6.143 1.997-.122-1.997.122Zm.64 5.53 1.98-.28-.01-.076-.017-.075-1.953.43Zm.034.242 1.99-.193-.003-.043-.006-.043-1.98.28Zm.078.802 1.598 1.203.468-.622-.075-.774-1.991.193Zm-2.223.279.39-1.962-.044-.008-.045-.007-.3 1.977Zm-.836-.412 1.873-.703-.205-.545-.465-.35-1.203 1.598Zm-.113-.055-.636 1.896.636-1.896Zm-.114-.302-1.99.19.003.045.007.045 1.98-.28Zm-.073-.767-1.992.173v.008l.001.008 1.991-.19Zm-.17-1.956 1.993-.173-.002-.02-.003-.022-1.988.215Zm-.575-5.327 1.988-.215-.24-2.218-2.18.48.432 1.953Zm-.446.099.28 1.98.076-.01.075-.017-.431-1.953Zm-2.907.693-.52-1.931h-.003l.523 1.93Zm-2.743.847.28 1.98.285-.04.262-.12-.827-1.82Zm-.704.523 1.549 1.266-1.549-1.266Zm-.645 1.187-1.883-.675-.065.183-.03.19 1.978.302Zm-.344 1.074 1.836.794.01-.022.008-.022-1.854-.75Zm-.278.781 1.331 1.493.799-.712-.15-1.06-1.98.28Zm-.327.435-1.774-.923-.015.028-.014.03 1.803.865Zm-.135.302-1.896-.636-.15.448.066.468 1.98-.28Zm-.414 2.073-1.927-.533-.003.01-.003.01 1.933.513Zm-.955 2.75 1.777.92.017-.034.016-.034-1.81-.851Zm-.75 1.45-.987 1.739 1.808 1.028.956-1.848-1.776-.92Zm5.255-13.856-1.019 1.721.745.441.831-.24-.557-1.922Zm.95-.276.558 1.921.044-.012.044-.015-.645-1.893Zm1.259-.354.402 1.96.18-.038.17-.068-.752-1.854Zm2.723-.738 1.417-1.412-.334-.334-.447-.15-.636 1.896Zm.238.179L16.005 24l.312.15.345.036.209-1.99Zm.178.01.28 1.98 1.546-.218.163-1.553-1.99-.21Zm.02-3.856 2-.005-2 .005Zm-.288-5.297-1.95.444.002.007.002.007 1.946-.458Zm-.142-.51 1.79-.891-.643-1.29-1.427.201.28 1.98Zm-1.186 1.864 1.794.884.004-.009.005-.009-1.803-.866Zm-1.625 4.012 1.864.725.017-.044.015-.045-1.896-.636ZM12.919 20l-.28-1.98-.82.115-.498.662L12.919 20ZM5.804 34.606a1.87 1.87 0 0 1-.168-.07l-.004-.002a.749.749 0 0 1 .064.044L3.29 37.773c.358.27.77.45 1.108.577l1.405-3.745Zm.061.114c.297.28.385.595.406.745l-3.96.56a2.7 2.7 0 0 0 .81 1.606l2.744-2.91Zm.406.745c.01.072.01.12.01.136 0 .018-.002.017.002-.007.007-.05.026-.15.072-.31l-3.847-1.098c-.143.5-.291 1.174-.197 1.838l3.96-.559Zm.07-.135a61.32 61.32 0 0 1 .725-2.113L3.299 31.87a64.517 64.517 0 0 0-.777 2.269l3.819 1.19Zm.757-2.21c.082-.274.259-.805.545-1.625l-3.777-1.317a50.584 50.584 0 0 0-.599 1.79l3.83 1.152Zm.54-1.611c.382-1.071.67-2.043.845-2.9.17-.832.26-1.68.15-2.456l-3.961.56c.018.125.021.462-.108 1.097-.125.611-.35 1.391-.693 2.355l3.767 1.344Zm.66-6.212c.131.19.194.359.224.452.03.098.042.17.047.201l-3.961.56c.027.193.103.631.398 1.059L8.3 25.297Zm.27.653a1.51 1.51 0 0 1-.222 1.038c-.114.172-.21.224-.156.186l-2.27-3.292c-.46.317-1.514 1.187-1.311 2.628l3.96-.56Zm.085.78c-.036.048-.056.068-.027.036l.098-.107c.095-.102.23-.244.412-.432l-2.873-2.783c-.322.332-.652.676-.806.881l3.196 2.405Zm.446-.466a5.958 5.958 0 0 0 1.319-1.89l-3.671-1.588a1.972 1.972 0 0 1-.448.621l2.8 2.857Zm1.412-2.153c.181-.659.432-1.412.759-2.262l-3.734-1.435a28.545 28.545 0 0 0-.882 2.635l3.857 1.062Zm.767-2.284c.327-.882.916-2.35 1.777-4.426L9.36 15.869c-.862 2.079-1.476 3.608-1.832 4.567l3.75 1.391Zm1.802-4.49c.79-2.106 1.668-4.017 2.63-5.735l-3.492-1.953c-1.07 1.915-2.03 4.01-2.883 6.283l3.745 1.406Zm2.658-5.788a1.06 1.06 0 0 1 .212-.301l-2.662-2.985a5.006 5.006 0 0 0-1.098 1.439l3.548 1.847Zm.157-.254c.062-.051.079-.056.05-.04a.996.996 0 0 1-.323.096l-.56-3.96c-.748.105-1.336.506-1.72.824l2.553 3.08Zm-.273.056c.177-.025.507-.007 1.056.295l1.93-3.504c-1.087-.598-2.29-.93-3.546-.752l.56 3.96Zm1.082.309c.685.364.9.632.944.707l3.44-2.04c-.574-.969-1.51-1.67-2.507-2.2l-1.877 3.533Zm1.083.912a1.468 1.468 0 0 1-.173-.287c-.019-.042-.021-.058-.014-.033a4.984 4.984 0 0 1 .073.394l3.96-.559a7.139 7.139 0 0 0-.181-.912c-.067-.24-.203-.666-.503-1.053l-3.162 2.45Zm-.114.075c.087.613.174 1.753.254 3.485l3.995-.184c-.08-1.733-.173-3.041-.288-3.86l-3.961.559Zm.252 3.368c-.005.394.02.942.066 1.604l3.99-.276a18.092 18.092 0 0 1-.057-1.278l-4-.05Zm.067 1.613c.075 1.012.126 2.101.153 3.27l3.999-.093a69.042 69.042 0 0 0-.163-3.472l-3.989.295Zm.154 3.308c.112 2.628.213 4.69.304 6.181l3.993-.244a348.317 348.317 0 0 1-.3-6.106l-3.997.17Zm.304 6.181c.093 1.517.232 2.941.42 4.271l3.96-.559a50.34 50.34 0 0 1-.387-3.956l-3.993.244Zm.42 4.271c.092.654.18 1.19.263 1.567l3.906-.86a19.3 19.3 0 0 1-.208-1.266l-3.96.56Zm.235 1.416.035.243 3.96-.56-.034-.242-3.96.56Zm.024.157.078.802 3.982-.387-.078-.802-3.982.387Zm.47-.594c.237-.314.5-.428.558-.451.069-.028.071-.018-.041-.002l.56 3.961a4.22 4.22 0 0 0 .984-.252 2.652 2.652 0 0 0 1.136-.851L19.6 32.367Zm.517-.453a2.216 2.216 0 0 1-.75-.028l-.781 3.924a6.216 6.216 0 0 0 2.09.065l-.559-3.96Zm-.84-.043c-.14-.021-.105-.033.014.025.115.057.515.287.722.837l-3.745 1.405c.282.752.86 1.151 1.253 1.346a3.98 3.98 0 0 0 1.154.341l.602-3.954Zm.066-.033a2.393 2.393 0 0 0-.681-.353l-1.271 3.792a1.717 1.717 0 0 1-.453-.244l2.405-3.195Zm-.681-.353c.502.168.796.488.934.674.14.188.21.356.238.432.056.15.065.245.06.208l-3.961.56c.02.148.061.386.155.637.048.126.137.333.299.55.16.216.477.555 1.004.731l1.271-3.792Zm1.242 1.404-.073-.767-3.982.38.073.766 3.982-.379Zm-.071-.75-.17-1.956-3.985.346.17 1.956 3.985-.347Zm-.175-1.998-.575-5.326-3.977.43.576 5.326 3.976-.43Zm-2.994-7.065-.446.098.862 3.907.445-.099-.861-3.906Zm-.295.071c-.606.086-1.698.353-3.146.743l1.039 3.862c1.503-.404 2.349-.6 2.667-.644l-.56-3.96Zm-3.15.743c-1.404.38-2.492.705-3.047.957l1.654 3.642c.198-.09.938-.331 2.44-.738l-1.047-3.86Zm-2.5.797c-1.006.142-1.66.855-1.973 1.239l3.098 2.53c.066-.08.073-.072.017-.03-.052.038-.25.175-.582.222l-.56-3.96Zm-1.973 1.239a5.973 5.973 0 0 0-.979 1.777l3.765 1.35a2.01 2.01 0 0 1 .312-.596l-3.098-2.531Zm-1.073 2.15c.003-.023-.001.016-.042.142a7.075 7.075 0 0 1-.178.483l3.707 1.5c.202-.496.393-1.036.467-1.522l-3.954-.602Zm-.202.582c-.104.24-.196.465-.265.657a3.787 3.787 0 0 0-.106.342c-.008.033-.115.409-.052.856l3.96-.56a1.912 1.912 0 0 1 .003.514 1.513 1.513 0 0 1-.032.167c-.011.046-.018.06-.005.023.025-.069.077-.2.168-.411L7.47 28.658Zm.226.083a3.502 3.502 0 0 0-.77 1.004l3.548 1.847c.002-.004-.03.057-.116.134l-2.662-2.985Zm-.8 1.061c-.06.127-.163.343-.227.532l3.793 1.272a1.524 1.524 0 0 1-.019.052l-.008.022.004-.01.063-.136-3.605-1.732Zm-.31 1.448c-.027-.185-.007-.29-.015-.222a3.49 3.49 0 0 1-.043.26 19.2 19.2 0 0 1-.304 1.222l3.855 1.067c.162-.585.288-1.092.371-1.506.062-.308.168-.867.096-1.38l-3.96.559Zm-.368 1.28c-.273 1.03-.554 1.823-.831 2.413l3.62 1.702c.41-.875.766-1.914 1.078-3.089l-3.867-1.025Zm-.798 2.345-.75 1.449 3.553 1.838.75-1.449-3.553-1.838Zm2.015.63L6.09 34.74l-1.977 3.477 1.346.765 1.976-3.478Zm4.823-10.197.95-.276-1.113-3.841-.95.275 1.113 3.842Zm1.04-.303a8.598 8.598 0 0 1 1.014-.289l-.805-3.918c-.47.097-.973.24-1.5.42l1.29 3.787Zm1.363-.394c.512-.208.922-.36 1.238-.466a6.323 6.323 0 0 1 .483-.14l.036-.006-.56-3.961c-.694.098-1.655.442-2.7.866l1.503 3.707Zm1.757-.612c.057-.008.056-.005.014-.005a1.555 1.555 0 0 1-.434-.079l1.27-3.792c-.581-.195-1.161-.12-1.41-.085l.56 3.96Zm-1.201-.568c.185.186.445.405.788.57l1.731-3.606c.191.091.293.192.314.212l-2.833 2.824Zm1.444.756c.063.006.137.013.212.017.02.002.224.017.455-.016l-.559-3.96a1.84 1.84 0 0 1 .332-.017c.015 0 .012.001-.021-.002l-.418 3.978Zm2.377-1.77c.023-.223.028-.731.031-1.306.004-.65.004-1.573 0-2.764l-4 .01c.004 1.188.004 2.098 0 2.733-.004.71-.013.94-.01.909l3.979.418Zm.032-4.07c-.006-2.318-.042-3.94-.142-4.64l-3.96.559c.05.361.096 1.65.102 4.091l4-.01Zm-.142-4.64c-.057-.406-.122-.78-.2-1.11l-3.894.916c.041.173.087.42.134.753l3.96-.56Zm-.196-1.095a8.618 8.618 0 0 0-.107-.428c-.024-.086-.086-.31-.196-.53l-3.58 1.783a1.8 1.8 0 0 1-.076-.177l-.004-.013.004.014a3.193 3.193 0 0 1 .058.238l3.9-.887Zm-2.373-2.047a2.203 2.203 0 0 0-.95.378c-.188.13-.33.27-.428.376a4.503 4.503 0 0 0-.482.64c-.262.412-.547.955-.85 1.585l3.607 1.731c.28-.583.484-.958.618-1.168.07-.11.083-.115.04-.069a1.332 1.332 0 0 1-.22.188 1.803 1.803 0 0 1-.776.3l-.559-3.961Zm-2.7 2.961a34.424 34.424 0 0 0-1.728 4.26l3.793 1.27a30.457 30.457 0 0 1 1.523-3.763l-3.589-1.767Zm-1.695 4.17c-.187.48-.319.756-.395.888-.04.07-.026.03.052-.055a1.5 1.5 0 0 1 .276-.232 1.79 1.79 0 0 1 .743-.279l.559 3.96c.754-.106 1.21-.572 1.366-.74.205-.224.36-.466.47-.658.227-.394.445-.89.657-1.434l-3.728-1.45Zm-.643 1.1c-.22.293-.404.684-.528.955-.153.336-.334.766-.54 1.278l3.713 1.49c.195-.487.35-.853.466-1.108.059-.129.101-.214.128-.266.037-.07.02-.028-.043.056l-3.196-2.405Zm-1.068 2.233a11.782 11.782 0 0 0-.485 1.407c-.047.186-.11.47-.114.783-.001.155.008.427.11.737.105.324.357.82.918 1.152l2.038-3.442c.529.313.757.776.847 1.052.085.262.088.472.087.55-.002.16-.03.233-.008.15a8.26 8.26 0 0 1 .32-.899l-3.713-1.49Zm25.05-1.151-1.967-.361-.011.06-.007.06 1.985.24ZM35 20.98l1.842.78-1.843-.78Zm-.314.786-1.896-.635-.009.026-.008.025 1.913.584Zm-.263.886 1.896.636.014-.043.013-.044-1.923-.549Zm-.14.515-1.967-.361-.326 1.777 1.735.504.558-1.92Zm.84 1.437 1.762.945.28-.522-.05-.59-1.993.167Zm-.308.573.908 1.782.558-.284.296-.552-1.762-.946Zm-1.056.538-.908-1.782-.983.501-.1 1.1 1.991.18Zm-.066 1.034-2-.05v.055l.001.055 2-.06Zm-.17 1.792-1.975-.324-.007.047-.006.048 1.987.229Zm-.096.826 1.973.324.008-.047.005-.047-1.986-.23Zm-.348.792-1.287-1.531-.047.04-.045.042 1.379 1.449Zm-.723.385-.361 1.967.522.096.501-.176-.662-1.887Zm-.619-.125.414-1.957-.414 1.957Zm-.589-.164.78-1.842-.78 1.842Zm-.385-.229-1.493 1.331.132.148.158.12 1.203-1.599Zm-.22-1.807-1.975-.315-.003.015-.002.014 1.98.286Zm.3-2.128 1.99.21.322-3.066-2.931.955.62 1.901Zm-.574.188.41 1.957.107-.022.102-.034-.62-1.902Zm-.783.216.523 1.93.117-.031.112-.046-.752-1.853Zm-.406.128-.751-1.853-.204.082-.18.125 1.135 1.646Zm-2.317.363.114-1.997-1.66-.095-.396 1.616 1.942.476Zm-.105.51 1.953.433.008-.036.007-.037-1.968-.36Zm-.14.761-1.974-.315-.003.014 1.978.301Zm-.07 1 2 .014v-.148l-.02-.146-1.98.28Zm-.007.955 1.99.21.01-.098v-.098l-2-.014Zm-.006.956-1.999.07.002.058.005.057 1.992-.185Zm-.19 1.158-1.71-1.038-.022.036-.02.037 1.752.965Zm-2.722-.252-1.828.813.211.473.414.312 1.203-1.598Zm-.207-.466-1.996-.13-.032.493.2.45 1.828-.813Zm.177-2.747-1.967-.36-.02.114-.009.117 1.996.13Zm.075-.47-1.98-.275 1.98.275Zm.03-.534-1.974-.316-.028.173.003.174 2-.031Zm.151-.94-1.96-.4-.008.042-.007.042 1.975.315Zm.23-1.129 1.96.399.003-.019.004-.019-1.968-.36Zm.503-2.192 1.896.636.06-.177.025-.184-1.981-.275Zm.195-1.123-1.938-.495-.013.05-.01.05 1.96.395Zm.229-.88-1.803-.867-.08.166-.047.177 1.93.523Zm.25-1.238 1.97.342.002-.009.001-.009-1.974-.324Zm.274-1.559-1.942-.475-.008.03-.006.032 1.956.413Zm.907-.835.28 1.98.047-.006.047-.009-.374-1.965Zm1.341.235-1.031 1.714.033.02.034.018.964-1.752Zm.741.992 1.98-.28-.007-.052-.01-.052-1.963.384Zm.034.49 2-.06-.001-.01v-.012l-1.999.081Zm-.045.43-1.803-.866-.088.184-.05.198 1.94.484Zm-1.061 4.25-1.94-.484-.814 3.255 3.25-.833-.496-1.938Zm.747-.211.578 1.914.07-.021.07-.027-.718-1.866Zm.644-.197.28 1.98.21-.03.198-.073-.688-1.877Zm2.357-.333-.21 1.989 1.447.152.59-1.329-1.827-.812Zm.274-1.064 1.967.361.019-.101.008-.103-1.994-.157Zm.184-.945 1.938.495.023-.089.014-.09-1.975-.316Zm.518-1.84 1.852.756.078-.192.037-.203-1.967-.361Zm.03-.287 1.997.114.002-.032v-.033l-1.999-.05Zm.344-1.074-1.136-1.646-.503.346-.223.569 1.862.731Zm2.207-.135-1.142 1.641.028.02.029.019 1.085-1.68Zm-1.334 1.365a2.11 2.11 0 0 1-.16.564l3.684 1.558a6.088 6.088 0 0 0 .447-1.642l-3.971-.48Zm-.16.564c-.158.372-.29.7-.368.93l3.793 1.271c.022-.066.098-.263.259-.643l-3.684-1.558Zm-.385.981c-.114.375-.206.683-.274.921l3.847 1.098c.058-.204.142-.486.253-.85l-3.825-1.169Zm-.247.835a5.802 5.802 0 0 0-.21.789l3.934.722c.005-.023.021-.099.069-.24l-3.793-1.271Zm1.2 3.07a1.067 1.067 0 0 1-.37-.193.942.942 0 0 1-.221-.253c-.065-.11-.026-.111-.006.129l3.986-.333c-.09-1.078-.556-2.692-2.274-3.191l-1.116 3.841Zm-.366-1.43-.308.575 3.525 1.89.308-.573-3.525-1.891Zm.546-.262-1.055.538 1.816 3.564 1.056-.538-1.817-3.564Zm-2.138 2.139c-.04.432-.066.823-.074 1.166l3.999.1c.005-.226.024-.525.058-.904l-3.983-.362Zm-.074 1.275c.007.228-.025.675-.145 1.408l3.947.648c.133-.811.215-1.559.196-2.175l-3.998.119Zm-.159 1.503-.095.826 3.973.459.096-.827-3.974-.458Zm-.082.732c-.013.082-.02.071.008.006a1.2 1.2 0 0 1 .331-.422l2.574 3.062c.727-.611.948-1.47 1.034-1.999l-3.947-.648Zm.247-.334a.97.97 0 0 1 .116-.096c.024-.016.037-.023.034-.02-.004 0-.017.008-.045.02a1.896 1.896 0 0 1-.112.043l1.325 3.774c.428-.15.987-.393 1.44-.823L31.7 28.71Zm1.017-.133a23.525 23.525 0 0 1-.566-.115l-.828 3.914c.273.057.5.103.672.135l.722-3.934Zm-.566-.115a3.768 3.768 0 0 1-.26-.064c-.003 0 .01.004.037.015l-1.559 3.684c.31.13.66.216.954.279l.828-3.914Zm-.224-.05a.351.351 0 0 1 .05.025l-.012-.009-2.405 3.196c.236.178.506.344.81.473l1.557-3.684Zm.328.283a.842.842 0 0 1 .187.423l-3.96.559c.092.654.38 1.223.788 1.68l2.985-2.662Zm.187.422c.01.068.008.101.008.082 0-.015 0-.051.005-.115.01-.129.03-.318.067-.579l-3.959-.572c-.078.544-.157 1.211-.082 1.744l3.961-.56Zm.076-.583c.151-.948.258-1.7.314-2.234l-3.978-.418a40.83 40.83 0 0 1-.286 2.022l3.95.63Zm-2.294-4.344-.575.187 1.24 3.803.574-.187-1.24-3.803Zm-.366.131a6.78 6.78 0 0 0-1.123.32l1.503 3.707c-.004.002.028-.01.111-.034.08-.022.189-.048.33-.078l-.82-3.915Zm-.895.244c-.2.054-.43.122-.634.205l1.503 3.706c-.022.01-.02.008.018-.005l.16-.046-1.047-3.86Zm-1.018.412a1.332 1.332 0 0 1 .219-.122c.026-.01.027-.01-.008 0a2.336 2.336 0 0 1-.163.037 5.79 5.79 0 0 1-.282.046l.56 3.96a7.56 7.56 0 0 0 .931-.182 3.304 3.304 0 0 0 1.014-.447l-2.271-3.292Zm-.234-.04a4.361 4.361 0 0 1-.834.052l-.228 3.993c.52.03 1.066-.005 1.621-.083l-.559-3.961Zm-2.89 1.573a11.25 11.25 0 0 0-.13.624l3.935.722c.037-.203.064-.329.08-.395l-3.885-.951Zm-.115.552c-.055.25-.11.547-.162.88l3.95.63c.047-.294.086-.504.117-.643l-3.905-.867Zm-.165.894c-.07.461-.146 1.068-.074 1.58l3.961-.559a1.021 1.021 0 0 1 .01.103v.001-.019l.003-.052c.007-.095.023-.242.055-.451l-3.954-.603Zm-.093 1.287-.007.956 4 .027.007-.955-4-.028Zm.004.76a9.497 9.497 0 0 0-.016 1.235l3.997-.141a11.899 11.899 0 0 1-.005-.63l.002-.046-3.978-.418Zm-.009 1.35c.005.056.006.095.006.12 0 .026-.003.034-.001.027a.638.638 0 0 1 .087-.212l3.42 2.075c.478-.788.538-1.66.471-2.38l-3.983.37Zm.05.008a1.053 1.053 0 0 1 .734-.487l.559 3.96c.997-.14 1.764-.732 2.21-1.544l-3.503-1.929Zm.734-.487c.17-.024.227.023.117-.02-.111-.044-.315-.15-.619-.378l-2.405 3.196c.892.67 2.112 1.353 3.466 1.162l-.56-3.96Zm.123.387-.207-.466-3.655 1.626.207.466 3.655-1.626Zm-.039.476.178-2.747-3.992-.258-.177 2.747 3.991.258Zm.15-2.515c.032-.177.062-.363.088-.556l-3.962-.55c-.02.144-.04.271-.06.384l3.933.722Zm.088-.556c.04-.28.054-.561.05-.841l-4 .063a1.5 1.5 0 0 1-.012.228l3.962.55Zm.025-.494.15-.94-3.95-.63-.15.94 3.95.63Zm.135-.857.23-1.128-3.92-.797-.23 1.128 3.92.797Zm.237-1.166c.184-1.006.331-1.617.432-1.917l-3.792-1.271c-.198.59-.386 1.44-.575 2.466l3.935.722Zm.517-2.278c.04-.288.097-.621.174-1.003l-3.92-.79c-.09.443-.163.858-.216 1.243l3.962.55Zm.151-.903a72 72 0 0 1 .222-.853l-3.86-1.046c-.051.187-.13.493-.237.909l3.875.99Zm.095-.51c.114-.238.169-.483.176-.51.024-.1.048-.212.071-.326.047-.233.104-.544.17-.925l-3.941-.684c-.064.369-.114.638-.15.818a4.38 4.38 0 0 1-.036.165c-.002.012 0 .001.008-.024a1.82 1.82 0 0 1 .097-.246l3.605 1.732Zm.42-1.779c.128-.778.212-1.253.258-1.468l-3.913-.828a43.62 43.62 0 0 0-.292 1.648l3.947.648Zm.244-1.407a.907.907 0 0 1-.272.421.952.952 0 0 1-.484.249l-.56-3.96a3.064 3.064 0 0 0-1.665.768 3.11 3.11 0 0 0-.904 1.57l3.885.952Zm-.662.654c.013-.002.016-.002.01-.002a.2.2 0 0 1-.069-.013c-.009-.003-.011-.005-.005-.001l2.063-3.427a3.846 3.846 0 0 0-2.746-.486l.747 3.93Zm.003.022a.616.616 0 0 1-.258-.378l3.926-.766c-.205-1.05-.842-1.866-1.74-2.36l-1.928 3.504Zm-.275-.48c-.003-.024-.001-.015.003.05l.013.24 3.996-.162a7.472 7.472 0 0 0-.051-.688l-3.961.56Zm.015.269c.002.053-.002.045.003-.002a1.665 1.665 0 0 1 .148-.492l3.606 1.73c.164-.34.208-.66.225-.82.02-.192.02-.377.016-.535l-3.998.119Zm.013-.113-1.06 4.25 3.88.969 1.061-4.25-3.88-.97Zm1.376 6.672c.241-.062.52-.141.829-.235l-1.155-3.83c-.278.085-.498.147-.667.19l.993 3.875Zm.97-.283a3.85 3.85 0 0 1 .245-.087l.031-.009c-.001 0-.027.007-.071.013l-.56-3.96c-.381.053-.778.193-1.081.31l1.435 3.733Zm.614-.186c.135-.05.385-.115.79-.172l-.56-3.961a7.94 7.94 0 0 0-1.607.378l1.377 3.755Zm.79-.172c.418-.06.618-.054.669-.05l.418-3.977c-.524-.055-1.096-.012-1.647.066l.56 3.96Zm2.705-1.226c.196-.439.32-1.003.414-1.515l-3.934-.722a7.727 7.727 0 0 1-.108.51c-.034.13-.047.148-.027.102l3.655 1.625Zm.44-1.72.006-.043.022-.126a8 8 0 0 1 .101-.436l-3.875-.991c-.113.44-.21.891-.241 1.284l3.988.313Zm.166-.786a6.32 6.32 0 0 1 .395-1.4l-3.703-1.512c-.302.74-.517 1.5-.642 2.282l3.95.63Zm.51-1.794c.035-.188.051-.376.06-.534l-3.993-.229a1.588 1.588 0 0 1-.005.066v.002l.004-.027 3.934.721Zm.063-.599a1.53 1.53 0 0 1-.018.202.443.443 0 0 1-.012.061c0 .005.005-.018.024-.078.038-.12.106-.308.211-.577l-3.723-1.462c-.12.305-.222.583-.298.82-.05.157-.173.54-.183.935l3.999.1Zm-.52.523a1.05 1.05 0 0 1 .159-.094c.021-.01.003.002-.05.01l-.56-3.961c-.7.099-1.313.402-1.821.753l2.271 3.292Zm.11-.085c.012-.002-.016.004-.07-.009a.339.339 0 0 1-.111-.046l2.285-3.283a3.684 3.684 0 0 0-2.664-.622l.56 3.96Zm-.124-.016a.583.583 0 0 1-.218-.364l3.96-.56c-.147-1.042-.72-1.886-1.57-2.436l-2.172 3.36Zm-.218-.365a.597.597 0 0 1-.007-.106c0-.01 0 .001-.006.035l3.934.722c.066-.36.1-.775.04-1.21l-3.962.56ZM38.31 29.88l-1.646 1.135.31.45.495.23.841-1.815Zm-.667-.472.923-1.774-.923 1.774Zm-.771-.704-1.647 1.136.09.13.108.113 1.449-1.379Zm-.346-.446 1.492-1.331-.131-.148-.159-.119-1.202 1.598Zm.127-1.856-1.93-.528 1.93.528Zm1.258-3.854-1.598-1.202-.179.237-.102.28 1.88.685Zm.417-.8-1.803-.867-.02.043-.019.044 1.842.78Zm.368-.654 1.33 1.493.8-.712-.15-1.06-1.98.28Zm.07-.257 1.597 1.203.086-.114.068-.124-1.752-.965Zm.222-.173.28 1.98 1.224-.172.393-1.172-1.897-.636Zm.2-.593 1.896.635.014-.043.013-.044-1.924-.548Zm1.14-1.681-1.58-1.226 1.58 1.226Zm1.681-1.864 1.26 1.554.046-.037.044-.04-1.35-1.477Zm2.847-.366 1.072-1.69-.015-.008-.014-.009-1.043 1.707Zm1.048.665-1.07 1.688.008.006.01.006 1.052-1.7Zm1.32.838-1.202 1.598.046.035.047.031 1.11-1.664Zm1.444.963 1.965.373.247-1.302-1.102-.735-1.11 1.664Zm-.344 1.816-1.965-.373-.002.012 1.967.36Zm1.013 4.17 1.687-1.075-.075-.118-.092-.107-1.52 1.3Zm.533.525-.964 1.752.049.026.05.024.865-1.802Zm.837.164.079-1.998-.038-.002h-.038l-.003 2Zm.754 1.838-1.766-.939 1.766.939Zm-.59.578.523 1.93.138-.037.13-.056-.79-1.837Zm-4.368-1.645 1.646-1.136-.07-.103-.083-.093-1.493 1.332Zm-.489-.709-1.756.957.026.047.028.046 1.702-1.05Zm-.35-.728 1.907-.601-1.471-4.668-2.219 4.362 1.783.907Zm-.67 1.014-1.598-1.203-.006.008 1.604 1.195Zm-5.184 1.085-1.967-.361-.44 2.4 2.439-.04-.032-1.999Zm1.973-1.551-1.456-1.372-.01.012-.011.011 1.477 1.349Zm.337-.366 1.482 1.342.061-.067.055-.072-1.598-1.203Zm.392-.48-1.474-1.352-.014.015-.014.016 1.502 1.322Zm1.304-1.527 1.598 1.203-1.598-1.203Zm.923-1.473 1.766.938.038-.07.032-.074-1.836-.794Zm.586-1.355 1.836.794.42-.974-.569-.895-1.687 1.075Zm-.766-.917-1.202 1.598.053.04.056.036 1.093-1.674Zm-2.15 1.293 1.686 1.076.007-.011.008-.012-1.7-1.053Zm-1.971 4.06 1.835.794.008-.018.008-.02-1.852-.756ZM40 25.825l1.955.423.003-.016.003-.016-1.961-.39Zm-.044 2.92a2.916 2.916 0 0 0-.726-.712 5.91 5.91 0 0 0-.664-.397l-1.847 3.548a3.023 3.023 0 0 1 .204.117c.005.003-.019-.013-.057-.048a1.489 1.489 0 0 1-.202-.235l3.292-2.272Zm-1.39-1.109a7.256 7.256 0 0 1-.231-.126l-.014-.008-.005-.003.007.004.02.014c.016.012.052.038.1.08a1.923 1.923 0 0 1 .436.558c.07.135.16.35.2.628l-3.96.56a2.046 2.046 0 0 0 .711 1.282c.13.112.257.196.333.245.166.106.362.213.556.314l1.847-3.548Zm.513 1.147c-.108-.769-.598-1.287-.758-1.456l-2.898 2.758c.014.015-.024-.022-.078-.107a1.602 1.602 0 0 1-.227-.636l3.961-.559Zm-.561-1.213a6.564 6.564 0 0 0-.5-.641l-2.985 2.662c.046.051.11.132.192.25l3.293-2.27Zm-.79-.908c.484.364.61.826.642.969.034.16.02.242.025.182.007-.11.05-.385.187-.88l-3.858-1.057c-.16.583-.285 1.157-.32 1.665-.017.25-.02.584.057.938.073.336.273.936.862 1.38l2.405-3.197Zm.854.27c.276-1.008.676-2.238 1.208-3.697l-3.758-1.37c-.555 1.523-.994 2.863-1.308 4.01l3.858 1.058Zm.927-3.18c.275-.364.49-.821.661-1.224l-3.684-1.558a4.824 4.824 0 0 1-.155.338c-.042.08-.05.081-.018.04l3.196 2.405Zm.622-1.137a10.065 10.065 0 0 1 .169-.333l.007-.013a.06.06 0 0 1-.001.002l-.013.019a1.374 1.374 0 0 1-.14.174c-.03.033-.072.077-.126.125l-2.663-2.985a2.38 2.38 0 0 0-.383.443 3.936 3.936 0 0 0-.167.274c-.092.163-.19.356-.289.562l3.606 1.732Zm.545-1.798a1.67 1.67 0 0 1-.313 1.225l-3.196-2.405a2.335 2.335 0 0 0-.452 1.739l3.961-.56Zm-.159.987a1.624 1.624 0 0 1-.428.496 1.74 1.74 0 0 1-.821.347l-.56-3.961c-.87.123-1.42.688-1.695 1.189l3.504 1.929Zm.368-.502.199-.594-3.793-1.27-.199.593 3.793 1.27Zm.226-.68c-.052.18-.114.273-.078.208.02-.034.063-.105.142-.22.156-.23.396-.557.734-.993l-3.161-2.451c-.36.464-.658.867-.883 1.197a7.358 7.358 0 0 0-.31.493 3.096 3.096 0 0 0-.291.668l3.846 1.097Zm.798-1.005c.682-.88 1.126-1.346 1.36-1.535l-2.518-3.108c-.613.496-1.29 1.273-2.003 2.192l3.16 2.451Zm1.45-1.612a.498.498 0 0 1 .287-.148l-.559-3.96a4.49 4.49 0 0 0-2.427 1.155l2.699 2.953Zm.287-.148a.42.42 0 0 1 .134-.003.089.089 0 0 1 .033.014l2.086-3.413c-.87-.532-1.842-.695-2.812-.558l.56 3.96Zm.139-.007 1.048.665 2.143-3.377-1.048-.665-2.143 3.377Zm1.066.677a95.942 95.942 0 0 1 1.133.712c.069.046.068.047.038.024l2.405-3.196c-.199-.15-.75-.495-1.47-.94l-2.106 3.4Zm1.264.802 1.444.963 2.219-3.328L48.334 16l-2.219 3.328Zm.588-1.074-.344 1.816 3.93.745.344-1.816-3.93-.745Zm-.346 1.828a7.644 7.644 0 0 0-.076 2.452l3.96-.56a3.707 3.707 0 0 1 .05-1.17l-3.934-.722Zm-.076 2.452a6.543 6.543 0 0 0 1.535 3.377l3.041-2.598a2.547 2.547 0 0 1-.615-1.338l-3.96.559Zm1.369 3.152c.294.462.702.899 1.256 1.204l1.929-3.504c.145.08.197.166.189.152l-3.374 2.148Zm1.355 1.255c.566.271 1.158.36 1.698.361l.007-4c-.056 0-.078-.005-.073-.003a.39.39 0 0 1 .1.036l-1.732 3.605Zm1.623.36s-.013 0-.035-.004a.773.773 0 0 1-.104-.024 1.321 1.321 0 0 1-.893-1.037l3.961-.558a2.683 2.683 0 0 0-1.04-1.794c-.583-.44-1.234-.56-1.731-.58l-.158 3.997Zm-1.032-1.064c.01.068.014.118.015.153.002.036 0 .051 0 .05a.7.7 0 0 1 .084-.239l3.532 1.878c.436-.821.428-1.712.33-2.402l-3.96.56Zm.1-.036a.585.585 0 0 1 .106-.135.92.92 0 0 1 .278-.185l1.582 3.674c.739-.318 1.245-.875 1.565-1.476l-3.532-1.88Zm.652-.413c-.169.045-.299.079-.395.101-.107.025-.135.029-.114.026l.56 3.96c.278-.039.642-.13.995-.227l-1.046-3.86Zm-.51.127a1.432 1.432 0 0 1-.817-.108l-1.625 3.655c.955.425 1.97.56 3.002.413l-.56-3.96Zm-.817-.108c-.154-.068-.464-.279-.872-.87l-3.292 2.271c.659.955 1.486 1.786 2.539 2.254l1.625-3.655Zm-1.025-1.066c.024.028.01.015-.053-.075a8.526 8.526 0 0 1-.226-.352l-3.405 2.1c.214.346.457.719.699.99l2.985-2.663Zm-.226-.334a8.296 8.296 0 0 1-.217-.427l.019.055-3.815 1.202c.11.349.322.755.501 1.084l3.512-1.914Zm-3.889-.678c-.049.097-.189.325-.485.718l3.196 2.405c.34-.45.646-.899.855-1.31L43.88 23.73Zm-.49.726c-.968 1.299-1.813 2.22-2.531 2.82-.735.617-1.203.784-1.424.816l.56 3.96c1.257-.177 2.408-.85 3.432-1.709 1.042-.872 2.097-2.058 3.17-3.498l-3.208-2.39Zm-3.955 3.636c-.161.022-.236-.002-.285-.025l-1.682 3.63a4.46 4.46 0 0 0 2.526.355l-.56-3.96Zm.406.644c.516-.008.938-.18 1.206-.316a4.76 4.76 0 0 0 .774-.504c.452-.356.936-.833 1.437-1.382l-2.953-2.698c-.437.479-.752.774-.957.935-.102.08-.135.094-.107.08.01-.005.208-.11.536-.115l.064 4Zm3.396-2.18c.113-.12.235-.252.364-.395l-2.965-2.684c-.115.127-.218.239-.31.336l2.911 2.744Zm.48-.534c.086-.114.183-.234.295-.36l-3.003-2.644a9.917 9.917 0 0 0-.488.599l3.196 2.405Zm.267-.33a23.556 23.556 0 0 0 1.429-1.677l-3.196-2.405c-.24.32-.626.774-1.18 1.377l2.947 2.706Zm1.429-1.677c.391-.52.753-1.103 1.09-1.738l-3.53-1.877a9.191 9.191 0 0 1-.755 1.21l3.196 2.405Zm1.16-1.882.587-1.355-3.672-1.588-.586 1.355 3.672 1.588Zm.438-3.224c-.309-.485-.759-1.125-1.359-1.517l-2.187 3.35a.862.862 0 0 1-.122-.094l.027.032c.056.066.144.185.267.378l3.374-2.148Zm-1.25-1.44c-.457-.345-1.18-.708-2.076-.582l.56 3.961c-.526.074-.854-.157-.89-.183l2.406-3.197Zm-2.076-.582c-.816.116-1.431.567-1.84.959-.426.409-.802.92-1.137 1.461l3.4 2.106c.24-.388.413-.591.505-.68.043-.04.04-.03-.01 0-.053.03-.175.09-.359.115l-.559-3.96Zm-2.962 2.396c-.676 1.059-1.387 2.543-2.138 4.381l3.703 1.513c.72-1.763 1.324-2.986 1.806-3.74l-3.371-2.154Zm-2.122 4.343a8.932 8.932 0 0 0-.564 1.81l3.923.78c.07-.347.173-.68.312-1.002l-3.671-1.588Zm-.557 1.777c-.099.456-.169.79-.202.972l3.934.722c.02-.109.076-.38.178-.85l-3.91-.844Zm24.193 1.135-.28-1.98-.045.006-.044.009.369 1.965Zm-1.42-.542-1.479 1.347.02.023.022.021 1.437-1.39Zm-.744-2.015 1.989.209-1.989-.21Zm.09-1.109-1.994-.147v.013l1.995.134Zm.311-2.306 1.924.549.014-.05.012-.052-1.95-.447Zm-.143-3.267-.756 1.851.02.008.019.008.717-1.867Zm-1.553-.24-.164 1.993.03.003.032.001.102-1.997Zm-1.797.041-.379-1.963-1.58.304-.04 1.61 1.999.05Zm-.066.787 1.986.24.001-.015.002-.016-1.989-.209Zm-.155.906-1.943-.476-.008.037-.008.036 1.96.403Zm-.235 1.588 1.984.248.001-.008-1.985-.24Zm-.216 1.728 1.967.36.01-.056.008-.057-1.985-.247Zm-.24 1.8 1.975.316.008-.053.006-.053-1.99-.21Zm-.26 1.416-1.963-.384-.002.012-.002.011 1.967.361Zm-.175 1.262 1.598 1.203-1.598-1.203Zm-.63.548-1.02-1.72-.027.016-.027.017 1.074 1.687Zm-.485.316-.025 2 .637.008.523-.361-1.135-1.647Zm-.46-.005-.94 1.766.43.228.485.006.024-2Zm-.801-.665 1.514-1.306-1.514 1.306Zm-.544-.595-1.998-.09-.041.917.667.629 1.372-1.456Zm.207-2.539-1.988-.22 1.988.22Zm.374-1.855 1.803.866.116-.242.048-.263-1.967-.361Zm.02-.357-1.98-.275-.019.136v.136l2 .003Zm.096-.579 1.967.361.019-.101.008-.103-1.994-.157Zm.27-2.335-1.95-.444-.005.027-.006.026 1.962.39Zm.123-2.139-2-.003v.04l.002.04 1.998-.076Zm.001-.742-1.33-1.493-.668.596-.002.894 2 .003Zm.441-.38-1.239-1.57-.03.024-.03.025 1.3 1.52Zm.793-.395.443 1.95 1.396-.317.15-1.424-1.989-.209Zm.03-.287-1.373-1.454-.539.508-.077.737 1.99.209Zm3.56-.82-.443 1.95.504.114.496-.144-.557-1.92Zm1.589.234-.636 1.897.013.004.012.004.61-1.905Zm1.657.72 1.182-1.613-.022-.016-.022-.015-1.138 1.645Zm1.607 7.126 1.97.34.003-.014.002-.015-1.975-.311Zm.061 1.935-1.71 1.038.095.157.122.137 1.493-1.332Zm.5.53 1.973.325.163-.993-.7-.722-1.437 1.39Zm-.374 1.114-1.774-.924 1.774.924Zm-.694.593-.28-1.98-.32.045-.291.144.891 1.79Zm-.312.291 1.379 1.45.064-.062.058-.066-1.501-1.322Zm-.795-1.728a.667.667 0 0 1 .349.033c.096.036.104.069.037 0l-2.874 2.781c.783.81 1.901 1.366 3.226 1.117l-.738-3.931Zm.428.077c-.166-.183-.227-.335-.248-.489l-3.961.56a4.866 4.866 0 0 0 1.251 2.622l2.958-2.693Zm-.248-.489a.887.887 0 0 1 .008.097v.006-.005a.446.446 0 0 1 .006-.07l-3.978-.417a3.92 3.92 0 0 0 .003.949l3.96-.56Zm.014.029c.034-.322.066-.719.097-1.184l-3.99-.268c-.03.44-.059.781-.085 1.034l3.978.418Zm.096-1.17c.081-1.095.175-1.68.24-1.905l-3.847-1.098c-.188.66-.3 1.612-.382 2.708l3.99.294Zm.266-2.007c.268-1.167.443-2.317.312-3.24l-3.96.559c.019.139.006.665-.25 1.787l3.898.894Zm.312-3.24c-.083-.585-.39-1.843-1.687-2.341l-1.435 3.734a1.467 1.467 0 0 1-.75-.632c-.095-.167-.098-.267-.089-.202l3.961-.56Zm-1.648-2.326c-.642-.262-1.461-.348-2.209-.386l-.203 3.995c.324.017.566.041.736.067.187.03.219.05.163.027l1.513-3.703Zm-2.147-.381c-.828-.068-1.629-.066-2.339.07l.757 3.928c.208-.04.604-.065 1.255-.012l.327-3.986Zm-3.96 1.985v.013a5.025 5.025 0 0 1-.013.172c-.009.112-.023.258-.042.441l3.978.418c.04-.375.07-.713.076-.946l-3.999-.1Zm-.051.596a5.934 5.934 0 0 1-.112.67l3.885.952a9.79 9.79 0 0 0 .197-1.142l-3.97-.48Zm-.129.743a23.268 23.268 0 0 0-.262 1.751l3.971.48c.086-.71.157-1.17.21-1.425l-3.919-.806Zm-.26 1.744-.216 1.727 3.969.495.215-1.727-3.969-.495Zm-.199 1.614c-.093.509-.18 1.168-.262 1.953l3.978.418a23.27 23.27 0 0 1 .218-1.65l-3.934-.721Zm-.248 1.847c-.045.277-.126.721-.248 1.346l3.926.768c.124-.635.216-1.135.272-1.484l-3.95-.63Zm-.252 1.37a2.88 2.88 0 0 0-.009.922l3.96-.56a.515.515 0 0 1 .007.091c0 .05-.001.145-.024.268l-3.934-.722Zm-.009.922c.007.049-.005.012.012-.084.02-.106.072-.261.19-.419l3.197 2.405c.61-.81.664-1.74.562-2.462l-3.96.56Zm.203-.503c.009-.011.013-.014.008-.01a.411.411 0 0 1-.06.04l2.04 3.442c.453-.268.87-.618 1.208-1.067l-3.196-2.405Zm-.106.064c-.235.15-.426.274-.547.357l2.271 3.293c.052-.036.184-.122.424-.276l-2.148-3.374Zm.613.004-.46-.006-.05 4 .46.005.05-4Zm.454.228a.892.892 0 0 1-.225-.205l-3.029 2.612c.38.441.835.837 1.377 1.125l1.877-3.532Zm-.225-.205c-.25-.29-.493-.562-.686-.744l-2.744 2.91.027.028c.021.022.05.052.086.092.073.08.169.188.288.326l3.03-2.612Zm-.06.801a37.14 37.14 0 0 1 .197-2.408l-3.976-.442a41.09 41.09 0 0 0-.217 2.67l3.996.18Zm.197-2.408c.048-.433.098-.758.144-.99.053-.261.082-.296.045-.22l-3.605-1.732c-.315.656-.46 1.609-.56 2.5l3.976.442Zm.354-1.715a4.09 4.09 0 0 0 .053-.714l-4-.007a2.493 2.493 0 0 1-.002.102l.001-.014a.778.778 0 0 1 .013-.09l3.934.723Zm.034-.442c.018-.133.045-.296.08-.494l-3.933-.722c-.044.239-.08.461-.11.665l3.963.55Zm.108-.698c.083-1.063.166-1.741.238-2.102l-3.923-.78c-.12.608-.218 1.487-.303 2.569l3.988.313Zm.227-2.049c.173-.762.208-1.678.17-2.658l-3.996.153c.032.848-.015 1.358-.074 1.618l3.9.887Zm.172-2.578.001-.743-4-.006v.742l4 .007Zm-.668.747c.044-.04.173-.15.41-.353l-2.599-3.041a38.64 38.64 0 0 0-.473.408l2.662 2.986Zm.35-.304c.03-.023.043-.03.04-.028a.266.266 0 0 1-.045.015l-.885-3.901a3.984 3.984 0 0 0-1.589.775l2.479 3.14Zm1.542-1.755.03-.287-3.978-.418-.03.287 3.978.418Zm-.586.958c.136-.128.388-.284.903-.356l-.56-3.961c-1.148.162-2.227.595-3.089 1.409l2.746 2.908Zm.903-.356c.296-.042.572-.03.84.031l.888-3.9a6.287 6.287 0 0 0-2.287-.092l.559 3.96Zm1.841.002a.965.965 0 0 1-.247.042c-.027 0-.02-.002.032.005.109.017.306.061.611.164l1.271-3.793a7.696 7.696 0 0 0-1.296-.328c-.393-.058-.93-.092-1.484.068l1.113 3.842Zm.421.219c.72.23 1.041.399 1.13.46l2.276-3.29c-.59-.407-1.374-.72-2.184-.98l-1.222 3.81Zm1.086.43c.56.409.904.957 1.023 1.802l3.96-.56c-.259-1.835-1.129-3.378-2.62-4.47l-2.363 3.227Zm1.023 1.802c.088.624.055 1.718-.21 3.398l3.952.622c.282-1.79.391-3.356.219-4.58l-3.961.56Zm-.205 3.37c-.115.668-.213 1.427-.126 2.049l3.961-.56c.01.075-.002.056.013-.123.013-.16.042-.385.094-.687l-3.942-.68Zm-.126 2.049c.062.44.208.867.448 1.263l3.42-2.075a.687.687 0 0 1 .093.253l-3.96.559Zm.665 1.557c.14.156.329.356.555.59l2.874-2.782a17.624 17.624 0 0 1-.443-.47l-2.986 2.662Zm.018-1.125c-.028.171-.083.34-.173.514l3.548 1.847a5.74 5.74 0 0 0 .573-1.713l-3.947-.648Zm-.173.514c-.01.019.032-.07.163-.182.147-.126.367-.244.638-.282l.559 3.96c1.164-.164 1.842-.985 2.188-1.65l-3.548-1.846Zm.189-.274c-.3.149-.513.343-.601.425-.117.11-.226.227-.321.335l3.002 2.643c.047-.054.061-.066.048-.054a1.64 1.64 0 0 1-.346.23l-1.782-3.58Zm-.8.632c.03-.029.255-.235.673-.294l.56 3.96c.695-.098 1.203-.462 1.525-.768l-2.758-2.898Zm10.55.543.662 1.887.148-.052.14-.075-.95-1.76Zm-1.456.206-.252 1.984.086.01.087.004.079-1.998Zm-.47-.323 1.203-1.598-1.203 1.598Zm-.144-.015-1.202 1.598.662.498.82-.115-.28-1.98Zm-.534-.278-1.018 1.721.093.055.098.045.827-1.82Zm-.643-.298-1.456 1.37.387.413.546.147.523-1.93Zm-.48-3.396 1.982.275.035-.252-.03-.252-1.986.229Zm.545-3.152-1.858-.74-.005.013 1.863.727Zm1.882-3.447 1.627 1.162.007-.01.007-.01-1.641-1.142Zm2.132-2.422 1.236 1.572.206-.161.156-.208-1.598-1.203Zm2.709-.595.8-1.833-.037-.015-.036-.015-.727 1.863Zm1.275 1.022-1.434 1.394.017.018.018.017 1.4-1.429Zm1.27 1.482 1.827-.813-.068-.152-.092-.139-1.667 1.104Zm.266.634-1.853.752.028.07.035.07 1.79-.892Zm.28.986 1.996-.138-.005-.071-.01-.071-1.98.28Zm.068.98 1.98.288.03-.212-.014-.214-1.996.138Zm-.053 2.623 2 .003v-.142l-.02-.14-1.98.279Zm.181.787-1.696 1.06.024.039.026.037 1.646-1.136Zm2.06.063 1.106-1.666-1.107 1.666Zm.329 1.332-1.867-.717-.03.078-.024.081 1.92.558Zm-1.002 1.414-1.303-1.517-.014.012-.014.012 1.33 1.493Zm-2.713.313-1.343 1.482.024.021.024.021 1.295-1.524Zm-1.062-1.512-1.846.77.018.043.02.041 1.808-.854Zm-.32-.768 1.845-.77-1.28-3.065-2.11 2.564 1.544 1.271Zm-1.087 1.32-1.544-1.27-.028.033-.026.035 1.598 1.202Zm-1.215 1.656-1.803-.866-.013.027-.011.027 1.827.812Zm-.55.608-1.185-1.61-.028.02-.027.02 1.24 1.57Zm-.803-2.679-1.206-1.595-.036.027-.034.028 1.276 1.54Zm.918-1.013-1.68-1.086-.022.033-.02.034 1.722 1.019Zm.903-1.612 1.78.91.012-.022.01-.022-1.802-.866Zm.219-.455 1.802.866.03-.063.026-.064-1.858-.74Zm.278-.534 1.685 1.076.039-.06.034-.064-1.758-.952Zm.65-1.4-1.858-.74-.02.052-.018.052 1.896.636Zm.27-1.098 1.988.209.059-.555-.237-.504-1.81.85Zm-.534-.774-1.57 1.24.063.079.07.072 1.437-1.39Zm-.514-.386.05-2-.166-.004-.164.023.28 1.98Zm-2.311 2.659-1.766-.939-.004.008-.004.007 1.774.924Zm-.432.945-1.836-.795-.016.038-.015.04 1.867.716Zm-.333.895 1.774.923.072-.139.05-.149-1.896-.635Zm-.32 1.247-1.966-.361-.004.023-.004.023 1.975.315Zm.078 3.098a1.35 1.35 0 0 1-.231.064l.559 3.961c.345-.049.68-.14.997-.25l-1.325-3.775Zm-.231.064c-.2.029-.36.035-.483.03l-.159 3.997c.398.016.8-.01 1.2-.066l-.558-3.96Zm-.311.045c-.058-.008.073 0 .274.09.15.069.902.449 1.04 1.425l-3.961.56c.15 1.069.979 1.527 1.266 1.657.34.155.672.21.878.236l.503-3.968Zm1.314 1.515a2.36 2.36 0 0 0-.148-.557 2.107 2.107 0 0 0-.684-.895l-2.406 3.196a1.893 1.893 0 0 1-.617-.798 1.64 1.64 0 0 1-.106-.386l3.96-.56Zm-.832-1.452a2.107 2.107 0 0 0-1.05-.41 2.36 2.36 0 0 0-.576.013l.559 3.96c-.06.01-.207.026-.4.006a1.892 1.892 0 0 1-.939-.373l2.406-3.196Zm-.144-.015c-.285-.214-.67-.392-.91-.5l-1.654 3.641c.12.055.2.093.245.117.022.012.027.015.02.01a1.405 1.405 0 0 1-.106-.072l2.405-3.196Zm-.718-.4a4.692 4.692 0 0 0-1.139-.508l-1.046 3.86c-.052-.014-.064-.023-.028-.006a2.1 2.1 0 0 1 .175.095l2.038-3.442Zm-.205.052c-.062-.066-.068-.097-.073-.133l-3.961.56a4.198 4.198 0 0 0 1.12 2.314l2.914-2.741Zm-.073-.133c-.02-.137-.021-.617.118-1.618l-3.962-.55c-.142 1.017-.222 1.986-.117 2.727l3.96-.559Zm.124-2.122c-.055-.475.026-1.185.42-2.196L66.79 17.41c-.54 1.383-.822 2.774-.668 4.108l3.974-.458Zm.415-2.183a14.326 14.326 0 0 1 1.651-3.025l-3.255-2.325a18.26 18.26 0 0 0-2.112 3.87l3.716 1.48Zm1.665-3.045c.71-1.02 1.29-1.648 1.727-1.992l-2.472-3.144c-.878.69-1.72 1.676-2.538 2.851l3.283 2.285Zm2.09-2.361a.372.372 0 0 1-.1.09c-.01.005.032-.02.163-.038l-.56-3.96c-.998.14-2.002.575-2.7 1.502l3.196 2.405Zm.063.052c.195-.028.284 0 .32.014l1.454-3.727a4.606 4.606 0 0 0-2.333-.248l.559 3.96Zm.247-.016c-.06-.026-.026-.022.113.09.129.103.304.262.528.492l2.868-2.788c-.549-.564-1.202-1.152-1.91-1.46l-1.599 3.665Zm.676.617c.484.474.804.859 1.001 1.157l3.335-2.208c-.401-.607-.928-1.21-1.538-1.807l-2.798 2.858Zm.841.866c.056.126.136.314.24.573l3.707-1.504c-.112-.276-.21-.51-.292-.695l-3.655 1.626Zm.304.713c.009.018.055.125.09.373l3.96-.56a5.207 5.207 0 0 0-.47-1.596l-3.58 1.783Zm.075.231.068.98 3.99-.275-.067-.98-3.99.275Zm.084.555c-.163 1.122-.196 2.194-.055 3.19l3.96-.559c-.074-.528-.07-1.205.053-2.055l-3.958-.576Zm-.075 2.908c0 .55.097 1.226.486 1.85l3.392-2.12c.075.12.105.219.116.267.011.047.006.054.007.01l-4-.007Zm.536 1.926c.407.59 1.216 1.228 2.346 1.068l-.559-3.96c.325-.046.677.008.992.175.288.153.446.348.514.446l-3.293 2.271Zm2.346 1.068c.51-.072.922-.284 1.223-.492l-2.272-3.292c.044-.03.212-.137.49-.177l.56 3.961Zm1.223-.492a.934.934 0 0 1-.386.162l-.559-3.96a3.07 3.07 0 0 0-1.327.506l2.272 3.292Zm-.386.162a.785.785 0 0 1-.267-.013.924.924 0 0 1-.317-.132l2.213-3.332a3.116 3.116 0 0 0-2.188-.484l.56 3.96Zm-.584-.145a1.072 1.072 0 0 1-.307-.32 1.076 1.076 0 0 1-.157-.417l3.96-.56a2.896 2.896 0 0 0-1.283-2.035l-2.213 3.332Zm-.464-.737a.666.666 0 0 1 .033-.314l3.734 1.434a3.35 3.35 0 0 0 .194-1.68l-3.961.56Zm-.02-.155c-.003.008-.053.17-.385.455l2.606 3.034c.719-.617 1.337-1.398 1.62-2.373l-3.842-1.116Zm-.413.48c-.315.28-.457.29-.43.286l.56 3.961c.996-.14 1.842-.647 2.532-1.262l-2.662-2.986Zm-.43.286a.798.798 0 0 1 .38.034c.061.023.048.032-.038-.04l-2.589 3.05c.677.574 1.644 1.081 2.806.917l-.56-3.96Zm.39.036c-.162-.146-.374-.413-.596-.883l-3.617 1.708c.384.812.88 1.552 1.528 2.14l2.685-2.965Zm-.558-.8-.32-.767-3.692 1.54.32.768 3.692-1.54Zm-3.71-1.268-1.087 1.32 3.089 2.542 1.086-1.32-3.089-2.541Zm-1.14 1.389-.685.91 3.196 2.404.684-.91-3.196-2.404Zm-.685.91c-.163.216-.3.4-.403.546-.058.081-.225.312-.333.537l3.606 1.731a1.53 1.53 0 0 1-.068.128l-.01.015a22.462 22.462 0 0 1 .404-.553l-3.196-2.405Zm-.76 1.136a.867.867 0 0 1 .14-.227c.018-.02.009-.006-.048.036l2.37 3.222c.413-.304.904-.757 1.193-1.406l-3.655-1.625Zm.037-.15c-.11.088-.406.28-.979.59l1.9 3.52c.61-.328 1.16-.656 1.558-.97l-2.479-3.14Zm1.643.486a5.505 5.505 0 0 0 1.433-1.59l-3.443-2.037a1.51 1.51 0 0 1-.402.437l2.412 3.19Zm1.391-1.522c.304-.47.64-1.075 1.004-1.787l-3.56-1.822a17.25 17.25 0 0 1-.803 1.437l3.36 2.172Zm1.027-1.832.218-.455-3.605-1.732-.219.455 3.606 1.732Zm.274-.581c.016-.043.048-.108.105-.198l-3.371-2.153a5.184 5.184 0 0 0-.45.871l3.716 1.48Zm.178-.322c.336-.62.617-1.206.788-1.717l-3.792-1.27c-.061.181-.213.529-.513 1.082l3.517 1.905Zm.75-1.612a6.12 6.12 0 0 0 .4-1.63l-3.978-.417a2.119 2.119 0 0 1-.138.567l3.716 1.48Zm.222-2.688a4.838 4.838 0 0 0-.907-1.315l-2.874 2.782c.067.07.119.145.16.232l3.62-1.7Zm-.774-1.163c-.159-.2-.373-.44-.647-.646a2.41 2.41 0 0 0-1.388-.5l-.099 3.998a1.596 1.596 0 0 1-.918-.302c-.102-.077-.13-.125-.088-.071l3.14-2.479Zm-2.364-1.128c-1.056.15-1.817.855-2.293 1.402-.526.606-1.024 1.396-1.504 2.3l3.532 1.876c.414-.778.748-1.272.992-1.552.119-.138.181-.182.18-.182 0 0-.12.085-.348.117l-.559-3.96Zm-3.805 3.716c-.13.249-.299.623-.494 1.074l3.671 1.588c.196-.452.315-.707.37-.815l-3.547-1.847Zm-.525 1.151a27.9 27.9 0 0 0-.363.977l3.793 1.271c.034-.1.129-.357.304-.813L69.88 17.55Zm-.24.69a4.15 4.15 0 0 0-.313.873c-.07.269-.135.586-.2.936l3.935.722c.056-.303.103-.521.14-.668.019-.072.031-.112.036-.127.008-.023-.006.026-.05.11l-3.548-1.847Zm-.52 1.855a13.96 13.96 0 0 0-.12.908c-.02.22-.044.565.004.904l3.96-.56c.015.101.011.158.012.137 0-.012.002-.049.008-.119.013-.14.04-.35.086-.64l-3.95-.63Zm-.116 1.812c.054.384.186.993.61 1.524a2.37 2.37 0 0 0 2.208.875l-.56-3.96a1.6 1.6 0 0 1 .806.098c.31.121.531.314.672.49.239.3.242.537.224.413l-3.96.56Zm2.818 2.4c.742-.105 1.334-.482 1.754-.83l-2.552-3.08c-.052.043-.064.044-.034.028a.871.871 0 0 1 .273-.08l.559 3.961Z" mask="url(#a)"/></svg>