<svg xmlns="http://www.w3.org/2000/svg" width="59" height="35" fill="none"><mask id="a" width="64.875" height="40.215" x="-3.01" y="-2.559" fill="#000" maskUnits="userSpaceOnUse"><path fill="#fff" d="M-3.01-2.559h64.875v40.215H-3.01z"/><path d="M7.886 34.032a8.328 8.328 0 0 1-2.236-.816 4.308 4.308 0 0 1-1.68-1.636c-.516-.987-.874-2.186-1.073-3.595-.193-1.363-.275-2.53-.247-3.5.025-.993.163-2.014.416-3.063l.209-.772c.236-1 .413-1.66.533-1.984.265-.957.794-2.221 1.585-3.794.728-1.517 1.31-2.647 1.748-3.393.456-.771.94-1.44 1.448-2.007.506-.59 1.26-1.344 2.261-2.263.602-.58 1.388-.938 2.358-1.075a4.042 4.042 0 0 1 2.158.26c.699.279 1.265.788 1.7 1.528.286.36.479.887.576 1.58.157 1.109.06 2.348-.288 3.716-.348 1.37-.845 2.441-1.49 3.215-.139.185-.347.297-.624.336-.277.04-.59 0-.935-.115a3.856 3.856 0 0 1-.95-.467c-.264-.364-.412-.578-.444-.644-.033-.066.006-.12.119-.159.172-.283.404-.81.695-1.582.312-.798.507-1.415.587-1.85l.071-1c.054-.62.068-1.023.042-1.208a.77.77 0 0 0-.321-.52.378.378 0 0 0-.292-.065c-.185.026-.492.187-.922.484-.498.306-1.067.869-1.705 1.69a20.184 20.184 0 0 0-1.796 2.798c-.867 1.537-1.526 2.796-1.977 3.779a12.877 12.877 0 0 0-.895 2.918l-.254.955c.036.09.034.325-.006.708-.04.383-.102.698-.185.945-.134 1.386-.125 2.622.029 3.708.12.855.306 1.583.555 2.184.273.597.593 1.023.959 1.278.207.136.484.18.83.13.37-.052.775-.192 1.214-.419.46-.253.938-.533 1.437-.839.499-.306.846-.52 1.04-.642a9.828 9.828 0 0 0 1.388-.938c.446-.346.768-.65.967-.914.539-.524.993-.812 1.362-.864.288-.135.532-.075.733.18.224.25.37.619.438 1.104.046.323-.118.747-.492 1.271a7.54 7.54 0 0 1-1.393 1.399c-.218.29-.742.67-1.57 1.14-.665.636-1.465 1.232-2.4 1.789-.911.553-1.771.886-2.58 1a4.413 4.413 0 0 1-.703.029Zm14.145-4.578c-.277.04-.503.024-.678-.046-.175-.07-.43-.21-.767-.422a6.259 6.259 0 0 1-1.285-1.338c-.329-.495-.486-.945-.473-1.347a.901.901 0 0 0 .001-.495l-.044-.312c-.105-.08-.16-.13-.163-.154-.006-.046.012-.084.055-.113a.55.55 0 0 0 .084-.154c.139-.02.167-.153.085-.4-.072-.179-.049-.595.071-1.248a8.56 8.56 0 0 1 .553-1.845c.195-.452.491-1.024.888-1.716.42-.696.804-1.233 1.151-1.612 1.015-1.157 1.97-1.904 2.865-2.242a5.612 5.612 0 0 1 1.327-.365c.67-.094 1.216.017 1.638.335.538.136.95.384 1.236.744.287.36.51.859.67 1.496.044.135.088.365.133.688.242 1.71-.154 3.58-1.187 5.611-.424.838-.868 1.525-1.334 2.062a14.238 14.238 0 0 1-1.746 1.66c-.376.337-.79.583-1.238.741-.45.158-1.063.315-1.842.472Zm2.938-4.727c.383-.455.64-.892.769-1.31.15-.446.337-1.203.563-2.272.11-.227.12-.653.032-1.276-.078-.555-.203-.855-.375-.902a.652.652 0 0 0-.435-.08c-.208.03-.52.238-.937.627a12.97 12.97 0 0 0-1.736 2.472c-.427.815-.676 1.722-.747 2.721-.01.096-.002.236.024.421.11.786.444 1.14.998 1.061.531-.075 1.146-.562 1.844-1.462ZM41.677 14.06c.03.043.117.16.262.352.165.165.267.386.306.664.062.439-.086.895-.443 1.37-.195.122-.45.488-.764 1.098-.291.606-.57 1.223-.835 1.85a2.63 2.63 0 0 1-.208.524 9.12 9.12 0 0 0-.229.386l-1.208 3.457.024.421c.393-.055.68.057.86.338.208.466.33.826.365 1.08.026.185.005.364-.065.54-.07.174-.19.403-.362.687-.298.395-.632.619-1.001.671-.208.03-.421.024-.639-.016-.686-.186-1.175-.482-1.468-.888-.307-.334-.514-.882-.621-1.644a11.46 11.46 0 0 1-.113-1.045c-.036-.09.056-.691.276-1.806-.245.27-.536.547-.873.83-.34.26-.677.46-1.01.602a1.002 1.002 0 0 1-.437.168c-.323.046-.697-.02-1.123-.195a2.614 2.614 0 0 1-.989-.744 3.178 3.178 0 0 1-.473-1.1 3.178 3.178 0 0 1-.113-.55 4.396 4.396 0 0 1 .172-2.038l.467-1.445c.372-1.042.627-1.82.766-2.335.269-.603.408-.953.418-1.049a1.37 1.37 0 0 1 .328-.682c.201-.24.406-.376.614-.405.772-.038 1.38.182 1.825.661.218.205.35.47.395.793.056.393-.024.745-.24 1.059-.542.995-1.079 2.367-1.61 4.115a.621.621 0 0 0-.03.287c.02.139.095.34.227.605.63-.207 1.156-.494 1.575-.86.417-.388.906-.928 1.468-1.62a13.2 13.2 0 0 1 .843-1.038 5.16 5.16 0 0 0 1.077-1.637c.398-1.022.849-1.58 1.354-1.676.231-.032.43-.037.599-.014.191.02.402.097.633.229Zm12.25 11.243c-.702-.137-1.329-.484-1.879-1.043a6.61 6.61 0 0 1-1.308-2.007c-.08.106-.376.513-.888 1.222a9.004 9.004 0 0 1-1.666 1.72c-.595.46-1.15.704-1.664.73-.63-.289-1.1-.529-1.41-.72-.31-.193-.552-.488-.726-.888l.005.035c-.411-.743-.668-1.473-.769-2.19-.062-.438-.008-1.389.163-2.85.194-1.465.432-2.865.715-4.201.282-1.336.548-2.128.796-2.375l.584-.118c.208-.03.516.069.925.294.432.222.719.417.86.585.066.132.107.256.123.372.043.3.022.739-.061 1.316a69.22 69.22 0 0 1-.395 2.212c-.479 2.283-.663 3.817-.552 4.602.023.162.051.276.084.342.822-.352 1.514-.956 2.077-1.813a8.61 8.61 0 0 0 1.182-2.641c.286-1.148.474-1.988.564-2.519.11-.557.141-.998.096-1.321-.062-.44-.05-.77.036-.995.086-.224.3-.467.64-.727.254-.036.615-.063 1.084-.082l1.3.947c.099.199.168.436.207.714.091.647-.01 1.686-.302 3.118a63.83 63.83 0 0 0-.34 2.098c-.047.501-.038.983.027 1.445.082.578.279 1.056.592 1.436a5.7 5.7 0 0 0 .986-.775c.307-.326.492-.517.555-.573.288-.3.61-.605.967-.915.38.183.712.536.998 1.061.31.522.497 1.014.562 1.476a3.304 3.304 0 0 1-.422.52c-.208.524-.651 1.058-1.329 1.6-.657.518-1.286.819-1.887.904-.231.032-.408.034-.53.004Z"/></mask><path fill="#165298" d="M7.886 34.032a8.328 8.328 0 0 1-2.236-.816 4.308 4.308 0 0 1-1.68-1.636c-.516-.987-.874-2.186-1.073-3.595-.193-1.363-.275-2.53-.247-3.5.025-.993.163-2.014.416-3.063l.209-.772c.236-1 .413-1.66.533-1.984.265-.957.794-2.221 1.585-3.794.728-1.517 1.31-2.647 1.748-3.393.456-.771.94-1.44 1.448-2.007.506-.59 1.26-1.344 2.261-2.263.602-.58 1.388-.938 2.358-1.075a4.042 4.042 0 0 1 2.158.26c.699.279 1.265.788 1.7 1.528.286.36.479.887.576 1.58.157 1.109.06 2.348-.288 3.716-.348 1.37-.845 2.441-1.49 3.215-.139.185-.347.297-.624.336-.277.04-.59 0-.935-.115a3.856 3.856 0 0 1-.95-.467c-.264-.364-.412-.578-.444-.644-.033-.066.006-.12.119-.159.172-.283.404-.81.695-1.582.312-.798.507-1.415.587-1.85l.071-1c.054-.62.068-1.023.042-1.208a.77.77 0 0 0-.321-.52.378.378 0 0 0-.292-.065c-.185.026-.492.187-.922.484-.498.306-1.067.869-1.705 1.69a20.184 20.184 0 0 0-1.796 2.798c-.867 1.537-1.526 2.796-1.977 3.779a12.877 12.877 0 0 0-.895 2.918l-.254.955c.036.09.034.325-.006.708-.04.383-.102.698-.185.945-.134 1.386-.125 2.622.029 3.708.12.855.306 1.583.555 2.184.273.597.593 1.023.959 1.278.207.136.484.18.83.13.37-.052.775-.192 1.214-.419.46-.253.938-.533 1.437-.839.499-.306.846-.52 1.04-.642a9.828 9.828 0 0 0 1.388-.938c.446-.346.768-.65.967-.914.539-.524.993-.812 1.362-.864.288-.135.532-.075.733.18.224.25.37.619.438 1.104.046.323-.118.747-.492 1.271a7.54 7.54 0 0 1-1.393 1.399c-.218.29-.742.67-1.57 1.14-.665.636-1.465 1.232-2.4 1.789-.911.553-1.771.886-2.58 1a4.413 4.413 0 0 1-.703.029Zm14.145-4.578c-.277.04-.503.024-.678-.046-.175-.07-.43-.21-.767-.422a6.259 6.259 0 0 1-1.285-1.338c-.329-.495-.486-.945-.473-1.347a.901.901 0 0 0 .001-.495l-.044-.312c-.105-.08-.16-.13-.163-.154-.006-.046.012-.084.055-.113a.55.55 0 0 0 .084-.154c.139-.02.167-.153.085-.4-.072-.179-.049-.595.071-1.248a8.56 8.56 0 0 1 .553-1.845c.195-.452.491-1.024.888-1.716.42-.696.804-1.233 1.151-1.612 1.015-1.157 1.97-1.904 2.865-2.242a5.612 5.612 0 0 1 1.327-.365c.67-.094 1.216.017 1.638.335.538.136.95.384 1.236.744.287.36.51.859.67 1.496.044.135.088.365.133.688.242 1.71-.154 3.58-1.187 5.611-.424.838-.868 1.525-1.334 2.062a14.238 14.238 0 0 1-1.746 1.66c-.376.337-.79.583-1.238.741-.45.158-1.063.315-1.842.472Zm2.938-4.727c.383-.455.64-.892.769-1.31.15-.446.337-1.203.563-2.272.11-.227.12-.653.032-1.276-.078-.555-.203-.855-.375-.902a.652.652 0 0 0-.435-.08c-.208.03-.52.238-.937.627a12.97 12.97 0 0 0-1.736 2.472c-.427.815-.676 1.722-.747 2.721-.01.096-.002.236.024.421.11.786.444 1.14.998 1.061.531-.075 1.146-.562 1.844-1.462ZM41.677 14.06c.03.043.117.16.262.352.165.165.267.386.306.664.062.439-.086.895-.443 1.37-.195.122-.45.488-.764 1.098-.291.606-.57 1.223-.835 1.85a2.63 2.63 0 0 1-.208.524 9.12 9.12 0 0 0-.229.386l-1.208 3.457.024.421c.393-.055.68.057.86.338.208.466.33.826.365 1.08.026.185.005.364-.065.54-.07.174-.19.403-.362.687-.298.395-.632.619-1.001.671-.208.03-.421.024-.639-.016-.686-.186-1.175-.482-1.468-.888-.307-.334-.514-.882-.621-1.644a11.46 11.46 0 0 1-.113-1.045c-.036-.09.056-.691.276-1.806-.245.27-.536.547-.873.83-.34.26-.677.46-1.01.602a1.002 1.002 0 0 1-.437.168c-.323.046-.697-.02-1.123-.195a2.614 2.614 0 0 1-.989-.744 3.178 3.178 0 0 1-.473-1.1 3.178 3.178 0 0 1-.113-.55 4.396 4.396 0 0 1 .172-2.038l.467-1.445c.372-1.042.627-1.82.766-2.335.269-.603.408-.953.418-1.049a1.37 1.37 0 0 1 .328-.682c.201-.24.406-.376.614-.405.772-.038 1.38.182 1.825.661.218.205.35.47.395.793.056.393-.024.745-.24 1.059-.542.995-1.079 2.367-1.61 4.115a.621.621 0 0 0-.03.287c.02.139.095.34.227.605.63-.207 1.156-.494 1.575-.86.417-.388.906-.928 1.468-1.62a13.2 13.2 0 0 1 .843-1.038 5.16 5.16 0 0 0 1.077-1.637c.398-1.022.849-1.58 1.354-1.676.231-.032.43-.037.599-.014.191.02.402.097.633.229Zm12.25 11.243c-.702-.137-1.329-.484-1.879-1.043a6.61 6.61 0 0 1-1.308-2.007c-.08.106-.376.513-.888 1.222a9.004 9.004 0 0 1-1.666 1.72c-.595.46-1.15.704-1.664.73-.63-.289-1.1-.529-1.41-.72-.31-.193-.552-.488-.726-.888l.005.035c-.411-.743-.668-1.473-.769-2.19-.062-.438-.008-1.389.163-2.85.194-1.465.432-2.865.715-4.201.282-1.336.548-2.128.796-2.375l.584-.118c.208-.03.516.069.925.294.432.222.719.417.86.585.066.132.107.256.123.372.043.3.022.739-.061 1.316a69.22 69.22 0 0 1-.395 2.212c-.479 2.283-.663 3.817-.552 4.602.023.162.051.276.084.342.822-.352 1.514-.956 2.077-1.813a8.61 8.61 0 0 0 1.182-2.641c.286-1.148.474-1.988.564-2.519.11-.557.141-.998.096-1.321-.062-.44-.05-.77.036-.995.086-.224.3-.467.64-.727.254-.036.615-.063 1.084-.082l1.3.947c.099.199.168.436.207.714.091.647-.01 1.686-.302 3.118a63.83 63.83 0 0 0-.34 2.098c-.047.501-.038.983.027 1.445.082.578.279 1.056.592 1.436a5.7 5.7 0 0 0 .986-.775c.307-.326.492-.517.555-.573.288-.3.61-.605.967-.915.38.183.712.536.998 1.061.31.522.497 1.014.562 1.476a3.304 3.304 0 0 1-.422.52c-.208.524-.651 1.058-1.329 1.6-.657.518-1.286.819-1.887.904-.231.032-.408.034-.53.004Z"/><path fill="#fff" d="m7.886 34.032-.398 1.96.172.035.176.004.05-2Zm-2.236-.816-.964 1.752.014.008.015.008.935-1.768ZM3.97 31.58l-1.772.927.02.04.023.038L3.97 31.58Zm-1.32-7.095 2 .058v-.008l-2-.05Zm.416-3.063-1.93-.523-.008.027-.007.028 1.945.468Zm.209-.772 1.93.523.009-.032.007-.031-1.946-.46Zm.533-1.984 1.876.693.029-.078.022-.08-1.927-.535Zm1.585-3.794 1.787.899.008-.016.008-.017-1.803-.866ZM7.14 11.48l-1.72-1.019-.005.007 1.726 1.011Zm1.448-2.007 1.488 1.337.015-.017.015-.018L8.59 9.472ZM10.85 7.21l1.352 1.473.018-.016.018-.017-1.388-1.44Zm4.516-.814-.77 1.846.015.006.015.006.74-1.858Zm1.7 1.527L15.34 8.934l.072.122.088.11 1.565-1.244Zm-1.202 8.511-1.537-1.28-.031.039-.03.039 1.598 1.202Zm-2.51-.246-1.618 1.174.205.283.289.196 1.125-1.653Zm-.443-.644-1.79.891 1.79-.891Zm.119-.159.662 1.887.676-.237.371-.612-1.71-1.038Zm.695-1.582-1.863-.727-.004.01-.004.01 1.871.707Zm.587-1.85 1.967.36.02-.109.008-.11-1.995-.142Zm.071-1-1.992-.173-.002.015v.016l1.994.142Zm-.28-1.728-1.202 1.598 1.203-1.598Zm-1.213.419 1.046 1.704.046-.028.044-.03-1.136-1.646Zm-1.705 1.69 1.578 1.228-1.578-1.228ZM9.389 14.13l1.741.983.01-.016.008-.016-1.76-.95Zm-1.977 3.78-1.818-.834-.007.017-.008.017 1.833.8Zm-.895 2.918 1.933.515.022-.084.015-.084-1.97-.347Zm-.254.955L4.33 21.27l-.172.646.251.62 1.854-.752Zm-.006.708 1.989.21-1.99-.21Zm-.185.945-1.896-.635-.073.216-.022.227 1.991.192Zm.584 5.892-1.846.767.013.032.014.031 1.82-.83Zm.959 1.278-1.143 1.642.024.016.025.017 1.094-1.675Zm2.044-.289.918 1.777.025-.012.024-.014-.967-1.75Zm1.437-.839 1.046 1.705-1.046-1.705Zm1.04-.642-.981-1.742-.04.022-.038.024 1.06 1.696Zm1.388-.938-1.225-1.58-.017.013-.017.013 1.26 1.554Zm.967-.914-1.394-1.434-.111.108-.093.123 1.598 1.203Zm1.362-.864.28 1.98.298-.042.272-.127-.85-1.81Zm.733.18-1.57 1.239.037.047.04.045 1.493-1.332Zm-.054 2.375 1.598 1.203.016-.02.015-.021-1.629-1.162Zm-1.393 1.399-1.232-1.576-.207.163-.159.21 1.598 1.203Zm-1.57 1.14-.988-1.739-.216.123-.18.172 1.383 1.445Zm-2.4 1.789-1.022-1.72-.007.005-.008.005 1.038 1.71Zm-2.884-.931a6.33 6.33 0 0 1-1.7-.624l-1.87 3.536a10.36 10.36 0 0 0 2.773 1.008l.797-3.92Zm-1.67-.608a2.308 2.308 0 0 1-.916-.888l-3.458 2.009a6.306 6.306 0 0 0 2.445 2.383l1.929-3.504Zm-.873-.81c-.386-.739-.69-1.706-.865-2.949l-3.96.56c.222 1.575.634 3.005 1.28 4.242l3.545-1.854Zm-.865-2.949c-.183-1.293-.252-2.34-.228-3.162l-3.998-.116c-.032 1.12.063 2.405.265 3.838l3.961-.56Zm-.228-3.17c.021-.84.139-1.722.361-2.645l-3.889-.936a16.63 16.63 0 0 0-.47 3.481l3.998.1Zm.347-2.59.21-.772-3.861-1.046-.21.772 3.861 1.046Zm.225-.835c.241-1.02.393-1.561.463-1.751l-3.752-1.386c-.169.457-.372 1.238-.604 2.218l3.893.919Zm.514-1.909c.214-.77.674-1.9 1.445-3.43l-3.574-1.798c-.812 1.615-1.408 3.015-1.725 4.158l3.854 1.07Zm1.46-3.463c.723-1.504 1.277-2.575 1.671-3.247l-3.45-2.023c-.48.818-1.092 2.01-1.826 3.538l3.606 1.732Zm1.667-3.24c.4-.677.808-1.236 1.215-1.69L7.101 8.137c-.61.68-1.17 1.46-1.681 2.325l3.442 2.037Zm1.245-1.724c.43-.5 1.116-1.193 2.095-2.092L9.498 5.735c-1.024.94-1.845 1.756-2.427 2.435l3.037 2.604Zm2.131-2.125c.248-.24.622-.446 1.25-.535l-.56-3.96c-1.313.185-2.511.695-3.466 1.615l2.776 2.88Zm1.25-.535c.426-.06.781-.01 1.109.127l1.538-3.693a6.04 6.04 0 0 0-3.207-.395l.56 3.961Zm1.138.139c.229.09.473.269.715.681l3.45-2.025c-.627-1.067-1.516-1.907-2.686-2.373l-1.48 3.717Zm.875.914c-.017-.02.007.002.045.106s.082.268.116.508l3.96-.559c-.123-.876-.396-1.797-.991-2.545l-3.13 2.49Zm.161.614c.112.793.055 1.764-.246 2.944l3.876.987c.397-1.558.532-3.065.33-4.49l-3.96.56Zm-.246 2.944c-.303 1.189-.695 1.956-1.089 2.429l3.074 2.56c.896-1.077 1.497-2.453 1.891-4.002l-3.876-.987Zm-1.15 2.506c.109-.144.246-.259.39-.337a.93.93 0 0 1 .304-.105l.56 3.96c.683-.096 1.419-.417 1.942-1.113l-3.196-2.405Zm.694-.442c.055-.008.085-.004.083-.004a.6.6 0 0 1-.103-.028l-1.27 3.793c.554.186 1.187.293 1.85.2l-.559-3.961Zm-.02-.032a1.853 1.853 0 0 1-.46-.224l-2.25 3.307c.446.304.928.539 1.439.71l1.271-3.793Zm.034.256a22.784 22.784 0 0 1-.336-.477l.007.012c.004.008.027.046.056.103l-3.58 1.783c.092.186.228.381.28.455.086.126.2.285.335.472l3.238-2.348Zm-.273-.362a1.924 1.924 0 0 1-.187 2.005c-.342.454-.765.596-.822.616l-1.325-3.775a2.23 2.23 0 0 0-1.05.754 2.076 2.076 0 0 0-.197 2.183l3.58-1.783Zm.038 1.771c.28-.46.567-1.146.857-1.913l-3.742-1.414c-.293.776-.469 1.144-.534 1.252l3.42 2.075Zm.85-1.893c.323-.829.575-1.589.69-2.217l-3.934-.722c-.045.243-.183.717-.483 1.485l3.726 1.454Zm.718-2.436.071-1-3.99-.283-.07 1 3.99.283Zm.069-.969c.048-.563.093-1.206.029-1.66l-3.96.56c-.01-.064-.008-.092-.008-.059l-.002.15c-.005.154-.02.372-.044.664l3.985.345Zm.029-1.66a2.769 2.769 0 0 0-1.099-1.838l-2.405 3.196a1.145 1.145 0 0 1-.28-.314 1.265 1.265 0 0 1-.177-.484l3.961-.56Zm-1.099-1.838a2.376 2.376 0 0 0-1.774-.447l.56 3.96c-.14.02-.332.026-.554-.024a1.661 1.661 0 0 1-.637-.293l2.405-3.196Zm-1.774-.447a3.178 3.178 0 0 0-1.019.35c-.25.131-.507.294-.758.467l2.271 3.293c.086-.06.159-.107.219-.144.06-.038.102-.061.127-.075.027-.014.022-.01-.01.003a1.405 1.405 0 0 1-.27.066l-.56-3.96Zm-1.688.759c-.804.494-1.548 1.28-2.238 2.167l3.158 2.455c.587-.754.98-1.094 1.172-1.213l-2.092-3.41Zm-2.237 2.166a22.159 22.159 0 0 0-1.978 3.076l3.519 1.902c.537-.993 1.077-1.83 1.615-2.52l-3.156-2.458Zm-1.96 3.044c-.88 1.56-1.57 2.873-2.053 3.928l3.637 1.667c.417-.91 1.045-2.115 1.9-3.629l-3.484-1.966ZM5.579 17.11a14.86 14.86 0 0 0-1.032 3.372l3.94.693c.14-.798.39-1.619.759-2.466l-3.667-1.6Zm-.995 3.204-.254.955 3.866 1.029.254-.955-3.866-1.029Zm-.175 2.221a1.76 1.76 0 0 1-.115-.448c-.007-.06-.005-.09-.006-.077 0 .027-.003.11-.02.272l3.978.418c.023-.22.04-.446.042-.655.001-.107.013-.558-.172-1.013L4.41 22.535Zm-.141-.253a2.75 2.75 0 0 1-.092.519l3.792 1.27c.146-.433.229-.905.278-1.37l-3.978-.419Zm-.187.962c-.145 1.503-.141 2.902.04 4.18l3.96-.56c-.126-.894-.141-1.966-.018-3.235l-3.982-.386Zm.04 4.18c.136.97.357 1.873.689 2.671l3.693-1.535c-.167-.403-.318-.958-.422-1.696l-3.96.56Zm.716 2.734c.356.78.868 1.555 1.635 2.09l2.285-3.283c.023.015 0 .006-.056-.069a2.194 2.194 0 0 1-.225-.4l-3.639 1.662Zm1.684 2.123c.753.491 1.574.525 2.205.436l-.56-3.961c-.062.009.205-.045.542.176L6.521 32.28Zm2.205.436c.651-.093 1.273-.324 1.851-.623l-1.836-3.553c-.3.155-.487.202-.575.215l.56 3.96Zm1.9-.649c.489-.27.994-.565 1.516-.885l-2.092-3.41c-.475.292-.928.556-1.357.793l1.933 3.502Zm1.516-.885c.499-.306.852-.524 1.054-.65l-2.12-3.393c-.186.117-.527.327-1.026.634l2.092 3.409Zm.977-.604a12.02 12.02 0 0 0 1.664-1.127l-2.518-3.108c-.33.268-.7.519-1.11.75l1.964 3.485Zm1.63-1.1c.503-.39.985-.821 1.34-1.292l-3.196-2.405c-.043.056-.204.233-.594.535l2.45 3.162Zm1.136-1.061c.206-.2.346-.306.421-.354.035-.022.04-.021.018-.012a.812.812 0 0 1-.191.049l-.56-3.961c-1.041.147-1.89.84-2.476 1.41l2.788 2.868Zm.818-.487c-.16.074-.499.18-.927.075a1.394 1.394 0 0 1-.76-.467l3.14-2.479a2.613 2.613 0 0 0-1.428-.939 2.588 2.588 0 0 0-1.724.189l1.699 3.62Zm-1.61-.3c-.069-.077-.09-.133-.088-.129l.014.048c.008.03.017.075.025.134l3.96-.56c-.1-.707-.345-1.504-.926-2.156l-2.985 2.663Zm-.049.053a1.123 1.123 0 0 1 0-.332c.011-.07.026-.109.026-.11 0 0-.008.023-.036.072a2.37 2.37 0 0 1-.13.2l3.257 2.323c.42-.59 1.005-1.574.844-2.713l-3.961.56Zm-.11-.211c-.26.346-.597.69-1.027 1.025l2.464 3.151a9.532 9.532 0 0 0 1.76-1.771l-3.197-2.405Zm-1.393 1.398c.045-.059.067-.075.036-.047-.027.025-.08.07-.17.134-.18.131-.45.303-.826.517l1.974 3.479c.453-.257.86-.51 1.203-.76.318-.23.692-.536.98-.918l-3.197-2.405Zm-1.356.899c-.537.514-1.21 1.021-2.038 1.514l2.045 3.437c1.042-.62 1.968-1.304 2.759-2.061l-2.766-2.89Zm-2.053 1.523c-.747.453-1.35.663-1.822.73l.559 3.96c1.145-.161 2.262-.618 3.338-1.27l-2.075-3.42Zm-1.822.73a2.67 2.67 0 0 1-.374.01l-.1 3.998c.344.009.698 0 1.033-.047l-.56-3.961Zm13.72-2.569.28 1.98.059-.008.057-.011-.395-1.96Zm-.677-.046.74-1.858-.74 1.858Zm-.767-.422-1.241 1.569.084.067.091.057 1.066-1.692Zm-1.285-1.338-1.665 1.107.01.014.01.015 1.645-1.136Zm-.473-1.347-1.93-.523-.06.223-.008.231 1.998.069Zm.001-.495-1.98.28.02.14.04.137 1.92-.557Zm-.044-.312 1.98-.28-.115-.82-.662-.498-1.203 1.598Zm-.108-.267 1.136 1.646.267-.184.195-.26-1.598-1.202Zm.084-.154-.28-1.98-1.224.173-.392 1.172 1.896.635Zm.085-.4 1.898-.63-.02-.062-.025-.06-1.853.752Zm.071-1.248-1.967-.36 1.967.36Zm.553-1.845-1.836-.794-.001.003 1.837.79Zm.888-1.716-1.712-1.034-.011.019-.012.02 1.735.995Zm1.151-1.612 1.475 1.35.015-.015.014-.016-1.504-1.319Zm2.865-2.242.707 1.87.023-.008.021-.01-.751-1.852Zm2.965-.03-1.203 1.598.322.242.39.098.49-1.938Zm1.236.744L27.01 17.97l1.565-1.245Zm.67 1.496-1.938.489.014.057.017.055 1.908-.601Zm-1.054 6.3-1.782-.907-.002.003 1.784.903Zm-1.334 2.061-1.511-1.31 1.51 1.31Zm-1.746 1.66-1.265-1.548-.034.027-.032.029 1.331 1.492Zm-1.238.741.662 1.887-.662-1.887Zm1.096-4.255-1.53-1.29-.026.032-.025.032 1.58 1.226Zm.769-1.31-1.896-.636-.008.023-.007.022 1.911.59Zm.563-2.272-1.803-.865-.104.216-.05.236 1.957.413Zm-.343-2.178-1.019 1.721.234.138.262.071.523-1.93Zm-1.372.547-1.365-1.462-.071.067-.065.074 1.501 1.321Zm-1.736 2.472-1.766-.938-.006.01 1.772.928Zm-.747 2.721 1.989.21.003-.034.003-.034-1.995-.142Zm-.352 2.767c-.032.004-.016-.001.037.003a.994.994 0 0 1 .304.073l-1.479 3.717c.618.246 1.232.233 1.697.168l-.559-3.961Zm.341.076c.02.008-.008-.002-.098-.051a7.013 7.013 0 0 1-.342-.205L19.52 30.68c.352.222.738.446 1.093.588l1.48-3.717Zm-.265-.132a4.275 4.275 0 0 1-.88-.906l-3.292 2.272a8.251 8.251 0 0 0 1.69 1.77l2.482-3.136Zm-.86-.877a1.298 1.298 0 0 1-.144-.264c-.01-.032.007.005.004.093l-3.997-.138c-.034.976.35 1.837.806 2.523l3.331-2.214Zm-.208.283a2.9 2.9 0 0 0-.009-1.575l-3.842 1.114a1.101 1.101 0 0 1-.01-.585l3.86 1.046Zm.05-1.298v-.011l-.001-.001v-.006l-.001-.001v-.005l-.001-.002v-.006l-.001-.001v-.006l-.001-.001v-.006l-.001-.001v-.006l-.001-.001v-.006l-.001-.001v-.007H20.8v-.006l-.001-.002v-.005l-.001-.001v-.006l-.001-.002v-.006h-.001v-.007l-.001-.001v-.006l-.001-.001v-.006l-.001-.001v-.006l-.001-.001v-.006l-.001-.001v-.006l-.001-.001v-.007h-.001v-.006l-.001-.001v-.006l-.001-.001v-.007h-.001v-.006l-.001-.002v-.006h-.001v-.007h-.001v-.007h-.001v-.007l-.001-.001v-.006l-.001-.001v-.007h-.001v-.006l-.001-.001v-.006l-.001-.002v-.005l-.001-.001v-.007h-.001v-.006l-.001-.001v-.007h-.001v-.007h-.001v-.007h-.001v-.007h-.001v-.007h-.001v-.007l-.001-.001v-.006l-.001-.001v-.006l-.001-.001v-.003l-3.961.559v.007h.001v.007h.001v.007l.001.001v.006l.001.001v.006l.001.001v.007h.001v.007h.001v.007h.001v.007h.001v.007h.001v.007h.001v.007h.001v.007h.001v.007l.001.001v.006l.001.002v.006h.001v.007h.001v.006l.001.002v.006h.001v.006l.001.001v.007h.001v.007h.001v.007h.001v.007l.001.001v.007h.001v.006l.001.001v.006l.001.002v.005l.001.002v.005l.001.002v.005l.001.002v.006l.001.001V26h.001v.007l.001.001v.005l.001.002v.007h.001v.006l.001.001v.006l.001.001v.006l.001.001v.006l.001.001v.006l.001.002v.005l.001.001v.007h.001v.007h.001v.006l3.962-.559Zm-.821-1.63c-.031-.023-.003-.005.049.045a1.916 1.916 0 0 1 .354.47c.062.115.168.341.211.65l-3.96.559c.078.553.367.91.411.968.097.125.19.216.24.264.107.1.215.184.29.24l2.405-3.196Zm.614 1.165a1.892 1.892 0 0 1-.79 1.812l-2.271-3.293a2.108 2.108 0 0 0-.9 2.04l3.961-.56Zm-.327 1.368c.136-.181.282-.421.382-.72l-3.792-1.271c.067-.2.157-.338.214-.414l3.196 2.405Zm-1.234.625a2.15 2.15 0 0 0 1.156-.543c.386-.355.57-.783.646-1.139a2.54 2.54 0 0 0-.099-1.329l-3.796 1.259a1.086 1.086 0 0 1-.042-.186 1.654 1.654 0 0 1 .024-.572c.06-.288.217-.664.562-.98a1.85 1.85 0 0 1 .99-.471l.559 3.96Zm1.658-3.133a1.563 1.563 0 0 1 .104.41c.004.046 0 .055.003.01.003-.04.008-.107.021-.204.013-.096.032-.212.057-.35l-3.934-.723a8.68 8.68 0 0 0-.137 1.049c-.014.237-.037.777.18 1.311l3.706-1.503Zm.185-.135c.095-.514.237-.984.423-1.415l-3.674-1.582a10.552 10.552 0 0 0-.683 2.275l3.934.722Zm.421-1.412c.153-.354.409-.853.788-1.515l-3.47-1.99a19.857 19.857 0 0 0-.989 1.917l3.671 1.588Zm.765-1.476c.387-.64.692-1.053.914-1.295l-2.95-2.702c-.472.516-.933 1.177-1.387 1.929l3.423 2.068Zm.943-1.327c.916-1.044 1.612-1.518 2.068-1.69l-1.415-3.742c-1.333.504-2.547 1.525-3.66 2.794l3.007 2.638Zm2.112-1.708c.308-.125.592-.2.856-.237l-.56-3.961a7.613 7.613 0 0 0-1.799.491l1.503 3.707Zm.856-.237a.768.768 0 0 1 .232-.009c.003.001-.007 0-.024-.008a.274.274 0 0 1-.053-.031l2.405-3.196c-.956-.72-2.08-.864-3.12-.717l.56 3.96Zm.867.292a.655.655 0 0 1 .171.063c.012.007.003.003-.009-.012l3.13-2.49c-.611-.769-1.438-1.217-2.31-1.438l-.982 3.877Zm.162.051c.05.064.178.27.297.74l3.878-.978c-.202-.804-.522-1.595-1.045-2.252l-3.13 2.49Zm.328.852c-.011-.037-.006-.03.01.05.013.073.03.176.05.317l3.96-.56a6.597 6.597 0 0 0-.205-1.01l-3.815 1.203Zm.06.367c.168 1.191-.084 2.644-.99 4.425l3.566 1.813c1.16-2.281 1.7-4.57 1.385-6.797l-3.96.559Zm-.991 4.428c-.372.735-.73 1.274-1.061 1.654l3.02 2.622c.603-.693 1.134-1.53 1.61-2.47l-3.57-1.806Zm-1.061 1.654c-.375.432-.87.907-1.5 1.423l2.531 3.097a16.218 16.218 0 0 0 1.99-1.898l-3.021-2.622Zm-1.566 1.48a1.69 1.69 0 0 1-.57.346l1.325 3.774a5.684 5.684 0 0 0 1.908-1.135L23.78 26.75Zm-.57.346c-.323.113-.835.25-1.575.399l.791 3.92c.819-.164 1.535-.343 2.11-.545l-1.326-3.774Zm3.287-1.079c.499-.59.92-1.26 1.152-2.01l-3.822-1.18c-.027.089-.119.293-.387.612l3.057 2.578Zm1.137-1.964c.19-.564.397-1.42.624-2.492l-3.914-.828c-.225 1.065-.393 1.723-.502 2.049l3.792 1.271Zm.47-2.04c.233-.487.278-.98.286-1.307a6.868 6.868 0 0 0-.077-1.116l-3.96.56c.016.12.027.218.033.297.006.08.006.132.006.16-.001.03-.003.016.005-.03.005-.023.013-.06.027-.11a1.33 1.33 0 0 1 .074-.186l3.606 1.731Zm.21-2.423a4.674 4.674 0 0 0-.287-1.13c-.114-.273-.514-1.143-1.546-1.422l-1.046 3.86a1.759 1.759 0 0 1-.878-.548 1.353 1.353 0 0 1-.223-.354c-.033-.079-.011-.058.018.153l3.961-.56Zm-1.337-2.343a2.65 2.65 0 0 0-1.734-.34l.56 3.962c-.11.015-.251.019-.411-.01a1.38 1.38 0 0 1-.453-.17l2.038-3.442Zm-1.734-.34c-.552.079-.984.338-1.223.498a6.48 6.48 0 0 0-.799.648l2.73 2.924c.079-.074.144-.13.196-.173.053-.044.086-.067.098-.075.015-.01-.008.007-.065.033a1.487 1.487 0 0 1-.378.107l-.559-3.961Zm-2.158 1.287c-.8.909-1.473 1.86-2.001 2.855l3.532 1.877c.365-.687.85-1.384 1.471-2.09l-3.002-2.642Zm-2.007 2.865c-.566 1.08-.882 2.258-.97 3.508l3.99.283c.053-.75.235-1.385.523-1.934l-3.543-1.857Zm-.964 3.44c-.037.347 0 .684.032.91l3.961-.56a1.718 1.718 0 0 1-.009-.078v.035c0 .02 0 .06-.006.111l-3.978-.418Zm.032.91c.08.565.28 1.33.857 1.945.685.728 1.595.93 2.402.816l-.56-3.96c.095-.014.275-.022.498.048.235.072.431.204.573.355.245.26.222.457.191.237l-3.96.559Zm3.259 2.761c.743-.105 1.357-.466 1.822-.835.476-.377.915-.856 1.322-1.381L23.39 23.5c-.291.375-.508.59-.647.7-.15.117-.11.038.103.008l.56 3.96Zm18.272-14.108 1.646-1.136-.257-.373-.394-.226-.995 1.735Zm.262.352-1.595 1.206.082.11.096.096 1.417-1.412Zm-.137 2.034 1.06 1.696.315-.197.223-.296-1.598-1.203Zm-.764 1.098-1.778-.917-.013.025-.012.026 1.803.866Zm-.835 1.85-1.842-.78-.052.125-.036.131 1.93.524Zm-.208.524 1.7 1.053.04-.064.034-.066-1.774-.923Zm-.229.386-1.752-.965-.08.147-.056.158 1.888.66Zm-1.208 3.457-1.888-.66-.132.377.023.398 1.997-.114Zm.024.421-1.997.114.124 2.17 2.153-.303-.28-1.98Zm.86.338 1.828-.813-.063-.14-.083-.13-1.681 1.083Zm.3 1.62-1.858-.74 1.858.74Zm-.362.687 1.598 1.202.06-.08.051-.085-1.71-1.037Zm-1.64.655-.523 1.93.08.023.082.015.361-1.968Zm-1.468-.888 1.622-1.17-.07-.096-.079-.086-1.473 1.352Zm-.734-2.689 1.999-.081-.014-.348-.131-.323-1.854.752Zm.276-1.806 1.962.386 1.393-7.072-4.838 5.344 1.482 1.342Zm-.873.83 1.215 1.589.036-.028.036-.03-1.287-1.531Zm-1.01.602-.781-1.841-.188.08-.168.115 1.136 1.646Zm-1.56-.027-.812 1.828.024.01.025.01.763-1.848Zm-.989-.744-1.672 1.096.055.084.063.079 1.554-1.26Zm-.473-1.1 1.96-.402-.028-.133-.045-.127-1.887.662Zm.059-2.588 1.896.635.003-.01.004-.01-1.903-.615Zm.467-1.445-1.884-.671-.01.027-.009.028 1.903.616Zm.766-2.335-1.827-.812-.063.14-.04.149 1.93.523Zm.418-1.049-1.977-.3-.007.045-.005.046 1.989.21Zm.328-.682 1.524 1.294.008-.01-1.532-1.284Zm.614-.405-.1-1.998-.09.005-.09.013.28 1.98Zm1.825.661-1.466 1.36.046.05.049.046 1.371-1.456Zm.156 1.852-1.649-1.132-.058.084-.05.09 1.757.958Zm-1.61 4.115 1.896.636.009-.027.008-.028-1.914-.58Zm.196.892-1.79.891.77 1.548 1.643-.54-.623-1.9Zm1.575-.86 1.314 1.509.026-.023.025-.023-1.365-1.462Zm1.468-1.62 1.553 1.26.023-.028.022-.03-1.598-1.202Zm.843-1.038-1.44-1.388-.008.008-.007.008 1.455 1.372Zm1.077-1.637 1.852.756.006-.015.006-.016-1.864-.725Zm1.354-1.676-.28-1.98-.045.006-.044.009.369 1.965Zm.599-.014-.275 1.981.033.005.033.003.209-1.989Zm-1.013 1.365c.06.087.18.247.313.422l3.19-2.412a30.315 30.315 0 0 1-.208-.279c-.012-.016-.01-.014-.003-.003l-3.292 2.272Zm.491.628a1.003 1.003 0 0 1-.2-.285.686.686 0 0 1-.058-.184l3.961-.559a3.129 3.129 0 0 0-.87-1.796l-2.833 2.824Zm-.258-.469a.592.592 0 0 1 .013-.222c.009-.027.002.01-.073.11L43.4 17.65c.564-.75.984-1.73.825-2.853l-3.96.56Zm.478-.605c-.453.283-.755.684-.919.92a8.6 8.6 0 0 0-.563.957l3.556 1.833c.136-.263.232-.422.29-.506.028-.04.032-.04.01-.015a1.399 1.399 0 0 1-.253.203l-2.12-3.392Zm-1.507 1.928a44.524 44.524 0 0 0-.874 1.936l3.684 1.559a40.26 40.26 0 0 1 .796-1.764l-3.606-1.731Zm-.962 2.192a.647.647 0 0 1-.052.124l3.548 1.847c.15-.29.276-.598.365-.924l-3.861-1.047Zm.021-.005c-.105.17-.2.33-.28.474l3.504 1.929c.034-.06.09-.157.177-.297l-3.4-2.106Zm-.416.779-1.208 3.458 3.776 1.32 1.208-3.459-3.776-1.32Zm-1.317 4.232.024.42 3.994-.228-.024-.42-3.994.228Zm2.3 2.287a1.024 1.024 0 0 1-.5-.076 1.272 1.272 0 0 1-.6-.483l3.363-2.168a2.73 2.73 0 0 0-1.301-1.073 2.993 2.993 0 0 0-1.52-.161l.559 3.96Zm-1.246-.83c.087.194.144.34.18.446.037.113.037.139.032.1l3.96-.559c-.076-.54-.293-1.11-.517-1.613l-3.655 1.626Zm.212.547a.96.96 0 0 1 .057-.48L41.6 26.88a3.04 3.04 0 0 0 .188-1.559l-3.961.56Zm.057-.48-.013.028-.04.081c-.038.071-.09.164-.161.28l3.42 2.075a6.85 6.85 0 0 0 .51-.985l-3.716-1.48Zm-.102.224c-.045.059-.046.044.01.006a.748.748 0 0 1 .307-.112l.56 3.96c1.048-.148 1.81-.772 2.319-1.449l-3.197-2.405Zm.317-.106.014-.001-.012-.002-.722 3.935c.418.076.847.09 1.28.029l-.56-3.961Zm.164.034c-.425-.115-.437-.222-.37-.128l-3.244 2.34c.654.907 1.621 1.392 2.568 1.649l1.046-3.861Zm-.518-.31c.062.067.051.086.013-.016a2.694 2.694 0 0 1-.127-.556l-3.96.56c.128.912.415 1.94 1.127 2.716l2.947-2.704Zm-.114-.572a9.856 9.856 0 0 1-.094-.846l-3.997.162c.014.338.063.766.13 1.243l3.96-.559Zm-.24-1.517a1.911 1.911 0 0 1 .14.656c0 .066-.003.104-.002.093a3.83 3.83 0 0 1 .028-.214c.04-.258.11-.654.219-1.203l-3.925-.773a34.452 34.452 0 0 0-.248 1.373c-.026.169-.049.34-.061.497a3.07 3.07 0 0 0-.01.304c0 .041-.002.388.153.77l3.707-1.503Zm-3.06-2.396c-.173.19-.395.405-.677.64l2.574 3.063c.392-.33.752-.67 1.068-1.019l-2.965-2.684Zm-.605.583a2.71 2.71 0 0 1-.576.35l1.56 3.683a6.68 6.68 0 0 0 1.446-.855l-2.43-3.178Zm-.931.545a.998.998 0 0 1 .42-.166l.56 3.96a3.003 3.003 0 0 0 1.291-.502l-2.272-3.292Zm.42-.166c.075-.011.112-.003.098-.005a.926.926 0 0 1-.179-.059l-1.526 3.698c.627.259 1.374.438 2.166.326l-.56-3.96Zm-.031-.043a.623.623 0 0 1-.247-.175l-3.109 2.518a4.612 4.612 0 0 0 1.73 1.313l1.626-3.656Zm-.129-.012a1.204 1.204 0 0 1-.187-.406l-3.918.805c.134.652.404 1.251.76 1.793l3.345-2.192ZM32.796 21a.812.812 0 0 1 .02.06 3.496 3.496 0 0 1-.039-.227l-3.961.56c.038.27.097.62.206.932L32.796 21Zm-.02-.167c-.06-.43-.022-.794.088-1.124l-3.793-1.27a6.396 6.396 0 0 0-.255 2.953l3.96-.559Zm.094-1.143.468-1.445-3.806-1.232-.467 1.445 3.805 1.232Zm.45-1.39c.374-1.05.65-1.89.812-2.483L30.27 14.77c-.118.436-.352 1.153-.72 2.187l3.768 1.342Zm.709-2.194c.138-.31.252-.576.336-.787.041-.104.083-.214.118-.319.018-.053.097-.28.125-.546l-3.978-.418a1.788 1.788 0 0 1 .057-.296l.003-.008v-.003.002l-.002.006-.008.023-.031.08c-.056.138-.145.349-.275.642l3.655 1.624Zm.567-1.56a.76.76 0 0 1-.065.214.472.472 0 0 1-.06.097l-3.05-2.588a3.364 3.364 0 0 0-.78 1.675l3.955.603Zm-.117.302c.038-.045-.164.223-.638.29l-.56-3.96c-.89.125-1.501.663-1.867 1.1l3.065 2.57Zm-.819.308a.702.702 0 0 1 .255.019c.006.002.005.002 0 0l.005.005 2.932-2.721c-.921-.993-2.147-1.36-3.39-1.299l.198 3.995Zm.355.119a.76.76 0 0 1-.157-.212.58.58 0 0 1-.057-.172l3.96-.559a3.301 3.301 0 0 0-1.003-1.968l-2.743 2.91Zm-.214-.384a.57.57 0 0 1 .092-.353l3.298 2.265a3.447 3.447 0 0 0 .57-2.47l-3.96.558Zm-.015-.178c-.635 1.166-1.219 2.682-1.768 4.492l3.827 1.162c.512-1.686 1.002-2.913 1.453-3.739l-3.512-1.915Zm-1.75 4.438a2.597 2.597 0 0 0-.115 1.202l3.96-.56c.036.25 0 .468-.053.629l-3.793-1.271Zm-.115 1.202c.067.478.271.924.417 1.216l3.58-1.783a2.797 2.797 0 0 1-.073-.16c-.001-.004 0-.003 0 0a.48.48 0 0 1 .02.077l.017.09-3.961.56Zm2.83 2.225c.837-.275 1.61-.68 2.266-1.251L34.39 18.31c-.184.16-.46.327-.885.466l1.246 3.8Zm2.317-1.297c.51-.476 1.064-1.094 1.656-1.822l-3.105-2.522c-.533.655-.958 1.118-1.28 1.42l2.73 2.924Zm1.701-1.88c.347-.462.574-.736.7-.87l-2.91-2.743c-.284.3-.619.72-.986 1.207L38.77 19.4Zm.686-.854a7.159 7.159 0 0 0 1.488-2.268l-3.703-1.512a3.17 3.17 0 0 1-.666 1.005l2.881 2.775Zm1.5-2.299a4.29 4.29 0 0 1 .206-.459c.061-.113.104-.172.122-.195.045-.055-.098.15-.469.219l-.738-3.931c-.876.164-1.497.695-1.904 1.198-.404.501-.706 1.105-.945 1.718l3.728 1.45Zm-.23-.42a.838.838 0 0 1 .09-.01c.01 0-.007.002-.046-.004l.55-3.962a4.167 4.167 0 0 0-1.154.015l.56 3.96Zm.11-.006a.734.734 0 0 1-.169-.035c-.021-.008-.016-.009.016.01l1.99-3.47a3.627 3.627 0 0 0-1.419-.483l-.418 3.978Zm13.092 9.483.476-1.943-.047-.011-.047-.01-.382 1.964Zm-1.879-1.043L50.6 25.64l.012.012.012.013 1.425-1.404Zm-1.308-2.007 1.843-.777-1.351-3.203-2.09 2.778 1.598 1.202Zm-.888 1.222 1.598 1.202.011-.015.011-.015-1.62-1.172Zm-1.666 1.72-1.225-1.581 1.225 1.58Zm-1.664.73-.832 1.818.443.203.488-.024-.1-1.998Zm-1.41-.72-1.053 1.7 1.053-1.7Zm-.726-.888 1.833-.8-3.813 1.08 1.98-.28Zm.005.035-1.75.968 3.73-1.248-1.98.28Zm-.606-5.04-1.983-.262-.002.015-.001.015 1.986.232Zm.715-4.201-1.957-.414 1.957.414Zm.796-2.375-.396-1.96-.59.119-.426.425 1.412 1.416Zm.584-.118-.28-1.98-.058.008-.058.012.396 1.96Zm.925.294-.965 1.752.026.014.025.013.914-1.78Zm.86.585 1.79-.891-.105-.213-.154-.182-1.53 1.286Zm.062 1.688 1.976.31.002-.012.001-.012-1.98-.286Zm-.395 2.212 1.958.41.003-.016.004-.017-1.965-.377Zm-.468 4.944-1.79.892.841 1.69 1.736-.743-.787-1.839Zm2.077-1.813-1.672-1.097 1.672 1.097Zm1.182-2.641 1.94.485v-.002l-1.94-.483Zm.564-2.519-1.963-.386-.005.026-.004.026 1.971.334Zm.772-3.043-.28-1.98-.519.073-.416.319 1.215 1.588Zm1.084-.082 1.178-1.616-.563-.41-.696.028.08 1.998Zm1.3.947 1.79-.891-.217-.437-.395-.288-1.178 1.617Zm-.095 3.832-1.96-.401-.005.028-.005.027 1.97.346Zm-.34 2.098-1.981-.276-.006.045-.005.044 1.992.187Zm.619 2.881-1.544 1.272 1.109 1.346 1.485-.915-1.05-1.703Zm.986-.775 1.397 1.431.03-.029.029-.03-1.456-1.372Zm.555-.573 1.332 1.492.058-.052.054-.056-1.444-1.384Zm.967-.915.866-1.802-1.184-.57-.993.862 1.311 1.51Zm.998 1.061-1.756.957.017.032.019.031 1.72-1.02Zm.562 1.476 1.721 1.019.357-.604-.098-.694-1.98.28Zm-.422.52-1.455-1.372-.262.277-.14.355 1.857.74Zm-1.329 1.6 1.237 1.573.007-.006.008-.006-1.252-1.56ZM54.31 23.34c-.269-.052-.54-.183-.836-.482l-2.85 2.807c.806.817 1.786 1.381 2.923 1.602l.763-3.927Zm-.812-.457a4.611 4.611 0 0 1-.914-1.406l-3.686 1.555A8.61 8.61 0 0 0 50.6 25.64l2.898-2.757Zm-4.355-1.831c-.094.125-.406.553-.91 1.251l3.24 2.345c.52-.72.801-1.105.866-1.191l-3.196-2.405Zm-.888 1.221a7.017 7.017 0 0 1-1.293 1.342l2.45 3.161c.753-.584 1.43-1.29 2.039-2.098l-3.196-2.405Zm-1.293 1.342c-.413.32-.582.315-.539.313l.199 3.995c1.072-.053 2.014-.545 2.79-1.147l-2.45-3.161Zm.392.492c-.608-.279-.987-.477-1.188-.602l-2.106 3.4c.418.26.98.541 1.63.839l1.664-3.637Zm-1.188-.602a.389.389 0 0 1 .08.068c.01.012-.002 0-.026-.054l-3.666 1.599c.304.697.787 1.343 1.506 1.788l2.106-3.401Zm-3.76 1.093.005.034 3.961-.559-.005-.035-3.96.56Zm3.736-1.214c-.314-.566-.477-1.064-.538-1.5l-3.961.56c.14.995.49 1.957.999 2.877l3.5-1.937Zm-.538-1.5c.002.014-.005-.028-.006-.156 0-.12.004-.282.016-.492.024-.42.076-.98.159-1.691l-3.973-.464a33.812 33.812 0 0 0-.18 1.927c-.027.492-.038 1.007.023 1.435l3.96-.559Zm.165-2.309a53.39 53.39 0 0 1 .688-4.05l-3.913-.827a57.44 57.44 0 0 0-.74 4.353l3.965.524Zm.688-4.05c.134-.633.253-1.081.351-1.373a2.14 2.14 0 0 1 .093-.242c.021-.044-.03.082-.192.244l-2.824-2.833c-.493.49-.74 1.17-.87 1.56a16.811 16.811 0 0 0-.47 1.817l3.912.828Zm-.765-.827.584-.118-.79-3.921-.585.118.791 3.92Zm.468-.098a1.36 1.36 0 0 1-.367.004.776.776 0 0 1-.13-.027c-.012-.004.043.013.178.088l1.93-3.504a5.054 5.054 0 0 0-.898-.397 2.878 2.878 0 0 0-1.272-.125l.56 3.96Zm-.268.092c.17.087.273.15.328.187l.018.013a.903.903 0 0 1-.103-.107l3.062-2.573c-.42-.5-1.026-.847-1.477-1.078l-1.828 3.558Zm-.016-.302a.807.807 0 0 1-.067-.24l3.96-.56a3.22 3.22 0 0 0-.312-.983l-3.581 1.783Zm-.067-.24c-.002-.015.006.036-.001.18a6.05 6.05 0 0 1-.06.57l3.96.572c.09-.625.145-1.293.062-1.882l-3.96.56Zm-.057.727a67.148 67.148 0 0 1-.383 2.145l3.928.753c.179-.93.315-1.693.407-2.28l-3.952-.618Zm-.376 2.11a36.182 36.182 0 0 0-.526 3.036c-.097.809-.142 1.599-.049 2.257l3.96-.56c-.017-.127-.026-.496.06-1.221.083-.688.237-1.58.47-2.69l-3.915-.822ZM44.8 22.28c.025.18.085.575.274.954l3.58-1.783a1.537 1.537 0 0 1 .107.28c.007.028.005.028 0-.01l-3.961.56Zm2.85 1.901c1.235-.528 2.217-1.418 2.963-2.555l-3.344-2.194c-.38.577-.782.896-1.192 1.071l1.574 3.678Zm2.963-2.555a10.612 10.612 0 0 0 1.45-3.253l-3.88-.97a6.617 6.617 0 0 1-.914 2.029l3.344 2.194Zm1.45-3.255c.288-1.154.492-2.056.595-2.668l-3.943-.668c-.077.45-.248 1.227-.533 2.37l3.882.966Zm.586-2.615c.126-.64.206-1.337.114-1.988l-3.96.56c-.003-.019.004.023-.005.148-.009.12-.03.286-.074.507l3.925.773Zm.114-1.988a2.154 2.154 0 0 1-.019-.225c0-.006 0 .01-.006.046a.988.988 0 0 1-.052.181l-3.734-1.434c-.273.71-.225 1.456-.15 1.991l3.961-.559Zm-.077.002a1.059 1.059 0 0 1-.141.255c-.003.003.004-.006.026-.026a1.95 1.95 0 0 1 .102-.084l-2.429-3.177c-.435.332-1.005.852-1.292 1.598l3.734 1.434Zm-.948.537c.156-.022.44-.046.886-.065l-.162-3.996c-.49.02-.93.05-1.283.1l.56 3.96Zm-.373-.447 1.3.948 2.356-3.233-1.3-.947-2.356 3.232Zm.688.223c-.01-.02-.01-.025-.005-.008a.796.796 0 0 1 .021.11l3.961-.56a4.315 4.315 0 0 0-.397-1.325l-3.58 1.783Zm.016.101c.04.278.009 1.022-.28 2.438l3.918.801c.296-1.448.467-2.782.323-3.798l-3.96.56Zm-.291 2.493a65.825 65.825 0 0 0-.351 2.168l3.962.55c.065-.47.174-1.142.329-2.028l-3.94-.69Zm-.361 2.257c-.06.645-.05 1.283.038 1.912l3.96-.56a4.186 4.186 0 0 1-.016-.979l-3.983-.373Zm.038 1.912c.123.873.44 1.715 1.028 2.428l3.088-2.543c-.039-.047-.116-.163-.155-.445l-3.961.56Zm3.622 2.859c.48-.296.924-.647 1.333-1.046l-2.794-2.864a3.693 3.693 0 0 1-.64.505l2.1 3.405Zm1.392-1.106a39.658 39.658 0 0 1 .441-.462l-.01.01-2.663-2.986c-.145.13-.405.403-.68.694l2.911 2.744Zm.543-.561c.24-.25.517-.513.834-.788l-2.622-3.021c-.396.344-.764.69-1.1 1.04l2.888 2.769Zm-1.343-.496c-.063-.03-.08-.055-.057-.03.026.027.086.1.165.245l3.512-1.914c-.405-.743-1.002-1.48-1.888-1.906l-1.732 3.605Zm.144.278c.213.36.283.6.302.736l3.96-.56c-.111-.789-.416-1.531-.821-2.215l-3.441 2.04Zm.56-.563a.732.732 0 0 1 .021-.032l.008-.01-.006.006a3.452 3.452 0 0 1-.178.203l2.91 2.743c.228-.24.495-.545.688-.872l-3.442-2.038Zm-.558.799c-.03.075-.182.347-.722.78l2.503 3.12c.814-.652 1.548-1.447 1.936-2.421l-3.717-1.48Zm-.707.769c-.48.378-.787.474-.93.494l.559 3.961c1.057-.15 2.01-.655 2.844-1.311l-2.473-3.144Zm-.93.494c-.055.008-.065.006-.042.006a1.306 1.306 0 0 1 .267.036l-.951 3.885c.498.122.98.077 1.285.034l-.56-3.96Z" mask="url(#a)"/></svg>