<svg xmlns="http://www.w3.org/2000/svg" width="71" height="42" fill="none"><mask id="a" width="75.476" height="46.564" x="-2.25" y="-2.358" fill="#000" maskUnits="userSpaceOnUse"><path fill="#fff" d="M-2.25-2.358h75.476v46.564H-2.25z"/><path d="M21.754 9.512c.078.224.05.44-.085.648-.116.181-.409.446-.878.795-.968.655-1.503 1.12-1.606 1.394-.102.108-.34.342-.714.701-.35.356-.795.796-1.333 1.32a35.923 35.923 0 0 0-2.117 2.03c-.572.623-.943 1.088-1.111 1.395-.07.01-.157.057-.263.143-.082.082-.16.117-.233.103a3.47 3.47 0 0 0-.282.252 1.62 1.62 0 0 0-.303.361 1.844 1.844 0 0 1-.268.604.572.572 0 0 1-.49.281c-.32.234-.861.746-1.621 1.537.436 1.588 1.075 2.947 1.918 4.076.88 1.384 1.714 2.374 2.505 2.97.56.462 1.07.815 1.528 1.056.481.239.837.341 1.069.309.217.04.529.16.934.363.406.202.632.382.678.54.03.043.06.18.093.411.042.3.027.61-.046.926a1.24 1.24 0 0 1-.417.801.87.87 0 0 1-.585.365c-.23.033-.628-.029-1.192-.185-.367.075-1.051-.181-2.053-.77-1.002-.59-1.789-1.15-2.359-1.682a64.18 64.18 0 0 1-1.976-2.23A9.515 9.515 0 0 1 9.2 25.74a13.667 13.667 0 0 0-.82-1.793c-.2-.42-.32-.685-.36-.797l-.064.292c-.013.072-.11.475-.29 1.207-.155.729-.352 2.006-.59 3.83-.223 1.422-.428 2.64-.614 3.657-.19.993-.366 1.666-.528 2.019-.136.372-.296.572-.481.598-.185.026-.43-.046-.737-.214-.798-.312-1.233-.722-1.305-1.23a1.915 1.915 0 0 1 .01-.426 2.724 2.724 0 0 1-.053-.876c.03-.287.042-.454.036-.5.162-.023.216-.219.164-.588-.026-.185.021-.604.14-1.258l.161-1.118.274-1.064c.163-.682.241-1.047.234-1.093-.042-.3.054-.703.29-1.207a8.54 8.54 0 0 0 .115-.936c.023-.333.02-.604-.009-.811.03-.123.12-.406.269-.851.15-.446.24-.883.274-1.312a3.24 3.24 0 0 1 .05-.396c.05-.148.095-.331.135-.549l.703-3.28.354-1.252c.03-.122.13-.501.298-1.138.193-.64.335-.966.428-.98l-.054-.38c-.013-.093.072-.411.254-.956l.298-.89c.143-.326.24-.635.294-.925a6.84 6.84 0 0 0 .125-.619 4.36 4.36 0 0 1 .104-.262c.053-.125.12-.24.199-.346a2.43 2.43 0 0 1 .644-.444c.284-.158.541-.254.772-.286.393-.056.68.057.861.338.356.515.56.958.612 1.327.036.255-.001.495-.11.723a147.18 147.18 0 0 0-1.21 3.953c-.464 1.55-.798 2.775-1 3.676l.218-.208c.516-.685 1.362-1.618 2.538-2.797l3.774-4.068c.601-.415 1.292-1.03 2.072-1.848.211-.17.378-.324.5-.46a2 2 0 0 1 .313-.29c.122-.136.372-.371.748-.707.374-.36.62-.535.739-.529.152-.092.373-.029.663.19.29.218.542.5.756.847.237.344.357.61.36.798ZM21.24 38.78a.566.566 0 0 1-.564-.239 8.284 8.284 0 0 1-.37-.372c-.221-.228-.366-.584-.434-1.07a4.302 4.302 0 0 1-.01-.564c.118-1.006.15-1.694.098-2.064a2.938 2.938 0 0 1-.004-.53c.017-.214.024-.415.02-.603.07-.175.116-.44.136-.797a3.21 3.21 0 0 0 .016-.886 1.1 1.1 0 0 1 .045-.43c.073-.152.16-.282.263-.39a2.868 2.868 0 0 1 .016-.64c.027-.31.044-.524.05-.643.028-.64.27-2.182.726-4.627.456-2.444.86-4.422 1.212-5.932.186-.686.332-1.32.44-1.9.106-.581.143-.987.11-1.218a.432.432 0 0 1 .035-.252c.056-.103.144-.233.263-.39.159-.212.388-.338.689-.38.392-.056.791.017 1.197.219a3.7 3.7 0 0 1 .44.61c.095.174.16.378.192.608.01.07.017.293.023.669.069.485-.008.944-.23 1.375-.221.432-.322.635-.303.609 1.035-.853 2.037-1.348 3.007-1.485 1.04-.147 1.924.105 2.652.756.725.629 1.158 1.44 1.298 2.433.056.393-.046 1.008-.305 1.846-.262.814-.494 1.342-.695 1.582-.139.02-.29.289-.452.806-.225.41-.701.877-1.428 1.404-.707.5-1.205.724-1.496.67-.023.004-.053.044-.09.12-.039.052-.052.125-.04.217.014.092-.31.303-.97.632-.66.329-1.245.53-1.753.601-.278.04-.487.057-.63.053a1.31 1.31 0 0 1-.45-.183c-.138.184-.198.346-.178.484.032.231-.03.617-.19 1.158-.163.518-.313.787-.452.806a1.04 1.04 0 0 0-.084.154c-.014.072.032.148.138.228.01.069.021.232.034.49.012.257-.018.462-.09.613.029.208.034.49.013.847-.017.38-.059.668-.125.866.04.277.03.55-.026.816-.03.288-.091.438-.184.45-.132.066-.154.411-.066 1.035.055.558-.06 1.08-.344 1.568-.261.485-.542.749-.843.791l-.307.079Zm3.03-12.835c.324-.046.9-.304 1.73-.774.848-.497 1.456-.948 1.823-1.354.47-.514.816-.975 1.042-1.384.225-.409.311-.798.259-1.168a1.637 1.637 0 0 0-.444-.891c-.198-.232-.458-.324-.782-.279-.762.108-1.672.837-2.73 2.189-.355.497-.646 1.104-.875 1.82-.232.692-.323 1.212-.274 1.558.029.208.113.303.252.283Zm14.466-6.92c.697-.405 1.38-.655 2.05-.75.763-.107 1.401-.009 1.916.296.534.278.853.786.957 1.526.171.376.286.772.345 1.188.046.324.058.663.038 1.02-.491 1.53-1.049 2.587-1.673 3.17-.278.37-.703.783-1.274 1.24-.572.458-1.102.792-1.59 1.002-.892.362-1.477.562-1.754.602-.254.035-.48.02-.678-.046-.198-.066-.44-.197-.727-.392-.363-.232-.57-.533-.622-.902.002.518-.23.88-.695 1.088-.541.005-.954-.078-1.237-.25-.264-.198-.428-.529-.493-.99a5.993 5.993 0 0 1-.02-.634c.024-.168.053-.55.087-1.143a11.27 11.27 0 0 1 .195-1.371l.479-2.118c.282-1.336.503-2.357.663-3.063.183-.709.367-1.242.552-1.598l.488-2.048.437-.415c.584-.036.998.06 1.242.284.24.202.442.55.607 1.045.012.258-.285 1.49-.892 3.696-.073.317-.15.61-.23.881a10.87 10.87 0 0 1-.179.732c.926-1.12 1.595-1.804 2.008-2.05Zm10.403-5.18c.247.412.395.792.444 1.138.042.3.023.586-.056.857-.126.441-.4 1.753-.823 3.933-.403 2.154-.621 3.446-.655 3.875-.15.61-.22 1.362-.211 2.256.075.202.071.426-.011.674-.083.247-.252.471-.507.672-.7.052-1.239-.014-1.618-.196-.382-.205-.698-.608-.948-1.209a5.478 5.478 0 0 1-.023-1.41c.054-.456.09-.78.11-.97.131-1.08.294-2.01.49-2.792.05-.148.165-.588.344-1.32.267-1.452.445-2.69.536-3.717a92.41 92.41 0 0 0 .196-1.866c.274-.392.596-.614.966-.666.508-.072 1.097.175 1.766.74Zm-8.857 10.122c.705-1.184 1.03-2.137.975-2.86-.01-.069-.069-.155-.178-.257a1.839 1.839 0 0 1-.252-.283c-.545.313-.898.563-1.06.75a4.21 4.21 0 0 0-.307.327c-.863.9-1.45 1.583-1.761 2.051-.31.468-.692 1.194-1.142 2.176l.386-.019c.175.07.378.088.609.056.485-.069.995-.294 1.53-.676.559-.385.959-.807 1.2-1.265Zm26.98-10.632c-.127.442-.265 1.38-.416 2.816-.127 1.432-.175 2.428-.143 2.99.058.745.11 1.28.156 1.603.065.462.17.872.314 1.228.197.562.314.97.35 1.224.052.37-.003.648-.165.836-.136.207-.393.385-.773.533-.393.056-.714.03-.965-.076-.224-.086-.429-.28-.613-.585a69.55 69.55 0 0 1-.459-.748 8.629 8.629 0 0 1-.44-.857 3.285 3.285 0 0 1-.151-.827 4.3 4.3 0 0 1-.148-.544c-.062-.274-.073-.438-.034-.49l-.098-.446c-.075-.532-.088-1.543-.04-3.034a7.042 7.042 0 0 0-.431.697c-.08.105-.156.234-.229.386a2.781 2.781 0 0 1-.288.464 72.42 72.42 0 0 1-.958 1.726c-.228.386-.426.732-.595 1.039a2.954 2.954 0 0 0-.274.816c-.04.383-.154.658-.343.826-.165.165-.396.28-.693.345-.093.013-.454-.207-1.083-.66a1.62 1.62 0 0 1-.652-1.11 4.21 4.21 0 0 1-.014-.598c-.02-.14-.122-.784-.308-1.936-.19-1.175-.474-2.101-.852-2.779l-3.046 6.97c-.215.313-.36.699-.437 1.157-.212.666-.503 1.026-.873 1.078-.185.026-.383-.04-.594-.199-.52-.186-.88-.394-1.078-.625-.2-.255-.358-.704-.473-1.348.15-.445.315-.692.497-.741 1.139-2.447 1.813-3.85 2.02-4.21.23-.385.38-.654.453-.805.11-.393.367-.9.774-1.524.03-.122.225-.49.586-1.107.384-.62.652-.976.804-1.068l.144-.48c.034-.594.386-.938 1.056-1.033.139-.02.256-.024.352-.014.244.06.458.159.642.298.205.113.375.23.51.352l.395.298.287.525c-.02.191-.024.333-.011.426.023.161.174.564.453 1.208-.006.119.105.492.335 1.12.302.805.434 1.317.394 1.534.466-.867 1.99-3.014 4.569-6.442.307-.326.553-.502.738-.528a.927.927 0 0 1 .47.075c.323.12.518.245.584.377.062.109.197.231.405.367.25.27.398.568.444.891a1.19 1.19 0 0 1-.055.61Z"/></mask><path fill="#165298" d="M21.754 9.512c.078.224.05.44-.085.648-.116.181-.409.446-.878.795-.968.655-1.503 1.12-1.606 1.394-.102.108-.34.342-.714.701-.35.356-.795.796-1.333 1.32a35.923 35.923 0 0 0-2.117 2.03c-.572.623-.943 1.088-1.111 1.395-.07.01-.157.057-.263.143-.082.082-.16.117-.233.103a3.47 3.47 0 0 0-.282.252 1.62 1.62 0 0 0-.303.361 1.844 1.844 0 0 1-.268.604.572.572 0 0 1-.49.281c-.32.234-.861.746-1.621 1.537.436 1.588 1.075 2.947 1.918 4.076.88 1.384 1.714 2.374 2.505 2.97.56.462 1.07.815 1.528 1.056.481.239.837.341 1.069.309.217.04.529.16.934.363.406.202.632.382.678.54.03.043.06.18.093.411.042.3.027.61-.046.926a1.24 1.24 0 0 1-.417.801.87.87 0 0 1-.585.365c-.23.033-.628-.029-1.192-.185-.367.075-1.051-.181-2.053-.77-1.002-.59-1.789-1.15-2.359-1.682a64.18 64.18 0 0 1-1.976-2.23A9.515 9.515 0 0 1 9.2 25.74a13.667 13.667 0 0 0-.82-1.793c-.2-.42-.32-.685-.36-.797l-.064.292c-.013.072-.11.475-.29 1.207-.155.729-.352 2.006-.59 3.83-.223 1.422-.428 2.64-.614 3.657-.19.993-.366 1.666-.528 2.019-.136.372-.296.572-.481.598-.185.026-.43-.046-.737-.214-.798-.312-1.233-.722-1.305-1.23a1.915 1.915 0 0 1 .01-.426 2.724 2.724 0 0 1-.053-.876c.03-.287.042-.454.036-.5.162-.023.216-.219.164-.588-.026-.185.021-.604.14-1.258l.161-1.118.274-1.064c.163-.682.241-1.047.234-1.093-.042-.3.054-.703.29-1.207a8.54 8.54 0 0 0 .115-.936c.023-.333.02-.604-.009-.811.03-.123.12-.406.269-.851.15-.446.24-.883.274-1.312a3.24 3.24 0 0 1 .05-.396c.05-.148.095-.331.135-.549l.703-3.28.354-1.252c.03-.122.13-.501.298-1.138.193-.64.335-.966.428-.98l-.054-.38c-.013-.093.072-.411.254-.956l.298-.89c.143-.326.24-.635.294-.925a6.84 6.84 0 0 0 .125-.619 4.36 4.36 0 0 1 .104-.262c.053-.125.12-.24.199-.346a2.43 2.43 0 0 1 .644-.444c.284-.158.541-.254.772-.286.393-.056.68.057.861.338.356.515.56.958.612 1.327.036.255-.001.495-.11.723a147.18 147.18 0 0 0-1.21 3.953c-.464 1.55-.798 2.775-1 3.676l.218-.208c.516-.685 1.362-1.618 2.538-2.797l3.774-4.068c.601-.415 1.292-1.03 2.072-1.848.211-.17.378-.324.5-.46a2 2 0 0 1 .313-.29c.122-.136.372-.371.748-.707.374-.36.62-.535.739-.529.152-.092.373-.029.663.19.29.218.542.5.756.847.237.344.357.61.36.798ZM21.24 38.78a.566.566 0 0 1-.564-.239 8.284 8.284 0 0 1-.37-.372c-.221-.228-.366-.584-.434-1.07a4.302 4.302 0 0 1-.01-.564c.118-1.006.15-1.694.098-2.064a2.938 2.938 0 0 1-.004-.53c.017-.214.024-.415.02-.603.07-.175.116-.44.136-.797a3.21 3.21 0 0 0 .016-.886 1.1 1.1 0 0 1 .045-.43c.073-.152.16-.282.263-.39a2.868 2.868 0 0 1 .016-.64c.027-.31.044-.524.05-.643.028-.64.27-2.182.726-4.627.456-2.444.86-4.422 1.212-5.932.186-.686.332-1.32.44-1.9.106-.581.143-.987.11-1.218a.432.432 0 0 1 .035-.252c.056-.103.144-.233.263-.39.159-.212.388-.338.689-.38.392-.056.791.017 1.197.219a3.7 3.7 0 0 1 .44.61c.095.174.16.378.192.608.01.07.017.293.023.669.069.485-.008.944-.23 1.375-.221.432-.322.635-.303.609 1.035-.853 2.037-1.348 3.007-1.485 1.04-.147 1.924.105 2.652.756.725.629 1.158 1.44 1.298 2.433.056.393-.046 1.008-.305 1.846-.262.814-.494 1.342-.695 1.582-.139.02-.29.289-.452.806-.225.41-.701.877-1.428 1.404-.707.5-1.205.724-1.496.67-.023.004-.053.044-.09.12-.039.052-.052.125-.04.217.014.092-.31.303-.97.632-.66.329-1.245.53-1.753.601-.278.04-.487.057-.63.053a1.31 1.31 0 0 1-.45-.183c-.138.184-.198.346-.178.484.032.231-.03.617-.19 1.158-.163.518-.313.787-.452.806a1.04 1.04 0 0 0-.084.154c-.014.072.032.148.138.228.01.069.021.232.034.49.012.257-.018.462-.09.613.029.208.034.49.013.847-.017.38-.059.668-.125.866.04.277.03.55-.026.816-.03.288-.091.438-.184.45-.132.066-.154.411-.066 1.035.055.558-.06 1.08-.344 1.568-.261.485-.542.749-.843.791l-.307.079Zm3.03-12.835c.324-.046.9-.304 1.73-.774.848-.497 1.456-.948 1.823-1.354.47-.514.816-.975 1.042-1.384.225-.409.311-.798.259-1.168a1.637 1.637 0 0 0-.444-.891c-.198-.232-.458-.324-.782-.279-.762.108-1.672.837-2.73 2.189-.355.497-.646 1.104-.875 1.82-.232.692-.323 1.212-.274 1.558.029.208.113.303.252.283Zm14.466-6.92c.697-.405 1.38-.655 2.05-.75.763-.107 1.401-.009 1.916.296.534.278.853.786.957 1.526.171.376.286.772.345 1.188.046.324.058.663.038 1.02-.491 1.53-1.049 2.587-1.673 3.17-.278.37-.703.783-1.274 1.24-.572.458-1.102.792-1.59 1.002-.892.362-1.477.562-1.754.602-.254.035-.48.02-.678-.046-.198-.066-.44-.197-.727-.392-.363-.232-.57-.533-.622-.902.002.518-.23.88-.695 1.088-.541.005-.954-.078-1.237-.25-.264-.198-.428-.529-.493-.99a5.993 5.993 0 0 1-.02-.634c.024-.168.053-.55.087-1.143a11.27 11.27 0 0 1 .195-1.371l.479-2.118c.282-1.336.503-2.357.663-3.063.183-.709.367-1.242.552-1.598l.488-2.048.437-.415c.584-.036.998.06 1.242.284.24.202.442.55.607 1.045.012.258-.285 1.49-.892 3.696-.073.317-.15.61-.23.881a10.87 10.87 0 0 1-.179.732c.926-1.12 1.595-1.804 2.008-2.05Zm10.403-5.18c.247.412.395.792.444 1.138.042.3.023.586-.056.857-.126.441-.4 1.753-.823 3.933-.403 2.154-.621 3.446-.655 3.875-.15.61-.22 1.362-.211 2.256.075.202.071.426-.011.674-.083.247-.252.471-.507.672-.7.052-1.239-.014-1.618-.196-.382-.205-.698-.608-.948-1.209a5.478 5.478 0 0 1-.023-1.41c.054-.456.09-.78.11-.97.131-1.08.294-2.01.49-2.792.05-.148.165-.588.344-1.32.267-1.452.445-2.69.536-3.717a92.41 92.41 0 0 0 .196-1.866c.274-.392.596-.614.966-.666.508-.072 1.097.175 1.766.74Zm-8.857 10.122c.705-1.184 1.03-2.137.975-2.86-.01-.069-.069-.155-.178-.257a1.839 1.839 0 0 1-.252-.283c-.545.313-.898.563-1.06.75a4.21 4.21 0 0 0-.307.327c-.863.9-1.45 1.583-1.761 2.051-.31.468-.692 1.194-1.142 2.176l.386-.019c.175.07.378.088.609.056.485-.069.995-.294 1.53-.676.559-.385.959-.807 1.2-1.265Zm26.98-10.632c-.127.442-.265 1.38-.416 2.816-.127 1.432-.175 2.428-.143 2.99.058.745.11 1.28.156 1.603.065.462.17.872.314 1.228.197.562.314.97.35 1.224.052.37-.003.648-.165.836-.136.207-.393.385-.773.533-.393.056-.714.03-.965-.076-.224-.086-.429-.28-.613-.585a69.55 69.55 0 0 1-.459-.748 8.629 8.629 0 0 1-.44-.857 3.285 3.285 0 0 1-.151-.827 4.3 4.3 0 0 1-.148-.544c-.062-.274-.073-.438-.034-.49l-.098-.446c-.075-.532-.088-1.543-.04-3.034a7.042 7.042 0 0 0-.431.697c-.08.105-.156.234-.229.386a2.781 2.781 0 0 1-.288.464 72.42 72.42 0 0 1-.958 1.726c-.228.386-.426.732-.595 1.039a2.954 2.954 0 0 0-.274.816c-.04.383-.154.658-.343.826-.165.165-.396.28-.693.345-.093.013-.454-.207-1.083-.66a1.62 1.62 0 0 1-.652-1.11 4.21 4.21 0 0 1-.014-.598c-.02-.14-.122-.784-.308-1.936-.19-1.175-.474-2.101-.852-2.779l-3.046 6.97c-.215.313-.36.699-.437 1.157-.212.666-.503 1.026-.873 1.078-.185.026-.383-.04-.594-.199-.52-.186-.88-.394-1.078-.625-.2-.255-.358-.704-.473-1.348.15-.445.315-.692.497-.741 1.139-2.447 1.813-3.85 2.02-4.21.23-.385.38-.654.453-.805.11-.393.367-.9.774-1.524.03-.122.225-.49.586-1.107.384-.62.652-.976.804-1.068l.144-.48c.034-.594.386-.938 1.056-1.033.139-.02.256-.024.352-.014.244.06.458.159.642.298.205.113.375.23.51.352l.395.298.287.525c-.02.191-.024.333-.011.426.023.161.174.564.453 1.208-.006.119.105.492.335 1.12.302.805.434 1.317.394 1.534.466-.867 1.99-3.014 4.569-6.442.307-.326.553-.502.738-.528a.927.927 0 0 1 .47.075c.323.12.518.245.584.377.062.109.197.231.405.367.25.27.398.568.444.891a1.19 1.19 0 0 1-.055.61Z"/><path fill="#fff" d="m21.754 9.512-2 .031.005.325.108.306 1.887-.662Zm-.085.648-1.675-1.094-.006.009-.005.008 1.686 1.077Zm-.878.795 1.121 1.657.037-.025.036-.027-1.194-1.605Zm-1.606 1.394 1.456 1.371.275-.292.142-.377-1.873-.702Zm-.714.701-1.386-1.441-.02.019-.019.02 1.425 1.402Zm-1.333 1.32 1.33 1.492.033-.028.03-.03-1.393-1.434ZM15.02 16.4l-1.45-1.377-.012.012-.011.013L15.02 16.4Zm-1.111 1.395.28 1.98.99-.14.482-.876-1.752-.964Zm-.263.143-1.258-1.554-.08.064-.074.073 1.412 1.417Zm-.233.103.361-1.967-.815-.15-.681.471 1.135 1.646Zm-.585.613-1.752-.964-.138.25-.062.28 1.952.434Zm-.268.604-1.675-1.094-.005.008-.005.01 1.685 1.076Zm-.49.281-.06-2-.619.02-.5.364 1.179 1.616Zm-1.621 1.537L9.008 19.69l-.788.82.301 1.096 1.928-.53Zm1.918 4.076 1.689-1.072-.04-.063-.046-.06-1.603 1.195Zm2.505 2.97 1.274-1.542-.035-.03-.036-.027-1.203 1.598Zm1.528 1.056-.933 1.77.023.011.022.012.888-1.793Zm1.069.309.36-1.967-.319-.059-.321.046.28 1.98Zm.934.363.892-1.79-.892 1.79Zm.678.54-1.921.557.09.312.184.267 1.647-1.136Zm.047 1.337-1.949-.45-.02.086-.012.089 1.981.275Zm-.417.801-1.3-1.52-.166.142-.132.175 1.598 1.203Zm-1.777.18.533-1.927-.464-.129-.472.097.403 1.96Zm-2.053-.77-1.014 1.724 1.014-1.724Zm-2.359-1.682-1.469 1.357.05.054.055.05 1.364-1.461Zm-1.976-2.23-1.56 1.25.014.019.015.017 1.531-1.287ZM9.2 25.74l-1.882.678.017.049.02.048L9.2 25.74Zm-.82-1.793-1.803.863.02.041.02.04 1.764-.944Zm-.36-.797 1.888-.663-2.321-6.61-1.519 6.84 1.953.433Zm-.064.292-1.953-.434-.008.036-.006.037 1.967.36Zm-.29 1.207-1.942-.476-.007.028-.006.029 1.956.419Zm-.59 3.83 1.976.31.005-.026.003-.026-1.983-.258Zm-.614 3.657 1.964.375.002-.007.001-.007-1.967-.361Zm-.528 2.019-1.817-.836-.034.074-.028.076 1.879.686Zm-1.218.384.964-1.752-.115-.064-.122-.047-.727 1.863Zm-1.294-1.656 1.989.21.033-.323-.07-.317-1.952.43Zm-.054-.876L1.38 31.8l1.99.21Zm.036-.5-.28-1.98-1.98.28.28 1.98 1.98-.28Zm.305-1.845 1.967.36.007-.038.006-.039-1.98-.284Zm.16-1.119-1.937-.499-.027.107-.016.108 1.98.284Zm.274-1.064 1.937.5.004-.018.005-.018-1.946-.464Zm.523-2.3 1.813.844.108-.232.047-.252-1.968-.36Zm.116-.936 1.995.142-1.995-.142Zm-.009-.811-1.942-.476-.092.374.054.381 1.98-.28Zm.269-.851 1.896.635-1.896-.635Zm.274-1.312 1.994.157.002-.021.001-.021-1.997-.115Zm.05-.396L3.47 20.24l-.045.135-.026.14 1.967.36Zm.135-.549-1.956-.419-.006.03-.005.028 1.967.361Zm.703-3.28L4.28 16.5l-.017.062-.013.063 1.955.419Zm.354-1.252 1.924.544.01-.034.008-.034-1.942-.476Zm.298-1.138-1.915-.576-.009.03-.008.032 1.932.514Zm.428-.98.28 1.981 1.98-.28-.28-1.98-1.98.28Zm.2-1.336 1.896.636-1.896-.636Zm.298-.89-1.833-.8-.035.081-.028.083 1.896.636Zm.294-.925-1.949-.45-.01.044-.008.045 1.967.36Zm.125-.619L6.304 9.27l-.07.208-.022.218 1.989.21Zm.104-.262-1.842-.779 1.842.78Zm.199-.346L7.092 7.881l-.101.1-.086.114 1.599 1.202Zm.644-.444.891 1.79.04-.02.04-.022-.971-1.748Zm1.633.052-1.68 1.084.016.026.018.026 1.646-1.136Zm.502 2.05-1.803-.866-.058.12-.042.128 1.903.618Zm-1.21 3.953 1.916.574.004-.012-1.92-.562Zm-1 3.676-1.952-.44-1.448 6.435 4.778-4.546-1.378-1.45Zm.218-.208 1.378 1.45.12-.115.1-.132-1.598-1.203Zm2.538-2.797 1.416 1.412.026-.025.025-.027-1.466-1.36Zm3.774-4.068-1.136-1.646-.18.125-.15.161 1.466 1.36Zm2.072-1.848L16.416 8.11l-.1.08-.088.093 1.447 1.381Zm.813-.75 1.136 1.646.19-.132.156-.172-1.482-1.343Zm.748-.707 1.332 1.492.027-.025.027-.026-1.386-1.441Zm.739-.529-.114 1.997.62.036.53-.323-1.036-1.71Zm.663.19-1.203 1.598 1.203-1.599Zm.756.847-1.703 1.05.027.044.03.042 1.646-1.136Zm-1.527 1.46a1.293 1.293 0 0 1 .127-1.108l3.349 2.188a2.702 2.702 0 0 0 .298-2.405l-3.774 1.325Zm.116-1.09a1.133 1.133 0 0 1 .09-.122c.001-.002-.014.015-.054.051a5.899 5.899 0 0 1-.422.338l2.388 3.209a9.5 9.5 0 0 0 .72-.584c.188-.17.447-.423.65-.74l-3.372-2.153Zm-.313.215a14.2 14.2 0 0 0-1.317.985c-.177.154-.36.327-.523.516a2.824 2.824 0 0 0-.517.846l3.745 1.405c-.053.14-.11.236-.142.283a.79.79 0 0 1-.06.082c-.004.004.027-.032.118-.11.182-.158.484-.387.938-.694L19.67 9.299Zm-1.94 1.678c-.062.066-.262.263-.645.632l2.772 2.883c.364-.35.64-.62.784-.772l-2.911-2.743Zm-.684.67c-.336.342-.77.77-1.303 1.289l2.789 2.868c.544-.53 1-.98 1.364-1.35l-2.85-2.807Zm-1.24 1.23a37.886 37.886 0 0 0-2.235 2.146l2.9 2.756a33.934 33.934 0 0 1 1.998-1.917l-2.663-2.985Zm-2.258 2.17c-.571.622-1.093 1.244-1.39 1.783l3.504 1.93a.713.713 0 0 1 .051-.08c.039-.054.092-.126.165-.217.147-.184.35-.42.616-.71l-2.946-2.705Zm.082.767c-.632.09-1.075.434-1.242.57l2.518 3.108a1.1 1.1 0 0 1-.157.102c-.085.046-.28.141-.56.181l-.559-3.96Zm-1.395.707c.105-.104.66-.608 1.54-.447l-.722 3.934c1.026.189 1.736-.385 2.006-.654l-2.824-2.833Zm.044-.126c-.2.139-.42.349-.526.45l2.757 2.897a10.537 10.537 0 0 1 .133-.123l.006-.005a1.182 1.182 0 0 1-.099.074l-2.271-3.293Zm-.526.45a3.57 3.57 0 0 0-.676.845l3.504 1.929a1.164 1.164 0 0 1-.101.153l.03-.03-2.757-2.898Zm-.876 1.376a.45.45 0 0 1 .025-.082c.004-.009.001 0-.015.025l3.349 2.187c.236-.362.44-.784.546-1.263l-3.905-.867Zm-.002-.04c.091-.142.246-.317.482-.452.236-.136.471-.184.654-.19l.119 4a2.57 2.57 0 0 0 2.117-1.205l-3.371-2.153Zm.017-.258c-.483.352-1.137.99-1.884 1.767l2.883 2.772c.774-.805 1.2-1.192 1.358-1.307l-2.357-3.232ZM8.52 21.606c.491 1.788 1.23 3.382 2.244 4.742l3.206-2.391c-.67-.9-1.212-2.024-1.593-3.411l-3.857 1.06Zm2.159 4.618c.934 1.472 1.922 2.691 2.99 3.495l2.406-3.196c-.514-.386-1.196-1.146-2.02-2.443l-3.376 2.145Zm2.92 3.44c.626.517 1.251.958 1.868 1.283l1.866-3.538c-.3-.158-.694-.422-1.187-.83l-2.548 3.084Zm1.913 1.306c.305.151.63.29.961.386a3.08 3.08 0 0 0 1.275.111l-.56-3.96c.153-.022.266-.014.321-.007.057.007.084.015.074.013a3.125 3.125 0 0 1-.296-.127l-1.775 3.585Zm1.595.484c-.06-.011-.056-.018.035.018.083.032.204.085.37.168l1.783-3.58c-.436-.218-.957-.447-1.466-.54l-.721 3.934Zm.405.186c.139.07.158.092.117.06a1.155 1.155 0 0 1-.177-.181 1.646 1.646 0 0 1-.292-.572l3.841-1.114c-.196-.676-.655-1.083-.876-1.26a4.674 4.674 0 0 0-.83-.514l-1.783 3.581Zm-.078-.114a1.87 1.87 0 0 1-.226-.446c-.022-.065-.031-.108-.032-.112-.002-.009.005.022.018.113l3.96-.56a5.5 5.5 0 0 0-.078-.439A2.862 2.862 0 0 0 21 29.8a2.196 2.196 0 0 0-.271-.546l-3.293 2.272Zm-.24-.445a.527.527 0 0 1-.015.196l3.898.9a4.518 4.518 0 0 0 .077-1.655l-3.96.559Zm-.047.37a.63.63 0 0 1 .068-.195.843.843 0 0 1 .197-.249l2.598 3.042c.647-.553.993-1.287 1.099-2.047l-3.962-.55Zm-.034-.126c.046-.061.134-.157.273-.244.143-.09.303-.146.46-.168l.56 3.96a2.868 2.868 0 0 0 1.903-1.142l-3.196-2.406Zm.734-.412a.82.82 0 0 1 .167-.01c.01 0-.006 0-.053-.008a4.639 4.639 0 0 1-.494-.114L16.4 34.636c.545.15 1.314.335 2.006.238l-.56-3.961Zm-1.316-.164c.234-.048.39-.02.409-.017.028.005.002.003-.092-.032-.19-.072-.501-.22-.954-.487l-2.027 3.449c.55.323 1.082.597 1.576.782.415.156 1.13.38 1.893.223l-.805-3.918Zm-.637-.536c-.93-.547-1.582-1.023-2.007-1.419l-2.73 2.924c.716.668 1.637 1.313 2.71 1.944l2.027-3.449ZM13.993 28.9a62.174 62.174 0 0 1-1.915-2.16l-3.062 2.573a66.12 66.12 0 0 0 2.038 2.301l2.938-2.714Zm-1.886-2.125a7.517 7.517 0 0 1-1.063-1.807l-3.688 1.549c.423 1.007.965 1.93 1.631 2.76l3.12-2.502Zm-1.026-1.71a15.647 15.647 0 0 0-.937-2.06l-3.526 1.888c.319.596.547 1.103.7 1.527l3.763-1.355Zm-.896-1.979a25.126 25.126 0 0 1-.277-.598c-.013-.033-.01-.027 0 .001l-3.774 1.325c.083.238.259.614.443.998l3.608-1.726Zm-4.117-.368-.065.292 3.905.867.065-.292-3.905-.867Zm-.08.365-.006.027-.053.224-.205.841 3.885.952c.168-.682.287-1.174.314-1.323l-3.934-.721Zm-.277 1.149c-.175.818-.38 2.168-.618 3.991l3.967.516c.237-1.826.425-3.029.562-3.669l-3.91-.838Zm-.61 3.939a145.678 145.678 0 0 1-.606 3.606l3.934.722c.19-1.038.398-2.275.623-3.708l-3.951-.62Zm-.604 3.592c-.09.47-.171.84-.244 1.118a5.523 5.523 0 0 1-.094.325c-.027.082-.042.115-.042.115L7.75 34.99c.277-.602.489-1.501.675-2.479l-3.929-.75Zm-.442 1.708c-.03.081-.013-.001.098-.139a1.597 1.597 0 0 1 1.02-.558l.56 3.961c.757-.107 1.258-.549 1.537-.896.271-.337.437-.706.543-.997l-3.758-1.37Zm1.118-.697c.271-.038.46.01.515.026.059.017.06.026-.008-.011l-1.929 3.504c.4.22 1.13.562 1.981.442l-.559-3.96Zm.27-.097c-.12-.047-.2-.087-.248-.115-.048-.028-.052-.037-.032-.018.021.02.071.073.12.163a.932.932 0 0 1 .108.324l-3.96.56c.227 1.612 1.556 2.422 2.558 2.813l1.454-3.727Zm-.052.354a1.216 1.216 0 0 1 .012.146v.008a.238.238 0 0 1 .002-.024c0-.016.003-.038.006-.067l-3.979-.418a3.84 3.84 0 0 0-.001.915l3.96-.56Zm-.016-.576a.727.727 0 0 1-.017-.237L1.379 31.8c-.053.512-.02 1.02.09 1.516l3.906-.861Zm-.017-.237c.016-.152.029-.291.037-.408.001-.02.028-.304-.01-.58l-3.961.559a1.875 1.875 0 0 1-.018-.272v-.01l-.001.02a5.068 5.068 0 0 1-.026.273l3.979.418ZM3.684 33.49a2.17 2.17 0 0 0 1.244-.625c.33-.334.488-.708.565-.982.14-.502.093-.974.056-1.242l-3.961.56c.014.1-.033-.089.052-.394.05-.176.166-.473.443-.753.3-.304.676-.474 1.041-.525l.56 3.96Zm1.865-2.85c.016.118.011.188.012.167 0-.009.002-.045.01-.117.017-.145.05-.362.105-.666l-3.934-.721c-.064.35-.115.668-.146.942-.024.221-.06.591-.008.955l3.96-.56Zm.14-.693.16-1.118-3.96-.567-.16 1.118 3.96.567Zm.117-.903.274-1.064-3.874-.997-.274 1.063 3.874.998Zm.282-1.099c.083-.345.147-.625.191-.83.022-.1.042-.2.058-.29a3.114 3.114 0 0 0 .038-.33c.003-.045.01-.197-.017-.387l-3.96.56a1.958 1.958 0 0 1-.009-.48l.007-.05a36.172 36.172 0 0 1-.199.879l3.891.928Zm.27-1.837a.88.88 0 0 1 .008.189c-.003.033-.007.044-.003.03a.964.964 0 0 1 .032-.1c.019-.053.046-.12.084-.202l-3.625-1.69c-.282.605-.582 1.445-.457 2.332l3.96-.559Zm.276-.566c.068-.372.115-.758.143-1.155l-3.99-.283c-.02.269-.05.507-.088.716l3.935.722Zm.143-1.155a5.943 5.943 0 0 0-.023-1.233l-3.961.56a.81.81 0 0 1 .005.1c0 .07-.002.165-.011.29l3.99.283Zm-.061-.478c-.002.01.01-.037.054-.178.04-.126.096-.296.168-.513l-3.792-1.271c-.141.42-.261.79-.315 1.01l3.885.952Zm.222-.69a7.467 7.467 0 0 0 .372-1.791l-3.988-.313c-.02.252-.074.528-.176.832l3.792 1.271Zm.375-1.834c.001-.019.006-.067.02-.149L3.4 20.514a5.223 5.223 0 0 0-.08.642l3.994.229Zm-.05.126c.09-.266.154-.548.205-.824l-3.934-.722a2.34 2.34 0 0 1-.064.275l3.793 1.271Zm.194-.766.703-3.28-3.911-.838-.704 3.28 3.912.838Zm.672-3.156.353-1.252-3.85-1.086L4.28 16.5l3.85 1.087Zm.371-1.32c.024-.097.117-.452.29-1.099l-3.866-1.028a94.63 94.63 0 0 0-.309 1.176l3.885.952Zm.272-1.037c.09-.297.146-.448.169-.501.015-.035-.013.039-.091.152a1.745 1.745 0 0 1-.29.321c-.144.126-.48.38-.997.453l-.559-3.96c-.54.075-.9.343-1.071.491a2.26 2.26 0 0 0-.373.42c-.137.198-.23.395-.286.524-.119.273-.23.605-.333.948l3.83 1.152Zm.492-1.835-.054-.381-3.96.56.053.38 3.961-.559Zm-.054-.381a1.85 1.85 0 0 1 .014.387c-.005.065-.013.11-.015.124l-.003.018.01-.043a14.93 14.93 0 0 1 .164-.525l-3.792-1.272c-.097.287-.179.55-.237.768-.029.108-.06.236-.083.367-.012.067-.07.375-.018.735l3.96-.56Zm.17-.04.299-.89-3.793-1.272-.298.891 3.792 1.271Zm.235-.726a6.24 6.24 0 0 0 .428-1.364l-3.934-.722c-.02.112-.067.273-.16.486l3.666 1.6Zm.41-1.275c.066-.286.14-.619.165-.86l-3.978-.418c.003-.036.007-.052.004-.035a13.03 13.03 0 0 1-.089.413l3.898.9Zm.072-.433-.008.023.008-.021c.01-.027.027-.066.05-.12L6.463 8.863a6.052 6.052 0 0 0-.159.406l3.793 1.27Zm.05-.119a.377.377 0 0 1-.045.078L6.905 8.095c-.18.24-.327.498-.442.77l3.684 1.557Zm-.232.292c-.02.02.004-.011.124-.071l-1.783-3.58a4.44 4.44 0 0 0-1.164.818l2.823 2.833Zm.205-.113a.997.997 0 0 1 .128-.063c.018-.006 0 .002-.048.01l-.56-3.962a4.268 4.268 0 0 0-1.464.519L10.12 10.6Zm.08-.054c-.05.007-.244.025-.5-.076a1.271 1.271 0 0 1-.6-.482l3.362-2.168a2.73 2.73 0 0 0-1.3-1.073 2.993 2.993 0 0 0-1.521-.162l.559 3.961Zm-1.065-.506c.13.188.207.327.25.42.043.094.035.107.027.051l3.961-.56c-.115-.818-.518-1.563-.946-2.183l-3.292 2.272Zm.277.471a.762.762 0 0 1 .067-.423l3.607 1.732c.283-.59.377-1.23.287-1.868l-3.96.559Zm-.032-.175a149.29 149.29 0 0 0-1.226 4.008l3.839 1.125c.458-1.562.855-2.86 1.192-3.897L9.38 10.337Zm-1.222 3.997c-.47 1.567-.819 2.843-1.037 3.81l3.903.879c.187-.834.506-2.008.965-3.541l-3.831-1.148Zm2.293 5.699.218-.208-2.757-2.898-.218.208 2.757 2.898Zm.438-.454c.43-.572 1.196-1.425 2.356-2.588l-2.831-2.825c-1.194 1.196-2.12 2.208-2.721 3.008l3.196 2.405Zm2.407-2.64 3.773-4.068-2.932-2.72-3.774 4.068 2.933 2.72Zm3.443-3.781c.757-.523 1.553-1.245 2.382-2.114l-2.893-2.762c-.73.766-1.316 1.276-1.76 1.583l2.27 3.293Zm2.194-1.94a6.5 6.5 0 0 0 .725-.672l-2.965-2.684a2.84 2.84 0 0 1-.277.247l2.517 3.109Zm.725-.672a1.778 1.778 0 0 1 .048-.05l.004-.004-.004.004-.015.012a.951.951 0 0 1-.067.05l-2.272-3.292a3.895 3.895 0 0 0-.66.596l2.966 2.684Zm.312-.291.011-.012.034-.034.125-.12c.106-.1.247-.23.428-.39l-2.663-2.986c-.368.328-.695.631-.9.857l2.965 2.685Zm.652-.608a7.33 7.33 0 0 1 .178-.163.715.715 0 0 1 .065-.053c-.002 0-.015.01-.038.024a1.634 1.634 0 0 1-.402.164c-.124.033-.32.069-.564.055l.228-3.993a2.237 2.237 0 0 0-1.07.211 3.093 3.093 0 0 0-.482.286 6.53 6.53 0 0 0-.687.586l2.772 2.883Zm.39-.26a1.666 1.666 0 0 1-1.306.192c-.222-.064-.32-.152-.27-.114l2.404-3.197a3.205 3.205 0 0 0-1.037-.536 2.337 2.337 0 0 0-1.865.235l2.074 3.42Zm-1.577.078c.068.05.157.139.256.3l3.405-2.1a5.042 5.042 0 0 0-1.256-1.397l-2.405 3.197Zm.312.385c.077.111.097.156.092.144a.785.785 0 0 1-.04-.115 1.375 1.375 0 0 1-.045-.336l4-.063a2.87 2.87 0 0 0-.27-1.132 4.99 4.99 0 0 0-.444-.77L19.747 9.85Zm1.494 28.93.28 1.981.11-.015.107-.028-.497-1.937Zm-.564-.238 1.596-1.206-.17-.223-.223-.169-1.203 1.598Zm-.37-.372-1.437 1.391 1.437-1.39Zm-.443-1.634-1.987-.23-.01.09-.003.09 2 .05Zm.093-2.593-1.994-.157-.001.021-.002.022 1.997.114Zm.02-.604-1.857-.74-.148.372.006.4 2-.032Zm.136-.797-1.981-.275-.011.08-.005.081 1.997.114Zm.061-1.316-1.802-.866-.08.165-.048.178 1.93.523Zm.263-.39 1.456 1.37.66-.699-.135-.952-1.98.28Zm.016-.64 1.99.21.001-.018.002-.019-1.993-.172Zm.05-.643 1.997.114.001-.014.001-.014-1.998-.086Zm.726-4.627 1.966.367-1.966-.367Zm1.212-5.932-1.93-.523-.01.034-.007.035 1.947.454Zm.44-1.9-1.968-.361 1.967.36Zm.145-1.47-1.752-.965-.027.049-.024.05 1.803.866Zm.263-.39-1.598-1.203 1.598 1.202Zm1.886-.161 1.52-1.3-.264-.309-.364-.181-.892 1.79Zm.44.61-1.756.957 1.756-.958Zm.215 1.277-2 .032.003.124.017.123 1.98-.28Zm-.23 1.375-1.779-.913 1.78.913Zm-.303.609L24.026 17.4l-.183.15-.143.19 1.598 1.203Zm5.66-.729-1.334 1.491.012.01.012.011 1.31-1.512Zm.992 4.279 1.904.612.004-.011.003-.011-1.91-.59Zm-.695 1.582.28 1.98.76-.107.492-.588-1.532-1.285Zm-.452.806 1.752.965.096-.175.06-.19-1.908-.6Zm-1.428 1.404 1.156 1.632.009-.006.009-.007-1.174-1.62Zm-1.496.67.361-1.966-.32-.06-.32.046.28 1.98Zm-.09.12 1.599 1.202.119-.158.086-.179-1.803-.866Zm-1.01.849-.892-1.79.892 1.79Zm-2.382.654-.361 1.968.154.028.157.004.05-2Zm-.45-.183 1.053-1.7-1.553-.962-1.098 1.459 1.598 1.203Zm-.37 1.642 1.909.6.005-.018.005-.017-1.918-.565Zm-.45.806-.28-1.98-.82.116-.499.662 1.598 1.202Zm-.085.154-1.803-.866-.116.241-.049.264 1.968.36Zm.138.228 1.98-.28-.116-.82-.662-.498-1.202 1.598Zm.034.49 1.997-.1-1.997.1Zm-.09.613-1.803-.866-.262.546.084.6 1.98-.28Zm.013.847-1.997-.114v.024l1.997.09Zm-.125.866-1.896-.636-.15.448.066.467 1.98-.28Zm-.026.816-1.957-.413-.021.101-.011.103 1.989.21Zm-.184.45-.28-1.98-.32.046-.291.144.891 1.79Zm-.066 1.035 1.99-.197-.004-.041-.006-.042-1.98.28Zm-.344 1.568-1.728-1.007-.016.029-.016.029 1.76.95Zm-.843.791-.28-1.98-.11.015-.106.028.496 1.937ZM26 25.172l.987 1.74.012-.008.012-.006L26 25.172Zm1.824-1.354-1.477-1.348-.006.006 1.483 1.342Zm1.042-1.384-1.753-.964 1.753.964Zm-.185-2.06-1.52 1.3.024.03.027.028 1.469-1.357Zm-3.513 1.91-1.574-1.232-.029.036-.027.038 1.63 1.159Zm-.874 1.82 1.897.636.004-.013.004-.013-1.905-.61ZM20.962 36.8c.19-.027.459-.017.744.104.282.119.465.298.567.432l-3.191 2.412c.246.326.596.64 1.066.84.473.2.95.233 1.373.173l-.56-3.96Zm.918.144a1.888 1.888 0 0 1 .144.12 26.472 26.472 0 0 1-.28-.285l-2.874 2.782c.112.117.206.213.278.285.006.006.17.176.327.294l2.405-3.196Zm-.136-.165a.687.687 0 0 1 .142.201c.002.006-.002-.003-.009-.03a1.238 1.238 0 0 1-.024-.13l-3.96.56c.097.69.341 1.525.977 2.181l2.874-2.782Zm.11.042a1.27 1.27 0 0 1 .007.068v-.03c-.001-.058 0-.146.002-.273l-3.998-.1a5.87 5.87 0 0 0 .027.894l3.961-.56Zm-.004-.053c.115-.982.185-1.915.092-2.575l-3.961.559c0-.002.012.114-.003.42a17.17 17.17 0 0 1-.1 1.133l3.972.462Zm.092-2.575a.544.544 0 0 1 .006.06v-.015c0-.033 0-.092.006-.181l-3.994-.228a4.92 4.92 0 0 0 .02.923l3.962-.56Zm.009-.094c.021-.268.03-.533.027-.792l-4 .064c.002.117-.002.255-.015.415l3.988.313Zm-.115-.02c.192-.481.25-1.008.274-1.423l-3.994-.228a2.346 2.346 0 0 1-.024.247c-.003.02-.005.022-.002.012a.753.753 0 0 1 .03-.088l3.716 1.48Zm.258-1.262c.064-.465.084-.954.015-1.44l-3.96.559c.003.022.012.123-.017.331l3.962.55Zm.015-1.44c.02.137.014.24.008.294-.006.055-.014.083-.012.078l-3.861-1.046a3.07 3.07 0 0 0-.095 1.233l3.96-.56Zm-.132.715a.492.492 0 0 1-.084.115l-2.911-2.744c-.26.276-.46.583-.61.897l3.605 1.732Zm.44-1.537c.007.046.008.075.009.081v-.015c.001-.038.005-.108.016-.215l-3.978-.418c-.033.316-.063.732-.007 1.127l3.96-.56Zm.029-.186c.026-.308.046-.55.054-.702l-3.993-.228c-.005.086-.02.273-.046.585l3.985.345Zm.056-.73c.02-.467.228-1.852.693-4.346l-3.932-.733c-.447 2.395-.723 4.094-.757 4.908l3.996.17Zm.693-4.346c.453-2.43.852-4.375 1.194-5.845l-3.895-.909c-.362 1.552-.772 3.562-1.231 6.02l3.932.734Zm1.177-5.776c.197-.73.357-1.418.475-2.062l-3.934-.722a21.588 21.588 0 0 1-.402 1.738l3.86 1.046Zm.475-2.062c.104-.566.208-1.268.124-1.858l-3.96.559c-.01-.067-.008-.102-.009-.087 0 .01 0 .043-.006.103a6.522 6.522 0 0 1-.083.56l3.934.723Zm.124-1.858c.036.254.01.574-.142.893l-3.606-1.732a2.43 2.43 0 0 0-.212 1.398l3.96-.56Zm-.193.991c-.008.016-.006.01.015-.022.02-.03.05-.072.094-.13l-3.196-2.405c-.143.19-.294.406-.417.628l3.504 1.93Zm.109-.152a1.087 1.087 0 0 1-.34.295.867.867 0 0 1-.29.102l-.559-3.96c-.74.104-1.481.459-2.007 1.158l3.196 2.405Zm-.63.398a.18.18 0 0 1-.046 0c-.005-.001.018.002.073.03l1.783-3.582c-.715-.355-1.52-.529-2.369-.41l.56 3.962Zm-.603-.462c.07.082.122.148.157.197.036.05.049.073.047.07l3.513-1.914a5.69 5.69 0 0 0-.675-.951l-3.042 2.598Zm.204.268c-.037-.069-.036-.102-.032-.069l3.961-.56a3.78 3.78 0 0 0-.416-1.286l-3.512 1.915Zm-.032-.069-.008-.074v-.004l.003.088c.003.093.007.228.01.41l4-.063c-.006-.306-.012-.69-.044-.916l-3.96.56Zm.024.668a.26.26 0 0 1-.029.183l3.559 1.827a4.252 4.252 0 0 0 .43-2.569l-3.96.56Zm-.029.183a50.273 50.273 0 0 0-.333.663 2.84 2.84 0 0 0-.028.063c-.006.015-.033.078-.06.16a2.004 2.004 0 0 0-.094.842c.014.14.121 1.118 1.123 1.599.957.46 1.763-.011 1.862-.068a2 2 0 0 0 .605-.535l-3.197-2.405c.016-.02.088-.117.197-.224a2 2 0 0 1 .404-.306c.1-.057.905-.527 1.86-.068 1.003.481 1.11 1.458 1.125 1.6a1.98 1.98 0 0 1-.018.536c-.027.157-.067.275-.075.3-.026.077-.05.134-.054.142a1.273 1.273 0 0 1-.016.035l.027-.053c.044-.09.12-.239.23-.454l-3.558-1.827Zm2.749 3.065c.85-.702 1.52-.978 2.014-1.048l-.56-3.96c-1.445.204-2.781.918-3.999 1.922l2.545 3.086Zm2.014-1.048c.506-.071.786.041 1.039.267l2.666-2.981c-1.203-1.077-2.69-1.469-4.264-1.247l.559 3.961Zm1.063.288c.342.296.55.661.627 1.2l3.96-.559c-.204-1.447-.86-2.704-1.968-3.664l-2.62 3.023Zm.627 1.2c-.012-.085.007-.057-.028.15a6.51 6.51 0 0 1-.208.826l3.822 1.18c.265-.858.497-1.846.374-2.715l-3.96.56Zm-.229.954a8.83 8.83 0 0 1-.297.815 1.93 1.93 0 0 1-.08.163c-.015.029 0-.005.053-.068l3.065 2.57c.285-.34.484-.738.624-1.056.153-.349.3-.754.443-1.199l-3.808-1.225Zm.929.215a2.19 2.19 0 0 0-1.239.625 2.697 2.697 0 0 0-.443.594 5.177 5.177 0 0 0-.398.968l3.816 1.198c.066-.21.096-.254.071-.21a1.31 1.31 0 0 1-.222.283 1.811 1.811 0 0 1-1.026.503l-.559-3.96Zm-1.924 1.822c.012-.021-.022.045-.176.196-.147.144-.365.33-.674.552l2.348 3.24c.785-.57 1.56-1.25 2.006-2.059l-3.504-1.929Zm-.831.736a5.92 5.92 0 0 1-.366.24c-.1.061-.166.094-.201.11-.04.017-.015.002.06-.014.071-.015.264-.049.527 0l-.722 3.934c.76.14 1.423-.114 1.771-.27a7.581 7.581 0 0 0 1.242-.736l-2.311-3.264Zm-.62.322a2.039 2.039 0 0 0-1.358.81c-.13.173-.213.337-.255.423l3.606 1.732c-.005.01-.055.117-.155.25a1.873 1.873 0 0 1-.319.33 1.969 1.969 0 0 1-.96.416l-.56-3.96Zm-1.408.897a2.279 2.279 0 0 0-.422 1.7l3.96-.56c.03.213.05.744-.342 1.265l-3.196-2.405Zm-.422 1.7a1.939 1.939 0 0 1 .241-1.247c.117-.2.24-.326.289-.373.1-.098.168-.136.126-.109a6.31 6.31 0 0 1-.539.29l1.783 3.581c.35-.174.678-.35.938-.518a3.2 3.2 0 0 0 .485-.38 2.25 2.25 0 0 0 .374-.476c.124-.214.353-.693.263-1.328l-3.96.56Zm.117-1.438c-.544.271-.916.379-1.141.41l.56 3.961c.791-.111 1.588-.404 2.364-.79l-1.783-3.581Zm-1.141.41a4.826 4.826 0 0 1-.255.031c-.063.005-.072.003-.044.004l-.1 3.999c.313.008.655-.03.958-.073l-.559-3.96Zm.012.067c.15.028.233.078.242.083l-2.106 3.401c.319.197.701.37 1.142.45l.722-3.934Zm-2.41.581c-.26.347-.69 1.05-.56 1.967l3.96-.56c.046.326-.015.589-.074.748a1 1 0 0 1-.13.25l-3.195-2.405Zm-.56 1.967a.86.86 0 0 1-.011-.177c0-.014 0-.004-.006.036a4.008 4.008 0 0 1-.112.454l3.837 1.13c.157-.532.352-1.297.252-2.002l-3.96.559Zm-.118.28c-.067.21-.096.254-.072.21.012-.02.08-.141.222-.284a1.811 1.811 0 0 1 1.026-.502l.56 3.96a2.19 2.19 0 0 0 1.238-.624c.215-.215.357-.439.444-.594a5.15 5.15 0 0 0 .398-.969l-3.816-1.198Zm-.142.202c-.153.204-.257.422-.29.49l3.607 1.731c.008-.017.007-.014-.003.004a1.434 1.434 0 0 1-.118.18l-3.196-2.405Zm-.454.995c-.233 1.274.684 2.022.903 2.187l2.405-3.196c.061.046.238.186.394.444.177.291.332.747.233 1.287l-3.934-.722Zm.125.868-.003-.03.005.063c.004.064.01.155.015.277l3.995-.199a8.595 8.595 0 0 0-.05-.67l-3.962.56Zm.017.31c.002.029-.002.01.006-.043a1.09 1.09 0 0 1 .099-.308l3.605 1.731c.274-.57.307-1.15.285-1.579l-3.995.199Zm-.073.794s.005.035.006.12c.002.081 0 .191-.009.333l3.994.228c.023-.41.026-.843-.03-1.24l-3.96.559Zm-.004.477a3.27 3.27 0 0 1-.025.305c-.01.068-.015.065.002.015l3.792 1.271c.155-.463.207-.971.227-1.411l-3.996-.18Zm-.107 1.235a.338.338 0 0 1-.003.123l3.914.828c.106-.5.12-1.008.05-1.51l-3.961.56Zm-.035.328c-.008.078-.007-.033.069-.22a1.73 1.73 0 0 1 .344-.528 1.9 1.9 0 0 1 1.112-.573l.56 3.96c1.153-.162 1.589-1.105 1.687-1.345.137-.336.184-.666.206-.875l-3.978-.419Zm.914-1.13a2.17 2.17 0 0 0-1.06 1.188c-.116.31-.149.598-.16.782-.024.377.014.778.065 1.134l3.96-.56c-.037-.268-.032-.35-.034-.32 0 .012-.008.162-.086.37a1.832 1.832 0 0 1-.902.986l-1.784-3.58Zm-1.165 3.02a.548.548 0 0 1-.082.365l3.456 2.015a4.543 4.543 0 0 0 .606-2.773l-3.98.394Zm-.114.423c-.069.127-.084.116-.015.052a1.21 1.21 0 0 1 .653-.292l.559 3.96c1.296-.183 1.995-1.213 2.323-1.82l-3.52-1.9Zm.42-.197-.306.078.993 3.875.307-.079-.993-3.874Zm3.5-8.839c.448-.063.882-.234 1.213-.383.367-.164.778-.38 1.223-.632l-1.974-3.479a10.72 10.72 0 0 1-.884.46 2.385 2.385 0 0 1-.207.085c-.043.014-.013 0 .07-.011l.56 3.96Zm2.46-1.028c.908-.532 1.724-1.105 2.296-1.737l-2.966-2.685c-.162.179-.562.508-1.351.97l2.02 3.452Zm2.29-1.73c.529-.58.988-1.172 1.317-1.77l-3.505-1.928c-.12.22-.357.551-.766 1l2.954 2.697Zm1.317-1.77c.38-.691.614-1.516.487-2.411l-3.96.56a.487.487 0 0 1 .002-.145c.004-.02.003.002-.034.068l3.505 1.929Zm.487-2.411a3.635 3.635 0 0 0-.955-1.97l-2.938 2.715c.01.012-.003 0-.023-.04a.489.489 0 0 1-.044-.146l3.96-.56Zm-.904-1.911c-.68-.796-1.64-1.093-2.581-.96l.559 3.96a1.199 1.199 0 0 1-1.019-.403l3.041-2.597Zm-2.581-.96c-.875.123-1.624.565-2.226 1.047-.617.495-1.216 1.143-1.8 1.889l3.149 2.466c.474-.606.86-.998 1.152-1.233.309-.247.396-.224.284-.208l-.56-3.961Zm-4.082 3.01c-.497.699-.871 1.501-1.149 2.37l3.81 1.218c.18-.563.389-.974.6-1.27l-3.26-2.318Zm-1.14 2.343c-.246.734-.477 1.635-.359 2.474l3.96-.56c.017.113-.004.125.022-.022a4.36 4.36 0 0 1 .17-.62l-3.793-1.272Zm-.359 2.474c.037.262.146.8.573 1.278a2.176 2.176 0 0 0 1.94.705l-.56-3.96a1.831 1.831 0 0 1 1.605.593c.343.385.395.771.403.825l-3.96.56Zm16.698-6.918-1.004-1.729-.011.006-.011.007 1.026 1.716Zm3.966-.453-1.02 1.72.048.028.048.026.924-1.774Zm.957 1.526-1.98.28.04.285.12.262 1.82-.827Zm.383 2.208 1.904.61.078-.242.015-.254-1.997-.114Zm-1.673 3.17-1.365-1.462-.128.12-.105.14 1.598 1.202Zm-1.274 1.24 1.25 1.561-1.25-1.56Zm-1.59 1.002.75 1.854.02-.008.02-.009-.79-1.837Zm-3.16.164 1.126-1.654-.024-.016-.025-.016-1.076 1.686Zm-.621-.902 1.98-.28-3.98.29 2-.01Zm-.695 1.088.021 2 .414-.005.378-.168-.813-1.827Zm-1.237-.25-1.203 1.598.08.06.085.052 1.038-1.71Zm-.512-1.624-1.981-.275-.019.135v.137l2 .003Zm.086-1.143-1.991-.19-.004.037-.002.038 1.997.114Zm.195-1.371 1.949.45.002-.01-1.951-.44Zm.479-2.118 1.95.44.004-.012.002-.014-1.956-.414Zm.663-3.063L32.767 18l-.007.03-.007.028 1.95.441Zm.552-1.598 1.774.924.114-.22.057-.24-1.945-.464Zm.488-2.048-1.378-1.449-.43.409-.137.576 1.945.464Zm.437-.415-.121-1.997-.73.045-.528.503 1.379 1.449Zm1.242.284-1.356 1.47.035.032.036.03 1.285-1.532Zm.607 1.045 1.997-.099-.013-.272-.086-.258-1.898.63Zm-.892 3.696-1.929-.53-.01.04-.01.04 1.949.45Zm-.23.881-1.918-.565-.022.075-.016.076 1.956.414Zm-.179.732-1.923-.548 3.465 1.822-1.542-1.274Zm12.411-7.23 1.717-1.027-.171-.286-.255-.215-1.291 1.527Zm.388 1.995-1.919-.565-.002.008-.002.008 1.923.549Zm-.823 3.933-1.964-.38-.002.013 1.966.367Zm-.655 3.875 1.943.476.038-.158.013-.162-1.994-.156Zm-.211 2.256-2 .02.003.352.124.331 1.873-.703Zm-.011.674-1.897-.636 1.897.636Zm-.507.672.148 1.995.61-.045.482-.38-1.24-1.57Zm-1.618-.196-.945 1.763.04.02.04.02.865-1.803Zm-.948-1.209-1.98.28.035.252.098.236 1.847-.768Zm-.023-1.41-1.986-.234 1.986.233Zm.11-.97-1.985-.24-.002.015-.001.015 1.989.21Zm.49-2.792-1.896-.635-.025.074-.019.075 1.94.486Zm.344-1.32 1.943.475.014-.057.01-.057-1.967-.361Zm.536-3.717-1.988-.22-.002.022-.002.022 1.992.176Zm.196-1.866-1.639-1.146-.312.446-.043.544 1.994.156Zm-6.125 10.197-1.718-1.023-.027.044-.024.046 1.77.933Zm.975-2.86 1.994-.151-.005-.064-.008-.064-1.98.28Zm-.178-.257-1.371 1.455 1.371-1.455Zm-.252-.283 1.647-1.136-1.046-1.514-1.596.915.995 1.735Zm-1.06.75 1.412 1.417.053-.053.05-.057-1.515-1.306Zm-.307.327 1.443 1.384.083-.086.072-.095-1.598-1.203ZM37.7 23.696l-1.666-1.106 1.666 1.106Zm-1.142 2.176-1.818-.833-1.373 2.994 3.29-.163-.099-1.998Zm.386-.019.74-1.858-.404-.16-.435.02.1 1.998Zm2.14-.62-1.136-1.646-.013.009-.013.009 1.161 1.628Zm.657-4.478c.516-.3.956-.446 1.326-.498l-.56-3.96c-.968.136-1.896.489-2.774.999l2.009 3.459Zm1.326-.498c.444-.063.594.022.617.036l2.037-3.442c-1.005-.596-2.132-.707-3.213-.555l.56 3.96Zm.712.089a.352.352 0 0 1-.13-.12c-.022-.035.009-.006.031.151l3.96-.559c-.17-1.207-.768-2.372-2.014-3.02l-1.847 3.548Zm.06.579c.091.2.153.411.186.64l3.96-.559a6.319 6.319 0 0 0-.504-1.735l-3.642 1.654Zm.186.64c.025.182.035.39.021.627l3.994.228a7.171 7.171 0 0 0-.055-1.414l-3.96.56Zm.114.13c-.464 1.445-.895 2.095-1.134 2.319l2.73 2.924c1.01-.942 1.694-2.406 2.212-4.021l-3.809-1.222Zm-1.367 2.578c-.137.182-.419.476-.927.882l2.5 3.122c.636-.509 1.204-1.042 1.623-1.599l-3.196-2.405Zm-.927.882c-.48.385-.855.608-1.13.726l1.58 3.674c.703-.302 1.388-.747 2.05-1.278l-2.5-3.122Zm-1.091.71c-.429.174-.76.3-1.005.383a4.47 4.47 0 0 1-.267.085c-.067.019-.062.014-.01.006l.56 3.96a5.779 5.779 0 0 0 1.015-.267c.34-.117.746-.272 1.21-.46l-1.503-3.707Zm-1.282.474c-.016.002.08-.014.237.039l-1.27 3.792c.551.185 1.1.2 1.593.13l-.56-3.96Zm.237.039c.038.012.035.015-.016-.012a2.611 2.611 0 0 1-.22-.138l-2.251 3.307c.352.24.768.485 1.216.635l1.271-3.793Zm-.286-.182a.57.57 0 0 1 .143.15.842.842 0 0 1 .139.354l-3.96.56c.146 1.038.754 1.815 1.525 2.307l2.153-3.37Zm-3.698.793c0-.046.012-.221.142-.425a.865.865 0 0 1 .35-.324l1.626 3.655a3.151 3.151 0 0 0 1.395-1.178 3.186 3.186 0 0 0 .487-1.747l-4 .02Zm1.284-.921a1.533 1.533 0 0 1-.299-.019c-.037-.008.02-.002.12.06l-2.075 3.419c.745.452 1.594.547 2.296.54l-.042-4Zm-.014.152c.145.109.227.23.267.31.035.07.028.09.018.018l-3.96.559c.107.767.433 1.68 1.27 2.31l2.405-3.197Zm.285.328c.007.049.008.075.007.06l-.003-.068a14.198 14.198 0 0 1-.003-.343l-4-.006c0 .288.001.654.038.916l3.96-.56Zm-.018-.079c.036-.265.069-.733.102-1.304l-3.994-.229a40.062 40.062 0 0 1-.062.903 3.424 3.424 0 0 1-.006.06l-.002.02 3.962.55Zm.096-1.228c.054-.57.11-.924.153-1.111l-3.898-.9a13.13 13.13 0 0 0-.237 1.63l3.982.38Zm.155-1.12.478-2.118-3.901-.882-.479 2.118 3.902.882Zm.484-2.145a244.9 244.9 0 0 1 .658-3.036l-3.902-.882c-.163.72-.386 1.752-.67 3.09l3.914.828Zm.644-2.978c.17-.661.31-1.02.389-1.173l-3.548-1.847c-.291.559-.52 1.265-.715 2.022l3.874.998Zm.56-1.633.489-2.048-3.891-.928-.489 2.049 3.891.927Zm-.078-1.063.436-.415-2.757-2.898-.436.415 2.757 2.898Zm-.822.132c.168-.01.216.006.182-.002a.971.971 0 0 1-.416-.24l2.711-2.94c-.859-.792-1.976-.855-2.718-.81l.241 3.992Zm-.163-.18a.735.735 0 0 1-.1-.099c-.016-.02-.02-.027-.013-.016a1.77 1.77 0 0 1 .106.258l3.797-1.259c-.212-.64-.565-1.399-1.22-1.949l-2.57 3.066Zm-.106-.387c-.01-.214.027-.323-.015-.1a14.7 14.7 0 0 1-.145.648 83.91 83.91 0 0 1-.663 2.518l3.857 1.061c.306-1.11.538-1.994.694-2.64.078-.322.141-.604.186-.835.028-.15.098-.508.081-.85l-3.995.198Zm-.843 3.146c-.066.284-.132.539-.199.766l3.837 1.13c.092-.314.179-.646.26-.996l-3.898-.9Zm-.237.917a8.85 8.85 0 0 1-.146.598l3.846 1.097c.078-.273.149-.563.213-.867l-3.913-.828Zm3.319 2.42c.443-.536.803-.94 1.084-1.228.308-.314.432-.394.408-.38l-2.052-3.433c-.436.26-.854.646-1.215 1.015-.388.397-.826.895-1.309 1.478l3.084 2.548Zm9.152-7.479c.076.127.122.225.15.294.026.07.03.1.03.099l3.961-.56c-.097-.689-.372-1.324-.707-1.885l-3.434 2.052Zm.18.393.003.03v-.007l.003-.011 3.837 1.13c.167-.565.197-1.14.118-1.701l-3.96.559Zm.002.028c-.156.546-.45 1.964-.864 4.102l3.927.76c.431-2.222.687-3.427.783-3.765l-3.846-1.097Zm-.866 4.115c-.393 2.098-.639 3.522-.683 4.085l3.988.313c.023-.294.214-1.453.627-3.663l-3.932-.735Zm-.632 3.766c-.201.824-.278 1.755-.268 2.751l4-.037c-.008-.792.056-1.366.154-1.762l-3.886-.952Zm-.141 3.435a1.14 1.14 0 0 1-.073-.416.838.838 0 0 1 .038-.249l3.793 1.271c.197-.587.256-1.293-.013-2.011l-3.745 1.405Zm-.035-.665c.068-.202.175-.28.151-.262l2.479 3.14c.485-.384.93-.91 1.163-1.607l-3.793-1.27Zm1.243-.687a2.886 2.886 0 0 1-.542 0c-.112-.014-.118-.03-.063-.003l-1.732 3.605c.84.403 1.79.45 2.632.388l-.295-3.99Zm-.525.037c.092.05.122.095.104.072a1.292 1.292 0 0 1-.151-.287l-3.694 1.536c.342.822.902 1.695 1.85 2.204l1.89-3.525Zm.086.274a3.487 3.487 0 0 1-.016-.898l-3.973-.467a7.48 7.48 0 0 0 .029 1.924l3.96-.56Zm-.016-.898c.053-.456.091-.79.113-.995l-3.978-.418c-.019.178-.054.49-.108.946l3.973.467Zm.11-.963c.123-1.023.273-1.867.443-2.545l-3.88-.973a24.96 24.96 0 0 0-.535 3.037l3.971.48Zm.4-2.396c.083-.247.22-.788.39-1.48l-3.885-.952c-.09.362-.16.645-.214.851-.06.23-.084.312-.084.31l3.793 1.271Zm.414-1.595c.273-1.49.463-2.793.561-3.902l-3.984-.352c-.084.944-.252 2.117-.511 3.532l3.934.722Zm.557-3.858a91.55 91.55 0 0 0 .202-1.929l-3.988-.313c-.014.175-.075.757-.19 1.802l3.976.44Zm-.154-.939c.03-.043.018-.012-.055.039a.804.804 0 0 1-.337.128l-.56-3.96c-1.063.15-1.827.789-2.325 1.5l3.277 2.293Zm-.392.167c-.18.025-.273-.022-.23-.005.05.022.192.096.425.293l2.582-3.055c-.811-.686-1.972-1.386-3.337-1.194l.56 3.961Zm-5.652 9.906c.754-1.266 1.354-2.67 1.25-4.034l-3.988.303s.002.036-.01.116c-.013.08-.04.193-.091.344-.105.307-.293.712-.598 1.225l3.437 2.046Zm1.236-4.162a2.276 2.276 0 0 0-.385-.973 2.904 2.904 0 0 0-.401-.46l-2.743 2.91a1.13 1.13 0 0 1-.149-.178 1.727 1.727 0 0 1-.282-.74l3.96-.56Zm-.786-1.434-.024-.023a.796.796 0 0 1 .046.06l-3.292 2.272c.165.24.355.44.527.602l2.743-2.91Zm-2.619-.562c-.53.305-1.168.702-1.58 1.18l3.03 2.612c-.047.054-.075.076-.063.065.01-.007.037-.03.09-.067.108-.076.274-.183.514-.32l-1.99-3.47Zm-1.477 1.07a5.66 5.66 0 0 0-.494.54l3.197 2.405a1.513 1.513 0 0 1-.056.069l.02-.021c.03-.034.082-.086.157-.16l-2.824-2.834Zm-.339.358c-.87.907-1.566 1.7-1.983 2.329l3.332 2.213c.205-.308.683-.882 1.538-1.774l-2.887-2.768Zm-1.983 2.329c-.4.601-.832 1.441-1.294 2.45l3.636 1.666c.439-.958.768-1.568.99-1.903l-3.332-2.213Zm.623 5.28.386-.02-.198-3.994-.386.019.198 3.995Zm-.453-.159a3.175 3.175 0 0 0 1.629.178l-.56-3.96a.853.853 0 0 1 .41.066l-1.479 3.716Zm1.629.178c.893-.126 1.701-.52 2.412-1.028l-2.323-3.256c-.36.256-.572.312-.649.323l.56 3.961Zm2.386-1.01c.745-.514 1.402-1.16 1.834-1.978l-3.539-1.866c-.052.098-.194.295-.566.552l2.271 3.292Zm27.044-13.543-1.859-.74-.037.094-.028.098 1.924.548Zm-.416 2.816-1.989-.209-.002.016v.015l1.991.178Zm-.143 2.99-1.997.114.001.02.002.021 1.994-.156Zm.47 2.831 1.887-.662-.015-.045-.018-.044-1.854.751Zm.185 2.06-1.514-1.306-.088.1-.072.112 1.674 1.094Zm-.773.533.28 1.98.23-.032.216-.084-.726-1.864Zm-.965-.076.78-1.842-.032-.013-.03-.012-.718 1.867Zm-.613-.585 1.71-1.037-.007-.011-.007-.011-1.696 1.06Zm-.459-.748-1.735.995.012.021.013.021 1.71-1.037Zm-.44-.857-1.897.63.027.082.034.079 1.837-.79Zm-.151-.827 1.996-.127-.02-.324-.123-.3-1.853.751Zm-.148-.544-1.95.443 1.95-.444Zm-.034-.49 1.598 1.202.553-.735-.198-.898-1.953.43Zm-.098-.446-1.98.28.01.076.017.075 1.953-.431Zm-.04-3.034 2 .065.205-6.322-3.803 5.054 1.598 1.203Zm-.431.697 1.598 1.202.078-.103.064-.113-1.74-.986Zm-.517.85-1.597-1.202-.089.117-.07.129 1.757.956Zm-.958 1.726 1.721 1.019-1.72-1.019Zm-.595 1.039-1.752-.965-.027.049-.024.05 1.803.866Zm-.274.816-1.977-.301-.007.046-.005.046 1.99.209Zm-.343.826-1.33-1.493-.042.037-.04.04 1.412 1.416Zm-.693.345.28 1.98.075-.01.075-.017-.43-1.953Zm-1.083-.66-1.203 1.598.017.013.018.013 1.168-1.624Zm-.666-1.708 2 .05.004-.166-.023-.164-1.98.28Zm-.308-1.936-1.975.318 1.975-.318Zm-.852-2.779 1.746-.975-1.965-3.517-1.614 3.692 1.833.8Zm-3.046 6.97 1.65 1.132.107-.157.076-.174-1.833-.801Zm-.437 1.157 1.906.608.043-.137.024-.141-1.973-.33Zm-1.467.879 1.203-1.598-.244-.184-.287-.102-.672 1.884Zm-1.078-.625-1.57 1.239.025.03.025.03 1.52-1.3Zm-.473-1.348-1.896-.635-.162.483.09.503 1.968-.35Zm.497-.741.523 1.93.897-.243.393-.843-1.813-.844Zm2.021-4.21-1.721-1.018-.005.008-.004.007 1.73 1.004Zm.452-.805 1.803.866.076-.16.047-.169-1.926-.537Zm.774-1.524 1.675 1.094.187-.286.08-.332-1.942-.476Zm.586-1.107-1.7-1.053-.013.021-.013.022 1.726 1.01Zm.804-1.068 1.037 1.71.657-.398.221-.736-1.915-.576Zm.144-.48 1.915.576.068-.226.014-.236-1.997-.114Zm1.407-1.047.476-1.943-.132-.032-.134-.014-.21 1.989Zm.644.298-1.203 1.598.114.085.124.069.965-1.752Zm.509.352-1.343 1.483.068.06.072.055 1.203-1.598Zm.395.298 1.756-.957-.207-.38-.346-.261-1.203 1.598Zm.287.525 1.989.209.065-.62-.298-.546-1.756.957Zm.442 1.634 1.997.114.027-.474-.189-.436-1.835.796Zm.335 1.12-1.878.688.003.007.003.007 1.872-.703Zm.394 1.534-1.968-.36 3.729 1.308-1.761-.948Zm4.569-6.442-1.456-1.371-.076.08-.066.089 1.598 1.202Zm1.208-.453-.74 1.858.024.01.023.008.693-1.876Zm.584.377-1.79.892.026.052.029.051 1.735-.995Zm.405.367 1.469-1.357-.168-.182-.207-.136-1.094 1.675Zm-1.535.951c-.182.64-.334 1.756-.48 3.156l3.977.418c.155-1.47.28-2.23.35-2.476l-3.847-1.098Zm-.484 3.187c-.127 1.425-.19 2.556-.148 3.282l3.994-.229c-.023-.397.01-1.259.138-2.697l-3.984-.356Zm-.145 3.323c.058.748.114 1.337.17 1.728l3.96-.56a27.832 27.832 0 0 1-.142-1.48l-3.988.312Zm.17 1.728c.083.591.224 1.164.44 1.7l3.708-1.503a3.228 3.228 0 0 1-.188-.756l-3.96.559Zm.407 1.611c.09.257.155.46.2.614.046.164.057.23.056.226l3.961-.559c-.066-.468-.244-1.04-.443-1.606l-3.774 1.325Zm.256.84c.013.09-.07-.319.302-.75l3.029 2.613c.695-.806.722-1.772.63-2.422l-3.96.56Zm.142-.537a.955.955 0 0 1 .243-.263c.03-.021.018-.007-.068.027l1.452 3.727c.54-.21 1.253-.586 1.722-1.303l-3.35-2.188Zm.621-.353c-.083.012-.112.008-.1.009a.66.66 0 0 1 .194.053l-1.558 3.684c.703.298 1.426.299 2.024.215l-.56-3.961Zm.032.037c.174.067.287.156.343.21.053.05.06.074.037.035l-3.42 2.074c.308.509.81 1.11 1.606 1.415l1.434-3.734Zm.366.223a68.169 68.169 0 0 1-.445-.726l-3.42 2.074c.187.308.345.566.473.771l3.392-2.12Zm-.42-.684a6.681 6.681 0 0 1-.337-.653l-3.674 1.582c.145.336.33.693.541 1.061l3.47-1.99Zm-.276-.491a1.307 1.307 0 0 1-.054-.325l-3.992.254c.028.447.105.895.25 1.33l3.796-1.26Zm-.197-.95.02.052a1.928 1.928 0 0 0 .005.015l-.004-.01-.008-.03a7.04 7.04 0 0 1-.064-.263l-3.9.887c.057.25.138.59.244.853l3.707-1.503Zm-.05-.236c-.022-.096-.015-.09-.01-.022.001.033.008.143-.012.296a1.914 1.914 0 0 1-.365.882l-3.196-2.405a2.122 2.122 0 0 0-.405 1.002 2.508 2.508 0 0 0-.013.5c.016.232.06.456.1.634l3.9-.887Zm-.032-.477-.098-.446-3.906.861.098.446 3.906-.861Zm-.07-.295c-.048-.334-.07-1.178-.022-2.69l-3.998-.13c-.047 1.472-.044 2.651.059 3.38l3.96-.56Zm-3.619-3.957a8.923 8.923 0 0 0-.573.914l3.48 1.972c.086-.152.155-.27.21-.357.057-.094.082-.127.08-.124l-3.197-2.405Zm-.431.697a4.277 4.277 0 0 0-.434.723l3.606 1.731a.77.77 0 0 1 .03-.057c.005-.009.004-.005-.006.008l-3.196-2.405Zm-.434.723a.833.833 0 0 1-.082.128l3.196 2.405a4.78 4.78 0 0 0 .492-.802l-3.606-1.731Zm-.241.374a71.93 71.93 0 0 1-.923 1.663l3.442 2.038c.174-.294.512-.903.994-1.788l-3.513-1.913Zm-.923 1.663c-.236.4-.445.764-.626 1.093l3.504 1.93c.156-.285.344-.613.564-.985l-3.442-2.038Zm-.677 1.192a4.932 4.932 0 0 0-.448 1.38l3.954.603c-.001.011 0-.004.015-.05.016-.046.042-.112.085-.201l-3.606-1.732Zm-.46 1.473c-.005.052-.009.02.026-.064.038-.09.122-.244.29-.394l2.662 2.986c.712-.636.934-1.484 1-2.11l-3.978-.418Zm.234-.381c.175-.175.325-.2.288-.192l.861 3.906c.558-.122 1.17-.378 1.675-.881l-2.824-2.833Zm.44-.219a1.92 1.92 0 0 1 .777.05c.113.032.19.067.213.077.048.022.052.028-.01-.01-.115-.07-.314-.203-.616-.42l-2.336 3.247c.328.236.624.439.87.589.118.072.269.16.43.233.08.036.205.09.358.133.112.031.448.122.872.062l-.559-3.961Zm.398-.278c.01.008.048.04.083.1.035.06.043.104.044.109l-3.961.56a3.619 3.619 0 0 0 1.43 2.427L59.945 21Zm.127.209.005.044-.002-.047a5.74 5.74 0 0 1 .002-.267l-3.999-.1c-.007.283-.009.632.033.93l3.96-.56Zm-.014-.6c-.023-.164-.131-.838-.315-1.975l-3.949.639c.19 1.168.287 1.783.303 1.896l3.96-.56Zm-.315-1.974c-.209-1.296-.544-2.475-1.08-3.435l-3.492 1.951c.22.395.453 1.067.623 2.121l3.95-.637Zm-4.659-3.26-3.045 6.969 3.665 1.602 3.046-6.97-3.666-1.601Zm-2.861 6.638c-.413.601-.647 1.276-.762 1.96l3.946.659c.039-.234.096-.33.113-.355l-3.297-2.264Zm-.695 1.682c-.065.206-.096.204-.026.117.042-.05.126-.14.264-.227.144-.09.32-.158.515-.185l.56 3.96c1.627-.23 2.26-1.7 2.499-2.45l-3.812-1.215Zm.753-.295c.526-.075.854.156.889.183l-2.405 3.196c.457.344 1.18.708 2.076.581l-.56-3.96Zm.358-.103a2.09 2.09 0 0 1-.328-.142c-.021-.012-.02-.013-.004 0a.761.761 0 0 1 .103.101l-3.041 2.599c.543.636 1.307.989 1.927 1.21l1.343-3.768Zm-.18.02a.656.656 0 0 1 .07.103c.003.006-.006-.01-.022-.055a3.408 3.408 0 0 1-.122-.507l-3.938.7c.125.702.348 1.572.873 2.237l3.14-2.479Zm-.146.527c.046-.14.058-.127.002-.043-.038.057-.3.439-.88.596l-1.045-3.86c-.762.206-1.197.736-1.4 1.04a4.18 4.18 0 0 0-.47.996l3.793 1.271Zm.413-.533c1.164-2.501 1.788-3.79 1.938-4.05l-3.46-2.007c-.267.46-.99 1.977-2.105 4.369l3.627 1.688Zm1.929-4.034c.225-.38.418-.719.534-.96l-3.606-1.731c-.03.063-.138.262-.37.653l3.442 2.038Zm.657-1.288c.027-.095.152-.399.523-.967l-3.35-2.187c-.442.677-.833 1.39-1.026 2.08l3.853 1.074Zm.79-1.585a1.428 1.428 0 0 1-.058.19l-.012.03c.006-.014.026-.054.065-.129.078-.148.201-.366.375-.664l-3.452-2.02c-.186.318-.342.593-.459.814-.069.13-.258.48-.343.828l3.885.951Zm.344-.53c.178-.287.305-.473.387-.583.041-.054.054-.066.04-.052a1.553 1.553 0 0 1-.287.224l-2.073-3.42c-.444.269-.753.68-.876.843a12.08 12.08 0 0 0-.591.882l3.4 2.106Zm1.019-1.545.144-.48-3.83-1.152-.145.48 3.831 1.152Zm.226-.942a.997.997 0 0 1-.309.612c-.224.22-.42.231-.352.221l-.56-3.96c-.602.085-1.309.316-1.885.88-.603.59-.848 1.333-.888 2.019l3.994.228Zm-.661.833c.015-.002.012 0-.007 0a.918.918 0 0 1-.13-.005l.418-3.978a3.451 3.451 0 0 0-.84.023l.559 3.96Zm-.404-.052a.351.351 0 0 1-.084-.046l2.405-3.196a3.747 3.747 0 0 0-1.37-.643l-.951 3.886Zm.154.108c.104.057.138.089.131.083l2.685-2.965a4.676 4.676 0 0 0-.887-.622l-1.929 3.504Zm.271.198.396.298 2.405-3.196-.396-.298-2.405 3.196Zm-.158-.343.286.525 3.513-1.914-.287-.525-3.512 1.914Zm.053-.641c-.023.22-.05.566-.002.914l3.961-.559a1.233 1.233 0 0 1 .012.145V14a.337.337 0 0 0 .002-.024c0-.016.002-.038.005-.067l-3.978-.418Zm-.002.914c.047.327.169.66.239.847.092.246.215.542.36.878l3.67-1.592a15.864 15.864 0 0 1-.285-.692 2.848 2.848 0 0 1-.05-.143c-.012-.036.01.027.027.143l-3.96.56Zm.438.815c-.018.314.039.58.057.668.029.134.066.268.102.388.072.243.174.537.294.866l3.756-1.377c-.11-.298-.18-.505-.218-.635-.02-.066-.024-.087-.022-.076a1.042 1.042 0 0 1 .025.2 2.05 2.05 0 0 1 0 .194l-3.994-.228Zm.459 1.936c.139.371.22.625.26.782.02.078.021.1.019.08a1.506 1.506 0 0 1 .02-.39l3.934.721c.107-.585-.034-1.153-.099-1.404-.09-.355-.227-.76-.39-1.194l-3.744 1.405Zm4.027 1.78c.377-.701 1.787-2.707 4.406-6.187l-3.196-2.405c-2.54 3.375-4.177 5.664-4.733 6.697l3.523 1.895Zm4.263-6.018c.103-.11.143-.136.124-.122a.916.916 0 0 1-.141.08 1.47 1.47 0 0 1-.42.122l-.56-3.96c-.55.077-.967.333-1.207.505-.265.19-.502.415-.707.632l2.911 2.743Zm-.437.08a1.107 1.107 0 0 1-.55-.047l1.48-3.716a2.917 2.917 0 0 0-1.49-.198l.56 3.961Zm-.502-.029c.083.03.065.033-.005-.013a1.258 1.258 0 0 1-.2-.163 1.632 1.632 0 0 1-.31-.431l3.581-1.784a2.515 2.515 0 0 0-.9-.981 3.98 3.98 0 0 0-.781-.38l-1.386 3.752Zm-.46-.504c.31.539.785.875 1.047 1.046l2.188-3.349c-.046-.03-.041-.03-.009-.001a1.441 1.441 0 0 1 .244.314l-3.47 1.99Zm.672.729c.01.012-.003 0-.023-.04a.492.492 0 0 1-.044-.146l3.96-.56a3.635 3.635 0 0 0-.955-1.968l-2.938 2.714Zm-.067-.186a.853.853 0 0 1 .066-.41l3.717 1.479a3.174 3.174 0 0 0 .177-1.628l-3.96.56Z" mask="url(#a)"/></svg>