<svg xmlns="http://www.w3.org/2000/svg" width="93" height="46" fill="none"><mask id="a" width="96.409" height="50.49" x="-1.419" y="-1.79" fill="#000" maskUnits="userSpaceOnUse"><path fill="#fff" d="M-1.419-1.79H94.99V48.7H-1.419z"/><path d="M17.135 13.276c.455.384.87.985 1.244 1.804a8.8 8.8 0 0 1 .744 2.51c.055.393.076.79.062 1.194.003.023.011.41.023 1.163.133 1.607.131 2.597-.005 2.97.046.323-.008.778-.16 1.365-.12.489-.175.85-.165 1.084l-1.016 3.572a19.86 19.86 0 0 1-1.58 3.829c-.672 1.25-1.396 2.294-2.173 3.134a9.181 9.181 0 0 1-1.582 1.32c-.518.332-.93.508-1.233.527a3.452 3.452 0 0 0-.594.049l-.93.166c-.393.056-.98-.003-1.758-.176s-1.286-.348-1.523-.527l-1.854-1.364c-.205-.113-.341-.246-.41-.402a3.463 3.463 0 0 1-.104-.48.802.802 0 0 1-.162-.401c-.05-.347.027-.723.23-1.128.201-.406.452-.63.753-.672.161-.023.28-.016.356.02.445.15.734.274.866.373.155.096.306.251.454.466.03.208.191.432.484.674.317.238.658.402 1.024.491l1.312.027c.69-.12 1.39-.585 2.1-1.392.711-.807 1.272-1.594 1.682-2.358l1.561-3.968.363-1.182c-.323.046-.983.21-1.98.492-1.09.295-1.889.479-2.397.55a3.8 3.8 0 0 1-.629.054 1.69 1.69 0 0 1-.885-.512c-.204-.277-.423-.659-.656-1.144a3.07 3.07 0 0 1-.133-.44 1.02 1.02 0 0 1 .145-.728c.135-.208.343-.402.624-.583l2.6-.367a5.96 5.96 0 0 1 .757-.143c.3-.042.754-.082 1.361-.121l1.218-.137c.254-.036.563-.103.926-.201-.042-.3-.063-.78-.062-1.44a7.81 7.81 0 0 0-.038-1.02 18.44 18.44 0 0 0-.18-2.025 5.45 5.45 0 0 0-.058-.664 9.62 9.62 0 0 1-.073-1.014 2.084 2.084 0 0 0-.34-.907c-.158-.284-.347-.457-.568-.52a4.038 4.038 0 0 0-2.088-.27c-.225-.087-.583.046-1.075.398-.47.35-.932.827-1.388 1.433l-.571.965c-.238.316-.52.497-.843.543a1.024 1.024 0 0 1-.653-.12 1.254 1.254 0 0 1-.469-.57c-.003-.023-.079-.142-.227-.357a2.155 2.155 0 0 1-.251-.777c-.053-.37.026-.734.234-1.094a10.314 10.314 0 0 1 2.623-2.95l.768-.321c.113-.204.365-.334.758-.39.716-.101 1.653.026 2.81.38 1.182.353 2.092.79 2.731 1.312Zm14.769 7.989c.306.333.513.716.622 1.149.13.43.21.819.235 1.168.046.324.087.53.123.62-.1.956-.263 2.228-.486 3.815-.227 1.564-.329 2.179-.305 1.846a7.053 7.053 0 0 1-.155.905c-.107.58-.17 1.05-.19 1.406-.011.425-.119.747-.324.964-.185.191-.472.409-.862.652l-.268.109a1.001 1.001 0 0 1-.544-.1l-.544-.347c-.253-.46-.395-.793-.424-1.001-.03-.208 0-.507.086-.896.136-.867.293-1.927.47-3.177.174-1.273.327-2.355.46-3.246l.146-.975c.03-.452.013-.827-.053-1.124-.119-.006-.363.016-.732.069-.462.065-.827.152-1.095.26-.074.812-.237 1.66-.489 2.543-.232.858-.624 2.091-1.174 3.7a16.652 16.652 0 0 1-1.098 2.489l-.338.613-1.076 1.39-.957.983a.902.902 0 0 1-.421.271c-.155.07-.327.105-.515.108l-.45.064c-.314-.05-.63-.206-.95-.467-.297-.264-.496-.425-.598-.481l-.232-.391c-.03-.208-.028-.362.005-.46.053-.126.18-.32.378-.584.122-.3.31-.468.565-.504a1.06 1.06 0 0 1 .317-.01c.165-.164.414-.4.748-.706.33-.33.597-.615.798-.855.222-.267.397-.527.526-.781.404-.811.886-1.905 1.446-3.28.229-.55.5-1.378.816-2.483l-.436-.08c-.05-.017-.2-.078-.45-.184l-.666-1.461c-.081-.578.145-.975.68-1.192.403-.151 1-.341 1.793-.571.568-.151 1.042-.3 1.421-.448.288-.135.65-.234 1.09-.296a4.431 4.431 0 0 1 1.816.097c.492.143.922.436 1.29.879Zm5.891 11.468c-.22-.063-.508-.093-.86-.09a3.794 3.794 0 0 1-.753-.07c-.195-.044-.41-.155-.648-.333a3.378 3.378 0 0 1-.865-.868 3.187 3.187 0 0 1-.414-1.178c-.039-.278-.045-.489-.019-.634a1.8 1.8 0 0 0 .026-.57 5.04 5.04 0 0 1 .236-2.083c-.033.1.063-.303.29-1.207.222-1.092.67-2.51 1.343-4.255l.69-1.865c.186-.52.545-.819 1.076-.894.44-.062.954-.005 1.544.171.079.225.183.375.311.451.237.344.37.62.4.827.023.162.03.29.019.386-.414.742-.723 1.387-.929 1.934a2.328 2.328 0 0 1 1.199-.522l.682.327c.584.295.968.512 1.153.65.03.209.147.463.355.763.349.635.556 1.183.62 1.645.203 1.432-.03 2.702-.698 3.81-.672 1.084-1.672 2.015-3 2.792a2.314 2.314 0 0 0-.54.43c-.069.01-.274.062-.614.157-.316.092-.518.167-.604.227Zm-.361-3.059c.106-.086.302-.196.59-.33.31-.139.526-.275.648-.41.516-.521.89-1.045 1.122-1.573.255-.53.39-1.15.409-1.86l-.094-.164a3.042 3.042 0 0 1-1.024-.491 1.345 1.345 0 0 1-.449-.927l-.418 1.296c-.222.762-.397 1.694-.524 2.796-.05.479-.137 1.033-.26 1.663Zm20.09-17.577a5.59 5.59 0 0 0-.496.495c-.228.22-.446.345-.654.375-.07.01-.177.001-.322-.026-.29-.053-.513-.127-.668-.223a2.564 2.564 0 0 1-.41-.402c-.141-.168-.296-.264-.465-.288l-.42.024c-.717.101-1.674.33-2.872.689-1.202.334-1.942.604-2.22.808a9.787 9.787 0 0 1 3.282 3.213c.85 1.34 1.38 2.762 1.592 4.264.085.6.115 1.233.091 1.896a11.367 11.367 0 0 1-.709 3.74 9.585 9.585 0 0 1-1.96 3.14c-.88.95-1.709 1.585-2.488 1.907-.155.07-.373.112-.654.128-.257.012-.453.04-.589.083-.755-.176-1.342-.411-1.76-.706-.396-.297-.88-.806-1.453-1.527a7.398 7.398 0 0 1-.231-1.134 5.614 5.614 0 0 1-.017-1.623c.07-.505.176-1.003.319-1.494.162-.518.265-.874.308-1.07l1.018-2.052c.315-.61.814-1.246 1.498-1.908a12.214 12.214 0 0 1 2.067-1.635l1.267.21c-.507-1.083-1.074-1.934-1.704-2.552-.606-.621-1.407-1.203-2.402-1.746a1.459 1.459 0 0 1-.485-.426 7.002 7.002 0 0 1-.33-.59c.183-1.04.854-1.876 2.013-2.511 1.156-.658 2.591-1.261 4.304-1.81l.842-.295c.222-.102.402-.163.54-.183.185-.026.376-.006.574.06.103-.108.258-.177.466-.206.393-.056.868.054 1.425.329.557.274 1.047.57 1.469.888.29.218.444.397.464.535a6.67 6.67 0 0 1-.065.54 7.45 7.45 0 0 0-.165 1.083Zm-6.816 9.305c-.644.28-1.24.729-1.79 1.348a6.208 6.208 0 0 0-1.22 2.117 4.865 4.865 0 0 0-.267 2.37c.134.948.478 1.382 1.033 1.304.208-.03.364-.087.47-.173.126-.112.28-.275.461-.49.767-.909 1.308-1.75 1.623-2.526a4.776 4.776 0 0 0 .311-2.553 4.485 4.485 0 0 0-.128-.654c-.105-.41-.27-.657-.493-.743Zm5.347 17.095a.565.565 0 0 1-.564-.238 8.186 8.186 0 0 1-.37-.372c-.221-.228-.366-.585-.435-1.07a4.3 4.3 0 0 1-.008-.564c.117-1.007.149-1.695.097-2.064a2.958 2.958 0 0 1-.004-.53 6.36 6.36 0 0 0 .02-.604c.07-.175.115-.44.136-.796a3.25 3.25 0 0 0 .016-.886 1.102 1.102 0 0 1 .045-.43 1.51 1.51 0 0 1 .263-.392 2.873 2.873 0 0 1 .016-.638c.027-.31.044-.525.05-.643.028-.64.27-2.183.726-4.627.456-2.445.86-4.422 1.212-5.933.186-.686.332-1.32.439-1.9.106-.58.143-.986.11-1.217a.432.432 0 0 1 .036-.253c.056-.102.143-.232.263-.39.158-.211.388-.338.688-.38.393-.056.792.017 1.198.22.197.23.344.434.44.609.095.175.159.378.191.609.01.07.018.292.024.668.068.485-.008.944-.23 1.376-.222.432-.323.634-.303.608 1.034-.853 2.037-1.348 3.007-1.485 1.04-.147 1.924.106 2.652.757.725.628 1.157 1.439 1.298 2.432.055.393-.046 1.008-.305 1.846-.262.815-.494 1.342-.696 1.583-.138.02-.289.288-.451.806-.226.409-.701.877-1.428 1.403-.707.5-1.206.724-1.496.671-.023.003-.053.043-.09.119-.04.052-.052.125-.04.217.014.093-.31.303-.97.632-.661.33-1.245.53-1.754.601-.277.04-.487.057-.629.054a1.314 1.314 0 0 1-.45-.184c-.139.185-.198.346-.179.485.033.23-.03.617-.19 1.158-.162.518-.313.786-.451.806-.02.026-.048.077-.085.153-.013.073.033.149.139.228.01.07.02.233.033.49.013.258-.017.462-.09.614.03.208.034.49.014.846-.017.38-.06.668-.125.866.039.277.03.55-.027.817-.03.287-.09.437-.183.45-.133.066-.154.41-.066 1.034.055.558-.06 1.08-.344 1.569-.262.484-.543.748-.843.79l-.307.08Zm3.03-12.835c.323-.045.9-.303 1.729-.774.849-.497 1.456-.948 1.824-1.353.469-.514.816-.976 1.041-1.384.225-.41.312-.799.26-1.168a1.637 1.637 0 0 0-.445-.892c-.197-.231-.458-.324-.781-.278-.763.107-1.673.837-2.731 2.188-.354.498-.645 1.104-.874 1.82-.232.693-.324 1.212-.275 1.559.03.208.113.302.252.282Zm18.388-11.504c.346.282.605.528.776.74.168.188.273.432.316.732.068.486-.035 1.09-.31 1.811a12.67 12.67 0 0 1-.414 1.579c-.142.491-.262.814-.358.97l-.537 1.949c-.24.811-.541 1.76-.906 2.85-.441 1.381-.745 2.402-.91 3.062l-.348.791c-.895 2.012-1.602 3.43-2.12 4.258a18.362 18.362 0 0 1-1.602 1.676c-.622.606-1.135.973-1.541 1.101-.426.154-.905.27-1.437.344-.947.134-1.813.091-2.598-.128-.785-.219-1.268-.551-1.449-.997l-.128-.406a1.103 1.103 0 0 1 .353-1.004c.271-.25.592-.402.961-.454.231-.033.413 0 .545.1.05.016.252.117.608.303.356.185.811.238 1.366.16 1.04-.147 1.96-.972 2.761-2.475.752-1.685 1.317-3.026 1.694-4.022-.5-.212-1.017-.61-1.547-1.195-.534-.608-.795-1.042-.785-1.303l-.054-.381c-.184.026-.372-.301-.562-.981a26.717 26.717 0 0 1-.466-2.55c-.157-1.11-.243-1.886-.259-2.332.04-.383.023-.84-.052-1.371a34.654 34.654 0 0 0-.117-1.08c-.07-.32-.05-.605.056-.855.125-.277.251-.472.377-.584.284-.158.518-.25.703-.276 1.063-.15 1.754.907 2.074 3.171.062.44.097.776.107 1.01a66.14 66.14 0 0 0 .263 2.367c.252 1.779.657 2.9 1.218 3.362.139-.514.263-.885.373-1.113.228-.715.353-1.169.373-1.36.023-.168.113-.452.269-.851l.318-1c.027-.145.115-.605.265-1.38.146-.798.314-1.447.503-1.945.066-.197.167-.483.303-.855a6.51 6.51 0 0 1 .338-.861c.093-.178.205-.3.337-.366a.89.89 0 0 1 .555-.325c.208-.03.437.008.688.114Zm6.785 11.803c-.693.098-1.148.127-1.366.087-.22-.063-.501-.212-.84-.447-.093-.152-.274-.35-.544-.595a6.144 6.144 0 0 0-.608-.55 3.486 3.486 0 0 1-.231-.887c-.085-.6-.104-1.317-.056-2.148.07-.835.186-1.605.345-2.311.067-.198.111-.381.135-.55a8.46 8.46 0 0 1 .094-.33c-.022-.163.196-.7.656-1.614.48-.94.87-1.595 1.172-1.968.135-.207.35-.438.644-.691a5.47 5.47 0 0 1 .838-.578c.066-.033.328-.176.787-.43.482-.256.932-.414 1.347-.473.37-.052.74-.022 1.11.091.388.087.721.275.998.566.685.516 1.097 1.26 1.234 2.23.026.184.032.396.019.633-.05.479-.24.894-.567 1.247-.307.326-.657.517-1.05.572a1.332 1.332 0 0 1-1.069-.309c-.125-.218-.192-.361-.202-.43-.01-.07.009-.273.056-.61.033-.428.042-.7.026-.816-.043-.3-.168-.436-.376-.406-.277.039-.487.14-.629.3-.142.162-.4.505-.774 1.029-.254.366-.546.89-.873 1.572a10.85 10.85 0 0 0-.692 1.865l-.26 1.416a3.152 3.152 0 0 0-.04.465c.013.092.015.186.005.282a.775.775 0 0 0 0 .247.629.629 0 0 0 .157.367c.083.083.223.157.42.223.05.017.138.052.263.105a.676.676 0 0 0 .361.055c.139-.02.327-.105.565-.257.238-.151.39-.243.456-.276.28-.181.665-.542 1.155-1.082l.743-.741c.146-.139.271-.25.377-.337.126-.111.221-.184.288-.217.062-.056.097-.06.103-.015.013.093.055.134.124.124.07-.01.144-.067.223-.172.073-.152.225-.244.456-.277a1.05 1.05 0 0 1 .579.095c.22.063.336.13.346.199l-.01.178c.016.115.09.223.222.322.013.092-.004.224-.05.396a.877.877 0 0 1-.16.376 13.82 13.82 0 0 1-.645 1.187c-.225.408-.385.69-.481.845l-.035.005c-.115.017-.262.143-.44.38-.302.373-.58.577-.833.613a4.77 4.77 0 0 0-.288.217c-.109.063-.158.129-.149.198-.337.448-1.349.791-3.035 1.03Z"/></mask><path fill="#165298" d="M17.135 13.276c.455.384.87.985 1.244 1.804a8.8 8.8 0 0 1 .744 2.51c.055.393.076.79.062 1.194.003.023.011.41.023 1.163.133 1.607.131 2.597-.005 2.97.046.323-.008.778-.16 1.365-.12.489-.175.85-.165 1.084l-1.016 3.572a19.86 19.86 0 0 1-1.58 3.829c-.672 1.25-1.396 2.294-2.173 3.134a9.181 9.181 0 0 1-1.582 1.32c-.518.332-.93.508-1.233.527a3.452 3.452 0 0 0-.594.049l-.93.166c-.393.056-.98-.003-1.758-.176s-1.286-.348-1.523-.527l-1.854-1.364c-.205-.113-.341-.246-.41-.402a3.463 3.463 0 0 1-.104-.48.802.802 0 0 1-.162-.401c-.05-.347.027-.723.23-1.128.201-.406.452-.63.753-.672.161-.023.28-.016.356.02.445.15.734.274.866.373.155.096.306.251.454.466.03.208.191.432.484.674.317.238.658.402 1.024.491l1.312.027c.69-.12 1.39-.585 2.1-1.392.711-.807 1.272-1.594 1.682-2.358l1.561-3.968.363-1.182c-.323.046-.983.21-1.98.492-1.09.295-1.889.479-2.397.55a3.8 3.8 0 0 1-.629.054 1.69 1.69 0 0 1-.885-.512c-.204-.277-.423-.659-.656-1.144a3.07 3.07 0 0 1-.133-.44 1.02 1.02 0 0 1 .145-.728c.135-.208.343-.402.624-.583l2.6-.367a5.96 5.96 0 0 1 .757-.143c.3-.042.754-.082 1.361-.121l1.218-.137c.254-.036.563-.103.926-.201-.042-.3-.063-.78-.062-1.44a7.81 7.81 0 0 0-.038-1.02 18.44 18.44 0 0 0-.18-2.025 5.45 5.45 0 0 0-.058-.664 9.62 9.62 0 0 1-.073-1.014 2.084 2.084 0 0 0-.34-.907c-.158-.284-.347-.457-.568-.52a4.038 4.038 0 0 0-2.088-.27c-.225-.087-.583.046-1.075.398-.47.35-.932.827-1.388 1.433l-.571.965c-.238.316-.52.497-.843.543a1.024 1.024 0 0 1-.653-.12 1.254 1.254 0 0 1-.469-.57c-.003-.023-.079-.142-.227-.357a2.155 2.155 0 0 1-.251-.777c-.053-.37.026-.734.234-1.094a10.314 10.314 0 0 1 2.623-2.95l.768-.321c.113-.204.365-.334.758-.39.716-.101 1.653.026 2.81.38 1.182.353 2.092.79 2.731 1.312Zm14.769 7.989c.306.333.513.716.622 1.149.13.43.21.819.235 1.168.046.324.087.53.123.62-.1.956-.263 2.228-.486 3.815-.227 1.564-.329 2.179-.305 1.846a7.053 7.053 0 0 1-.155.905c-.107.58-.17 1.05-.19 1.406-.011.425-.119.747-.324.964-.185.191-.472.409-.862.652l-.268.109a1.001 1.001 0 0 1-.544-.1l-.544-.347c-.253-.46-.395-.793-.424-1.001-.03-.208 0-.507.086-.896.136-.867.293-1.927.47-3.177.174-1.273.327-2.355.46-3.246l.146-.975c.03-.452.013-.827-.053-1.124-.119-.006-.363.016-.732.069-.462.065-.827.152-1.095.26-.074.812-.237 1.66-.489 2.543-.232.858-.624 2.091-1.174 3.7a16.652 16.652 0 0 1-1.098 2.489l-.338.613-1.076 1.39-.957.983a.902.902 0 0 1-.421.271c-.155.07-.327.105-.515.108l-.45.064c-.314-.05-.63-.206-.95-.467-.297-.264-.496-.425-.598-.481l-.232-.391c-.03-.208-.028-.362.005-.46.053-.126.18-.32.378-.584.122-.3.31-.468.565-.504a1.06 1.06 0 0 1 .317-.01c.165-.164.414-.4.748-.706.33-.33.597-.615.798-.855.222-.267.397-.527.526-.781.404-.811.886-1.905 1.446-3.28.229-.55.5-1.378.816-2.483l-.436-.08c-.05-.017-.2-.078-.45-.184l-.666-1.461c-.081-.578.145-.975.68-1.192.403-.151 1-.341 1.793-.571.568-.151 1.042-.3 1.421-.448.288-.135.65-.234 1.09-.296a4.431 4.431 0 0 1 1.816.097c.492.143.922.436 1.29.879Zm5.891 11.468c-.22-.063-.508-.093-.86-.09a3.794 3.794 0 0 1-.753-.07c-.195-.044-.41-.155-.648-.333a3.378 3.378 0 0 1-.865-.868 3.187 3.187 0 0 1-.414-1.178c-.039-.278-.045-.489-.019-.634a1.8 1.8 0 0 0 .026-.57 5.04 5.04 0 0 1 .236-2.083c-.033.1.063-.303.29-1.207.222-1.092.67-2.51 1.343-4.255l.69-1.865c.186-.52.545-.819 1.076-.894.44-.062.954-.005 1.544.171.079.225.183.375.311.451.237.344.37.62.4.827.023.162.03.29.019.386-.414.742-.723 1.387-.929 1.934a2.328 2.328 0 0 1 1.199-.522l.682.327c.584.295.968.512 1.153.65.03.209.147.463.355.763.349.635.556 1.183.62 1.645.203 1.432-.03 2.702-.698 3.81-.672 1.084-1.672 2.015-3 2.792a2.314 2.314 0 0 0-.54.43c-.069.01-.274.062-.614.157-.316.092-.518.167-.604.227Zm-.361-3.059c.106-.086.302-.196.59-.33.31-.139.526-.275.648-.41.516-.521.89-1.045 1.122-1.573.255-.53.39-1.15.409-1.86l-.094-.164a3.042 3.042 0 0 1-1.024-.491 1.345 1.345 0 0 1-.449-.927l-.418 1.296c-.222.762-.397 1.694-.524 2.796-.05.479-.137 1.033-.26 1.663Zm20.09-17.577a5.59 5.59 0 0 0-.496.495c-.228.22-.446.345-.654.375-.07.01-.177.001-.322-.026-.29-.053-.513-.127-.668-.223a2.564 2.564 0 0 1-.41-.402c-.141-.168-.296-.264-.465-.288l-.42.024c-.717.101-1.674.33-2.872.689-1.202.334-1.942.604-2.22.808a9.787 9.787 0 0 1 3.282 3.213c.85 1.34 1.38 2.762 1.592 4.264.085.6.115 1.233.091 1.896a11.367 11.367 0 0 1-.709 3.74 9.585 9.585 0 0 1-1.96 3.14c-.88.95-1.709 1.585-2.488 1.907-.155.07-.373.112-.654.128-.257.012-.453.04-.589.083-.755-.176-1.342-.411-1.76-.706-.396-.297-.88-.806-1.453-1.527a7.398 7.398 0 0 1-.231-1.134 5.614 5.614 0 0 1-.017-1.623c.07-.505.176-1.003.319-1.494.162-.518.265-.874.308-1.07l1.018-2.052c.315-.61.814-1.246 1.498-1.908a12.214 12.214 0 0 1 2.067-1.635l1.267.21c-.507-1.083-1.074-1.934-1.704-2.552-.606-.621-1.407-1.203-2.402-1.746a1.459 1.459 0 0 1-.485-.426 7.002 7.002 0 0 1-.33-.59c.183-1.04.854-1.876 2.013-2.511 1.156-.658 2.591-1.261 4.304-1.81l.842-.295c.222-.102.402-.163.54-.183.185-.026.376-.006.574.06.103-.108.258-.177.466-.206.393-.056.868.054 1.425.329.557.274 1.047.57 1.469.888.29.218.444.397.464.535a6.67 6.67 0 0 1-.065.54 7.45 7.45 0 0 0-.165 1.083Zm-6.816 9.305c-.644.28-1.24.729-1.79 1.348a6.208 6.208 0 0 0-1.22 2.117 4.865 4.865 0 0 0-.267 2.37c.134.948.478 1.382 1.033 1.304.208-.03.364-.087.47-.173.126-.112.28-.275.461-.49.767-.909 1.308-1.75 1.623-2.526a4.776 4.776 0 0 0 .311-2.553 4.485 4.485 0 0 0-.128-.654c-.105-.41-.27-.657-.493-.743Zm5.347 17.095a.565.565 0 0 1-.564-.238 8.186 8.186 0 0 1-.37-.372c-.221-.228-.366-.585-.435-1.07a4.3 4.3 0 0 1-.008-.564c.117-1.007.149-1.695.097-2.064a2.958 2.958 0 0 1-.004-.53 6.36 6.36 0 0 0 .02-.604c.07-.175.115-.44.136-.796a3.25 3.25 0 0 0 .016-.886 1.102 1.102 0 0 1 .045-.43 1.51 1.51 0 0 1 .263-.392 2.873 2.873 0 0 1 .016-.638c.027-.31.044-.525.05-.643.028-.64.27-2.183.726-4.627.456-2.445.86-4.422 1.212-5.933.186-.686.332-1.32.439-1.9.106-.58.143-.986.11-1.217a.432.432 0 0 1 .036-.253c.056-.102.143-.232.263-.39.158-.211.388-.338.688-.38.393-.056.792.017 1.198.22.197.23.344.434.44.609.095.175.159.378.191.609.01.07.018.292.024.668.068.485-.008.944-.23 1.376-.222.432-.323.634-.303.608 1.034-.853 2.037-1.348 3.007-1.485 1.04-.147 1.924.106 2.652.757.725.628 1.157 1.439 1.298 2.432.055.393-.046 1.008-.305 1.846-.262.815-.494 1.342-.696 1.583-.138.02-.289.288-.451.806-.226.409-.701.877-1.428 1.403-.707.5-1.206.724-1.496.671-.023.003-.053.043-.09.119-.04.052-.052.125-.04.217.014.093-.31.303-.97.632-.661.33-1.245.53-1.754.601-.277.04-.487.057-.629.054a1.314 1.314 0 0 1-.45-.184c-.139.185-.198.346-.179.485.033.23-.03.617-.19 1.158-.162.518-.313.786-.451.806-.02.026-.048.077-.085.153-.013.073.033.149.139.228.01.07.02.233.033.49.013.258-.017.462-.09.614.03.208.034.49.014.846-.017.38-.06.668-.125.866.039.277.03.55-.027.817-.03.287-.09.437-.183.45-.133.066-.154.41-.066 1.034.055.558-.06 1.08-.344 1.569-.262.484-.543.748-.843.79l-.307.08Zm3.03-12.835c.323-.045.9-.303 1.729-.774.849-.497 1.456-.948 1.824-1.353.469-.514.816-.976 1.041-1.384.225-.41.312-.799.26-1.168a1.637 1.637 0 0 0-.445-.892c-.197-.231-.458-.324-.781-.278-.763.107-1.673.837-2.731 2.188-.354.498-.645 1.104-.874 1.82-.232.693-.324 1.212-.275 1.559.03.208.113.302.252.282Zm18.388-11.504c.346.282.605.528.776.74.168.188.273.432.316.732.068.486-.035 1.09-.31 1.811a12.67 12.67 0 0 1-.414 1.579c-.142.491-.262.814-.358.97l-.537 1.949c-.24.811-.541 1.76-.906 2.85-.441 1.381-.745 2.402-.91 3.062l-.348.791c-.895 2.012-1.602 3.43-2.12 4.258a18.362 18.362 0 0 1-1.602 1.676c-.622.606-1.135.973-1.541 1.101-.426.154-.905.27-1.437.344-.947.134-1.813.091-2.598-.128-.785-.219-1.268-.551-1.449-.997l-.128-.406a1.103 1.103 0 0 1 .353-1.004c.271-.25.592-.402.961-.454.231-.033.413 0 .545.1.05.016.252.117.608.303.356.185.811.238 1.366.16 1.04-.147 1.96-.972 2.761-2.475.752-1.685 1.317-3.026 1.694-4.022-.5-.212-1.017-.61-1.547-1.195-.534-.608-.795-1.042-.785-1.303l-.054-.381c-.184.026-.372-.301-.562-.981a26.717 26.717 0 0 1-.466-2.55c-.157-1.11-.243-1.886-.259-2.332.04-.383.023-.84-.052-1.371a34.654 34.654 0 0 0-.117-1.08c-.07-.32-.05-.605.056-.855.125-.277.251-.472.377-.584.284-.158.518-.25.703-.276 1.063-.15 1.754.907 2.074 3.171.062.44.097.776.107 1.01a66.14 66.14 0 0 0 .263 2.367c.252 1.779.657 2.9 1.218 3.362.139-.514.263-.885.373-1.113.228-.715.353-1.169.373-1.36.023-.168.113-.452.269-.851l.318-1c.027-.145.115-.605.265-1.38.146-.798.314-1.447.503-1.945.066-.197.167-.483.303-.855a6.51 6.51 0 0 1 .338-.861c.093-.178.205-.3.337-.366a.89.89 0 0 1 .555-.325c.208-.03.437.008.688.114Zm6.785 11.803c-.693.098-1.148.127-1.366.087-.22-.063-.501-.212-.84-.447-.093-.152-.274-.35-.544-.595a6.144 6.144 0 0 0-.608-.55 3.486 3.486 0 0 1-.231-.887c-.085-.6-.104-1.317-.056-2.148.07-.835.186-1.605.345-2.311.067-.198.111-.381.135-.55a8.46 8.46 0 0 1 .094-.33c-.022-.163.196-.7.656-1.614.48-.94.87-1.595 1.172-1.968.135-.207.35-.438.644-.691a5.47 5.47 0 0 1 .838-.578c.066-.033.328-.176.787-.43.482-.256.932-.414 1.347-.473.37-.052.74-.022 1.11.091.388.087.721.275.998.566.685.516 1.097 1.26 1.234 2.23.026.184.032.396.019.633-.05.479-.24.894-.567 1.247-.307.326-.657.517-1.05.572a1.332 1.332 0 0 1-1.069-.309c-.125-.218-.192-.361-.202-.43-.01-.07.009-.273.056-.61.033-.428.042-.7.026-.816-.043-.3-.168-.436-.376-.406-.277.039-.487.14-.629.3-.142.162-.4.505-.774 1.029-.254.366-.546.89-.873 1.572a10.85 10.85 0 0 0-.692 1.865l-.26 1.416a3.152 3.152 0 0 0-.04.465c.013.092.015.186.005.282a.775.775 0 0 0 0 .247.629.629 0 0 0 .157.367c.083.083.223.157.42.223.05.017.138.052.263.105a.676.676 0 0 0 .361.055c.139-.02.327-.105.565-.257.238-.151.39-.243.456-.276.28-.181.665-.542 1.155-1.082l.743-.741c.146-.139.271-.25.377-.337.126-.111.221-.184.288-.217.062-.056.097-.06.103-.015.013.093.055.134.124.124.07-.01.144-.067.223-.172.073-.152.225-.244.456-.277a1.05 1.05 0 0 1 .579.095c.22.063.336.13.346.199l-.01.178c.016.115.09.223.222.322.013.092-.004.224-.05.396a.877.877 0 0 1-.16.376 13.82 13.82 0 0 1-.645 1.187c-.225.408-.385.69-.481.845l-.035.005c-.115.017-.262.143-.44.38-.302.373-.58.577-.833.613a4.77 4.77 0 0 0-.288.217c-.109.063-.158.129-.149.198-.337.448-1.349.791-3.035 1.03Z"/><path fill="#fff" d="m17.135 13.276 1.29-1.529-.012-.01-.012-.01-1.266 1.549Zm1.244 1.804-1.818.832.003.007.003.007 1.812-.846Zm.806 3.704-1.999-.07-.006.176.025.173 1.98-.28Zm.023 1.163-2 .032.001.066.006.066 1.993-.164Zm-.005 2.97-1.879-.686-.171.47.07.495 1.98-.28Zm-.16 1.365-1.936-.503-.004.014-.003.014 1.943.475Zm-.165 1.084 1.923.547.088-.308-.013-.32-1.998.081Zm-1.016 3.572 1.92.562.002-.007.002-.008-1.924-.547Zm-1.58 3.829 1.761.947-1.761-.947ZM14.109 35.9l1.429 1.4.02-.02.02-.022-1.47-1.358Zm-1.582 1.32-1.079-1.684 1.08 1.683Zm-1.233.527-.114 1.997.12.007.121-.008-.127-1.996Zm-.594.049-.28-1.98-.036.004-.037.007.353 1.969Zm-.93.166.279 1.98.037-.004.036-.007-.353-1.969Zm-1.758-.176.434-1.952-.434 1.952ZM6.49 37.26l1.202-1.598-.008-.006-.009-.007L6.49 37.26Zm-1.854-1.364 1.185-1.61-.106-.079-.115-.063-.964 1.752Zm-.41-.402-1.921.557.038.131.055.125 1.828-.813Zm-.104-.48 1.98-.28-.077-.548-.348-.43-1.555 1.258Zm.067-1.53 1.79.892-1.79-.891Zm1.11-.65-.866 1.802.113.054.118.04.635-1.897Zm.866.372L4.96 34.804l.073.054.077.048 1.053-1.7Zm.454.466 1.98-.28-.065-.467-.268-.389-1.647 1.136Zm.484.674-1.27 1.544.033.028.035.026 1.202-1.598Zm1.024.491L7.65 36.78l.215.053.22.004.041-2Zm1.312.027-.041 2 .194.004.192-.034-.345-1.97Zm2.1-1.392 1.502 1.322-1.501-1.322Zm1.682-2.358 1.763.945.056-.104.043-.11-1.862-.731Zm1.561-3.968 1.861.733.028-.072.023-.073-1.912-.588Zm.363-1.182 1.912.587.924-3.007-3.115.44.28 1.98Zm-1.98.492.523 1.93.01-.003.011-.003-.544-1.924Zm-3.026.604-.475 1.942.178.044.183.01.114-1.996Zm-.885-.512-1.61 1.186.055.075.063.07 1.492-1.33Zm-.656-1.144-1.887.663.036.104.048.1 1.803-.867Zm.012-1.168-1.675-1.094 1.675 1.094Zm.624-.583-.28-1.98-.434.06-.37.239 1.084 1.68Zm2.6-.367.279 1.98.14-.02.137-.04-.557-1.92Zm2.118-.264.127 1.996.048-.003.048-.006-.223-1.987Zm1.218-.137.223 1.988.029-.003.028-.004-.28-1.98Zm.926-.201.523 1.93 1.704-.462-.246-1.748-1.98.28Zm-.062-1.44-2-.018v.014l2 .003Zm-.038-1.02-1.999.059.003.11.016.11 1.98-.28Zm-.18-2.025-2 .032.003.124.017.123 1.98-.28Zm-.13-1.678 1.998-.06-.003-.11-.015-.11-1.98.28Zm-.34-.907-1.749.972.047.085.055.08 1.646-1.137Zm-.57-.52-.739 1.858.094.037.097.028.549-1.923Zm-2.087-.27-.718 1.866.484.186.513-.073-.28-1.98Zm-1.075.398-1.164-1.626-.015.01-.015.012 1.194 1.604Zm-1.388 1.433-1.598-1.202-.067.088-.057.096 1.722 1.018Zm-.571.965 1.598 1.202.066-.088.057-.096-1.721-1.018Zm-1.496.423-1.093 1.675.063.04.066.037.964-1.752Zm-.469-.57-1.98.28.037.265.106.246 1.837-.791Zm-.227-.357-1.735.995.041.072.048.069 1.646-1.136Zm-.017-1.87L5.721 14.23l-.006.01 1.73 1.004Zm2.623-2.952-.77-1.845-.243.101-.209.161 1.222 1.583Zm.768-.32.77 1.846.645-.27.337-.612-1.752-.964Zm3.569-.01-.586 1.913.007.002.008.003.57-1.917Zm1.44 2.84c.144.122.406.432.716 1.108l3.637-1.665c-.44-.962-1.007-1.854-1.774-2.5l-2.578 3.058Zm.722 1.122c.287.615.479 1.26.575 1.944l3.961-.56a10.815 10.815 0 0 0-.911-3.076l-3.625 1.692Zm.575 1.944c.04.276.054.557.044.845l3.998.137a8.835 8.835 0 0 0-.08-1.541l-3.962.56Zm.063 1.193a1.844 1.844 0 0 1-.016-.16l-.001-.018.001.037.005.209.014.848 4-.064a248.42 248.42 0 0 0-.02-1.099l-.003-.083-.002-.052a1.946 1.946 0 0 0-.017-.177l-3.961.56Zm.01 1.048c.064.778.092 1.365.091 1.78 0 .208-.008.347-.016.43-.01.105-.015.046.034-.09l3.758 1.37c.203-.554.223-1.222.224-1.703a25.915 25.915 0 0 0-.105-2.116l-3.986.33Zm.008 3.085c-.009-.061.002-.049-.012.071-.013.113-.044.28-.104.512l3.871 1.007c.172-.661.307-1.427.205-2.15l-3.96.56Zm-.123.61c-.125.512-.243 1.107-.22 1.641l3.996-.162c.002.06-.005.052.013-.064a5.55 5.55 0 0 1 .096-.463l-3.885-.951Zm-.146 1.013-1.016 3.572 3.848 1.094 1.015-3.572-3.847-1.094Zm-1.011 3.557a17.863 17.863 0 0 1-1.423 3.444l3.523 1.894a21.861 21.861 0 0 0 1.738-4.214l-3.838-1.124ZM14.52 31.82c-.61 1.134-1.241 2.033-1.88 2.724l2.937 2.715c.915-.99 1.733-2.18 2.466-3.545L14.52 31.82Zm-1.84 2.682a7.21 7.21 0 0 1-1.232 1.035l2.159 3.367c.672-.43 1.314-.974 1.93-1.603l-2.857-2.799Zm-1.232 1.035c-.198.127-.33.194-.404.226-.035.015-.044.016-.029.012a.777.777 0 0 1 .152-.023l.254 3.992c.842-.053 1.618-.476 2.186-.84l-2.159-3.367Zm-.04.214a5.257 5.257 0 0 0-.987.065l.559 3.96c.114-.015.192-.024.24-.028l.03-.002c-.001 0-.027.001-.07-.001l.228-3.994Zm-1.06.077-.931.167.705 3.937.93-.167-.705-3.937Zm-.858.155c.018-.003-.053.008-.255-.012a6.928 6.928 0 0 1-.789-.136l-.867 3.905c.825.183 1.704.312 2.47.204l-.56-3.961Zm-1.044-.148a7.076 7.076 0 0 1-.744-.2 1.36 1.36 0 0 1-.126-.048c-.015-.007.035.015.115.075l-2.405 3.196c.369.278.789.448 1.108.558.351.122.753.228 1.185.324l.867-3.905Zm-.772-.186L5.82 34.285l-2.37 3.222 1.853 1.364 2.371-3.222ZM5.6 34.144c.038.02.289.169.453.537l-3.655 1.626c.302.68.827 1.095 1.273 1.341l1.93-3.504Zm.547.794a1.462 1.462 0 0 1-.044-.204l-3.96.56c.035.256.09.509.162.757l3.842-1.114Zm-.47-1.183c.184.228.245.453.263.578l-3.96.56c.063.448.233.94.588 1.38l3.109-2.518Zm.263.578a.514.514 0 0 1 0 .137c-.002.01.003-.02.04-.094l-3.581-1.783c-.33.662-.54 1.45-.42 2.3l3.961-.56Zm.04.043c.024-.049-.002.024-.12.13-.135.12-.355.247-.638.287l-.559-3.96c-1.23.173-1.921 1.072-2.264 1.76l3.58 1.783Zm-.758.417c-.005 0-.073.01-.183.005a1.62 1.62 0 0 1-.606-.162l1.732-3.606c-.635-.305-1.258-.232-1.502-.198l.56 3.961Zm-.558-.063c.193.064.32.113.395.145l.039.018a1.062 1.062 0 0 1-.136-.09l2.405-3.195c-.43-.325-1.03-.536-1.432-.671L4.663 34.73Zm.448.176a.787.787 0 0 1-.149-.115c-.017-.017-.012-.016.01.017l3.293-2.272a3.59 3.59 0 0 0-1.048-1.03l-2.106 3.4Zm-.473-.955c.137.974.795 1.611 1.193 1.939l2.542-3.089c-.059-.048-.037-.041.013.029.05.07.17.26.213.562l-3.961.56ZM5.9 35.944a4.797 4.797 0 0 0 1.75.836l.952-3.885a.802.802 0 0 1-.297-.147L5.9 35.944Zm2.185.893 1.312.027.082-4-1.312-.026-.082 3.999Zm1.698-.003c1.322-.232 2.398-1.066 3.257-2.04l-3.002-2.644c-.564.64-.888.734-.946.744l.691 3.94Zm3.257-2.04c.789-.897 1.445-1.807 1.943-2.735l-3.525-1.891c-.323.602-.788 1.264-1.42 1.982l3.002 2.644Zm2.042-2.948 1.56-3.967-3.722-1.465-1.56 3.967 3.722 1.465Zm1.611-4.112.363-1.183-3.823-1.174-.364 1.182 3.824 1.175Zm-1.828-3.75c-.482.068-1.276.273-2.246.547l1.09 3.85c1.024-.29 1.55-.413 1.715-.437l-.56-3.96Zm-2.224.541c-1.081.293-1.777.448-2.153.5l.559 3.962c.64-.09 1.542-.303 2.64-.6l-1.046-3.862Zm-2.153.5a5.236 5.236 0 0 1-.273.034l-.037.002h.018c.011 0 .03 0 .057.002l-.229 3.993c.34.02.732-.028 1.023-.07l-.56-3.96Zm.126.092c-.018-.004-.004-.003.029.016.034.02.071.049.103.084L7.76 27.88a3.687 3.687 0 0 0 1.902 1.122l.951-3.885Zm.25.246a5.514 5.514 0 0 1-.465-.826l-3.605 1.734c.261.542.542 1.046.848 1.462l3.222-2.37Zm-.38-.622a7.336 7.336 0 0 1-.065-.193l-.001-.004a1.317 1.317 0 0 1 .026.14l-3.96.559c.042.304.164.648.226.824l3.774-1.326Zm-.04-.057a.849.849 0 0 1-.012.28 1.05 1.05 0 0 1-.149.366l-3.349-2.188a3.022 3.022 0 0 0-.45 2.1l3.96-.558Zm-.16.645c-.033.05-.056.07-.053.067a.919.919 0 0 1 .086-.063l-2.168-3.361c-.439.283-.882.661-1.215 1.17l3.35 2.188Zm-.771.304 2.599-.367-.56-3.96-2.598.366.559 3.961Zm2.876-.426c-.006.002.027-.008.12-.026a8.29 8.29 0 0 1 .36-.057l-.559-3.96c-.36.05-.731.113-1.035.2l1.114 3.843Zm.48-.083c.222-.031.613-.068 1.21-.106l-.255-3.992a22.1 22.1 0 0 0-1.514.137l.56 3.96Zm1.305-.115 1.218-.136-.446-3.975-1.218.136.446 3.975Zm1.275-.143c.364-.052.76-.14 1.17-.252l-1.047-3.86a5.915 5.915 0 0 1-.682.15l.559 3.962Zm2.627-2.462c-.022-.15-.044-.509-.043-1.157l-4-.007c-.001.671.018 1.273.082 1.724l3.96-.56Zm-.043-1.143c.004-.48-.006-.95-.058-1.317l-3.96.56.005.053a11.611 11.611 0 0 1 .013.669l4 .035Zm-.039-1.097a20.443 20.443 0 0 0-.198-2.245l-3.961.56c.092.653.145 1.254.161 1.804l3.998-.119Zm-.179-1.997a7.41 7.41 0 0 0-.078-.911l-3.96.56c.028.199.037.333.039.415l3.999-.064Zm-.078-.911a7.795 7.795 0 0 1-.053-.794l-3.999.118c.014.456.041.877.092 1.235l3.96-.56Zm-.072-1.015a4.08 4.08 0 0 0-.674-1.762l-3.293 2.271-.008-.013a.321.321 0 0 1 .014.063l3.96-.559Zm-.573-1.598c-.307-.554-.856-1.213-1.767-1.473l-1.098 3.847a1.24 1.24 0 0 1-.494-.271.883.883 0 0 1-.106-.115.35.35 0 0 1-.03-.045l3.495-1.943Zm-1.576-1.407a6.037 6.037 0 0 0-3.108-.393l.56 3.96c.322-.045.667-.01 1.068.149l1.48-3.716Zm-2.111-.28c-.77-.295-1.47-.114-1.85.027a4.824 4.824 0 0 0-1.106.613l2.328 3.253c.175-.126.225-.136.17-.116a1.105 1.105 0 0 1-.292.06 1.568 1.568 0 0 1-.685-.103l1.435-3.734Zm-2.986.662c-.66.49-1.253 1.119-1.792 1.835l3.196 2.405c.373-.497.705-.824.984-1.031l-2.388-3.21Zm-1.916 2.019-.57.964 3.442 2.038.57-.965-3.442-2.037Zm-.447.78c-.003.004.034-.047.125-.105a.883.883 0 0 1 .35-.13l.56 3.961c.957-.135 1.676-.676 2.16-1.32l-3.195-2.406Zm.476-.235a.953.953 0 0 1 .59.109l-1.928 3.504a3.024 3.024 0 0 0 1.897.348l-.56-3.96Zm.72.186a.797.797 0 0 1 .177.16.643.643 0 0 1 .097.154l-3.674 1.582a3.252 3.252 0 0 0 1.213 1.454l2.187-3.35Zm.417.825c-.043-.31-.154-.539-.164-.56a2.286 2.286 0 0 0-.084-.167 3.466 3.466 0 0 0-.104-.174c-.058-.09-.13-.198-.209-.312l-3.292 2.272c.07.101.109.16.127.189.01.016 0 .002-.018-.031a1.71 1.71 0 0 1-.125-.28 1.951 1.951 0 0 1-.091-.377l3.96-.56Zm-.472-1.072c.025.043.008.037-.006-.062l-3.96.56c.07.5.221 1.013.496 1.492l3.47-1.99Zm-.006-.062c.007.047.005.1-.005.148-.01.046-.022.06-.01.042l-3.46-2.007c-.407.7-.608 1.513-.486 2.376l3.961-.559Zm-.022.2a8.314 8.314 0 0 1 2.121-2.381L8.846 10.71a12.313 12.313 0 0 0-3.125 3.52l3.449 2.03Zm1.67-2.119.768-.32-1.541-3.692-.768.32 1.54 3.692Zm1.75-1.202a1.381 1.381 0 0 1-.564.564c-.135.069-.207.07-.151.063l-.56-3.961c-.587.083-1.653.357-2.23 1.405l3.504 1.93Zm-.715.627c.293-.042.902-.008 1.944.312l1.173-3.824c-1.273-.39-2.538-.61-3.677-.45l.56 3.962Zm1.96.317c1.04.31 1.676.65 2.036.943l2.53-3.098c-.919-.75-2.103-1.285-3.424-1.679l-1.142 3.834Zm18.07 7.383-1.537 1.28.03.037.033.035 1.474-1.352Zm.622 1.149-1.94.485.012.05.015.05 1.913-.585Zm.235 1.168-1.994.148.005.066.009.066 1.98-.28Zm.123.62 1.989.208.052-.497-.188-.463-1.853.751Zm-.486 3.815 1.979.287.001-.008-1.98-.28Zm-.305 1.846 1.995.141-3.99-.298 1.995.157Zm-.155.905-1.953-.433-.008.036-.006.036 1.967.361Zm-.19 1.406-1.997-.115-.002.033-.001.032 2 .05Zm-.324.964 1.437 1.392.01-.01.009-.01-1.456-1.372Zm-.862.652.751 1.854.161-.066.148-.092-1.06-1.696Zm-.268.109.28 1.98.244-.034.228-.093-.752-1.853Zm-.544-.1-1.076 1.685.126.081.138.061.812-1.827Zm-.544-.347-1.751.966.246.445.429.274 1.076-1.685Zm-.338-1.897 1.952.434.014-.061.01-.062-1.976-.31Zm.47-3.177 1.98.28.002-.01-1.982-.27Zm.46-3.246 1.979.296v-.002l-1.978-.294Zm.146-.975 1.978.294.012-.08.005-.08-1.995-.134Zm-.053-1.124 1.953-.43-.326-1.48-1.513-.086-.114 1.996Zm-1.827.329-.751-1.853-1.13.458-.11 1.214 1.991.181Zm-.489 2.543-1.923-.548-.004.012-.003.013 1.93.523Zm-1.174 3.7 1.889.658.003-.01-1.892-.647Zm-1.098 2.489 1.752.964.005-.009-1.757-.955Zm-.338.613 1.581 1.225.096-.123.075-.137-1.752-.965Zm-1.076 1.39 1.434 1.394.078-.08.069-.09-1.581-1.225Zm-.957.983L21.5 33.685l-.025.026-.024.026 1.482 1.343Zm-.421.271-.557-1.92-.131.037-.125.056.813 1.827Zm-.515.108-.032-2-.124.002-.124.018.28 1.98Zm-.45.064-.316 1.975.297.047.298-.042-.28-1.98Zm-.95-.467-1.331 1.493.032.029.033.027 1.266-1.549Zm-.598-.481-1.72 1.02.277.469.478.263.965-1.752Zm-.232-.391-1.98.28.055.395.204.344 1.72-1.02Zm.005-.46-1.842-.78-.03.07-.024.074 1.896.635Zm.378-.584 1.598 1.202.155-.206.098-.24-1.851-.756Zm.881-.514-.36 1.968 1.03.189.742-.74-1.412-1.416Zm.749-.706 1.352 1.473.03-.028.03-.029-1.412-1.416Zm.798-.855 1.533 1.285.006-.008-1.539-1.277Zm.526-.781 1.783.906.004-.007.004-.008-1.79-.891Zm1.446-3.28-1.847-.766-.005.012 1.852.754Zm.816-2.483 1.923.549.604-2.119-2.166-.397-.361 1.967Zm-.436-.08-.635 1.896.134.045.14.026.361-1.967Zm-.45-.184-1.82.83.323.709.718.303.78-1.842Zm-.666-1.461-1.98.28.04.286.12.263 1.82-.83Zm.68-1.192-.702-1.872-.025.009-.024.01.751 1.853Zm1.793-.571-.514-1.933-.021.006-.022.006.557 1.92Zm1.421-.448.726 1.863.063-.024.061-.029-.85-1.81Zm2.906-.199.558-1.92-.012-.004-.013-.003-.533 1.927Zm-.183 2.231c.085.092.13.179.155.282l3.88-.97a4.616 4.616 0 0 0-1.088-2.017l-2.947 2.705Zm.183.382c.1.324.141.564.154.73l3.989-.294a7.378 7.378 0 0 0-.318-1.606l-3.825 1.17Zm.168.863c.036.259.103.729.25 1.091l3.706-1.503c.02.05.034.089.04.111.008.023.012.04.014.047l-.003-.017a5.673 5.673 0 0 1-.046-.288l-3.961.56Zm.114.13c-.097.924-.256 2.17-.478 3.746l3.961.558c.225-1.597.39-2.895.495-3.886l-3.978-.418Zm-.477 3.738a96.07 96.07 0 0 1-.24 1.595c-.033.198-.033.168-.007.076a1.915 1.915 0 0 1 .15-.38c.033-.061.152-.288.385-.513.21-.2 1.002-.832 2.08-.433.83.308 1.112 1.012 1.148 1.098a1.986 1.986 0 0 1 .15.61c.013.17-.002.304.004.221l-3.99-.283s-.017.189-.002.381a2.05 2.05 0 0 0 .151.623c.038.088.319.793 1.15 1.1 1.078.4 1.872-.232 2.082-.433a2.007 2.007 0 0 0 .547-.924c.045-.162.08-.38.098-.49.055-.33.14-.893.253-1.674l-3.959-.574Zm-.32 1.976a5.396 5.396 0 0 1-.113.629l3.905.867c.093-.418.169-.828.197-1.183l-3.988-.313Zm-.127.701a13.847 13.847 0 0 0-.22 1.652l3.993.229c.014-.238.061-.615.16-1.159l-3.933-.722Zm-.223 1.717c-.004.14-.032-.09.22-.357l2.912 2.743c.662-.703.85-1.576.867-2.287l-3.999-.1Zm.24-.377-.03.026a1.89 1.89 0 0 1-.095.076 5.014 5.014 0 0 1-.361.245l2.12 3.392c.443-.277.888-.594 1.239-.956l-2.873-2.783Zm-.178.19-.267.108 1.503 3.707.267-.108-1.503-3.707Zm.205-.019a1.04 1.04 0 0 1 .547.053l-1.624 3.655c.428.19.995.344 1.636.253l-.56-3.96Zm.811.195-.543-.347-2.153 3.371.544.347 2.152-3.37Zm.131.372a4.695 4.695 0 0 1-.206-.408l-.018-.048c0 .003.017.055.03.142l-3.961.56c.087.614.407 1.24.653 1.687l3.502-1.933Zm-.195-.314a.764.764 0 0 1 .009.104l.001-.014a2.47 2.47 0 0 1 .048-.272l-3.905-.867c-.1.451-.194 1.036-.113 1.609l3.96-.56Zm.081-.305c.14-.88.297-1.951.475-3.208l-3.96-.56a206.529 206.529 0 0 1-.466 3.146l3.951.622Zm.477-3.218c.173-1.268.325-2.34.457-3.22l-3.956-.592c-.135.902-.29 1.993-.465 3.272l3.964.54Zm.457-3.222.145-.974-3.956-.59-.146.975 3.957.59Zm.162-1.135c.038-.558.026-1.14-.095-1.688l-3.906.861c.01.045.034.213.01.559l3.991.268Zm-1.934-3.254c-.351-.02-.797.038-1.126.084l.56 3.96a8.124 8.124 0 0 1 .427-.05c.01 0-.026.003-.089 0l.228-3.994Zm-1.126.084c-.538.076-1.084.192-1.566.388l1.503 3.706c.052-.02.236-.079.622-.133l-.56-3.96Zm-2.806 2.06a11.879 11.879 0 0 1-.421 2.176l3.846 1.097c.282-.989.471-1.96.558-2.91l-3.983-.363Zm-.428 2.201c-.215.794-.59 1.978-1.136 3.577l3.784 1.294c.555-1.62.963-2.903 1.212-3.825l-3.86-1.046Zm-1.133 3.567a14.644 14.644 0 0 1-.966 2.19l3.514 1.91c.483-.889.893-1.818 1.23-2.786l-3.778-1.314Zm-.961 2.18-.338.614 3.504 1.929.338-.614-3.504-1.929Zm-.167.353-1.076 1.39 3.162 2.45 1.076-1.39-3.162-2.45Zm-.928 1.22-.957.983 2.867 2.79.957-.984-2.867-2.79Zm-1.006 1.035c.1-.11.27-.239.504-.307l1.114 3.842a2.9 2.9 0 0 0 1.347-.85l-2.965-2.685Zm.248-.213a.705.705 0 0 1 .266-.065l.064 4a3.3 3.3 0 0 0 1.296-.28l-1.626-3.655Zm.018-.045h-.006l-.001.001h-.007v.001h-.006l-.001.001h-.007v.001h-.006l-.002.001h-.005l-.001.001h-.006l-.002.001h-.006v.001h-.007l-.001.001h-.006l-.001.001h-.006l-.002.001h-.006v.001h-.006v.001h-.008v.001h-.007l-.001.001h-.006l-.001.001h-.006v.001h-.006l-.002.001h-.006v.001h-.006l-.002.001h-.006l-.001.001h-.006l-.001.001h-.006v.001h-.007l-.001.001h-.006l-.001.001h-.006l-.002.001h-.005l-.001.001h-.007v.001h-.007v.001h-.006l-.001.001h-.006l-.002.001h-.005l-.002.001h-.006l-.001.001h-.006l-.001.001h-.006l-.001.001h-.006l-.001.001h-.006l-.001.001h-.006l-.001.001h-.006l-.001.001h-.006l-.002.001h-.006v.001h-.006l-.001.001h-.006l-.002.001h-.006l-.001.001h-.005l-.002.001h-.006l-.001.001h-.006l-.001.001h-.007v.001h-.006v.001h-.007v.001h-.007l-.002.001h-.005l-.002.001h-.006v.001h-.007v.001h-.007v.001h-.007v.001h-.007v.001h-.007l-.001.001h-.007v.001h-.007v.001h-.007v.001h-.007v.001h-.006l-.001.001h-.004l.56 3.961h.007l.001-.001h.006V37.5h.014l.001-.001h.006l.001-.001h.007v-.001h.006l.002-.001h.006v-.001h.007v-.001h.006l.002-.001h.006l.001-.001h.006l.001-.001h.006l.001-.001h.006l.001-.001h.006l.001-.001h.007v-.001h.006l.002-.001h.005l.001-.001h.007v-.001h.007v-.001h.007v-.001h.007l.001-.001h.006v-.001h.007v-.001h.008v-.001h.006l.001-.001h.006l.001-.001h.006l.001-.001h.006l.001-.001h.007v-.001h.006l.002-.001h.006v-.001h.007l.001-.001h.006v-.001h.007v-.001h.007l.001-.001h.005l.002-.001h.006l.001-.001h.006l.001-.001h.006l.002-.001h.005l.001-.001h.006l.001-.001h.007v-.001h.006l.002-.001h.006v-.001h.006l.001-.001h.007l.001-.001h.006l.001-.001h.006l.001-.001h.006l.001-.001h.006l.002-.001h.006v-.001h.006l.002-.001h.005l.001-.001h.006l.001-.001h.007v-.001h.006l.002-.001h.006l.001-.001h.005l.002-.001h.006l.001-.001h.006l.002-.001h.004l.002-.001h.006l.002-.001h.002l-.56-3.961Zm.145.069c.03.005.053.01.07.016l.024.01-.006-.003a.853.853 0 0 1-.088-.063l-2.53 3.097c.512.419 1.147.773 1.9.893l.63-3.95Zm.066.015c-.252-.224-.626-.553-.965-.74l-1.929 3.504a.95.95 0 0 1-.083-.05l-.024-.016.044.035c.064.05.16.132.295.253l2.662-2.986Zm-.209-.008-.232-.391-3.44 2.04.231.39 3.441-2.039Zm.028.349c-.005-.037 0-.021-.001.033a1.528 1.528 0 0 1-.077.422l-3.793-1.271c-.189.564-.127 1.11-.09 1.375l3.961-.56Zm-.133.598a.911.911 0 0 1-.042.09l.014-.023c.029-.044.08-.118.162-.227l-3.197-2.405c-.196.262-.462.631-.62 1.007l3.683 1.558Zm.387-.606a1.09 1.09 0 0 1-.287.385 1.383 1.383 0 0 1-.72.335l-.559-3.96c-1.15.162-1.827.97-2.137 1.727L22 33.896Zm-1.007.72c.018-.002.003 0-.037.002a1.37 1.37 0 0 1-.287-.024l.722-3.935a3.008 3.008 0 0 0-.957-.003l.56 3.96Zm1.45-.573c.135-.135.36-.348.688-.65l-2.704-2.947c-.34.311-.613.57-.808.764l2.823 2.833Zm.748-.707c.355-.353.666-.684.919-.986l-3.065-2.57a11.3 11.3 0 0 1-.678.723l2.824 2.833Zm.925-.994a6.19 6.19 0 0 0 .77-1.152l-3.566-1.813a2.226 2.226 0 0 1-.282.41l3.078 2.555Zm.778-1.167c.435-.875.939-2.02 1.507-3.416l-3.704-1.509c-.552 1.354-1.012 2.395-1.384 3.142l3.58 1.783Zm1.502-3.404c.274-.66.571-1.577.892-2.701l-3.846-1.098c-.31 1.085-.557 1.824-.74 2.266l3.694 1.533Zm-.67-5.217-.436-.08-.722 3.934.436.08.722-3.934Zm-.161-.01.035.013a25.48 25.48 0 0 1-.342-.142L23.7 26.1c.212.09.452.19.594.238l1.27-3.792Zm.734.884-.666-1.462-3.64 1.66.666 1.46 3.64-1.658Zm-.505-.912a.918.918 0 0 1-.135.54.934.934 0 0 1-.414.401l-1.503-3.706c-.573.232-1.168.641-1.557 1.322-.387.68-.438 1.397-.352 2.002l3.96-.559Zm-.598.96c.33-.123.868-.296 1.647-.522l-1.114-3.842a27.33 27.33 0 0 0-1.938.62l1.405 3.745Zm1.604-.51a15.632 15.632 0 0 0 1.633-.518l-1.451-3.727c-.288.112-.685.24-1.21.379l1.028 3.866Zm1.757-.57c.051-.025.206-.082.52-.126l-.56-3.96c-.564.079-1.136.218-1.66.464l1.7 3.621Zm.52-.126a2.44 2.44 0 0 1 1.003.044l1.066-3.855a6.425 6.425 0 0 0-2.629-.15l.56 3.96Zm.979.037c.061.018.164.061.311.238l3.073-2.56c-.59-.71-1.348-1.252-2.27-1.52l-1.114 3.842Zm7.74 10.427-.55 1.923.908.259.777-.536-1.136-1.647Zm-.862-.091-.025 2h.04l-.015-2Zm-.752-.07-.434 1.952.434-1.953Zm-.648-.333 1.203-1.598-.032-.024-.033-.023-1.138 1.645Zm-.865-.868-1.725 1.013.037.063.042.06 1.646-1.136Zm-.432-1.812-1.968-.361 1.968.36Zm.025-.57-1.989.212.004.034.005.034 1.98-.28Zm.236-2.083 1.905.61-3.801-1.245 1.896.635Zm.29-1.207 1.94.485.01-.042.009-.043-1.96-.4Zm1.343-4.255 1.866.72.004-.012.005-.013-1.875-.695Zm.69-1.865 1.876.695.004-.011.005-.012-1.884-.672Zm2.62-.723 1.887-.662-.338-.963-.978-.292-.57 1.917Zm.311.451 1.646-1.136-.249-.361-.378-.224-1.019 1.721Zm.419 1.213 1.747.974.2-.357.042-.408-1.989-.209Zm-.929 1.934-1.872-.703-2.68 7.142 5.839-4.908-1.287-1.53Zm1.199-.522.866-1.803-.546-.262-.6.084.28 1.98Zm.682.327.902-1.785-.018-.009-.018-.009-.865 1.803Zm1.153.65 1.98-.28-.116-.82-.662-.497-1.202 1.598Zm.355.763 1.752-.963-.048-.09-.058-.082-1.646 1.135Zm-.078 5.455 1.7 1.053.006-.01.006-.01-1.712-1.033Zm-3 2.792.958 1.756.026-.015.026-.015-1.01-1.726Zm-.54.43.28 1.98.68-.096.477-.493-1.437-1.392Zm-.614.157-.538-1.926-.01.002-.008.003.556 1.92Zm-.965-2.833-1.963-.384-1.055 5.402 4.277-3.464-1.26-1.554Zm.59-.33-.813-1.828-.019.008-.018.009.85 1.81Zm.648-.41-1.42-1.408-.032.032-.03.033 1.483 1.342Zm1.122-1.573-1.803-.866-.015.03-.013.032 1.83.804Zm.409-1.86 1.999.05.014-.56-.279-.485-1.734.995Zm-.094-.164 1.735-.995-.408-.71-.79-.221-.537 1.926Zm-1.024-.491-1.342 1.482.067.061.072.055 1.203-1.598Zm-.449-.927 1.994-.155-3.898-.458 1.904.613Zm-.418 1.296-1.903-.613-.009.026-.008.027 1.92.56Zm-.524 2.796-1.987-.229-.001.01-.001.01 1.989.21Zm.65 2.8c-.475-.136-.972-.171-1.425-.168l.03 4c.118 0 .201.004.256.01.056.006.066.01.041.004l1.098-3.847Zm-1.385-.168a3.27 3.27 0 0 1-.257-.012c-.062-.006-.089-.011-.087-.01l-.867 3.904c.38.084.782.113 1.161.118l.05-4Zm-.344-.023c.101.022.16.052.172.058.013.006-.004 0-.05-.036l-2.406 3.196c.364.273.842.56 1.417.687l.867-3.905Zm.057-.025a1.376 1.376 0 0 1-.357-.358l-3.292 2.271a5.38 5.38 0 0 0 1.373 1.377l2.276-3.29Zm-.278-.235a1.188 1.188 0 0 1-.158-.446l-3.961.56a5.19 5.19 0 0 0 .67 1.91l3.449-2.024Zm-.158-.446a2.282 2.282 0 0 1-.012-.101l-.004-.045v.027a.82.82 0 0 1-.016.126l-3.935-.722c-.086.47-.041.94.006 1.274l3.96-.56Zm-.032.007c.066-.36.1-.775.038-1.21l-3.96.56a.597.597 0 0 1-.007-.107c0-.01 0 .001-.006.035l3.935.722Zm.047-1.142c-.04-.367-.001-.782.152-1.263l-3.81-1.218a7.038 7.038 0 0 0-.32 2.904l3.978-.423Zm-3.65-2.507a1.884 1.884 0 0 1 .197-.413 1.997 1.997 0 0 1 .722-.685 2 2 0 0 1 2.796.927c.176.392.174.745.175.76.005.167-.014.298-.015.307l-.012.083-.006.032-.002.012.008-.038.027-.112c.045-.19.124-.509.237-.96l-3.881-.97c-.113.453-.196.787-.247.999a10.336 10.336 0 0 0-.078.355 2.09 2.09 0 0 0-.014.097c-.002.012-.02.146-.015.314 0 .017-.002.37.175.762a2 2 0 0 0 3.727-.2l-3.793-1.27Zm4.146-.172c.19-.935.594-2.235 1.25-3.935l-3.733-1.44c-.69 1.79-1.181 3.326-1.436 4.575l3.919.8Zm1.259-3.96.691-1.865-3.75-1.39-.692 1.865 3.75 1.39Zm.7-1.888a.66.66 0 0 1-.198.252.716.716 0 0 1-.331.163l-.56-3.961a3.303 3.303 0 0 0-1.666.722 3.373 3.373 0 0 0-1.013 1.481l3.768 1.343Zm-.53.415c.067-.01.279-.017.694.107l1.142-3.834c-.765-.228-1.583-.349-2.395-.234l.56 3.96Zm-.622-1.147c.148.42.466 1.087 1.18 1.51l2.037-3.443c.234.138.377.304.453.415a.853.853 0 0 1 .104.193l-3.774 1.325Zm.552.924a2.46 2.46 0 0 1 .123.198c.004.008-.003-.005-.014-.038a1.057 1.057 0 0 1-.044-.19l3.961-.558c-.097-.692-.461-1.289-.733-1.684l-3.293 2.272Zm.066-.03c.005.037.005.048.004.038v-.041c0-.022.001-.055.006-.099l3.978.418a3.613 3.613 0 0 0-.028-.874l-3.96.559Zm.252-.867c-.442.794-.802 1.533-1.054 2.205l3.745 1.406c.158-.423.418-.973.803-1.663l-3.494-1.948Zm2.105 4.44c.033-.028.077-.058.192-.074l-.56-3.96a4.327 4.327 0 0 0-2.205.971l2.573 3.062Zm-.954-.252.683.328 1.731-3.606-.682-.327-1.732 3.605Zm.647.31c.276.14.489.253.644.34.171.097.222.135.207.124l2.405-3.197c-.348-.262-.89-.553-1.453-.837l-1.803 3.57Zm.073-.855c.094.665.418 1.226.69 1.62l3.292-2.272a1.524 1.524 0 0 1-.06-.094l-.017-.03s.009.019.02.052c.01.034.026.09.036.165l-3.96.56Zm.584 1.447c.289.526.375.833.393.96l3.96-.559c-.112-.797-.44-1.586-.849-2.328l-3.505 1.927Zm.393.96c.146 1.035-.03 1.83-.432 2.498l3.425 2.066c.934-1.548 1.226-3.292.967-5.123l-3.96.56Zm-.42 2.478c-.467.755-1.204 1.473-2.308 2.118l2.02 3.453c1.551-.908 2.814-2.052 3.69-3.465l-3.402-2.106Zm-2.255 2.089a4.3 4.3 0 0 0-1.02.794l2.873 2.783a.916.916 0 0 1 .082-.077c.014-.01.007-.003-.021.012l-1.915-3.512Zm.137.205c-.235.033-.6.136-.873.212l1.077 3.852a18.602 18.602 0 0 1 .441-.118l-.009.002-.077.013-.56-3.96Zm-.892.217a7.45 7.45 0 0 0-.534.174 2.997 2.997 0 0 0-.649.327l2.272 3.293a1.596 1.596 0 0 1-.225.128l.007-.003.085-.03.158-.047-1.114-3.842Zm.85.642a.935.935 0 0 1-.074.056l.02-.013c.044-.024.119-.063.235-.117l-1.7-3.621c-.291.137-.686.334-.998.587l2.518 3.108Zm.144-.057c.383-.17.91-.444 1.32-.895L37.19 27.59a.944.944 0 0 1 .161-.145c-.001 0-.012.008-.037.02a1.87 1.87 0 0 1-.103.05l1.625 3.655Zm1.257-.83c.644-.65 1.178-1.371 1.532-2.175l-3.662-1.61c-.11.252-.324.578-.711.97l2.841 2.815Zm1.504-2.114c.4-.832.582-1.741.605-2.676l-3.999-.1c-.012.484-.102.816-.212 1.044l3.606 1.732Zm.34-3.721-.093-.164-3.47 1.99.094.164 3.47-1.99Zm-1.29-1.095a1.058 1.058 0 0 1-.36-.163l-2.405 3.196a5.043 5.043 0 0 0 1.69.82l1.074-3.853Zm-.22-.048a.649.649 0 0 1 .203.4l-3.988.312c.068.867.44 1.656 1.1 2.253l2.685-2.965Zm-3.694-.057-.418 1.296 3.807 1.227.418-1.296-3.807-1.227Zm-.435 1.35c-.263.902-.455 1.953-.59 3.126l3.973.459c.119-1.03.276-1.845.457-2.465l-3.84-1.12Zm-.593 3.146c-.043.404-.119.898-.234 1.488l3.926.768c.13-.67.228-1.285.286-1.838l-3.978-.418Zm21.819-15.705 1.258 1.555.675-.547.062-.866-1.995-.142Zm-.496.495 1.39 1.437.042-.04.038-.042-1.47-1.355Zm-.976.35-.36 1.967.36-1.968Zm-.668-.224-1.202 1.598.072.054.077.048 1.053-1.7Zm-.875-.69.276-1.98-.194-.028-.196.011.114 1.997Zm-.42.024-.115-1.996-.083.004-.082.012.28 1.98Zm-2.872.689.536 1.926.018-.005.018-.005-.572-1.916Zm-2.22.808-1.184-1.611-2.424 1.782 2.582 1.545 1.027-1.716Zm4.965 9.373-1.999-.073v.029l2 .044Zm-.709 3.74 1.868.715.004-.009.003-.008-1.875-.697Zm-1.96 3.14L49.83 28.44l-.004.004 1.467 1.36Zm-2.488 1.907-.764-1.848-.025.01-.024.01.813 1.828Zm-.654.128.1 1.997h.015l-.114-1.997Zm-.589.083-.454 1.948.534.124.522-.165-.602-1.907Zm-1.76-.706-1.203 1.598.026.02.026.018 1.15-1.636Zm-1.453-1.527-1.908.602.112.353.23.29 1.566-1.245ZM44.1 26.93l1.977.301.002-.013.002-.013-1.981-.275Zm.319-1.494-1.908-.6-.007.021-.006.02 1.92.559Zm.308-1.07-1.791-.888-.108.218-.053.237 1.952.434Zm1.018-2.052-1.777-.916-.007.014-.007.014 1.791.889Zm1.498-1.908-1.39-1.437 1.39 1.437Zm2.067-1.635.327-1.973-.74-.122-.637.393 1.05 1.702Zm1.267.21-.327 1.973 3.748.621-1.61-3.44-1.811.846Zm-1.704-2.552-1.431 1.397.015.015.015.015 1.401-1.427Zm-2.402-1.746.957-1.756-.017-.01-.017-.008-.923 1.774Zm-.485-.426-1.696 1.06.047.075.054.07 1.595-1.205Zm-.33-.59-1.97-.347-.114.649.293.59 1.79-.892Zm2.013-2.511.961 1.754.014-.008.015-.008-.99-1.738Zm4.304-1.81.61 1.905.027-.008.026-.01-.663-1.887Zm.842-.295.663 1.887.089-.032.085-.039-.837-1.816Zm1.114-.122-.635 1.896 1.213.407.878-.932-1.455-1.37Zm1.89.122.886-1.794-.885 1.794Zm1.869 1.963 1.952.433.018-.078.01-.08-1.98-.275Zm-6.981 10.388.717-1.867-.763-.293-.75.325.796 1.835Zm-1.79 1.348 1.493 1.331.005-.005-1.497-1.326Zm-1.22 2.117 1.88.682.004-.012.004-.012-1.889-.658Zm1.236 3.501 1.259 1.555.037-.03.035-.032-1.33-1.493Zm.461-.49 1.525 1.295.004-.005-1.529-1.29Zm1.623-2.526-1.846-.77-.003.009-.004.009 1.853.752Zm.183-3.207-1.937.497.014.053.016.052 1.907-.602Zm5.064-11.602c-.231.187-.484.45-.708.693l2.941 2.711c.1-.109.178-.19.234-.245.063-.063.075-.07.05-.05l-2.517-3.109Zm-.628.612c-.025.023-.005 0 .061-.039.07-.04.204-.102.396-.13l.56 3.961c.79-.112 1.38-.545 1.765-.918l-2.782-2.874Zm.457-.169a1.568 1.568 0 0 1 .304-.012c.035.003.043.005.015 0l-.722 3.935c.176.032.553.096.962.038l-.559-3.96Zm.32-.012a1.307 1.307 0 0 1-.083-.017l-.028-.008.009.003a.89.89 0 0 1 .126.065l-2.107 3.401c.458.283.958.417 1.36.49l.722-3.934Zm.173.146c.013.01.011.01-.005-.006a1.245 1.245 0 0 1-.077-.085l-3.062 2.574c.209.248.454.498.739.713l2.405-3.196Zm-.082-.09c-.363-.433-.931-.873-1.72-.983l-.55 3.962a1.274 1.274 0 0 1-.792-.406l3.062-2.574Zm-2.11-.998-.42.024.228 3.993.42-.024-.228-3.994Zm-.586.04c-.861.122-1.928.383-3.164.752l1.144 3.833c1.16-.347 2.008-.544 2.58-.624l-.56-3.961Zm-3.129.742c-.626.174-1.166.34-1.604.5-.379.139-.873.337-1.263.624l2.37 3.222c-.083.06-.118.07-.046.037a4.04 4.04 0 0 1 .308-.124c.302-.11.732-.245 1.308-.406l-1.073-3.853Zm-2.709 4.451a7.786 7.786 0 0 1 2.619 2.566l3.379-2.14a11.786 11.786 0 0 0-3.944-3.859l-2.054 3.433Zm2.619 2.566c.704 1.113 1.13 2.267 1.3 3.474l3.962-.559c-.254-1.796-.89-3.485-1.883-5.054l-3.38 2.14Zm1.3 3.474c.068.474.094.988.073 1.544l3.998.146a12.76 12.76 0 0 0-.11-2.249l-3.96.56Zm.073 1.573a9.367 9.367 0 0 1-.584 3.087l3.749 1.395c.523-1.408.8-2.876.834-4.394l-4-.088Zm-.578 3.07a7.585 7.585 0 0 1-1.555 2.491l2.926 2.727a11.588 11.588 0 0 0 2.365-3.79l-3.736-1.427Zm-1.56 2.495c-.777.84-1.376 1.249-1.784 1.418l1.528 3.696c1.15-.475 2.21-1.337 3.19-2.395l-2.933-2.719Zm-1.833 1.439a.932.932 0 0 1 .15-.052l-.025.003a1.307 1.307 0 0 1-.08.007l.229 3.994c.385-.023.878-.087 1.352-.298l-1.626-3.654Zm.06-.043a4.405 4.405 0 0 0-1.091.174l1.203 3.814a.776.776 0 0 1-.074.02c-.01.002-.01.002 0 0 .024-.003.076-.008.16-.013l-.198-3.995Zm-.036.133c-.621-.145-.935-.303-1.064-.394L44.65 32.85c.708.498 1.568.81 2.457 1.018l.908-3.896Zm-1.012-.356c-.19-.143-.549-.493-1.09-1.174l-3.13 2.49c.604.76 1.214 1.428 1.815 1.88l2.405-3.196Zm-.748-.53a5.65 5.65 0 0 1-.158-.812l-3.96.56a9.3 9.3 0 0 0 .303 1.455l3.815-1.203Zm-.158-.812c-.064-.453-.058-.794-.02-1.043l-3.955-.602a7.602 7.602 0 0 0 .014 2.204l3.961-.56Zm-.016-1.069c.056-.409.143-.813.258-1.212l-3.84-1.115c-.17.584-.297 1.176-.38 1.777l3.962.55Zm.246-1.17c.16-.51.288-.945.353-1.235l-3.905-.867c-.022.1-.1.378-.264.904l3.816 1.198Zm.192-.78 1.018-2.052-3.583-1.777-1.018 2.052 3.583 1.778Zm1.004-2.024c.185-.358.528-.823 1.111-1.388l-2.782-2.874c-.784.76-1.44 1.567-1.884 2.429l3.555 1.833Zm1.111-1.388a10.234 10.234 0 0 1 1.726-1.37l-2.1-3.404a14.215 14.215 0 0 0-2.408 1.9l2.782 2.874Zm.35-1.099 1.266.21.654-3.946-1.267-.21-.654 3.946Zm3.405-2.61c-.574-1.227-1.266-2.298-2.114-3.132l-2.803 2.854c.41.403.854 1.033 1.293 1.972l3.624-1.694Zm-2.084-3.101c-.78-.8-1.757-1.495-2.877-2.106l-1.915 3.512c.871.475 1.497.944 1.929 1.387l2.863-2.793Zm-2.91-2.124c.131.069.187.142.187.141l-3.191 2.413c.289.382.668.74 1.156.994l1.847-3.548Zm.287.288a4.995 4.995 0 0 1-.236-.421l-3.58 1.783c.128.258.27.51.424.758l3.392-2.12Zm-.057.817c.052-.293.23-.68 1.005-1.104l-1.922-3.508c-1.544.846-2.708 2.133-3.022 3.918l3.94.694Zm1.034-1.12c1.002-.57 2.3-1.123 3.924-1.643l-1.219-3.81c-1.803.577-3.374 1.23-4.684 1.977l1.979 3.476Zm3.977-1.66.842-.296-1.325-3.774-.842.295 1.325 3.774Zm1.016-.367a1.84 1.84 0 0 1 .104-.043l-.023.006a.874.874 0 0 1-.098.019l-.56-3.961c-.422.06-.809.213-1.096.346l1.673 3.633Zm-.017-.018a.769.769 0 0 1-.341-.024l1.27-3.793a3.24 3.24 0 0 0-1.488-.144l.559 3.96Zm1.75-.549c-.314.333-.648.393-.71.402l-.56-3.96c-.478.067-1.122.265-1.641.815l2.91 2.743Zm-.71.402c-.096.013-.13-.003-.08.009.054.012.164.047.34.133l1.77-3.587c-.73-.36-1.632-.651-2.59-.516l.56 3.96Zm.26.142c.465.23.844.462 1.151.693l2.405-3.196a11.21 11.21 0 0 0-1.786-1.084l-1.77 3.587Zm1.151.693c.085.064.076.068.025.01a1.27 1.27 0 0 1-.15-.22 1.676 1.676 0 0 1-.188-.573l3.96-.56a2.473 2.473 0 0 0-.6-1.268 4.155 4.155 0 0 0-.642-.585l-2.405 3.196Zm-.313-.783a1.996 1.996 0 0 1-.018-.36l.003-.04.001-.014v.007l-.005.04a13.817 13.817 0 0 1-.047.351l3.962.55a26.185 26.185 0 0 0 .073-.586 2.784 2.784 0 0 0 .011-.228c0-.032 0-.142-.02-.28l-3.96.56Zm-.038-.174a9.46 9.46 0 0 0-.207 1.376l3.99.283c.015-.218.053-.48.122-.792l-3.905-.867Zm-5.825 8.987c-.955.415-1.781 1.058-2.49 1.857l2.995 2.652c.39-.44.756-.695 1.088-.84l-1.593-3.669Zm-2.485 1.852a8.207 8.207 0 0 0-1.617 2.79l3.777 1.316a4.214 4.214 0 0 1 .825-1.444l-2.985-2.662Zm-1.609 2.766a6.864 6.864 0 0 0-.366 3.332l3.96-.56c-.062-.44-.018-.9.167-1.408l-3.76-1.364Zm-.366 3.332c.085.602.271 1.367.77 1.998a2.682 2.682 0 0 0 2.522 1.006l-.559-3.96c.15-.022.382-.02.64.083.26.103.434.262.534.388.09.114.111.19.103.166a1.417 1.417 0 0 1-.05-.24l-3.96.559Zm3.292 3.004c.388-.055.949-.193 1.45-.599l-2.517-3.108c.151-.123.29-.186.373-.216.082-.03.133-.037.135-.038l.56 3.961Zm1.522-.66c.225-.2.447-.443.655-.688l-3.05-2.588a3.419 3.419 0 0 1-.267.29l2.662 2.986Zm.66-.693c.85-1.008 1.527-2.03 1.946-3.063L49.165 24.6c-.21.517-.615 1.179-1.299 1.99l3.058 2.578Zm1.939-3.045c.48-1.15.62-2.365.445-3.604l-3.96.56c.08.562.013 1.05-.177 1.503l3.692 1.54Zm.445-3.604a6.31 6.31 0 0 0-.2-.975l-3.815 1.203c-.01-.032-.005-.025.008.046.013.065.029.158.047.285l3.96-.559Zm-.17-.87c-.147-.573-.545-1.665-1.714-2.114l-1.435 3.734a1.387 1.387 0 0 1-.657-.51c-.082-.123-.087-.189-.069-.117l3.875-.994Zm2.916 16.848.28 1.98.11-.015.106-.028-.496-1.937Zm-.564-.238 1.595-1.207-.169-.223-.224-.168-1.202 1.598Zm-.37-.372-1.438 1.39 1.437-1.39Zm-.444-1.634-1.986-.232-.01.09-.003.092 2 .05Zm.094-2.594-1.994-.157-.002.022-.001.021 1.997.114Zm.02-.604-1.858-.74-.148.372.007.4 2-.032Zm.136-.796-1.981-.276-.012.08-.004.081 1.996.115Zm.061-1.317-1.803-.866-.08.166-.047.177 1.93.523Zm.263-.39 1.455 1.371.66-.7-.135-.951-1.98.28Zm.016-.639 1.989.209.002-.018.001-.018-1.992-.173Zm.05-.643 1.997.114v-.015l.002-.014-1.999-.085Zm.726-4.627 1.966.366-1.966-.366Zm1.212-5.933-1.93-.523-.01.034-.008.035 1.948.454Zm.439-1.9-1.968-.361 1.968.361Zm.146-1.47-1.753-.964-.026.048-.024.05 1.803.866Zm.263-.39-1.599-1.203 1.599 1.203Zm1.886-.16 1.52-1.3-.264-.31-.364-.18-.891 1.79Zm.44.609-1.757.957 1.756-.957Zm.215 1.277-2 .032.002.125.018.123 1.98-.28Zm-.23 1.376-1.78-.914 1.78.914Zm-.303.608-1.272-1.543-.183.151-.143.19 1.598 1.202Zm5.659-.728-1.333 1.49.011.011.012.01 1.31-1.511Zm.993 4.278 1.904.612.003-.01.004-.012-1.911-.59Zm-.696 1.583.28 1.98.76-.107.493-.588-1.533-1.285Zm-.451.806 1.752.964.096-.175.06-.19-1.909-.6Zm-1.428 1.403 1.155 1.633.01-.007.008-.006-1.173-1.62Zm-1.496.671.36-1.967-.319-.059-.32.046.279 1.98Zm-.09.119 1.599 1.202.119-.158.085-.178-1.803-.866Zm-1.01.85-.892-1.79.891 1.79Zm-2.383.654-.36 1.967.154.028.157.004.05-2Zm-.45-.184 1.053-1.7-1.552-.962-1.099 1.46 1.598 1.202Zm-.369 1.643 1.909.599.005-.017.005-.017-1.919-.565Zm-.451.806-.28-1.98-.82.115-.498.662 1.598 1.203Zm-.085.153-1.803-.866-.116.242-.048.263 1.967.361Zm.139.228 1.98-.28-.116-.82-.662-.498-1.203 1.598Zm.033.49 1.998-.1-1.998.1Zm-.09.614-1.803-.866-.262.546.085.6 1.98-.28Zm.014.846-1.997-.114v.012l-.001.012 1.998.09Zm-.125.866-1.897-.635-.15.447.066.468 1.98-.28Zm-.027.817-1.956-.414-.022.102-.01.103 1.988.209Zm-.183.45-.28-1.98-.321.045-.29.145.89 1.79Zm-.066 1.034 1.99-.197-.004-.041-.006-.041-1.98.28Zm-.344 1.569-1.728-1.008-.017.029-.016.03 1.76.949Zm-.843.79-.28-1.98-.11.016-.107.027.497 1.937Zm4.452-13.53.987 1.74.012-.007.011-.007-1.01-1.726Zm1.824-1.353-1.477-1.349-.006.006 1.483 1.343Zm1.041-1.384-1.752-.965 1.752.965Zm-.185-2.06-1.52 1.3.025.029.026.028 1.47-1.357Zm-3.512 1.91-1.575-1.233-.028.036-.027.038 1.63 1.159Zm-.874 1.82 1.896.636.005-.014.004-.013-1.905-.609Zm-3.333 12.696c.191-.027.46-.018.745.103.282.12.465.298.566.432l-3.19 2.413c.246.326.595.64 1.065.839.474.2.951.233 1.373.173l-.559-3.96Zm.919.144c.043.032.075.059.089.071l.036.032.018.017a25.192 25.192 0 0 1-.28-.285l-2.874 2.782.279.285c.006.006.17.175.326.294l2.406-3.196Zm-.137-.165c.102.105.139.19.143.2l-.01-.03a1.243 1.243 0 0 1-.023-.129l-3.96.56c.097.69.34 1.524.976 2.18l2.874-2.781Zm.11.041a1.27 1.27 0 0 1 .008.069v-.031a5.333 5.333 0 0 1 .002-.273l-3.999-.1c-.006.255-.012.61.028.895l3.96-.56Zm-.003-.053c.114-.981.184-1.914.091-2.575l-3.96.56c0-.003.011.114-.003.419-.014.282-.046.657-.101 1.133l3.973.463Zm.091-2.575.007.06v-.015c0-.033 0-.091.005-.18l-3.993-.229c-.015.263-.025.603.02.923l3.961-.559Zm.01-.093c.02-.269.03-.533.026-.793l-4 .064a4.46 4.46 0 0 1-.014.415l3.988.314Zm-.115-.021c.191-.48.25-1.008.273-1.422l-3.993-.229a2.349 2.349 0 0 1-.024.247c-.004.02-.005.023-.002.013a.76.76 0 0 1 .03-.088l3.716 1.479Zm.257-1.261c.065-.465.085-.954.016-1.441l-3.96.56c.002.021.011.122-.017.33l3.961.55Zm.016-1.441c.02.137.014.24.008.294-.006.056-.014.084-.013.078l-3.86-1.046c-.084.31-.164.747-.096 1.233l3.961-.559Zm-.132.715a.495.495 0 0 1-.085.115l-2.91-2.743c-.26.276-.46.582-.61.896l3.605 1.732Zm.44-1.536a.604.604 0 0 1 .008.08v-.014c.002-.039.006-.108.017-.216l-3.978-.418c-.033.316-.063.733-.007 1.127l3.96-.56Zm.028-.186c.027-.308.046-.55.055-.702l-3.993-.229c-.005.086-.02.273-.047.585l3.985.346Zm.057-.73c.02-.468.227-1.853.693-4.347l-3.932-.733c-.447 2.395-.723 4.095-.758 4.908l3.997.171Zm.693-4.347c.453-2.43.851-4.375 1.194-5.845l-3.896-.908c-.361 1.551-.772 3.561-1.23 6.02l3.932.733Zm1.176-5.776c.198-.73.357-1.417.476-2.062l-3.934-.722a21.651 21.651 0 0 1-.402 1.738l3.86 1.046Zm.476-2.062c.103-.565.207-1.267.124-1.858l-3.96.56c-.01-.068-.009-.102-.009-.088 0 .01-.001.044-.007.104a6.527 6.527 0 0 1-.082.56l3.934.722Zm.124-1.858c.036.254.01.574-.142.893l-3.606-1.732a2.43 2.43 0 0 0-.213 1.398l3.96-.56Zm-.193.992c-.009.015-.006.01.015-.022.02-.03.05-.073.094-.13l-3.197-2.406c-.142.19-.294.406-.416.629l3.504 1.929Zm.109-.153a1.087 1.087 0 0 1-.34.295.867.867 0 0 1-.29.103l-.56-3.96c-.74.104-1.48.458-2.007 1.157l3.197 2.405Zm-.63.398a.18.18 0 0 1-.047 0c-.005 0 .019.002.073.03l1.783-3.581c-.714-.356-1.52-.53-2.368-.41l.559 3.96Zm-.603-.462c.07.083.121.148.157.197.036.05.048.073.047.07l3.512-1.913a5.686 5.686 0 0 0-.675-.952l-3.04 2.598Zm.204.268c-.037-.068-.037-.102-.032-.069l3.96-.559a3.78 3.78 0 0 0-.416-1.286l-3.512 1.914Zm-.032-.069c-.006-.04-.008-.068-.009-.074v-.004l.004.089.01.41 3.999-.064c-.005-.306-.011-.69-.043-.916l-3.961.56Zm.024.669a.26.26 0 0 1-.03.182l3.56 1.827a4.252 4.252 0 0 0 .43-2.569l-3.96.56Zm-.03.182a50.306 50.306 0 0 0-.332.663l-.028.064a2.06 2.06 0 0 0-.061.159 2.004 2.004 0 0 0 1.03 2.441c.956.46 1.762-.011 1.861-.068a2.01 2.01 0 0 0 .406-.307c.11-.108.182-.205.2-.227l-3.197-2.405c.016-.021.087-.117.197-.224.044-.044.186-.182.404-.307.099-.056.904-.527 1.86-.067 1.003.48 1.11 1.457 1.124 1.599.028.266-.007.474-.017.537-.027.156-.067.274-.075.299-.026.077-.051.134-.054.142a1.651 1.651 0 0 1-.016.036l.026-.054c.045-.09.12-.239.231-.454l-3.558-1.827Zm2.75 3.065c.85-.701 1.519-.978 2.014-1.047l-.56-3.961c-1.446.204-2.782.918-4 1.922l2.546 3.086Zm2.014-1.047c.505-.072.786.04 1.039.267l2.666-2.982c-1.203-1.076-2.691-1.468-4.265-1.246l.56 3.96Zm1.062.287c.342.297.551.662.627 1.2l3.961-.558c-.204-1.448-.86-2.705-1.969-3.665l-2.619 3.023Zm.627 1.2c-.012-.085.007-.057-.027.151a6.51 6.51 0 0 1-.208.826l3.822 1.18c.265-.858.497-1.847.374-2.715l-3.96.559Zm-.228.955c-.12.37-.219.635-.298.814-.038.088-.065.14-.079.164-.016.028 0-.005.053-.068l3.065 2.57c.285-.34.484-.738.623-1.057.154-.349.3-.754.444-1.199l-3.808-1.224Zm.929.214a2.19 2.19 0 0 0-1.239.626 2.691 2.691 0 0 0-.443.593 5.178 5.178 0 0 0-.399.969l3.817 1.198c.066-.21.096-.255.071-.211-.012.02-.08.141-.222.284a1.811 1.811 0 0 1-1.026.502l-.56-3.96Zm-1.925 1.822c.012-.021-.022.045-.175.196-.148.145-.366.33-.674.553l2.347 3.239c.785-.57 1.561-1.25 2.007-2.059l-3.505-1.929Zm-.83.736a5.966 5.966 0 0 1-.366.241c-.1.06-.167.094-.202.11-.039.017-.014.002.061-.015.07-.015.264-.048.527 0l-.722 3.934c.76.14 1.423-.114 1.77-.27a7.573 7.573 0 0 0 1.242-.735l-2.31-3.265Zm-.62.323c-.494.07-.831.3-.998.435a2.13 2.13 0 0 0-.36.375 2.376 2.376 0 0 0-.255.423l3.605 1.732c-.005.01-.055.116-.155.25a1.962 1.962 0 0 1-1.279.746l-.559-3.961Zm-1.409.896a2.279 2.279 0 0 0-.422 1.7l3.96-.56c.03.214.05.745-.341 1.265l-3.197-2.405Zm-.422 1.7a1.938 1.938 0 0 1 .242-1.247c.117-.2.24-.326.289-.373.1-.098.168-.136.126-.109a6.342 6.342 0 0 1-.54.291l1.784 3.58c.349-.173.677-.349.937-.518a3.17 3.17 0 0 0 .486-.38 2.25 2.25 0 0 0 .373-.476c.125-.214.353-.693.264-1.327l-3.96.559Zm.118-1.438c-.545.271-.917.38-1.142.411l.56 3.96c.792-.111 1.589-.404 2.365-.79l-1.783-3.58Zm-1.142.411a4.788 4.788 0 0 1-.254.03c-.063.006-.073.004-.045.005l-.1 3.998c.313.008.656-.03.959-.072l-.56-3.96Zm.012.067c.15.027.233.077.242.083l-2.106 3.4c.32.198.702.37 1.142.451l.722-3.934Zm-2.409.58c-.26.347-.69 1.05-.561 1.967l3.96-.559c.047.326-.015.588-.073.747a.997.997 0 0 1-.13.25l-3.196-2.405Zm-.561 1.967a.954.954 0 0 1-.01-.176c0-.015 0-.005-.006.036a4.008 4.008 0 0 1-.112.454l3.837 1.13c.157-.533.351-1.297.252-2.003l-3.961.56Zm-.118.28c-.066.21-.096.254-.071.21.011-.02.08-.14.222-.283a1.811 1.811 0 0 1 1.026-.503l.56 3.961a2.19 2.19 0 0 0 1.238-.625c.215-.215.356-.439.443-.594.175-.312.302-.661.399-.968l-3.817-1.198Zm-.141.202c-.154.204-.257.423-.29.49l3.606 1.732c.009-.018.007-.014-.002.003a1.27 1.27 0 0 1-.118.18l-3.196-2.405Zm-.454.995c-.234 1.274.684 2.022.903 2.187l2.405-3.196c.061.046.237.186.394.444.176.291.331.747.232 1.287l-3.934-.722Zm.125.869-.004-.03.005.062c.005.064.01.155.016.277l3.995-.198a8.539 8.539 0 0 0-.051-.67l-3.96.559Zm.017.31c.001.028-.002.01.006-.044.008-.053.03-.166.098-.308l3.606 1.731c.274-.57.306-1.15.285-1.578l-3.995.198Zm-.073.793s.005.036.006.12c.001.082 0 .191-.009.333l3.993.228c.024-.41.027-.842-.03-1.24l-3.96.56Zm-.004.477a3.27 3.27 0 0 1-.026.305c-.01.069-.014.065.002.016l3.793 1.27c.155-.462.207-.971.227-1.41l-3.996-.181Zm-.108 1.236a.338.338 0 0 1-.002.123l3.913.828c.106-.501.12-1.008.05-1.51l-3.96.559Zm-.035.328c-.008.077-.006-.034.07-.22a1.73 1.73 0 0 1 .344-.528c.227-.242.6-.501 1.112-.573l.56 3.96c1.153-.163 1.588-1.106 1.686-1.346.138-.336.185-.666.207-.875l-3.978-.418Zm.914-1.131a2.17 2.17 0 0 0-1.06 1.189c-.116.31-.148.598-.16.782-.024.376.015.777.065 1.133l3.961-.56c-.038-.267-.032-.35-.034-.319 0 .011-.008.162-.086.37a1.832 1.832 0 0 1-.903.985l-1.783-3.58Zm-1.165 3.021a.547.547 0 0 1-.081.364l3.455 2.016a4.543 4.543 0 0 0 .607-2.774l-3.98.394Zm-.114.422c-.068.127-.083.117-.015.052.08-.073.297-.242.653-.292l.56 3.96c1.296-.182 1.994-1.212 2.323-1.82l-3.52-1.9Zm.421-.197-.307.079.993 3.874.307-.078-.993-3.875Zm3.5-8.838c.448-.064.881-.235 1.212-.383.367-.165.779-.38 1.224-.633l-1.974-3.478a10.99 10.99 0 0 1-.885.46 2.05 2.05 0 0 1-.207.084c-.043.015-.013 0 .07-.011l.56 3.96Zm2.46-1.029c.907-.532 1.723-1.105 2.295-1.737l-2.965-2.684c-.162.178-.562.507-1.352.969l2.021 3.452Zm2.29-1.73c.529-.58.988-1.172 1.316-1.769l-3.504-1.929c-.121.22-.357.552-.766 1l2.953 2.698Zm1.316-1.769c.381-.692.614-1.516.488-2.412l-3.96.56a.48.48 0 0 1 .001-.145c.005-.019.003.003-.033.068l3.504 1.93Zm.488-2.412a3.635 3.635 0 0 0-.956-1.969l-2.938 2.714c.011.012-.003 0-.022-.04a.488.488 0 0 1-.045-.146l3.96-.559Zm-.904-1.911c-.68-.796-1.641-1.093-2.582-.96l.56 3.961a1.2 1.2 0 0 1-1.019-.403l3.041-2.598Zm-2.582-.96c-.874.124-1.623.565-2.225 1.048-.618.495-1.217 1.142-1.8 1.888l3.149 2.466c.474-.605.859-.998 1.152-1.233.308-.247.395-.224.283-.208l-.559-3.96Zm-4.081 3.01c-.497.7-.871 1.501-1.15 2.37l3.81 1.218c.18-.563.39-.974.6-1.27l-3.26-2.318Zm-1.14 2.344c-.247.733-.478 1.634-.36 2.474l3.961-.56c.016.112-.004.124.022-.023.023-.132.074-.335.17-.62l-3.794-1.271Zm-.36 2.474c.038.26.146.799.573 1.278a2.175 2.175 0 0 0 1.94.705l-.56-3.961a1.83 1.83 0 0 1 1.605.593c.344.385.396.772.403.825l-3.96.56Zm20.621-11.502 1.26-1.552-.22-.179-.26-.11-.78 1.841Zm.776.74-1.554 1.258.03.037.031.035 1.493-1.33Zm.006 2.543-1.87-.711-.06.158-.033.167 1.963.386Zm-.414 1.579-1.896-.636-.013.039-.011.039 1.92.558Zm-.358.97-1.7-1.054-.151.244-.077.277 1.928.532Zm-.537 1.949 1.918.564.005-.016.005-.017-1.928-.531Zm-.906 2.85-1.896-.636-.005.013-.004.014 1.905.608Zm-.91 3.062 1.83.804.068-.153.04-.163-1.939-.488Zm-.348.791 1.827.813.004-.008-1.831-.805Zm-2.12 4.258 1.538 1.278.085-.102.07-.112L72.66 32.9Zm-1.602 1.676-1.365-1.462-.016.015-.016.015 1.397 1.432Zm-1.541 1.101-.602-1.907-.04.012-.04.015.681 1.88Zm-4.035.216.538-1.926-.538 1.926Zm-1.449-.997-1.907.601.024.077.03.074 1.853-.752Zm-.128-.406-1.98.28.023.163.05.158 1.907-.601Zm.353-1.004-1.357-1.47-.01.01-.011.01 1.378 1.45Zm1.506-.354-1.203 1.598.26.195.307.103.636-1.896Zm.608.303.924-1.774-.924 1.774ZM70.5 31.12l1.765.94.035-.06.028-.064-1.826-.815Zm1.694-4.022 1.87.71.684-1.801-1.774-.75-.78 1.841Zm-1.547-1.195-1.503 1.32.01.011.011.012 1.482-1.343Zm-.785-1.303 1.999.08.007-.181-.025-.179-1.98.28Zm-.054-.381 1.98-.28-.279-1.98-1.98.28.28 1.98Zm-.562-.981-1.943.475.008.032.009.032 1.926-.54Zm-.725-4.882-1.99-.209-.014.14.005.14 1.999-.07Zm-.052-1.371-1.99.197.004.041.005.042 1.98-.28Zm-.117-1.08 1.98-.279-.01-.07-.015-.07-1.955.42Zm.056-.855-1.821-.828-.011.024-.01.024 1.842.78Zm.377-.584-.972-1.748-.194.108-.166.147 1.332 1.493Zm2.884 3.905-1.998.081.002.058.006.058 1.99-.197Zm1.48 5.73-1.273 1.541 2.392 1.977.812-2.995-1.93-.524Zm.374-1.114 1.802.866.06-.125.043-.132-1.905-.609Zm.373-1.36-1.98-.275-.005.033-.004.033 1.989.209Zm.269-.851 1.863.727.023-.06.02-.06-1.906-.607Zm.318-1 1.906.608.038-.122.023-.125-1.967-.36Zm.265-1.38 1.963.38.002-.01.002-.01-1.967-.36Zm.503-1.945 1.87.71.014-.037.012-.037-1.896-.636Zm.303-.855 1.879.685.01-.025.007-.025-1.896-.635Zm.675-1.227.892 1.79.36-.179.263-.305-1.515-1.306Zm-.018 1.342c.297.241.436.388.483.445l3.108-2.517c-.296-.366-.674-.712-1.07-1.033l-2.52 3.105Zm.544.517a.814.814 0 0 1-.14-.215.457.457 0 0 1-.032-.103l3.96-.56a3.351 3.351 0 0 0-.802-1.784l-2.986 2.662Zm-.172-.318c0-.006.008.053-.017.2-.025.146-.079.35-.181.62l3.738 1.423c.332-.873.556-1.843.42-2.802l-3.96.559Zm-.292 1.145c-.094.48-.21.923-.347 1.33l3.793 1.27c.195-.583.354-1.193.479-1.827l-3.925-.773Zm-.371 1.407a7.33 7.33 0 0 1-.185.558c-.005.012.01-.023.047-.084l3.4 2.106c.262-.422.446-1.006.579-1.465l-3.841-1.115Zm-.366.995-.537 1.95 3.856 1.063.537-1.949-3.856-1.064Zm-.528 1.917c-.23.78-.524 1.706-.883 2.779l3.792 1.27c.37-1.103.68-2.078.928-2.92l-3.837-1.13Zm-.892 2.806c-.443 1.388-.763 2.459-.945 3.182l3.879.977c.15-.596.437-1.566.876-2.943l-3.81-1.216Zm-.837 2.866-.347.791 3.662 1.61.347-.792-3.662-1.609Zm-.344.784c-.891 2.004-1.55 3.31-1.987 4.007l3.388 2.127c.601-.958 1.357-2.491 2.254-4.51l-3.655-1.624Zm-1.832 3.793c-.378.456-.85.953-1.427 1.49l2.73 2.925a20.374 20.374 0 0 0 1.775-1.86l-3.078-2.555Zm-1.459 1.521a5.543 5.543 0 0 1-.617.534c-.16.115-.198.113-.129.092l1.203 3.814c.88-.277 1.677-.934 2.336-1.577l-2.793-2.863Zm-.826.653c-.275.1-.615.185-1.034.244l.56 3.96a9.141 9.141 0 0 0 1.837-.444l-1.363-3.76Zm-1.034.244c-.721.102-1.304.059-1.781-.074l-1.076 3.853c1.093.305 2.243.347 3.416.181l-.56-3.96Zm-1.781-.074a2.119 2.119 0 0 1-.272-.093.578.578 0 0 1-.083-.042.47.47 0 0 1 .082.08.86.86 0 0 1 .14.232l-3.707 1.504c.536 1.321 1.788 1.9 2.764 2.172l1.076-3.853Zm-.08.328-.127-.407L62 35.091l.128.406 3.815-1.203Zm-.054-.085a.864.864 0 0 1-.047.398.845.845 0 0 1-.202.327l-2.757-2.898a3.1 3.1 0 0 0-.955 2.733l3.96-.56Zm-.27.745a.251.251 0 0 1-.117.057l-.56-3.96a3.743 3.743 0 0 0-2.038.965l2.715 2.938Zm-.117.057c-.074.01-.496.05-.938-.282l2.405-3.196c-.705-.531-1.49-.558-2.026-.483l.56 3.961Zm-.37.016c-.072-.024-.123-.046-.128-.048l-.016-.007.076.037c.086.043.213.108.388.199l1.847-3.548a29.6 29.6 0 0 0-.452-.232c-.047-.023-.257-.13-.445-.194l-1.27 3.793Zm.32.18c.846.441 1.76.482 2.569.368l-.56-3.961c-.143.02-.22.015-.244.013-.02-.003.016-.002.082.033l-1.847 3.548Zm2.569.368c1.985-.28 3.333-1.802 4.246-3.516l-3.53-1.88c-.69 1.293-1.182 1.422-1.276 1.435l.56 3.96Zm4.307-3.641c.758-1.699 1.34-3.08 1.738-4.127l-3.74-1.419c-.358.944-.905 2.245-1.65 3.916l3.652 1.63Zm.648-6.679c-.142-.06-.429-.237-.845-.696l-2.964 2.686c.645.711 1.389 1.33 2.25 1.695l1.559-3.685Zm-.824-.672a6.155 6.155 0 0 1-.262-.317 2.098 2.098 0 0 1-.124-.178c-.021-.035-.004-.012.022.059.014.038.034.101.05.185.016.084.03.202.025.346l-3.997-.158c-.03.744.3 1.345.473 1.632.218.36.502.722.807 1.07l3.006-2.64Zm-.307-.264-.054-.38-3.961.558.054.382 3.96-.56Zm-2.314-2.082a1.824 1.824 0 0 1 1.397.378c.224.182.324.358.338.382.031.055-.01-.006-.092-.3l-3.852 1.079c.108.386.255.83.474 1.211.108.188.3.483.618.74.349.282.936.576 1.676.471l-.56-3.96Zm1.66.524a24.769 24.769 0 0 1-.43-2.354l-3.96.56c.15 1.055.316 1.975.504 2.745l3.885-.95Zm-.43-2.354c-.156-1.112-.228-1.794-.24-2.123l-3.997.142c.02.563.121 1.435.277 2.54l3.96-.559Zm-.249-1.843c.063-.595.029-1.225-.06-1.86l-3.962.56c.06.427.062.712.044.882l3.978.418Zm-.051-1.777c-.054-.547-.097-.95-.127-1.162l-3.96.56c.015.112.05.427.106.996l3.981-.394Zm-.152-1.302c-.001-.005.007.03.003.096a.772.772 0 0 1-.06.247l-3.684-1.559c-.297.701-.307 1.417-.17 2.056l3.911-.84Zm-.079.39c.034-.074.052-.1.048-.094-.003.004-.016.023-.039.052a1.107 1.107 0 0 1-.121.125l-2.663-2.986c-.438.392-.703.89-.866 1.25l3.641 1.654Zm-.472.338a1.989 1.989 0 0 1 .148-.074l-.022.007a.896.896 0 0 1-.114.023l-.56-3.96c-.544.077-1.032.306-1.395.508l1.944 3.496Zm.012-.044a.821.821 0 0 1-.471-.09c-.161-.083-.203-.17-.167-.115.038.059.119.21.209.507.088.29.173.675.242 1.169l3.961-.56c-.173-1.224-.476-2.405-1.065-3.305-.31-.474-.743-.939-1.343-1.249a3.184 3.184 0 0 0-1.926-.317l.56 3.96Zm-.187 1.47c.06.42.084.68.09.812l3.996-.162c-.013-.335-.06-.75-.125-1.208l-3.96.559Zm.098.928c.11 1.116.201 1.942.273 2.45l3.96-.56a64.392 64.392 0 0 1-.253-2.284l-3.98.394Zm.273 2.45c.136.964.325 1.837.593 2.575.254.704.651 1.488 1.33 2.05l2.548-3.084c.12.098.034.09-.117-.327-.139-.383-.278-.96-.393-1.774l-3.96.56Zm5.128 3.605c.063-.231.117-.413.164-.551a3.471 3.471 0 0 1 .081-.219l-3.605-1.732c-.194.403-.356.924-.5 1.456l3.86 1.046Zm.348-1.027c.206-.644.41-1.319.457-1.76l-3.978-.418c.007-.064.014-.087.003-.036-.01.04-.025.105-.051.2-.052.188-.131.451-.241.796l3.81 1.218Zm.449-1.694c-.007.049-.013.073-.01.062.001-.008.008-.032.02-.074a8.55 8.55 0 0 1 .14-.387l-3.725-1.454c-.153.39-.327.874-.387 1.303l3.962.55Zm.193-.519.319-1-3.811-1.214-.319 1 3.811 1.214Zm.38-1.245c.025-.134.11-.582.261-1.363l-3.927-.758a172 172 0 0 0-.268 1.399l3.934.721Zm.265-1.381c.135-.734.276-1.253.406-1.596l-3.74-1.419c-.248.653-.442 1.43-.6 2.293l3.934.722Zm.432-1.67c.058-.172.152-.438.286-.806l-3.758-1.37c-.138.377-.246.682-.32.905l3.792 1.271Zm.303-.856a9.056 9.056 0 0 1 .198-.534l.018-.038-3.548-1.848a8.338 8.338 0 0 0-.46 1.15l3.792 1.27Zm.216-.573a1.23 1.23 0 0 1-.545.502l-1.783-3.581c-.626.311-1.001.812-1.22 1.232l3.548 1.848Zm.078.018a.965.965 0 0 1-.242.196c-.128.075-.278.13-.438.152l-.56-3.96a2.888 2.888 0 0 0-1.79.999l3.03 2.612Zm-.68.348c-.243.034-.385-.03-.371-.024l1.558-3.684c-.488-.206-1.088-.346-1.746-.253l.559 3.96Zm5.827 10.023-.549 1.924.093.026.095.018.361-1.968Zm-.84-.446-1.71 1.037.22.365.352.242 1.138-1.644Zm-.544-.595-1.417 1.412.037.036.038.034 1.342-1.482Zm-.608-.55-1.837.79.21.488.424.32 1.203-1.599Zm-.287-3.035-1.993-.169-.002.027-.002.028 1.997.114Zm.345-2.311-1.896-.636-.032.096-.023.099 1.951.44Zm.135-.55-1.93-.522-.034.122-.017.125 1.98.276Zm.094-.33 1.897.635.15-.448-.066-.468-1.98.28Zm.656-1.614-1.78-.91-.006.01 1.786.9Zm1.172-1.968 1.555 1.257.064-.078.055-.085-1.674-1.094Zm.644-.691L82.4 12.402l-.024.02-.023.02 1.306 1.514Zm.838-.578-.892-1.79-.024.011-.024.013.94 1.766Zm.787-.43-.94-1.765-.013.007-.013.007.966 1.751Zm2.456-.382-.584 1.913.075.023.076.017.433-1.953Zm.999.566-1.449 1.379.114.12.132.1 1.203-1.599Zm1.253 2.863 1.989.21.005-.048.002-.048-1.996-.114Zm-.567 1.247 1.456 1.371.005-.005.005-.006-1.466-1.36Zm-2.119.264-1.734.995.183.32.286.233 1.265-1.549Zm-.146-1.04 1.98.275.009-.06.004-.059-1.993-.156Zm-1.753.106-1.628-1.161-.007.009-.006.01 1.641 1.142Zm-.873 1.572-1.803-.865-.004.008-.004.008 1.81.85Zm-.692 1.865-1.935-.503-.019.07-.013.072 1.967.361Zm-.26 1.416-1.966-.361-.01.054-.007.055 1.984.252Zm-.035.747 1.967.36.014-.075.008-.076-1.99-.21Zm.157.614-1.416 1.412 1.416-1.412Zm.42.223.636-1.896-.635 1.896Zm.263.105.779-1.842-.78 1.842Zm.926-.202 1.074 1.687-1.074-1.687Zm.456-.276.891 1.79.1-.05.092-.06-1.083-1.68Zm1.155-1.082-1.412-1.417-.037.036-.034.038 1.483 1.343Zm.743-.741-1.378-1.45-.017.017-.017.016 1.412 1.417Zm.377-.337 1.259 1.555.037-.03.035-.032-1.331-1.492Zm.288-.217.891 1.79.24-.119.2-.178-1.331-1.493Zm.45-.063 1.598 1.202.12-.158.085-.179-1.803-.865Zm1.035-.182-.813 1.828.129.057.135.038.549-1.923Zm.346.199 1.997.114.011-.198-.028-.196-1.98.28Zm-.01.178-1.997-.114-.011.197.027.197 1.98-.28Zm.222.322 1.98-.28-.115-.82-.662-.498-1.203 1.598Zm-.05.396-1.93-.523-.022.08-.015.082 1.967.36Zm-.16.376-1.597-1.203-.12.158-.085.179 1.803.866Zm-.645 1.187-1.713-1.032-.02.033-.019.034 1.752.965Zm-.481.845.28 1.98.927-.13.493-.797-1.7-1.053Zm-.476.386 1.556 1.256.022-.026.02-.028-1.598-1.202Zm-.832.612-.28-1.98-.467.066-.39.268 1.137 1.646Zm-.288.217.995 1.735.14-.08.124-.1-1.259-1.555Zm-.149.198 1.598 1.203.499-.662-.116-.82-1.98.28Zm-3.315-.95c-.32.044-.552.069-.709.079-.078.005-.121.005-.137.005-.025 0 .026-.002.12.015l-.722 3.935c.363.066.736.053.993.037.298-.02.64-.058 1.014-.111l-.56-3.96Zm-.538.143c.065.019.073.03.014-.002a2.815 2.815 0 0 1-.266-.166l-2.275 3.29c.4.276.894.572 1.43.725l1.097-3.847Zm.32.44c-.25-.414-.615-.773-.91-1.04l-2.685 2.964c.103.094.168.16.204.2.017.018.022.025.019.02a.706.706 0 0 1-.048-.07l3.42-2.074Zm-.837-.97a8.035 8.035 0 0 0-.821-.737l-2.406 3.197c.047.034.172.14.394.364l2.834-2.824Zm-.187.07a1.577 1.577 0 0 1-.088-.375l-3.96.56c.066.47.18.948.374 1.397l3.674-1.581Zm-.088-.375c-.06-.432-.082-1.01-.04-1.754l-3.993-.228c-.052.918-.036 1.773.073 2.542l3.96-.56Zm-.043-1.7a15.03 15.03 0 0 1 .303-2.038l-3.902-.882c-.182.808-.31 1.67-.387 2.583l3.986.337Zm.249-1.844a5.06 5.06 0 0 0 .219-.91l-3.962-.55a1.125 1.125 0 0 1-.05.19l3.793 1.27Zm.168-.661a14.763 14.763 0 0 1 .064-.23l-.003.01-3.793-1.27a8.927 8.927 0 0 0-.129.444l3.861 1.046Zm.145-1.134a1.801 1.801 0 0 1 0 .491.813.813 0 0 1-.027.136c-.004.015.005-.018.046-.119.08-.195.221-.503.442-.942l-3.572-1.8c-.239.475-.436.893-.575 1.235a5.199 5.199 0 0 0-.192.547c-.03.106-.152.523-.083 1.01l3.96-.558Zm.456-.424c.474-.927.786-1.422.946-1.62l-3.111-2.514c-.441.546-.91 1.363-1.397 2.315l3.562 1.82Zm1.065-1.784c-.009.014.003-.006.052-.059.048-.051.12-.122.224-.212l-2.612-3.03c-.365.316-.734.687-1.013 1.114l3.35 2.187Zm.229-.231c.261-.212.43-.32.518-.367l-1.879-3.53c-.395.21-.784.486-1.157.788l2.518 3.109Zm.47-.342c.115-.057.43-.23.863-.469l-1.933-3.502-.532.293c-.144.078-.189.101-.18.098l1.782 3.58Zm.836-.454c.335-.178.56-.24.687-.258l-.56-3.96c-.704.098-1.377.352-2.006.687l1.879 3.531Zm.687-.258a.54.54 0 0 1 .245.023l1.168-3.825a4.538 4.538 0 0 0-1.972-.159l.56 3.96Zm.395.063c.006.001.007.002.004 0a.11.11 0 0 1-.025-.014l.005.006 2.898-2.757a3.925 3.925 0 0 0-2.014-1.14l-.868 3.905Zm.23.211c.2.151.382.385.457.911l3.96-.56c-.2-1.414-.84-2.666-2.011-3.547l-2.406 3.196Zm.457.911c.003.025.01.1.002.24l3.993.228a5.23 5.23 0 0 0-.035-1.027l-3.96.56Zm.01.145c-.004.037-.01.05-.012.052 0 .002-.006.016-.031.043l2.931 2.721a4.11 4.11 0 0 0 1.09-2.398l-3.978-.418Zm-.033.084c-.027.028-.027.02.005.003a.35.35 0 0 1 .12-.04l.56 3.961c.9-.127 1.65-.57 2.226-1.18l-2.91-2.745Zm.125-.036a.674.674 0 0 1 .477.123l-2.531 3.097a3.33 3.33 0 0 0 2.614.74l-.56-3.96Zm.946.676a3.313 3.313 0 0 1-.052-.094c-.013-.023-.017-.033-.016-.031a.482.482 0 0 1 .03.074 1.521 1.521 0 0 1 .082.336l-3.961.56c.05.356.189.646.228.729.066.141.144.284.22.417l3.47-1.99Zm.044.285a1.833 1.833 0 0 1 .016.266v.014l.001-.023.013-.119.026-.192-3.962-.55a9.463 9.463 0 0 0-.06.498c-.006.067-.038.364.005.665l3.96-.56Zm.068-.173c.029-.358.066-.874.013-1.253l-3.96.56c-.013-.086-.013-.138-.012-.125l-.002.072a9.15 9.15 0 0 1-.026.433l3.987.313Zm.013-1.253c-.045-.317-.172-.9-.637-1.404a2.266 2.266 0 0 0-1.998-.703l.559 3.961c-.187.026-.45.029-.747-.066a1.749 1.749 0 0 1-.752-.478c-.34-.367-.383-.733-.386-.75l3.961-.56Zm-2.635-2.107c-.605.086-1.309.344-1.851.96l3.002 2.643c-.258.294-.542.35-.592.358l-.56-3.96Zm-1.851.96c-.221.251-.537.678-.901 1.189l3.257 2.322c.383-.538.583-.796.646-.868l-3.002-2.643Zm-.914 1.207c-.344.494-.689 1.127-1.035 1.85l3.605 1.731c.309-.642.547-1.057.713-1.296l-3.283-2.285Zm-1.043 1.866c-.35.746-.627 1.484-.816 2.21l3.871 1.008c.116-.448.3-.953.566-1.519l-3.621-1.7Zm-.848 2.353-.26 1.416 3.935.721.26-1.415-3.935-.722Zm-.276 1.525a8.752 8.752 0 0 0-.044.393c-.002.02-.034.311.007.603l3.96-.559a1.88 1.88 0 0 1 .018.293v.021-.012a3.52 3.52 0 0 1 .027-.236l-3.968-.503Zm-.037.996a.85.85 0 0 1-.004-.206l3.978.418a3.147 3.147 0 0 0-.013-.77l-3.961.558Zm.018-.358a2.77 2.77 0 0 0-.014.888l3.96-.56c.01.067.022.208-.012.394l-3.934-.722Zm-.014.888c.06.423.233 1.009.722 1.499l2.833-2.824c.324.325.392.666.406.766l-3.96.559Zm.722 1.499c.412.413.906.609 1.201.708l1.271-3.793c-.025-.008-.002-.003.05.025.047.025.17.096.31.236l-2.832 2.824Zm1.201.708-.023-.008.022.008.12.05 1.558-3.684a6.095 6.095 0 0 0-.406-.159l-1.27 3.793Zm.119.05c.403.17.89.268 1.42.193l-.56-3.96c.3-.043.546.018.698.083l-1.558 3.684Zm1.42.193c.584-.082 1.075-.37 1.359-.55l-2.148-3.374c-.066.042-.088.051-.073.044a1.311 1.311 0 0 1 .302-.08l.56 3.96Zm1.359-.55a15.46 15.46 0 0 1 .311-.193c.013-.007-.003.003-.038.02l-1.783-3.58c-.18.09-.43.247-.638.38l2.148 3.373Zm.465-.282c.518-.334 1.052-.866 1.554-1.42l-2.965-2.686c-.22.244-.4.427-.54.559-.15.14-.217.186-.216.185l2.167 3.362Zm1.484-1.347.743-.741-2.824-2.833-.743.741 2.824 2.833Zm.71-.709a4.32 4.32 0 0 1 .257-.23l-2.518-3.109a8.329 8.329 0 0 0-.496.442l2.757 2.897Zm.33-.292c.036-.033.049-.042.04-.035a1.469 1.469 0 0 1-.193.116L87.44 18.47a3.419 3.419 0 0 0-.727.515l2.662 2.985Zm.287-.217a1.92 1.92 0 0 1-.978.442 1.977 1.977 0 0 1-2.23-1.67l3.96-.56a2.023 2.023 0 0 0-2.29-1.732 2.079 2.079 0 0 0-.812.299 2.32 2.32 0 0 0-.313.235l2.663 2.986Zm-3.208-1.228c.034.237.144.77.605 1.233a2.091 2.091 0 0 0 1.779.592l-.56-3.96a1.909 1.909 0 0 1 1.614.544c.42.42.502.888.523 1.032l-3.96.56Zm2.384 1.825c.9-.127 1.395-.757 1.541-.95l-3.196-2.406c.028-.037.11-.142.257-.256.147-.114.43-.291.838-.349l.56 3.96Zm1.746-1.288a1.573 1.573 0 0 1-.597.662c-.216.13-.398.166-.47.177l-.56-3.961c-.613.086-1.513.42-1.979 1.39l3.606 1.732Zm-1.068.838a.966.966 0 0 1-.513-.057l1.625-3.655a3.044 3.044 0 0 0-1.67-.248l.558 3.96Zm-.249.038c.05.015-.045-.006-.194-.091a1.728 1.728 0 0 1-.407-.328 1.905 1.905 0 0 1-.484-1.026l3.96-.559c-.144-1.019-.932-1.473-1.079-1.557a3.127 3.127 0 0 0-.698-.285l-1.098 3.846ZM88.166 20.1l-.01.178 3.993.228.01-.178-3.993-.229Zm.006.572c.117.825.622 1.355 1 1.64l2.406-3.196c.114.086.471.401.555.996l-3.96.56Zm.223.322a1.373 1.373 0 0 1-.007-.363c.006-.05.013-.068.006-.044l3.861 1.046c.065-.24.172-.693.1-1.199l-3.96.56Zm-.037-.245a1.11 1.11 0 0 1 .21-.466l3.196 2.405c.287-.381.452-.803.528-1.217l-3.934-.722Zm.005-.13c-.151.316-.336.656-.556 1.022l3.427 2.063c.276-.458.522-.91.735-1.352l-3.606-1.732Zm-.595 1.09c-.226.41-.364.65-.43.756l3.401 2.106c.127-.204.31-.527.533-.934l-3.504-1.929Zm.991-.171-.034.005.559 3.96.035-.004-.56-3.961Zm-.034.005a2.393 2.393 0 0 0-1.224.573 3.735 3.735 0 0 0-.536.585l3.196 2.405c.044-.058.028-.026-.047.04-.041.034-.123.1-.245.166-.121.066-.32.154-.585.191l-.56-3.96Zm-1.718 1.104c-.08.1-.104.108-.063.078.04-.03.213-.148.507-.19l.56 3.961c1.04-.147 1.734-.872 2.108-1.335l-3.112-2.514Zm-.412.223c-.139.095-.276.2-.41.309l2.517 3.109a2.77 2.77 0 0 1 .164-.126l-2.271-3.292Zm-.147.128c-.216.124-1.331.816-1.134 2.213l3.96-.56a1.867 1.867 0 0 1-.352 1.381c-.2.267-.414.396-.484.436l-1.99-3.47Zm-.752.73c.124-.164.231-.22.207-.206-.018.01-.095.052-.263.109-.34.115-.878.239-1.661.35l.56 3.96c.902-.127 1.714-.294 2.386-.522.594-.202 1.421-.56 1.967-1.285l-3.196-2.405Z" mask="url(#a)"/></svg>