<svg xmlns="http://www.w3.org/2000/svg" width="128" height="43" fill="none"><mask id="a" width="131.788" height="46.752" x="-1.73" y="-1.579" fill="#000" maskUnits="userSpaceOnUse"><path fill="#fff" d="M-1.73-1.579h131.788v46.752H-1.73z"/><path d="M5.104 42.013c-.366-.09-.617-.196-.752-.318-.112-.126-.253-.377-.424-.753.018-1.04.059-1.752.122-2.138.07-.505.127-1.185.172-2.04.054-.785.097-1.31.13-1.573l.568-1.742c.054-.785.249-1.908.584-3.37a53.72 53.72 0 0 1 .654-2.884l.378-1.573c.22-1.116.446-2.02.678-2.712-.423.013-.733-.014-.93-.08-.179-.093-.343-.259-.495-.496-.17-.377-.33-.92-.477-1.63.284-.323.581-.553.892-.691.307-.161.553-.255.738-.281l1.917-.942c3.107-1.193 4.868-1.819 5.284-1.878.32-.069.563-.103.728-.102l.277-.04 2.105-.615c.175-.095.424-.166.748-.212.32-.068.535-.134.644-.197a.932.932 0 0 1 .4-.162 2.35 2.35 0 0 1 .387-.02c.165 0 .341 0 .53-.003.323.119.568.273.736.461.165.165.331.425.499.778l.008 1.307c-.063.056-.273.239-.63.548a8.843 8.843 0 0 1-1.115.865c-.413.246-.793.394-1.14.443-.207.03-.397.021-.568-.026-.3-.122-.498-.188-.594-.198a.552.552 0 0 1-.227-.11l-.515-.387c-.188.168-.455.277-.802.326-.37.052-.652.139-.847.26-.482.092-1.215.326-2.199.7-.987.352-1.578.588-1.773.71l-.458 1.761c-.441 1.382-.771 2.63-.991 3.746L8.209 31.96c-.096.32-.26 1.085-.489 2.296-.21 1.184-.307 1.916-.29 2.197-.001.33-.076 1.047-.227 2.153-.153 1.082-.21 1.844-.172 2.286a.801.801 0 0 1-.045.43c-.05.15-.084.237-.104.263a1.969 1.969 0 0 1-.902.375c-.115.016-.407.034-.876.053Zm18.525-3.889c-1.317.186-2.432-.033-3.345-.658-.913-.626-1.466-1.62-1.658-2.983a16.85 16.85 0 0 1-.146-1.782c-.032-.561.08-1.354.336-2.38.278-1.03.7-2.055 1.262-3.077.585-1.025 1.321-1.824 2.206-2.397.41-.27.76-.46 1.05-.573a3.6 3.6 0 0 1 1.02-.285c.948-.134 1.735-.068 2.361.197.65.262 1.121.596 1.414 1.002.317.403.497.767.543 1.09l.025.173.014.104c.04.277-.05.809-.27 1.594-.219.785-.64 1.551-1.265 2.3-.602.744-1.453 1.23-2.552 1.455a9.581 9.581 0 0 1-1.648.092c-.525-.044-.857-.056-.995-.037-.347.05-.548.207-.605.475-.056.267-.042.7.043 1.301.16.638.397 1.064.71 1.279.336.211.782.278 1.336.2.278-.04.59-.166.936-.38.344-.237.742-.588 1.195-1.052.245-.27.441-.463.59-.578.149-.116.339-.19.57-.222.207-.03.47.075.786.313.316.238.504.483.563.733-.007.284-.202.736-.586 1.356-.384.62-.914 1.2-1.592 1.744a4.648 4.648 0 0 1-2.298.996Zm.034-8.523c.439-.062.732-.15.881-.266.215-.148.52-.486.917-1.013.417-.554.624-.925.62-1.113-.032-.23-.162-.4-.39-.51-.207-.136-.487-.202-.84-.2l-.382.054c-.3.043-.703.359-1.209.949a8.036 8.036 0 0 0-1.216 1.903c.04.113.228.192.564.239.333.024.685.01 1.055-.043Zm16.724-6.214c.307.333.514.716.622 1.149.132.43.21.819.236 1.168.046.324.087.53.123.62-.1.956-.263 2.228-.487 3.815-.227 1.564-.328 2.179-.305 1.846a7.035 7.035 0 0 1-.154.905c-.107.58-.17 1.05-.19 1.406-.011.425-.12.747-.324.964-.185.191-.473.409-.863.652l-.267.109a1.002 1.002 0 0 1-.544-.1l-.544-.348c-.253-.459-.395-.792-.424-1-.03-.208-.001-.507.085-.896.137-.867.294-1.927.47-3.177.174-1.273.328-2.355.461-3.246l.146-.975c.03-.452.012-.827-.053-1.124-.119-.007-.363.016-.733.068-.462.066-.827.152-1.094.261a13.79 13.79 0 0 1-.49 2.543c-.232.858-.623 2.091-1.173 3.7a16.65 16.65 0 0 1-1.098 2.489l-.338.613-1.076 1.39-.957.983a.903.903 0 0 1-.421.271 1.306 1.306 0 0 1-.515.108l-.45.064c-.314-.05-.63-.206-.95-.467-.297-.264-.496-.425-.598-.481l-.232-.392c-.03-.207-.028-.36.005-.46.053-.125.179-.32.377-.583.123-.3.311-.468.565-.504.139-.02.245-.023.317-.01.165-.164.415-.4.749-.706.33-.33.596-.615.798-.855.221-.267.397-.527.526-.781.404-.811.886-1.905 1.446-3.28.228-.55.5-1.378.815-2.483l-.435-.08c-.05-.017-.2-.078-.45-.184l-.666-1.461c-.081-.578.145-.975.68-1.192.403-.151 1-.342 1.793-.571.568-.151 1.041-.3 1.421-.448.287-.135.65-.234 1.09-.296a4.43 4.43 0 0 1 1.816.097c.491.143.922.436 1.29.879Zm7.168 11.995c-2.634.372-4.163-.944-4.587-3.947-.153-1.086-.06-2.348.278-3.786.36-1.465.866-2.797 1.522-3.997.675-1.227 1.39-2.082 2.147-2.566.406-.293.898-.48 1.476-.562 1.04-.146 1.973-.043 2.801.312.847.328 1.36 1.116 1.535 2.363.102.717-.03 1.536-.394 2.46a7.722 7.722 0 0 1-1.529 2.443c-.635.678-1.299 1.067-1.992 1.164-1.04.147-1.965-.064-2.776-.633-.281.841-.372 1.62-.27 2.336.081.578.214 1.018.398 1.322.181.281.526.386 1.034.314.485-.069.868-.194 1.15-.374.28-.181.534-.382.762-.603.229-.22.405-.387.53-.5l.13-.088-.035.005c.383-.29.66-.506.828-.647a2.36 2.36 0 0 1 .48-.35 1.69 1.69 0 0 1 1.015.174c.33.165.516.398.558.699.033.23-.121.641-.462 1.232-.344.567-.721.985-1.13 1.255l-.387.267.034-.005c-.169.306-.357.474-.565.504l-.277.039c-.066.198-.352.427-.858.686a4.299 4.299 0 0 1-1.416.483Zm.623-8.606c.647-.092 1.139-.444 1.477-1.057.36-.617.502-1.202.423-1.757a1.235 1.235 0 0 0-.306-.663c-.145-.192-.32-.273-.529-.244-.393.056-.806.302-1.239.74-.432.439-.791.984-1.076 1.637l-.348.792a.536.536 0 0 1 .198-.1.454.454 0 0 1 .45.185c.115.148.239.272.37.372.133.099.326.13.58.095Zm16.377 5.746c-.092.013-.239-.025-.44-.114l-.906-.155c-.339-.4-.55-.9-.636-1.501a5.208 5.208 0 0 1-.012-1.341c.073-.482.153-.918.24-1.307l.204-.806a83.76 83.76 0 0 1-1.917.695c-.591.154-1.142.338-1.654.551l-.485-.179-.066 1.035c-.028 1.135-.134 1.974-.316 2.519a12.54 12.54 0 0 1-.856.191c-.324.046-.776.015-1.357-.091a2.612 2.612 0 0 1-.745-1.52 4.204 4.204 0 0 1 .007-1.204c.06-.409.168-.895.324-1.46.14-.514.235-.928.285-1.241.046-.337.048-.655.006-.956.12-.158.376-1.09.772-2.795.418-1.709.626-2.74.623-3.093-.055-.557.184-.874.715-.949.462-.065.963.065 1.504.389.537.301.837.671.899 1.11a1.05 1.05 0 0 1-.095.579l-.977 4.344c.34-.095.606-.215.797-.36l2.253-.318c.247.083.45.184.608.303.276-1.052.494-1.931.653-2.637.16-.706.26-1.415.3-2.128.034-.594.349-1.121.943-1.582.146.026.424.081.837.164.412.084.739.226.979.428.264.198.456.477.578.837a8.04 8.04 0 0 0-.08.683c-.004.307-.031.535-.08.683l-.39 1.504c-.042.195-.17.708-.383 1.539a21.434 21.434 0 0 0-.705 4.27 61.8 61.8 0 0 0-.16 1.119c-.106.58-.163 1.012-.17 1.296.012.588-.172 1.038-.552 1.35l-.545.148Zm8.483-1.091c-1.665-.779-2.614-1.988-2.845-3.628-.134-.948-.016-2.284.353-4.01.216-1.137.701-2.29 1.455-3.457.755-1.166 1.6-2.028 2.534-2.584.063-.056.258-.178.585-.365.175-.096.434-.262.777-.5.74-.104 1.288-.063 1.644.122.034-.924.037-1.49.007-1.697l-.222-.323c-.122-.195-.168-.353-.138-.475a20.663 20.663 0 0 1-.34-.659c-.112-.29-.202-.513-.271-.668-.296-.595-.718-.995-1.266-1.2-.55-.229-1.16-.296-1.83-.201a5.366 5.366 0 0 0-1.258.354 1.73 1.73 0 0 1-.53.252 1.55 1.55 0 0 0-.476.137 2.157 2.157 0 0 1-1.112-.62c-.333-.354-.527-.727-.583-1.12-.072-.508.051-.89.368-1.147.318-.257.81-.527 1.477-.81l.465-.207.342-.084c.214.017.506 0 .876-.053.046-.006.221-.019.525-.038.303-.02.592.022.866.125.775.15 1.35.292 1.722.428.395.133.775.398 1.137.794.056.063.175.152.356.268.181.116.301.217.36.303.66.825 1.197 1.798 1.614 2.918.438 1.092.744 2.263.92 3.51.258 1.826.225 3.68-.098 5.564-.007.119-.064.292-.174.52-.09.2-.113.369-.07.504a67.771 67.771 0 0 1-1.114 3.126 12.63 12.63 0 0 1-1.206 2.22 7.728 7.728 0 0 1-1.914 1.968c-.192.145-.49.281-.896.41a5.11 5.11 0 0 1-1.055.29l-.317.009-.668.023Zm.535-3.717c.202.09.406.12.614.09.6-.085 1.166-.589 1.695-1.512.53-.923.94-2.018 1.233-3.284.399-1.518.496-2.828.294-3.93-1.028.57-1.898 1.246-2.612 2.03-.714.784-1.177 1.592-1.39 2.423-.335 1.297-.443 2.372-.322 3.227.075.531.238.85.488.956Zm22.913-7.23-1.29 1.384-.614.653.385.476c.372.465.957 1.102 1.754 1.908.794.783 1.338 1.296 1.631 1.537.25.271.395.545.434.823.072.508-.295.83-1.1.968-.901.127-1.875-.348-2.923-1.425-1.028-1.104-1.958-2.434-2.79-3.99-.236 1-.337 1.45-.304 1.351l-.13.832c-.144.986-.305 1.763-.484 2.33-.18.567-.44.887-.784.96l-.648.161c-.594-.034-1.021-.22-1.282-.561-.237-.344-.402-.85-.497-1.52l.727-2.365c.106-.25.26-.744.462-1.48l-.932 1.157a110.684 110.684 0 0 0-2.698 3.421c-.867 1.041-1.444 1.877-1.732 2.507-.208.36-.52.568-.937.627-.207.03-.55.019-1.029-.031a2.406 2.406 0 0 1-.48-.392 2.823 2.823 0 0 0-.306-.416c-.111-.456-.125-.808-.043-1.055.083-.247.264-.473.541-.677 1.134-1.315 1.93-2.276 2.386-2.882.241-.293.567-.657.977-1.092.41-.435.659-.67.748-.707.116-.181.337-.448.665-.8a32.5 32.5 0 0 1 .615-.653c-.142-.169-.41-.484-.806-.947-.398-.485-.733-.85-1.003-1.095a93.778 93.778 0 0 1-1.526-1.8c-.237-.343-.35-.634-.336-.871.1-.627.474-.986 1.12-1.077.278-.04.638.004 1.08.13.725.463 1.34 1.142 1.843 2.037l.691.892c.23.298.405.532.524.704.121.195.344.517.666.966l.151-1.682.112-1.465c.057-.762.051-1.221-.018-1.376l-.024-.174a2.452 2.452 0 0 1 .03-.782.84.84 0 0 1 .214-.49.996.996 0 0 1 .565-.256c.254-.036.472.004.653.12 1.088.53 1.688 1.188 1.799 1.973.016.116.014.27-.006.46l-1.404 4.83a61.85 61.85 0 0 0 2.752-2.546c.413-.411.971-1.044 1.676-1.898.7-.876 1.207-1.549 1.518-2.017.175-.26.337-.448.486-.563a.94.94 0 0 1 .53-.252c.069-.01.222-.007.46.006.709.348 1.159.78 1.35 1.294l.019.139c.055.393-.006.708-.185.945l-3.253 3.747Zm14.443 5.879a.911.911 0 0 1-.272.074c-.3.042-.615-.02-.945-.185a3.652 3.652 0 0 1-.831-.625 3.867 3.867 0 0 1-.696-1.174 6.696 6.696 0 0 1-.379-1.431c-.003-.023-.018-.045-.044-.065-.006-.046-.02-.056-.039-.03-.43.627-1.042 1.302-1.835 2.027-.77.721-1.444 1.123-2.022 1.204-.392.056-.843-.128-1.35-.551-.484-.427-.815-.851-.993-1.274-.036-.09-.074-.272-.113-.55-.127-.9-.082-2.25.135-4.048.218-1.798.557-3.401 1.018-4.81.481-1.434 1.01-2.193 1.588-2.274.531-.075 1.086.353 1.666 1.285.181.28.281.49.3.629a.616.616 0 0 1-.059.326c-.057.102-.133.231-.229.386l-.059.08c-.272.415-.582 1.307-.93 2.675a55.153 55.153 0 0 0-.803 3.578l.03-.04c-.084.578-.124.96-.121 1.148.68-.19 1.331-.836 1.954-1.937.645-1.104 1.373-2.62 2.185-4.55.55-1.28.962-2.198 1.237-2.755.298-.56.572-.87.823-.93.366-.074.789-.005 1.267.21.501.213.776.492.825.839.026.184-.021.52-.14 1.01-.12.487-.243.952-.369 1.394l-.239.812a71.056 71.056 0 0 0-.692 2.855c-.16.706-.245 1.436-.256 2.192l-.005-.035a2.85 2.85 0 0 0 .039.525c.097.693.484 1.346 1.16 1.957.22.228.345.446.375.654.042.3-.059.586-.304.856a1.732 1.732 0 0 1-.906.587l.029-.04Zm13.145-1.927c-.439.062-.953-.077-1.543-.418-.59-.341-1.502-1.12-2.734-2.336-.019-.139-.204-.442-.553-.912-.349-.469-.563-.733-.642-.793.01.07-.066-.05-.227-.356-.141-.334-.328-.484-.559-.452-.115.017-.276.298-.481.846a10.518 10.518 0 0 0-.449 1.83c-.116.677-.139 1.27-.067 1.777.052.37-.004.72-.17 1.05-.169.306-.438.485-.807.538-.311-.027-.752-.318-1.326-.874-.576-.578-.89-1.052-.943-1.422l.28-1.524.365-2.172c.165-.33.277-.71.333-1.143l.135-.797c.15-.445.407-1.377.772-2.795.266-1.122.465-1.88.598-2.276l.482-1.34c-.026-.185.101-.368.382-.55.281-.18.618-.299 1.01-.354.324-.046.64.11.95.467.333.353.523.703.572 1.05.069.485.055.888-.041 1.208a5.52 5.52 0 0 1-.462.984c-.172.283-.3.549-.382.796a1.55 1.55 0 0 0-.066.787c.01.07.026.102.049.1.043-.03.131-.078.263-.144.129-.089.277-.204.446-.346.149-.115.451-.393.907-.835.82-.87 1.396-1.375 1.73-1.516.896-.834 1.47-1.269 1.725-1.304.254-.036.542.088.865.372.32.261.499.53.538.808.069.485-.239 1.059-.923 1.72-.687.64-1.628 1.409-2.82 2.308-.598.438-.937.71-1.016.815.003.023.337.388 1.003 1.095.234.32.428.612.582.873l.48.639c.447.667.795 1.125 1.042 1.373.244.224.562.31.955.254.115-.017.307-.08.574-.188.264-.131.466-.207.604-.226.347-.05.652.025.916.224.263.198.415.436.454.713.029.208-.141.503-.511.886-.348.378-.759.72-1.235 1.022-.472.326-.824.505-1.055.538Z"/></mask><path fill="#165298" d="M5.104 42.013c-.366-.09-.617-.196-.752-.318-.112-.126-.253-.377-.424-.753.018-1.04.059-1.752.122-2.138.07-.505.127-1.185.172-2.04.054-.785.097-1.31.13-1.573l.568-1.742c.054-.785.249-1.908.584-3.37a53.72 53.72 0 0 1 .654-2.884l.378-1.573c.22-1.116.446-2.02.678-2.712-.423.013-.733-.014-.93-.08-.179-.093-.343-.259-.495-.496-.17-.377-.33-.92-.477-1.63.284-.323.581-.553.892-.691.307-.161.553-.255.738-.281l1.917-.942c3.107-1.193 4.868-1.819 5.284-1.878.32-.069.563-.103.728-.102l.277-.04 2.105-.615c.175-.095.424-.166.748-.212.32-.068.535-.134.644-.197a.932.932 0 0 1 .4-.162 2.35 2.35 0 0 1 .387-.02c.165 0 .341 0 .53-.003.323.119.568.273.736.461.165.165.331.425.499.778l.008 1.307c-.063.056-.273.239-.63.548a8.843 8.843 0 0 1-1.115.865c-.413.246-.793.394-1.14.443-.207.03-.397.021-.568-.026-.3-.122-.498-.188-.594-.198a.552.552 0 0 1-.227-.11l-.515-.387c-.188.168-.455.277-.802.326-.37.052-.652.139-.847.26-.482.092-1.215.326-2.199.7-.987.352-1.578.588-1.773.71l-.458 1.761c-.441 1.382-.771 2.63-.991 3.746L8.209 31.96c-.096.32-.26 1.085-.489 2.296-.21 1.184-.307 1.916-.29 2.197-.001.33-.076 1.047-.227 2.153-.153 1.082-.21 1.844-.172 2.286a.801.801 0 0 1-.045.43c-.05.15-.084.237-.104.263a1.969 1.969 0 0 1-.902.375c-.115.016-.407.034-.876.053Zm18.525-3.889c-1.317.186-2.432-.033-3.345-.658-.913-.626-1.466-1.62-1.658-2.983a16.85 16.85 0 0 1-.146-1.782c-.032-.561.08-1.354.336-2.38.278-1.03.7-2.055 1.262-3.077.585-1.025 1.321-1.824 2.206-2.397.41-.27.76-.46 1.05-.573a3.6 3.6 0 0 1 1.02-.285c.948-.134 1.735-.068 2.361.197.65.262 1.121.596 1.414 1.002.317.403.497.767.543 1.09l.025.173.014.104c.04.277-.05.809-.27 1.594-.219.785-.64 1.551-1.265 2.3-.602.744-1.453 1.23-2.552 1.455a9.581 9.581 0 0 1-1.648.092c-.525-.044-.857-.056-.995-.037-.347.05-.548.207-.605.475-.056.267-.042.7.043 1.301.16.638.397 1.064.71 1.279.336.211.782.278 1.336.2.278-.04.59-.166.936-.38.344-.237.742-.588 1.195-1.052.245-.27.441-.463.59-.578.149-.116.339-.19.57-.222.207-.03.47.075.786.313.316.238.504.483.563.733-.007.284-.202.736-.586 1.356-.384.62-.914 1.2-1.592 1.744a4.648 4.648 0 0 1-2.298.996Zm.034-8.523c.439-.062.732-.15.881-.266.215-.148.52-.486.917-1.013.417-.554.624-.925.62-1.113-.032-.23-.162-.4-.39-.51-.207-.136-.487-.202-.84-.2l-.382.054c-.3.043-.703.359-1.209.949a8.036 8.036 0 0 0-1.216 1.903c.04.113.228.192.564.239.333.024.685.01 1.055-.043Zm16.724-6.214c.307.333.514.716.622 1.149.132.43.21.819.236 1.168.046.324.087.53.123.62-.1.956-.263 2.228-.487 3.815-.227 1.564-.328 2.179-.305 1.846a7.035 7.035 0 0 1-.154.905c-.107.58-.17 1.05-.19 1.406-.011.425-.12.747-.324.964-.185.191-.473.409-.863.652l-.267.109a1.002 1.002 0 0 1-.544-.1l-.544-.348c-.253-.459-.395-.792-.424-1-.03-.208-.001-.507.085-.896.137-.867.294-1.927.47-3.177.174-1.273.328-2.355.461-3.246l.146-.975c.03-.452.012-.827-.053-1.124-.119-.007-.363.016-.733.068-.462.066-.827.152-1.094.261a13.79 13.79 0 0 1-.49 2.543c-.232.858-.623 2.091-1.173 3.7a16.65 16.65 0 0 1-1.098 2.489l-.338.613-1.076 1.39-.957.983a.903.903 0 0 1-.421.271 1.306 1.306 0 0 1-.515.108l-.45.064c-.314-.05-.63-.206-.95-.467-.297-.264-.496-.425-.598-.481l-.232-.392c-.03-.207-.028-.36.005-.46.053-.125.179-.32.377-.583.123-.3.311-.468.565-.504.139-.02.245-.023.317-.01.165-.164.415-.4.749-.706.33-.33.596-.615.798-.855.221-.267.397-.527.526-.781.404-.811.886-1.905 1.446-3.28.228-.55.5-1.378.815-2.483l-.435-.08c-.05-.017-.2-.078-.45-.184l-.666-1.461c-.081-.578.145-.975.68-1.192.403-.151 1-.342 1.793-.571.568-.151 1.041-.3 1.421-.448.287-.135.65-.234 1.09-.296a4.43 4.43 0 0 1 1.816.097c.491.143.922.436 1.29.879Zm7.168 11.995c-2.634.372-4.163-.944-4.587-3.947-.153-1.086-.06-2.348.278-3.786.36-1.465.866-2.797 1.522-3.997.675-1.227 1.39-2.082 2.147-2.566.406-.293.898-.48 1.476-.562 1.04-.146 1.973-.043 2.801.312.847.328 1.36 1.116 1.535 2.363.102.717-.03 1.536-.394 2.46a7.722 7.722 0 0 1-1.529 2.443c-.635.678-1.299 1.067-1.992 1.164-1.04.147-1.965-.064-2.776-.633-.281.841-.372 1.62-.27 2.336.081.578.214 1.018.398 1.322.181.281.526.386 1.034.314.485-.069.868-.194 1.15-.374.28-.181.534-.382.762-.603.229-.22.405-.387.53-.5l.13-.088-.035.005c.383-.29.66-.506.828-.647a2.36 2.36 0 0 1 .48-.35 1.69 1.69 0 0 1 1.015.174c.33.165.516.398.558.699.033.23-.121.641-.462 1.232-.344.567-.721.985-1.13 1.255l-.387.267.034-.005c-.169.306-.357.474-.565.504l-.277.039c-.066.198-.352.427-.858.686a4.299 4.299 0 0 1-1.416.483Zm.623-8.606c.647-.092 1.139-.444 1.477-1.057.36-.617.502-1.202.423-1.757a1.235 1.235 0 0 0-.306-.663c-.145-.192-.32-.273-.529-.244-.393.056-.806.302-1.239.74-.432.439-.791.984-1.076 1.637l-.348.792a.536.536 0 0 1 .198-.1.454.454 0 0 1 .45.185c.115.148.239.272.37.372.133.099.326.13.58.095Zm16.377 5.746c-.092.013-.239-.025-.44-.114l-.906-.155c-.339-.4-.55-.9-.636-1.501a5.208 5.208 0 0 1-.012-1.341c.073-.482.153-.918.24-1.307l.204-.806a83.76 83.76 0 0 1-1.917.695c-.591.154-1.142.338-1.654.551l-.485-.179-.066 1.035c-.028 1.135-.134 1.974-.316 2.519a12.54 12.54 0 0 1-.856.191c-.324.046-.776.015-1.357-.091a2.612 2.612 0 0 1-.745-1.52 4.204 4.204 0 0 1 .007-1.204c.06-.409.168-.895.324-1.46.14-.514.235-.928.285-1.241.046-.337.048-.655.006-.956.12-.158.376-1.09.772-2.795.418-1.709.626-2.74.623-3.093-.055-.557.184-.874.715-.949.462-.065.963.065 1.504.389.537.301.837.671.899 1.11a1.05 1.05 0 0 1-.095.579l-.977 4.344c.34-.095.606-.215.797-.36l2.253-.318c.247.083.45.184.608.303.276-1.052.494-1.931.653-2.637.16-.706.26-1.415.3-2.128.034-.594.349-1.121.943-1.582.146.026.424.081.837.164.412.084.739.226.979.428.264.198.456.477.578.837a8.04 8.04 0 0 0-.08.683c-.004.307-.031.535-.08.683l-.39 1.504c-.042.195-.17.708-.383 1.539a21.434 21.434 0 0 0-.705 4.27 61.8 61.8 0 0 0-.16 1.119c-.106.58-.163 1.012-.17 1.296.012.588-.172 1.038-.552 1.35l-.545.148Zm8.483-1.091c-1.665-.779-2.614-1.988-2.845-3.628-.134-.948-.016-2.284.353-4.01.216-1.137.701-2.29 1.455-3.457.755-1.166 1.6-2.028 2.534-2.584.063-.056.258-.178.585-.365.175-.096.434-.262.777-.5.74-.104 1.288-.063 1.644.122.034-.924.037-1.49.007-1.697l-.222-.323c-.122-.195-.168-.353-.138-.475a20.663 20.663 0 0 1-.34-.659c-.112-.29-.202-.513-.271-.668-.296-.595-.718-.995-1.266-1.2-.55-.229-1.16-.296-1.83-.201a5.366 5.366 0 0 0-1.258.354 1.73 1.73 0 0 1-.53.252 1.55 1.55 0 0 0-.476.137 2.157 2.157 0 0 1-1.112-.62c-.333-.354-.527-.727-.583-1.12-.072-.508.051-.89.368-1.147.318-.257.81-.527 1.477-.81l.465-.207.342-.084c.214.017.506 0 .876-.053.046-.006.221-.019.525-.038.303-.02.592.022.866.125.775.15 1.35.292 1.722.428.395.133.775.398 1.137.794.056.063.175.152.356.268.181.116.301.217.36.303.66.825 1.197 1.798 1.614 2.918.438 1.092.744 2.263.92 3.51.258 1.826.225 3.68-.098 5.564-.007.119-.064.292-.174.52-.09.2-.113.369-.07.504a67.771 67.771 0 0 1-1.114 3.126 12.63 12.63 0 0 1-1.206 2.22 7.728 7.728 0 0 1-1.914 1.968c-.192.145-.49.281-.896.41a5.11 5.11 0 0 1-1.055.29l-.317.009-.668.023Zm.535-3.717c.202.09.406.12.614.09.6-.085 1.166-.589 1.695-1.512.53-.923.94-2.018 1.233-3.284.399-1.518.496-2.828.294-3.93-1.028.57-1.898 1.246-2.612 2.03-.714.784-1.177 1.592-1.39 2.423-.335 1.297-.443 2.372-.322 3.227.075.531.238.85.488.956Zm22.913-7.23-1.29 1.384-.614.653.385.476c.372.465.957 1.102 1.754 1.908.794.783 1.338 1.296 1.631 1.537.25.271.395.545.434.823.072.508-.295.83-1.1.968-.901.127-1.875-.348-2.923-1.425-1.028-1.104-1.958-2.434-2.79-3.99-.236 1-.337 1.45-.304 1.351l-.13.832c-.144.986-.305 1.763-.484 2.33-.18.567-.44.887-.784.96l-.648.161c-.594-.034-1.021-.22-1.282-.561-.237-.344-.402-.85-.497-1.52l.727-2.365c.106-.25.26-.744.462-1.48l-.932 1.157a110.684 110.684 0 0 0-2.698 3.421c-.867 1.041-1.444 1.877-1.732 2.507-.208.36-.52.568-.937.627-.207.03-.55.019-1.029-.031a2.406 2.406 0 0 1-.48-.392 2.823 2.823 0 0 0-.306-.416c-.111-.456-.125-.808-.043-1.055.083-.247.264-.473.541-.677 1.134-1.315 1.93-2.276 2.386-2.882.241-.293.567-.657.977-1.092.41-.435.659-.67.748-.707.116-.181.337-.448.665-.8a32.5 32.5 0 0 1 .615-.653c-.142-.169-.41-.484-.806-.947-.398-.485-.733-.85-1.003-1.095a93.778 93.778 0 0 1-1.526-1.8c-.237-.343-.35-.634-.336-.871.1-.627.474-.986 1.12-1.077.278-.04.638.004 1.08.13.725.463 1.34 1.142 1.843 2.037l.691.892c.23.298.405.532.524.704.121.195.344.517.666.966l.151-1.682.112-1.465c.057-.762.051-1.221-.018-1.376l-.024-.174a2.452 2.452 0 0 1 .03-.782.84.84 0 0 1 .214-.49.996.996 0 0 1 .565-.256c.254-.036.472.004.653.12 1.088.53 1.688 1.188 1.799 1.973.016.116.014.27-.006.46l-1.404 4.83a61.85 61.85 0 0 0 2.752-2.546c.413-.411.971-1.044 1.676-1.898.7-.876 1.207-1.549 1.518-2.017.175-.26.337-.448.486-.563a.94.94 0 0 1 .53-.252c.069-.01.222-.007.46.006.709.348 1.159.78 1.35 1.294l.019.139c.055.393-.006.708-.185.945l-3.253 3.747Zm14.443 5.879a.911.911 0 0 1-.272.074c-.3.042-.615-.02-.945-.185a3.652 3.652 0 0 1-.831-.625 3.867 3.867 0 0 1-.696-1.174 6.696 6.696 0 0 1-.379-1.431c-.003-.023-.018-.045-.044-.065-.006-.046-.02-.056-.039-.03-.43.627-1.042 1.302-1.835 2.027-.77.721-1.444 1.123-2.022 1.204-.392.056-.843-.128-1.35-.551-.484-.427-.815-.851-.993-1.274-.036-.09-.074-.272-.113-.55-.127-.9-.082-2.25.135-4.048.218-1.798.557-3.401 1.018-4.81.481-1.434 1.01-2.193 1.588-2.274.531-.075 1.086.353 1.666 1.285.181.28.281.49.3.629a.616.616 0 0 1-.059.326c-.057.102-.133.231-.229.386l-.059.08c-.272.415-.582 1.307-.93 2.675a55.153 55.153 0 0 0-.803 3.578l.03-.04c-.084.578-.124.96-.121 1.148.68-.19 1.331-.836 1.954-1.937.645-1.104 1.373-2.62 2.185-4.55.55-1.28.962-2.198 1.237-2.755.298-.56.572-.87.823-.93.366-.074.789-.005 1.267.21.501.213.776.492.825.839.026.184-.021.52-.14 1.01-.12.487-.243.952-.369 1.394l-.239.812a71.056 71.056 0 0 0-.692 2.855c-.16.706-.245 1.436-.256 2.192l-.005-.035a2.85 2.85 0 0 0 .039.525c.097.693.484 1.346 1.16 1.957.22.228.345.446.375.654.042.3-.059.586-.304.856a1.732 1.732 0 0 1-.906.587l.029-.04Zm13.145-1.927c-.439.062-.953-.077-1.543-.418-.59-.341-1.502-1.12-2.734-2.336-.019-.139-.204-.442-.553-.912-.349-.469-.563-.733-.642-.793.01.07-.066-.05-.227-.356-.141-.334-.328-.484-.559-.452-.115.017-.276.298-.481.846a10.518 10.518 0 0 0-.449 1.83c-.116.677-.139 1.27-.067 1.777.052.37-.004.72-.17 1.05-.169.306-.438.485-.807.538-.311-.027-.752-.318-1.326-.874-.576-.578-.89-1.052-.943-1.422l.28-1.524.365-2.172c.165-.33.277-.71.333-1.143l.135-.797c.15-.445.407-1.377.772-2.795.266-1.122.465-1.88.598-2.276l.482-1.34c-.026-.185.101-.368.382-.55.281-.18.618-.299 1.01-.354.324-.046.64.11.95.467.333.353.523.703.572 1.05.069.485.055.888-.041 1.208a5.52 5.52 0 0 1-.462.984c-.172.283-.3.549-.382.796a1.55 1.55 0 0 0-.066.787c.01.07.026.102.049.1.043-.03.131-.078.263-.144.129-.089.277-.204.446-.346.149-.115.451-.393.907-.835.82-.87 1.396-1.375 1.73-1.516.896-.834 1.47-1.269 1.725-1.304.254-.036.542.088.865.372.32.261.499.53.538.808.069.485-.239 1.059-.923 1.72-.687.64-1.628 1.409-2.82 2.308-.598.438-.937.71-1.016.815.003.023.337.388 1.003 1.095.234.32.428.612.582.873l.48.639c.447.667.795 1.125 1.042 1.373.244.224.562.31.955.254.115-.017.307-.08.574-.188.264-.131.466-.207.604-.226.347-.05.652.025.916.224.263.198.415.436.454.713.029.208-.141.503-.511.886-.348.378-.759.72-1.235 1.022-.472.326-.824.505-1.055.538Z"/><path fill="#fff" d="m5.104 42.013-.476 1.942.275.068.282-.012-.081-1.998Zm-.752-.318-1.492 1.33.07.08.08.072 1.342-1.482Zm-.424-.753-2-.035-.008.45.187.412 1.82-.827Zm.122-2.138 1.974.323.004-.024.003-.024-1.981-.275Zm.172-2.04-1.996-.137v.017l-.002.017 1.998.104Zm.13-1.573-1.9-.62-.06.18-.023.189 1.984.25Zm.568-1.742 1.902.62.076-.236.017-.246-1.995-.138Zm.584-3.37 1.95.448.005-.025.006-.025-1.96-.398Zm.654-2.884 1.934.508.005-.02.005-.02-1.944-.468Zm.378-1.573 1.945.468.01-.041.008-.041-1.963-.386Zm.678-2.712 1.896.636.912-2.72-2.867.085.059 2Zm-.93-.08-.924 1.773.14.073.148.05.635-1.897Zm-.495-.496-1.82.827.058.128.075.119 1.687-1.074Zm-.477-1.63L3.81 19.383l-.66.75.203.978 1.958-.407Zm.892-.691.813 1.827.059-.026.057-.03-.93-1.771Zm.738-.281.28 1.98.316-.044.286-.141-.882-1.795Zm1.917-.942-.717-1.867-.084.032-.081.04.882 1.795Zm5.284-1.878.28 1.98.07-.01.07-.014-.42-1.956Zm.728-.102-.003 2h.142l.14-.02-.279-1.98Zm.277-.04.28 1.98.143-.02.139-.04-.562-1.92Zm2.105-.615.561 1.92.207-.06.19-.104-.958-1.756Zm.748-.212.28 1.98.07-.01.07-.014-.42-1.956Zm.644-.197.995 1.735.072-.041.068-.047-1.135-1.647Zm.787-.181-.05 1.999h.047l.003-2Zm.53-.004.692-1.877-.35-.13-.374.007.032 2Zm.736.461-1.492 1.331.037.042.039.039 1.416-1.412Zm.499.778 2-.012-.003-.444-.19-.402-1.807.858Zm.008 1.307 1.33 1.492.675-.6-.005-.904-2 .012Zm-.63.548-1.31-1.51-.021.018-.021.019 1.352 1.473Zm-1.115.865 1.026 1.716.038-.022.037-.024-1.1-1.67Zm-1.708.418-.756 1.851.114.047.119.032.523-1.93Zm-.594-.2-.36 1.968.075.014.076.008.21-1.99Zm-.227-.109-1.203 1.598 1.203-1.598Zm-.515-.387 1.203-1.598-1.31-.986-1.224 1.092 1.331 1.492Zm-1.649.587.374 1.965.368-.07.318-.2-1.06-1.695Zm-2.199.699.671 1.884.02-.007.021-.008-.712-1.869Zm-1.773.71-1.06-1.696-.675.422-.2.77 1.935.504Zm-.458 1.761 1.905.609.017-.052.014-.053-1.936-.504Zm-.991 3.746 1.954.426.004-.02.004-.02-1.962-.386ZM8.209 31.96l1.915.576.022-.074.017-.076-1.954-.426Zm-.489 2.296-1.965-.373-.002.012-.002.012 1.97.349Zm-.29 2.197 2 .003v-.059l-.004-.058-1.996.114Zm-.227 2.153 1.98.28.002-.01-1.982-.27Zm-.172 2.286-1.992.175.005.053.007.052 1.98-.28Zm-.045.43-1.842-.778-.03.07-.024.073 1.896.636Zm-.104.263 1.185 1.611.236-.174.177-.234-1.598-1.203ZM5.58 40.07a2.014 2.014 0 0 1-.124-.034l-.035-.012a1.257 1.257 0 0 1 .274.188L3.01 43.177c.529.48 1.205.677 1.618.778l.952-3.885Zm.265.294a.924.924 0 0 1 .077.096 4.275 4.275 0 0 1-.173-.346L2.107 41.77c.168.37.416.88.753 1.257l2.985-2.663Zm.082.613c.019-1.051.06-1.626.097-1.85l-3.948-.647c-.09.549-.13 1.399-.148 2.427l4 .07Zm.104-1.898c.081-.587.142-1.332.188-2.21l-3.995-.208c-.043.83-.096 1.445-.155 1.867l3.962.55Zm.186-2.177a33.47 33.47 0 0 1 .12-1.46l-3.968-.502c-.042.33-.09.91-.143 1.687l3.99.275Zm.038-1.092.567-1.741-3.804-1.239-.567 1.741 3.804 1.239Zm.66-2.223c.043-.626.21-1.627.539-3.06l-3.899-.895c-.342 1.49-.565 2.735-.63 3.68l3.99.275Zm.55-3.11c.232-1.144.44-2.066.627-2.774l-3.869-1.016c-.212.808-.438 1.81-.679 2.995l3.92.795Zm.637-2.814.379-1.573-3.89-.937-.378 1.574 3.889.936Zm.397-1.655c.21-1.072.417-1.883.611-2.462l-3.792-1.271c-.27.805-.516 1.801-.744 2.96l3.925.773ZM7.155 20.91c-.16.005-.261 0-.318-.004-.026-.003-.033-.004-.023-.002a.795.795 0 0 1 .105.028l-1.271 3.793c.55.184 1.158.197 1.625.183l-.118-3.998Zm.052.144a.96.96 0 0 1 .236.169c.038.038.047.057.033.036l-3.374 2.148c.268.42.667.888 1.258 1.195l1.847-3.548Zm.403.452c-.08-.178-.204-.553-.34-1.21l-3.916.814c.158.764.353 1.474.614 2.05l3.642-1.654Zm-.797.519c.143-.163.217-.192.204-.186L5.39 18.186c-.634.282-1.155.713-1.58 1.197l3.002 2.643Zm.32-.242c.104-.055.168-.082.197-.093.014-.005.012-.004-.003 0a.838.838 0 0 1-.106.021l-.559-3.96c-.53.074-1.02.297-1.388.49l1.86 3.542Zm.691-.257 1.917-.943-1.764-3.59-1.917.943 1.764 3.59Zm1.752-.87a162.343 162.343 0 0 1 3.604-1.347c.43-.152.76-.264.999-.34.287-.09.326-.089.244-.077l-.56-3.961a5.95 5.95 0 0 0-.884.223c-.305.096-.687.226-1.138.386-.904.321-2.14.783-3.699 1.381l1.434 3.735Zm4.987-1.79a4.63 4.63 0 0 1 .282-.052c.068-.01.069-.005.023-.005l.006-4c-.386-.001-.8.071-1.15.147l.84 3.91Zm.588-.077h.005l.001-.001h.007v-.001h.006l.001-.001h.007v-.001h.007v-.001h.007v-.001h.007v-.001h.006l.002-.001h.006l.001-.001h.005l.002-.001h.006l.001-.001h.006l.001-.001h.006l.001-.001h.006l.001-.001h.006l.001-.001h.006l.002-.001h.006v-.001h.007v-.001h.007v-.001h.007v-.001h.007v-.001h.007l.001-.001h.006v-.001h.007l.001-.001h.006l.001-.001h.006l.001-.001h.006l.001-.001h.006l.001-.001h.006l.001-.001h.006l.001-.001h.007v-.001h.007v-.001h.007v-.001h.007v-.001h.007v-.001h.007v-.001h.007v-.001h.007l.001-.001h.007v-.001h.002l-.56-3.96h-.013v.001h-.007v.001h-.007v.001h-.007l-.001.001h-.006l-.001.001h-.007v.001h-.006l-.001.001h-.007v.001H14.8l-.001.001h-.007v.001h-.007v.001h-.007v.001h-.007l-.001.001h-.006l-.001.001h-.006v.001h-.007l-.001.001h-.006l-.001.001h-.007v.001h-.006l-.001.001h-.007v.001h-.007v.001h-.006l-.002.001H14.7l-.001.001h-.006v.001h-.008v.001h-.007v.001h-.006v.001h-.007l-.001.001h-.007v.001h-.006l-.001.001h-.007v.001h-.007v.001h-.007v.001h-.007l-.001.001h-.006l-.001.001h-.005l-.002.001H14.6l-.001.001h-.007v.001h-.002l.56 3.96Zm.559-.1 2.104-.615-1.122-3.84-2.105.616 1.123 3.839Zm2.5-.779a.744.744 0 0 1-.083.04c-.015.006-.02.006-.011.004a1.942 1.942 0 0 1 .165-.031l-.56-3.96c-.429.06-.948.175-1.425.435l1.914 3.512Zm.21-.012c.3-.064.805-.18 1.22-.418l-1.99-3.47a1.336 1.336 0 0 1 .157-.076c.02-.009.026-.01.01-.005a4.426 4.426 0 0 1-.236.058l.84 3.91Zm1.36-.506a1.073 1.073 0 0 1-.455.171l-.559-3.96a2.93 2.93 0 0 0-1.257.496l2.271 3.293Zm-.455.171h.057l.1-3.999c-.23-.005-.47.004-.716.039l.56 3.96Zm.104 0c.178 0 .366 0 .564-.004l-.063-4c-.178.004-.343.005-.495.005l-.006 4Zm-.16-.127c.056.02.07.031.057.023a.602.602 0 0 1-.12-.107l2.985-2.662c-.451-.506-1.013-.813-1.537-1.007l-1.385 3.753Zm.013-.003c-.045-.044-.048-.06-.02-.014.028.042.071.118.128.238l3.614-1.716c-.209-.44-.491-.933-.89-1.332l-2.832 2.824Zm-.085-.622.008 1.307 4-.024-.008-1.307-4 .024Zm.677-.198-.61.53 2.622 3.022c.35-.304.574-.499.65-.567l-2.663-2.985Zm-.651.568a6.825 6.825 0 0 1-.863.668l2.2 3.34c.492-.324.949-.677 1.368-1.061l-2.705-2.947Zm-.79.62a2.005 2.005 0 0 1-.293.15.402.402 0 0 1-.099.03l.56 3.962c.69-.098 1.324-.372 1.885-.708l-2.052-3.433Zm-.392.18a.626.626 0 0 1 .234.025l-1.046 3.86c.476.13.943.137 1.372.076l-.56-3.96Zm.467.104a8.403 8.403 0 0 0-.494-.186 3.073 3.073 0 0 0-.647-.15l-.418 3.978a1.523 1.523 0 0 1-.204-.036l-.016-.004.014.004c.019.007.05.017.094.034l.159.063 1.512-3.703Zm-.989-.315c.319.059.526.194.614.26l-2.405 3.196a2.53 2.53 0 0 0 1.07.479l.721-3.935Zm.614.26h-.001v-.001h-.001l-.001-.001-.001-.001h-.001v-.001h-.001l-.001-.001h-.001v-.001h-.001v-.001h-.001l-.001-.001-.001-.001h-.001v-.001h-.001l-.001-.001-.001-.001h-.001v-.001h-.001v-.001h-.002v-.001h-.001v-.001h-.001v-.001h-.001l-.002-.001v-.001h-.001v-.001h-.001l-.002-.001v-.001h-.001v-.001h-.001l-.001-.001H18.1v-.001h-.001l-.001-.001-.001-.001-.001-.001h-.001v-.001h-.001L18.091 18h-.001l-.001-.001-.001-.001-.002-.001v-.001h-.002v-.001l-.001-.001h-.001v-.001h-.001l-.001-.001-.001-.001h-.001v-.001h-.001l-.001-.001-.001-.001h-.001v-.001h-.001l-.001-.001-.002-.001v-.001h-.002v-.001h-.001v-.001h-.001l-.001-.001-.002-.001v-.001l-.002-.001-.001-.001-.002-.001-.001-.001-.001-.001-.001-.001-.002-.001-.001-.001-.002-.001-.001-.002h-.002v-.001h-.001v-.001h-.002v-.002h-.002v-.001h-.002v-.001h-.001v-.002h-.002l-.001-.001h-.001v-.002h-.002l-.001-.001h-.001v-.002h-.002l-.001-.001h-.001v-.002h-.002l-.001-.001-.001-.001-.002-.001-.001-.002h-.002v-.001l-.002-.001-.001-.001h-.001l-.001-.002h-.001l-.002-.002h-.001l-.001-.001-.001-.001h-.001v-.001l-.002-.001-.002-.001v-.001h-.001L18 17.931v-.001l-.002-.001v-.001h-.002v-.001l-.001-.001h-.001l-.001-.001-.001-.001-.002-.001v-.001h-.002v-.001l-.001-.001h-.001l-.001-.002h-.002l-.001-.002h-.001l-.002-.002-.002-.001-.002-.002h-.001l-.001-.002h-.001l-.001-.001h-.001l-.001-.001-.001-.001h-.001l-.001-.002h-.001l-.001-.001-.002-.002-.002-.001-.002-.001v-.001h-.002v-.002h-.002v-.001h-.002v-.002h-.002v-.001h-.002v-.002h-.002v-.001h-.002v-.002h-.002v-.001h-.002v-.002h-.002v-.001l-.002-.001-.002-.002-.002-.001-.002-.002h-.001l-.001-.001-.001-.001h-.001l-.001-.002h-.001l-.001-.001h-.001l-.001-.002h-.001l-.002-.001v-.001h-.002v-.002h-.002v-.001l-.002-.001h-.001l-.001-.002h-.001l-.001-.001-.001-.001-.001-.001h-.001l-.002-.002-.002-.001v-.001h-.002l-.001-.002h-.001l-.001-.001-.001-.001-.001-.001h-.002v-.002h-.002v-.001l-.002-.001-.001-.001h-.001l-.001-.002h-.002v-.002h-.002v-.001l-.002-.001h-.001l-.001-.002h-.001l-.002-.002-.002-.001-.001-.001h-.001l-.001-.002h-.001l-.002-.002-.002-.001-.001-.001-.001-.001h-.001l-.002-.002-.002-.002h-.001l-.001-.001-.002-.001v-.001l-.002-.001h-.001l-.001-.002h-.001l-.002-.002-.002-.001-.001-.001-.001-.001-.002-.001v-.001h-.002l-.001-.002h-.001l-.002-.002-.002-.002h-.001l-.002-.001v-.001l-.002-.001-.001-.001-.001-.001h-.002v-.002h-.002l-.001-.002h-.002v-.002h-.002l-.001-.002h-.002v-.001l-.002-.001-.001-.001-.002-.001v-.001l-.002-.001-.001-.001-.002-.001-.001-.001h-.001l-.002-.002-.002-.002h-.001l-.002-.002-.002-.002h-.002v-.002h-.002l-.001-.002h-.002l-.001-.002h-.001l-.002-.002-.002-.001-.002-.001v-.001l-.002-.001-.001-.001-.002-.001-.001-.001-.001-.001-.002-.001-.001-.001-.001-.001-.002-.001-.001-.001-.001-.001-.002-.001-.001-.001-.001-.001-.002-.001-.001-.001-.001-.001-.002-.001-.001-.001-.002-.002-.002-.002h-.002v-.002h-.002l-.002-.002h-.001l-.001-.002h-.002l-.001-.002h-.002v-.002h-.002l-.002-.002h-.001l-.001-.002-.002-.001-.001-.001-.002-.001-.001-.001-.001-.001-.002-.001-.001-.001-.002-.001-.001-.002h-.001l-.002-.002h-.001l-.002-.002h-.001l-.002-.002-.002-.002-.002-.001-.001-.001-.002-.001-.001-.001-.002-.001v-.001l-.002-.002h-.002l-.001-.002h-.002l-.001-.002-.002-.001-.001-.001-.002-.001v-.001l-.002-.001-.002-.001-.001-.002h-.002l-.001-.002h-.002l-.001-.002-.002-.001-.001-.001-.002-.001-.001-.001-.002-.002h-.001l-.002-.002h-.001l-.002-.002-.001-.001-.002-.001-.001-.001-.002-.002h-.001l-.002-.002h-.001l-.002-.002-.001-.001-.002-.001-.001-.001-.002-.002h-.001l-.002-.002-.001-.001-.002-.001-.001-.001-.002-.001-.001-.002h-.002l-.001-.002-.002-.001-.001-.001-.002-.001-.001-.002h-.002l-2.405 3.195.001.002h.002l.002.002.001.001.002.001.001.001.002.002h.001l.002.002.001.001.002.001.001.001.002.001.001.002h.002l.001.002.002.001.001.001.002.001.001.001.002.002h.001l.002.002h.001l.002.002.001.001.002.001.001.001.002.002h.001l.002.002h.001l.002.002a443367433.68 443367433.68 0 0 1 .004.003l.002.001.001.002h.002l.001.002h.001l.002.002.001.001.002.001.001.001.002.001.001.001.002.001.001.002h.002v.002h.002l.002.002h.001l.002.002.001.001.002.001v.001l.002.001.002.001.001.001.002.002h.001l.001.002h.002l.001.002h.002l.001.002h.001l.002.002.001.001.002.001.001.001.001.001.002.001.001.001.002.001v.001l.002.001.002.001.001.001.001.001.002.002h.001l.002.002.002.002h.002l.001.002h.001l.002.002h.001l.001.002h.002l.001.002h.001l.002.002h.001l.002.002.002.002h.002v.002h.002l.001.002h.002l.001.002h.001l.002.002h.001l.001.002h.002l.001.002h.001l.002.002.002.002h.002v.002h.002l.001.002h.002v.001l.002.001.002.001v.001l.002.001.001.001.002.001v.001l.002.001.001.001.002.001v.001h.002l.001.002h.002v.002h.002l.002.002.002.002h.001l.001.001.002.001v.001l.002.001.001.001.002.001.002.002h.001l.002.002.002.002h.001l.001.001.002.001v.001l.002.001.001.001h.001l.002.002.002.002h.001l.001.001.002.001v.001l.002.001.001.001h.001l.002.002.002.002h.001l.001.001.001.001.002.001v.001h.002l.001.002h.001l.001.002h.002v.001l.002.001h.001l.001.002h.001l.001.002a263882692.8 263882692.8 0 0 1 .004.002h.001l.001.002h.001l.001.002h.002v.001l.002.001.002.002h.001l.001.001.001.001.001.001h.002v.002h.002v.001l.002.001.001.001h.001l.001.002h.001l.001.001.002.001.002.002.002.001v.001l.002.001h.001l.001.002h.001l.001.001.001.001h.001l.001.002h.001l.002.001v.001h.002v.002h.002v.001h.002v.002h.002v.001l.002.001.002.002h.001l.001.001h.001l.001.002h.001l.001.001h.001l.001.002h.001l.001.001.001.001h.001l.001.002h.001l.001.001h.001l.001.002h.001l.001.001h.001l.001.002h.002l.001.002h.001l.001.001.002.002.002.001.002.002h.002v.002h.002v.001h.002v.002h.002l.001.002h.001l.001.001h.001l.001.002h.002v.002h.002l.002.002.001.001h.001l.001.001.001.001h.001v.001l.002.001.002.002h.001l.001.002h.002l.001.002h.002v.002h.002l.001.001.001.001h.001v.001l.002.001.001.001.001.001h.001l.001.001.002.002h.001l.001.002h.001l.002.001v.001h.001l.001.001h.001v.002h.002l.001.001h.001l.001.002h.002v.001l.001.001h.001v.001h.002v.001l.001.001h.001v.001h.002v.001l.001.001.002.001.001.001h.001v.002h.002l.001.001.002.001.001.002h.002v.001h.001v.001h.002v.002h.001l.002.001.001.001.002.001.001.001v.001h.002v.001l.002.001.001.001.002.001v.001h.002v.001l.002.001.001.002h.001l.001.001.001.001h.001v.001h.001l.001.001.002.001v.001h.001l.001.001.001.001h.001v.001h.001l.001.001h.001v.001h.002v.001l.001.001h.001v.001h.001v.001h.002v.001l.001.001h.001v.001h.001l.001.001h.001v.001h.001v.001h.001l.001.001h.001v.001h.001v.001h.002v.001h.001v.001h.001v.001h.002v.001h.001v.001h.001v.001h.001v.001h.002v.001h.001v.001h.001l.001.001.001.001h.001v.001h.001l.001.001.001.001h.001v.001h.001l.001.001.001.001h.001v.001h.001l.001.001h.001v.001h.001v.001h.001l2.405-3.196Zm-3.048-.281c.2-.179.351-.177.25-.163l.559 3.961c.591-.083 1.277-.299 1.854-.813l-2.663-2.985Zm.25-.163c-.495.07-1.093.211-1.628.546l2.12 3.392a.747.747 0 0 1-.096.051c-.018.008-.024.01-.017.008a1.785 1.785 0 0 1 .18-.035l-.56-3.962Zm-.941.277c-.667.127-1.539.415-2.537.795l1.423 3.738c.97-.369 1.563-.547 1.86-.603l-.746-3.93Zm-2.496.78c-.505.18-.927.336-1.257.468-.277.111-.635.26-.906.43l2.12 3.392c-.063.04-.084.045-.01.01a6.79 6.79 0 0 1 .283-.118 31.88 31.88 0 0 1 1.111-.414l-1.341-3.768Zm-3.038 2.09-.46 1.763 3.872 1.007.458-1.762-3.871-1.007Zm-.428 1.657a36.1 36.1 0 0 0-1.048 3.967l3.924.773c.202-1.023.51-2.196.934-3.523l-3.81-1.217Zm-1.04 3.928-1.137 5.215 3.908.852L11.3 27.17l-3.908-.852Zm-1.098 5.065c-.133.441-.315 1.321-.539 2.499l3.93.745c.236-1.243.38-1.894.44-2.092l-3.831-1.152Zm-.543 2.523c-.107.605-.19 1.117-.244 1.524-.046.353-.094.782-.074 1.136l3.993-.228c.004.066-.001.074.006-.022.007-.08.02-.199.04-.361.044-.326.115-.773.217-1.351l-3.938-.698ZM5.43 36.45c0 .17-.054.747-.208 1.886l3.963.54c.146-1.072.244-1.93.245-2.42l-4-.006Zm-.207 1.875c-.153 1.077-.245 2.046-.184 2.742l3.985-.35c-.017-.188.005-.743.16-1.83l-3.96-.562Zm-.172 2.847a1.208 1.208 0 0 1 .093-.628l3.684 1.558c.22-.52.247-1.041.184-1.49l-3.961.56Zm.039-.485a.772.772 0 0 1-.026.073c.001-.002.012-.03.032-.072a1.714 1.714 0 0 1 .188-.306l3.196 2.406c.195-.26.297-.539.3-.549.038-.093.072-.191.102-.28L5.09 40.686Zm.607-.713a.155.155 0 0 1-.017.011c-.002.001-.002.001 0 0a.08.08 0 0 1 .02-.006l.56 3.961a3.967 3.967 0 0 0 1.807-.744l-2.37-3.222Zm.004.005c.026-.003.03-.003-.007 0l-.14.01a27.61 27.61 0 0 1-.531.025l.162 3.997c.431-.017.838-.038 1.075-.07l-.56-3.962Zm14.583-2.513 1.13-1.65-1.13 1.65ZM18.48 32.7l1.999-.067v-.024l-.002-.023-1.997.114Zm.336-2.38-1.93-.523-.006.02-.005.019 1.94.484Zm1.262-3.077-1.737-.992-.008.014-.007.014 1.752.964Zm2.206-2.397 1.087 1.68.007-.005.007-.005-1.1-1.67Zm1.05-.573.718 1.867.067-.025.065-.03-.85-1.811Zm3.381-.088-.779 1.842.016.007.016.006.747-1.855Zm1.414 1.002-1.622 1.17.024.033.025.031 1.573-1.234Zm-.954 5.26-1.534-1.282-.01.012-.011.013 1.555 1.257Zm-2.551 1.456.28 1.98.061-.008.062-.013-.403-1.959Zm-1.648.092-.167 1.993.051.004.052.002.064-2Zm-1.6.438 1.957.413-1.957-.413Zm.043 1.301-1.98.28.014.106.026.103 1.94-.489Zm.71 1.279-1.132 1.648.033.023.034.021 1.065-1.692Zm2.272-.18 1.05 1.702.044-.027.042-.029-1.136-1.646Zm1.195-1.052 1.432 1.396.026-.027.025-.027-1.483-1.342Zm.59-.578-1.225-1.581 1.225 1.58Zm1.356.09 1.203-1.597-1.203 1.598Zm.563.734 2 .05.006-.257-.059-.25-1.947.457Zm-.586 1.356-1.7-1.053 1.7 1.053Zm-1.592 1.744 1.252 1.56-1.252-1.56Zm-1.383-7.793-1.136-1.646-.045.032-.044.034 1.225 1.58Zm1.538-2.126 2-.032-.002-.124-.018-.123-1.98.28Zm-.39-.51-1.094 1.674.11.072.118.057.866-1.803Zm-.841-.2-.016-2-.133.002-.131.018.28 1.98Zm-1.59 1.003 1.514 1.306.003-.004-1.518-1.302Zm-1.217 1.903-1.817-.835-.338.735.268.763 1.887-.663Zm.564.239-.275 1.98.067.01.067.005.141-1.995Zm.741 6.5c-.927.131-1.514-.04-1.935-.329l-2.26 3.3c1.405.963 3.048 1.23 4.755.99l-.56-3.96Zm-1.935-.329c-.341-.233-.673-.659-.808-1.611l-3.96.559c.25 1.773 1.023 3.336 2.508 4.353l2.26-3.3Zm-.808-1.611a14.903 14.903 0 0 1-.127-1.57l-3.998.134c.024.713.077 1.38.164 1.995l3.961-.56Zm-.13-1.617c-.014-.254.038-.812.28-1.782l-3.881-.968c-.27 1.081-.441 2.11-.392 2.978l3.994-.228Zm.27-1.743c.234-.862.59-1.74 1.084-2.635l-3.504-1.93a15.936 15.936 0 0 0-1.44 3.519l3.86 1.046Zm1.068-2.608c.447-.781.97-1.33 1.557-1.71l-2.173-3.358c-1.185.766-2.132 1.815-2.857 3.084l3.473 1.984Zm1.57-1.719c.35-.23.566-.336.668-.376l-1.435-3.733c-.479.184-.964.46-1.433.769l2.2 3.34Zm.8-.432c.069-.032.208-.081.45-.116l-.559-3.96a5.56 5.56 0 0 0-1.59.455l1.7 3.621Zm.45-.116c.727-.102 1.119-.019 1.302.059l1.558-3.684c-1.069-.452-2.252-.5-3.419-.335l.56 3.96Zm1.334.072c.433.174.539.316.54.317l3.244-2.34c-.586-.812-1.423-1.338-2.29-1.687l-1.494 3.71Zm.588.381c.095.122.14.199.156.232.017.034-.007 0-.02-.096l3.96-.56c-.115-.816-.528-1.507-.949-2.044l-3.147 2.468Zm.136.136.024.173 3.961-.56-.024-.173-3.961.56Zm.024.173.015.104 3.96-.56-.014-.103-3.96.559Zm.015.104c-.016-.11-.01-.17-.01-.15a1.528 1.528 0 0 1-.02.143 8.238 8.238 0 0 1-.186.783l3.853 1.075c.12-.43.216-.831.277-1.19.054-.318.11-.768.047-1.22l-3.961.559Zm-.216.776c-.13.464-.396.983-.874 1.555l3.07 2.564c.771-.923 1.348-1.938 1.657-3.044l-3.853-1.075Zm-.895 1.58c-.262.324-.672.605-1.399.754l.806 3.918c1.471-.302 2.762-.992 3.704-2.158L25.62 29.19Zm-1.276.733a7.594 7.594 0 0 1-1.305.073l-.127 3.998c.662.02 1.327-.017 1.992-.11l-.56-3.961Zm-1.202.079c-.278-.024-.526-.04-.736-.048a4.127 4.127 0 0 0-.705.024l.56 3.96c-.084.013-.132.012-.108.011l.108.002c.122.005.302.016.548.037l.333-3.986Zm-1.44-.024c-.4.056-.906.2-1.367.562a2.53 2.53 0 0 0-.916 1.479l3.914.827a1.47 1.47 0 0 1-.53.841c-.259.204-.49.244-.543.252l-.559-3.961Zm-2.283 2.04c-.135.639-.068 1.377.02 1.996l3.96-.56a5.442 5.442 0 0 1-.056-.56c-.004-.14.008-.136-.01-.048l-3.914-.828Zm.06 2.205c.2.795.6 1.807 1.518 2.438l2.264-3.297c.16.11.213.213.204.196a.69.69 0 0 1-.038-.088 2.178 2.178 0 0 1-.07-.227l-3.878.978Zm1.585 2.482c.873.55 1.848.606 2.681.488l-.56-3.96a1.155 1.155 0 0 1-.138.011h-.035a.27.27 0 0 1 .061.016.623.623 0 0 1 .122.06l-2.131 3.385Zm2.681.488c.645-.091 1.223-.36 1.706-.658l-2.1-3.404a1.38 1.38 0 0 1-.195.104c-.034.014-.022.005.03-.003l.559 3.961Zm1.792-.714c.492-.339.992-.79 1.491-1.302l-2.864-2.792c-.406.416-.703.667-.898.802l2.271 3.292Zm1.542-1.356c.103-.114.185-.2.248-.261.066-.065.092-.085.084-.079l-2.45-3.161a6.959 6.959 0 0 0-.848.816l2.966 2.685Zm.332-.34a.852.852 0 0 1-.376.178l-.559-3.96a3.174 3.174 0 0 0-1.515.62l2.45 3.162Zm-.376.178a1.325 1.325 0 0 1-.667-.066c-.085-.034-.097-.055-.028-.003l2.405-3.196c-.405-.305-1.23-.842-2.269-.696l.56 3.961Zm-.695-.07c.052.04.036.038-.006-.017a1.031 1.031 0 0 1-.176-.389l3.894-.915c-.21-.895-.808-1.499-1.307-1.874l-2.405 3.196Zm-.234-.913a1.01 1.01 0 0 1 .03-.237c.006-.02.004-.007-.018.044a4.544 4.544 0 0 1-.3.545l3.401 2.106a8.39 8.39 0 0 0 .57-1.063c.136-.314.303-.775.316-1.296l-4-.1Zm-.287.352c-.244.393-.61.81-1.143 1.237l2.503 3.12c.821-.659 1.516-1.405 2.04-2.251l-3.4-2.106Zm-1.143 1.237a2.65 2.65 0 0 1-1.327.576l.56 3.96a6.649 6.649 0 0 0 3.27-1.416l-2.503-3.12Zm-.734-3.987c.28-.04.57-.095.848-.178.252-.076.628-.214.98-.487l-2.451-3.162a1.408 1.408 0 0 1 .25-.154c.047-.022.072-.029.066-.027a2.936 2.936 0 0 1-.252.047l.56 3.961Zm1.738-.6c.514-.354.992-.942 1.38-1.457l-3.197-2.405a7.52 7.52 0 0 1-.411.51 1.75 1.75 0 0 1-.095.098c-.017.016.001-.003.051-.038l2.272 3.292Zm1.38-1.457c.233-.31.45-.623.616-.921.11-.197.416-.75.406-1.426l-4 .064a1.432 1.432 0 0 1 .084-.542c.022-.062.036-.08.016-.045a2.48 2.48 0 0 1-.106.169 6.68 6.68 0 0 1-.213.296l3.196 2.405Zm1.002-2.594c-.135-.955-.733-1.663-1.505-2.034l-1.731 3.606a1.371 1.371 0 0 1-.724-1.013l3.96-.56Zm-1.277-1.906c-.65-.424-1.363-.529-1.95-.524l.031 4c.05-.001.045.004-.002-.007a.864.864 0 0 1-.266-.12l2.187-3.349Zm-2.214-.505-.381.054.559 3.96.381-.053-.56-3.96Zm-.381.054c-.663.093-1.172.432-1.483.675-.343.27-.666.603-.965.952l3.036 2.604c.1-.116.184-.207.254-.277.071-.07.119-.111.144-.131.027-.021.012-.006-.043.022a1.228 1.228 0 0 1-.384.116l-.56-3.961Zm-2.445 1.622a10.04 10.04 0 0 0-1.518 2.375l3.634 1.671c.25-.543.555-1.018.914-1.433l-3.03-2.613Zm-1.588 3.873c.304.864 1.017 1.213 1.279 1.323.326.138.654.2.897.234l.55-3.962c-.093-.013-.027-.014.11.044.075.032.228.104.398.247.177.15.406.405.54.789l-3.774 1.325Zm2.31 1.57c.489.035.982.013 1.475-.057l-.56-3.96c-.245.034-.455.04-.632.028l-.283 3.99Zm17.92-8.251-1.536 1.28.03.037.033.035 1.473-1.352Zm.622 1.149-1.94.485.013.05.015.05 1.912-.585Zm.236 1.168-1.995.148.005.066.01.066 1.98-.28Zm.123.62 1.989.208.052-.497-.188-.463-1.853.751Zm-.487 3.815 1.98.287v-.008l-1.98-.28Zm-.305 1.846 1.995.141-3.988-.298 1.993.157Zm-.154.905-1.953-.433-.008.036-.007.036 1.968.361Zm-.19 1.406-1.998-.115-.002.033v.032l2 .05Zm-.324.964 1.436 1.392.01-.01.01-.01-1.456-1.372Zm-.863.652.752 1.854.161-.066.147-.092-1.06-1.696Zm-.267.109.28 1.98.243-.034.229-.093-.752-1.853Zm-.544-.1-1.077 1.685.127.081.137.061.813-1.827Zm-.544-.348-1.751.967.246.445.428.274 1.077-1.686Zm-.339-1.896 1.953.434.013-.061.01-.062-1.976-.31Zm.47-3.177 1.981.28.002-.01-1.982-.27Zm.461-3.246 1.978.296v-.002l-1.978-.294Zm.146-.975 1.978.294.012-.08.005-.08-1.995-.134Zm-.053-1.124 1.953-.43-.326-1.48-1.513-.086-.114 1.996Zm-1.827.329-.752-1.853-1.13.458-.11 1.214 1.992.181Zm-.49 2.543-1.922-.548-.004.012-.004.013 1.93.523Zm-1.173 3.7 1.889.658.003-.01-1.892-.647Zm-1.098 2.489 1.752.964.005-.009-1.757-.955Zm-.338.613 1.581 1.225.096-.123.075-.137-1.752-.965Zm-1.076 1.39 1.433 1.394.079-.08.069-.09-1.581-1.225Zm-.957.983-1.434-1.395-.025.026-.024.026 1.483 1.343Zm-.421.271-.557-1.92-.131.037-.125.056.813 1.827Zm-.515.108-.032-2-.125.002-.123.018.28 1.98Zm-.45.064-.316 1.975.297.047.298-.042-.28-1.98Zm-.95-.467-1.331 1.493.032.028.033.028 1.266-1.549Zm-.598-.481-1.721 1.02.278.469.478.263.965-1.752Zm-.232-.392-1.98.28.055.396.204.344 1.72-1.02Zm.005-.46-1.842-.779-.03.07-.024.074 1.896.635Zm.377-.583 1.598 1.202.156-.206.098-.24-1.852-.756Zm.882-.514-.36 1.968 1.03.189.742-.74-1.412-1.417Zm.749-.706 1.352 1.473.03-.028.03-.029-1.412-1.416Zm.798-.855 1.533 1.285.006-.008-1.539-1.277Zm.526-.781 1.783.906.004-.007.003-.008-1.79-.891Zm1.446-3.28-1.848-.767-.005.013 1.853.754Zm.815-2.483 1.924.549.604-2.119-2.167-.397-.36 1.967Zm-.435-.08-.635 1.896.134.045.14.026.361-1.967Zm-.45-.184-1.82.83.323.709.718.303.779-1.842Zm-.666-1.461-1.98.28.04.286.12.263 1.82-.83Zm.68-1.192-.702-1.873-.025.01-.025.01.752 1.853Zm1.793-.571-.514-1.933-.022.006-.021.006.557 1.92Zm1.421-.448.726 1.863.063-.024.06-.029-.849-1.81Zm2.906-.199.558-1.92-.013-.004-.012-.003-.533 1.927Zm-.183 2.23c.085.093.13.18.155.283l3.88-.97a4.614 4.614 0 0 0-1.088-2.017l-2.947 2.705Zm.183.383c.099.324.141.564.153.73l3.99-.294a7.385 7.385 0 0 0-.318-1.606l-3.825 1.17Zm.167.863c.037.259.103.729.25 1.09l3.707-1.502a1.464 1.464 0 0 1 .054.158l-.003-.017a5.794 5.794 0 0 1-.047-.288l-3.96.56Zm.115.13a113 113 0 0 1-.478 3.746l3.96.558c.226-1.597.392-2.895.496-3.886l-3.978-.418Zm-.477 3.738c-.114.782-.193 1.31-.24 1.595-.033.198-.033.168-.008.076a1.904 1.904 0 0 1 .151-.38c.032-.061.151-.288.385-.513.21-.2 1.002-.832 2.08-.433.83.308 1.111 1.012 1.148 1.098a1.986 1.986 0 0 1 .15.61c.013.17-.002.304.003.221l-3.99-.283s-.017.189-.001.381a2.007 2.007 0 0 0 .151.623c.037.088.319.793 1.15 1.1 1.078.4 1.872-.232 2.081-.433a2.006 2.006 0 0 0 .548-.924c.045-.162.08-.38.098-.49.055-.33.14-.893.253-1.674l-3.959-.574Zm-.32 1.976a5.396 5.396 0 0 1-.113.629l3.905.867c.093-.418.168-.828.196-1.183l-3.987-.313Zm-.128.701a13.847 13.847 0 0 0-.22 1.652l3.994.229a10.1 10.1 0 0 1 .16-1.159l-3.934-.722Zm-.222 1.717c-.004.14-.032-.09.22-.358l2.911 2.744c.663-.703.85-1.576.867-2.287l-3.998-.1Zm.24-.377c0-.002-.008.008-.03.026a1.825 1.825 0 0 1-.095.076 5.014 5.014 0 0 1-.361.245l2.12 3.392c.443-.277.888-.594 1.238-.956l-2.873-2.783Zm-.178.19-.267.108 1.503 3.707.267-.108-1.503-3.707Zm.204-.019c.318-.044.522.042.548.053l-1.625 3.655c.428.19.996.344 1.637.253l-.56-3.96Zm.812.195-.544-.347-2.153 3.371.544.347 2.153-3.37Zm.13.372a4.695 4.695 0 0 1-.205-.408c-.017-.04-.02-.055-.019-.048a.903.903 0 0 1 .03.142l-3.96.56c.086.614.407 1.24.653 1.687l3.502-1.933Zm-.194-.314a.764.764 0 0 1 .009.104l.001-.014a2.47 2.47 0 0 1 .048-.272l-3.905-.867c-.1.452-.194 1.036-.114 1.608l3.961-.559Zm.081-.305c.139-.881.297-1.951.475-3.208l-3.96-.56a206.565 206.565 0 0 1-.466 3.146l3.951.622Zm.477-3.218c.172-1.268.325-2.34.456-3.22l-3.956-.593c-.135.903-.29 1.994-.464 3.273l3.963.54Zm.457-3.222.145-.974-3.957-.59-.145.975 3.957.59Zm.162-1.135c.038-.558.026-1.14-.095-1.688l-3.906.861c.01.045.033.213.01.559l3.991.268Zm-1.934-3.254c-.352-.02-.797.038-1.126.084l.559 3.96c.168-.023.287-.037.366-.044l.062-.005c.01 0-.027.002-.09-.002l.23-3.993Zm-1.126.084c-.538.076-1.084.192-1.567.388l1.504 3.706c.052-.02.236-.079.622-.133l-.56-3.96Zm-2.807 2.06a11.882 11.882 0 0 1-.42 2.176l3.846 1.097c.282-.989.471-1.96.558-2.91l-3.984-.363Zm-.428 2.201c-.215.794-.59 1.979-1.136 3.577l3.785 1.294c.554-1.62.962-2.903 1.212-3.825l-3.86-1.046Zm-1.132 3.567a14.645 14.645 0 0 1-.966 2.19l3.514 1.91c.483-.889.893-1.818 1.23-2.786l-3.778-1.314Zm-.961 2.18-.338.614 3.504 1.928.338-.613-3.504-1.929Zm-.167.353-1.076 1.39 3.162 2.45 1.076-1.39-3.162-2.45Zm-.929 1.22-.957.983 2.867 2.79.957-.984-2.867-2.79Zm-1.006 1.035c.1-.11.27-.239.505-.307l1.114 3.842a2.901 2.901 0 0 0 1.346-.85l-2.965-2.685Zm.249-.213a.704.704 0 0 1 .266-.065l.064 4a3.3 3.3 0 0 0 1.296-.28l-1.626-3.655Zm.018-.045h-.006l-.002.001h-.006l-.001.001h-.006l-.002.001h-.004l-.002.001h-.006l-.001.001h-.007v.001h-.006v.001h-.007l-.001.001h-.007v.001h-.006l-.002.001h-.006v.001h-.007l-.001.001h-.006l-.001.001H30.1l-.001.001h-.006l-.001.001h-.006l-.001.001h-.006l-.001.001h-.006l-.001.001h-.006l-.001.001h-.007v.001h-.006l-.002.001h-.005l-.001.001h-.007l-.001.001h-.006v.001h-.007l-.001.001h-.006v.001h-.007l-.001.001h-.006v.001h-.007l-.001.001h-.006l-.002.001h-.005l-.002.001h-.005l-.001.001h-.006l-.001.001h-.007v.001h-.006l-.002.001h-.005l-.002.001h-.005l-.002.001h-.005l-.002.001h-.006l-.001.001h-.006l-.001.001h-.006v.001h-.007l-.001.001h-.006l-.001.001h-.007v.001h-.007v.001h-.006l-.001.001h-.006l-.002.001h-.006v.001h-.007v.001h-.007l-.001.001h-.006l-.001.001h-.006v.001h-.007v.001h-.008v.001h-.006l-.001.001h-.006l-.001.001h-.006l-.001.001h-.007v.001h-.006l-.002.001h-.005l-.002.001h-.005l-.002.001h-.005l-.002.001h-.006l-.001.001h-.003l.559 3.961h.008v-.001h.006l.002-.001h.005l.002-.001h.006v-.001h.007v-.001h.007l.001-.001h.005l.002-.001h.006l.001-.001h.006l.002-.001h.006v-.001h.006l.001-.001h.006l.001-.001h.007v-.001h.007v-.001h.007v-.001h.007l.001-.001h.006v-.001h.007v-.001h.007l.001-.001h.005l.002-.001h.006l.001-.001h.006v-.001h.008v-.001h.007V39.6h.006l.001-.001h.006l.001-.001h.007l.001-.001h.006l.001-.001h.006l.001-.001h.006l.001-.001h.006l.001-.001h.006v-.001h.007v-.001h.007l.001-.001h.007v-.001h.006l.001-.001h.006l.002-.001h.005l.001-.001h.007v-.001h.006l.001-.001h.007l.001-.001h.005l.002-.001h.006v-.001h.007l.001-.001h.006l.001-.001h.006l.001-.001h.006l.001-.001h.006l.001-.001h.006l.001-.001h.007l.001-.001h.005l.001-.001h.006l.001-.001h.007v-.001h.006l.002-.001h.006l.001-.001h.006l.001-.001h.006l.002-.001h.004l.002-.001h.006l.001-.001h.006l.002-.001h.005l.001-.001h.006l.002-.001h.006l.001-.001h.002L30.2 35.6Zm.144.069c.03.005.053.01.07.016l.025.01-.006-.003a.83.83 0 0 1-.088-.063l-2.53 3.097c.512.419 1.147.773 1.9.893l.63-3.95Zm.067.015c-.252-.224-.626-.553-.965-.74l-1.929 3.504a1.28 1.28 0 0 1-.107-.066l.044.035c.063.05.16.132.294.253l2.663-2.986Zm-.21-.008-.231-.391-3.441 2.04.232.39 3.44-2.039Zm.029.349c-.005-.037 0-.021-.001.033a1.53 1.53 0 0 1-.077.422l-3.793-1.271c-.19.564-.127 1.11-.09 1.375l3.96-.56Zm-.133.598a.924.924 0 0 1-.043.09l.015-.023c.029-.044.08-.118.161-.227l-3.196-2.405c-.197.262-.462.63-.62 1.007l3.683 1.558Zm.387-.606a1.092 1.092 0 0 1-.287.385 1.384 1.384 0 0 1-.72.335l-.56-3.96c-1.149.162-1.827.97-2.136 1.727l3.703 1.513Zm-1.007.72c.018-.002.003 0-.037.002-.033 0-.14.003-.287-.024l.722-3.935a3.01 3.01 0 0 0-.957-.004l.559 3.961Zm1.45-.573c.134-.135.36-.348.688-.65l-2.705-2.947c-.339.312-.613.57-.808.764l2.824 2.833Zm.748-.707c.354-.353.665-.684.919-.986l-3.066-2.57c-.15.179-.37.418-.677.723l2.824 2.833Zm.925-.994c.297-.357.56-.74.77-1.152L29.804 31.5a2.226 2.226 0 0 1-.282.41l3.078 2.555Zm.777-1.167c.436-.875.94-2.02 1.508-3.416l-3.705-1.509c-.55 1.354-1.011 2.395-1.383 3.142l3.58 1.783Zm1.503-3.404c.274-.66.57-1.577.892-2.701l-3.847-1.098c-.31 1.085-.556 1.824-.74 2.265l3.695 1.534Zm-.67-5.217-.436-.08-.722 3.934.435.08.722-3.934Zm-.162-.01.036.013-.064-.026a26.279 26.279 0 0 1-.278-.116l-1.558 3.684c.212.09.452.19.594.238l1.27-3.792Zm.735.884-.666-1.462-3.64 1.66.666 1.46 3.64-1.658Zm-.506-.912a.918.918 0 0 1-.134.54.935.935 0 0 1-.414.401l-1.504-3.706c-.572.232-1.168.641-1.556 1.322-.387.68-.438 1.397-.352 2.002l3.96-.559Zm-.597.96c.33-.123.868-.296 1.647-.522l-1.114-3.842a28.38 28.38 0 0 0-1.938.62l1.405 3.745Zm1.603-.51a15.633 15.633 0 0 0 1.634-.518l-1.452-3.727c-.287.112-.684.24-1.209.379l1.027 3.866Zm1.758-.57c.05-.025.206-.082.52-.126L37 20.43c-.564.08-1.136.22-1.66.465l1.7 3.621Zm.52-.126a2.44 2.44 0 0 1 1.003.044l1.066-3.855a6.428 6.428 0 0 0-2.63-.15l.56 3.96Zm.978.037c.062.018.165.061.312.238l3.073-2.56c-.59-.71-1.348-1.252-2.27-1.52L38.54 24.43Zm4.707 3.22-1.942-.476-.002.008-.002.009 1.947.459Zm1.522-3.997-1.752-.965-.004.006 1.756.959Zm2.147-2.566 1.078 1.685.047-.03.045-.032-1.17-1.623Zm4.277-.25-.787 1.838.032.014.033.013.722-1.865Zm-.388 7.266 1.46 1.366.006-.006-1.466-1.36Zm-4.768.531 1.15-1.637-2.194-1.539-.852 2.54 1.896.636Zm.128 3.658-1.71 1.037.014.024.015.023 1.681-1.084Zm2.183-.06 1.084 1.68-1.084-1.68Zm1.294-1.102-1.136-1.646-.102.07-.093.083 1.33 1.493Zm.129-.09 1.136 1.647-1.416-3.626.28 1.98Zm-.035.006-1.206-1.596-6.157 4.655 7.643-1.079-.28-1.98Zm.828-.647 1.286 1.53.023-.018.022-.02-1.331-1.492Zm.48-.35-.28-1.981-.32.045-.291.145.891 1.79Zm1.015.174.897-1.787-.897 1.787Zm.096 1.93 1.71 1.038.01-.018.012-.02-1.732-1Zm-1.13 1.256-1.101-1.67-.018.012-.018.012 1.136 1.646Zm-.387.267L49.5 32.028l1.415 3.627-.28-1.98Zm.034-.005 1.752.964 1.93-3.504-3.961.56.28 1.98Zm-.842.543-.28-1.98-1.224.172-.392 1.172 1.896.636Zm-.858.686-.914-1.778-.013.006-.012.007.94 1.765Zm.684-9.18-1.727-1.01-.013.022-.012.023 1.752.965Zm.117-2.42-1.595 1.206.049.064.054.06 1.492-1.33Zm-1.767.497-1.423-1.406 1.422 1.406Zm-1.077 1.636 1.83.805.003-.005-1.833-.8Zm-.348.792-1.831-.805-2.836 6.454 5.803-4.003-1.136-1.646Zm.648.085 1.58-1.226-1.58 1.226Zm.37.372 1.203-1.598L47.6 26.68Zm-.323 6.72c-.939.133-1.338-.071-1.538-.243-.25-.215-.611-.747-.788-2.003l-3.961.56c.246 1.747.861 3.375 2.14 4.475 1.33 1.144 3.012 1.412 4.707 1.173l-.56-3.961Zm-2.326-2.246c-.11-.77-.056-1.772.244-3.048L41.3 27.19c-.377 1.601-.51 3.123-.312 4.524l3.96-.559Zm.24-3.03c.322-1.314.77-2.481 1.334-3.515l-3.51-1.917c-.747 1.367-1.313 2.864-1.71 4.48l3.886.952Zm1.33-3.509c.596-1.082 1.113-1.614 1.474-1.845l-2.156-3.37c-1.152.738-2.067 1.916-2.822 3.286l3.505 1.93Zm1.566-1.907c.103-.075.276-.16.585-.204l-.559-3.96c-.846.118-1.656.407-2.366.92l2.34 3.244Zm.585-.204c.74-.104 1.295-.019 1.735.17l1.574-3.678c-1.216-.52-2.527-.642-3.868-.453l.56 3.96Zm1.8.196c.018.007.03.007.064.061.053.081.153.288.213.717l3.96-.56c-.232-1.651-1.02-3.262-2.793-3.948L50.47 22.7Zm.277.778c.038.27.008.73-.275 1.445l3.72 1.47c.447-1.132.68-2.311.516-3.474l-3.96.559Zm-.275 1.445c-.276.7-.654 1.3-1.134 1.817l2.932 2.721a9.72 9.72 0 0 0 1.923-3.069l-3.72-1.469Zm-1.129 1.811c-.425.455-.699.535-.81.551l.559 3.96c1.275-.18 2.329-.876 3.173-1.779l-2.922-2.732Zm-.81.551c-.57.08-.979-.031-1.348-.29l-2.297 3.274c1.253.88 2.695 1.19 4.204.977l-.56-3.961Zm-4.393.712c-.358 1.07-.508 2.165-.355 3.25l3.96-.559c-.048-.347-.017-.808.188-1.42l-3.793-1.271Zm-.355 3.25c.098.696.283 1.443.67 2.08l3.42-2.074c.016.027-.002.005-.034-.099a3.202 3.202 0 0 1-.095-.466l-3.96.56Zm.698 2.127c.81 1.256 2.179 1.325 2.995 1.21l-.56-3.96c-.08.01.023-.019.22.041.244.074.52.251.707.541l-3.362 2.168Zm2.995 1.21c.649-.091 1.343-.28 1.953-.674l-2.168-3.361c.03-.02.027-.011-.033.008-.06.02-.16.045-.311.067l.559 3.96Zm1.953-.674a6.95 6.95 0 0 0 1.07-.846l-2.782-2.874a2.98 2.98 0 0 1-.456.359l2.168 3.361Zm1.07-.846c.223-.215.376-.36.471-.444l-2.662-2.985c-.157.14-.357.329-.59.555l2.781 2.874Zm.276-.29.129-.089-2.272-3.292-.129.089 2.272 3.292ZM49.49 29.06l-.035.005.56 3.96.034-.005-.559-3.96Zm1.451 3.58c.387-.292.698-.534.908-.711l-2.573-3.062c-.126.106-.367.295-.747.582l2.412 3.191Zm.953-.75a2.068 2.068 0 0 1 .109-.09.744.744 0 0 1-.068.037l-1.783-3.58a4.293 4.293 0 0 0-.92.648l2.662 2.985Zm-.571.137a.351.351 0 0 1-.106-.002c-.039-.007-.059-.017-.056-.016l1.794-3.574a3.688 3.688 0 0 0-2.191-.368l.559 3.96Zm-.163-.018a.888.888 0 0 1-.278-.24 1.19 1.19 0 0 1-.246-.569l3.96-.559c-.154-1.095-.869-1.819-1.64-2.206l-1.796 3.574Zm-.524-.809a1.506 1.506 0 0 1 .004-.444c.012-.064.023-.086.012-.057a1.8 1.8 0 0 1-.07.158c-.04.08-.092.177-.16.295l3.464 2c.198-.343.38-.7.511-1.047.108-.288.288-.838.2-1.464l-3.961.56Zm-.192-.085c-.242.398-.43.563-.521.623l2.2 3.34c.729-.48 1.294-1.152 1.74-1.888l-3.42-2.075Zm-.557.647-.386.266 2.271 3.293.387-.267-2.272-3.292Zm1.03 3.893.034-.005-.56-3.96-.034.004.56 3.961Zm-1.998-2.95c-.014.026.027-.06.153-.172.14-.125.395-.289.755-.34l.559 3.961c1.152-.163 1.765-1.026 2.037-1.52l-3.504-1.929Zm.908-.512-.278.04.56 3.96.277-.039-.56-3.96Zm-1.894 1.384a1.52 1.52 0 0 1 .262-.483.855.855 0 0 1 .12-.122c.002-.002-.067.05-.258.149l1.83 3.557a5.6 5.6 0 0 0 .928-.584c.245-.196.694-.6.91-1.246l-3.792-1.27Zm.099-.443c-.31.165-.56.24-.757.268l.56 3.96a6.295 6.295 0 0 0 2.076-.697l-1.88-3.531Zm.426-4.378c1.32-.186 2.333-.954 2.949-2.073l-3.504-1.929a.44.44 0 0 1-.047.072c-.005.006-.001 0 .012-.01a.203.203 0 0 1 .04-.021c.011-.005.01-.003-.01 0l.56 3.961Zm2.923-2.027c.525-.897.834-1.935.678-3.046l-3.961.559c.001.01.005.04-.011.106a1.38 1.38 0 0 1-.159.36l3.453 2.02Zm.678-3.046a3.235 3.235 0 0 0-.794-1.716L48.28 24.63a.765.765 0 0 1-.182-.388l3.96-.56Zm-.691-1.59c-.507-.671-1.36-1.166-2.404-1.018l.559 3.96a1.495 1.495 0 0 1-.827-.124 1.365 1.365 0 0 1-.519-.406l3.19-2.413Zm-2.404-1.018c-1.008.142-1.801.727-2.382 1.315l2.845 2.811c.13-.13.21-.186.238-.203.025-.015-.025.02-.142.037l-.56-3.96Zm-2.382 1.315a7.318 7.318 0 0 0-1.487 2.242l3.666 1.6c.201-.462.43-.793.666-1.03l-2.845-2.812Zm-1.485 2.238-.348.791 3.662 1.61.348-.792-3.662-1.61Zm2.619 3.242c-.006.004-.052.036-.13.075a1.796 1.796 0 0 1-.528.16l-.56-3.96c-.55.077-.953.363-1.054.432l2.272 3.293Zm-.658.235c-.205.03-.485.02-.785-.102a1.518 1.518 0 0 1-.625-.469l3.16-2.45a2.452 2.452 0 0 0-2.31-.94l.56 3.961Zm-1.41-.57c.209.269.456.524.748.744l2.405-3.196c.029.021.03.028.008 0l-3.161 2.451Zm.748.744c.74.557 1.566.547 2.062.477l-.56-3.96a.914.914 0 0 1 .268.01c.164.026.4.099.636.277l-2.406 3.196Zm18.16 4.243.279 1.98.123-.017.12-.032-.523-1.93Zm-.441-.114.812-1.828-.228-.101-.247-.043-.337 1.972Zm-.906-.155-1.525 1.294.471.554.717.123.337-1.971Zm-.648-2.843-1.977-.3-.006.033-.004.034 1.987.233Zm.24-1.306-1.938-.495-.008.03-.007.032 1.952.433Zm.204-.806 1.942.476.93-3.8-3.624 1.47.752 1.854Zm-1.917.695.505 1.935.083-.022.082-.029-.67-1.884Zm-1.654.551-.693 1.876.738.273.725-.303-.77-1.846Zm-.485-.179.693-1.876-2.518-.93-.17 2.679 1.995.127Zm-.066 1.035-1.996-.128-.002.039-.001.039 1.999.05Zm-.316 2.519.475 1.942 1.071-.262.35-1.045-1.896-.636Zm-2.213.1-1.416 1.412.44.442.615.113.361-1.967Zm-.738-2.724-1.978-.29 1.978.29Zm.324-1.46 1.928.534.003-.01-1.93-.523Zm.285-1.241 1.975.315.003-.02.003-.02-1.981-.275Zm.006-.956-1.598-1.202-.498.662.116.82 1.98-.28Zm.772-2.795-1.943-.476-.003.012-.003.012 1.949.452Zm.623-3.093 2-.015v-.09l-.01-.091-1.99.197Zm2.219-.56-1.029 1.715.026.015.025.014.978-1.744Zm.804 1.689-1.828-.812-.08.18-.043.193 1.951.439Zm-.977 4.344-1.951-.439-.735 3.268 3.225-.903-.54-1.926Zm.797-.36-.28-1.98-.513.072-.413.313 1.206 1.595Zm2.253-.318.636-1.896-.448-.15-.468.066.28 1.98Zm.608.303-1.202 1.598 2.382 1.793.755-2.884-1.935-.507Zm.653-2.637-1.95-.44 1.95.44Zm.3-2.128 1.997.114-1.997-.114Zm.943-1.582.361-1.968-.88-.16-.706.547 1.225 1.58Zm.837.164-.396 1.96.396-1.96Zm.979.428-1.285 1.532.04.034.043.032 1.202-1.598Zm.578.837 1.967.361.093-.51-.165-.49-1.895.64Zm-.08.683-1.993-.173-.006.074-.001.074 2 .025Zm-.08.683-1.897-.636-.023.067-.017.069 1.936.5Zm-.39 1.504-1.936-.5-.008.033-.008.034 1.953.433Zm-.383 1.539 1.932.516.003-.01.003-.01-1.938-.496Zm-.705 4.27 1.967.361.023-.122.007-.125-1.997-.114Zm-.16 1.119 1.967.36.008-.042.006-.043-1.981-.275Zm-.17 1.296-2-.05v.092l2-.042Zm-.552 1.35.523 1.931.416-.113.332-.273-1.271-1.544Zm-.824-1.832a1.7 1.7 0 0 1 .409-.009c.091.01.158.025.194.035.068.017.09.03.048.012l-1.625 3.655c.16.071.356.148.57.204.19.05.542.123.963.064l-.56-3.961Zm.176-.106-.905-.155-.675 3.943.906.155.674-3.943Zm.282.523c-.058-.069-.14-.2-.18-.487l-3.961.56c.13.915.471 1.784 1.091 2.515l3.05-2.588Zm-.18-.487a3.204 3.204 0 0 1-.007-.828l-3.973-.467c-.073.62-.068 1.24.019 1.855l3.96-.56Zm-.016-.76c.068-.447.14-.837.215-1.174l-3.905-.867a21.43 21.43 0 0 0-.264 1.438l3.954.603Zm.2-1.112.21-.826-3.886-.952c-.027.11-.092.369-.2.787l3.876.99Zm-2.485-3.156c-.127.052-.71.264-1.835.664l1.34 3.769a80.383 80.383 0 0 0 1.998-.726l-1.503-3.707Zm-1.67.613c-.672.176-1.313.389-1.92.642l1.541 3.69c.418-.173.88-.328 1.389-.461l-1.01-3.87Zm-.456.611-.485-.179-1.386 3.752.485.18 1.386-3.753Zm-3.174 1.57-.066 1.034 3.992.255.066-1.034-3.992-.255Zm-.07 1.112c-.027 1.09-.129 1.683-.212 1.933l3.792 1.271c.282-.839.39-1.925.42-3.105l-4-.1Zm1.209.626a28.518 28.518 0 0 1-.655.152c-.036.007-.033.006-.006.002l.56 3.96a12.87 12.87 0 0 0 1.051-.229l-.95-3.885Zm-.661.154c.016-.002-.031.005-.168-.004a4.956 4.956 0 0 1-.548-.074l-.722 3.934c.65.12 1.354.195 1.997.105l-.56-3.961Zm.34.477a.618.618 0 0 1-.181-.389l-3.96.56a4.61 4.61 0 0 0 1.308 2.653l2.833-2.824Zm-.181-.389a2.198 2.198 0 0 1 .005-.632l-3.957-.581a6.199 6.199 0 0 0-.009 1.773l3.96-.56Zm.005-.632c.044-.302.13-.703.273-1.217l-3.855-1.067c-.17.614-.3 1.186-.375 1.703l3.957.58Zm.276-1.227c.147-.544.262-1.036.329-1.45l-3.95-.63c-.034.212-.108.548-.24 1.034l3.86 1.046Zm.335-1.49a5.416 5.416 0 0 0 .005-1.51l-3.96.56c.013.095.017.225-.007.4l3.962.55Zm-.377-.028c.25-.332.377-.724.408-.814.067-.193.135-.423.204-.674.14-.506.31-1.196.51-2.058l-3.897-.904a50.59 50.59 0 0 1-.469 1.898c-.06.215-.102.354-.13.433-.013.04-.015.042-.005.02a1.71 1.71 0 0 1 .184-.306l3.195 2.405Zm1.116-3.522c.212-.866.376-1.58.488-2.135.097-.482.197-1.03.194-1.449l-4 .031c-.001-.072.006-.066-.016.083-.019.127-.05.305-.099.544a51.728 51.728 0 0 1-.452 1.974l3.885.952Zm.672-3.765c.001.013.033.36-.255.744-.3.398-.674.474-.742.484l-.559-3.961c-.599.085-1.357.356-1.895 1.071-.526.7-.586 1.484-.53 2.056l3.98-.394Zm-.996 1.228c-.057.008-.082-.002-.058.004.03.008.113.035.253.119l2.058-3.43c-.796-.478-1.76-.803-2.813-.654l.56 3.96Zm.246.152c.11.062.1.078.052.018a.69.69 0 0 1-.092-.152.83.83 0 0 1-.063-.22l3.96-.56c-.18-1.274-1.045-2.095-1.901-2.575l-1.956 3.49Zm-.103-.354a.966.966 0 0 1 .057-.513l3.656 1.625a3.047 3.047 0 0 0 .247-1.672l-3.96.56Zm-.066-.14-.977 4.344 3.902.878.977-4.344-3.902-.878Zm1.513 6.71c.478-.134 1.003-.342 1.465-.691l-2.413-3.191c.045-.034.065-.04.04-.029a1.272 1.272 0 0 1-.17.058l1.078 3.852Zm.538-.306 2.253-.319-.56-3.96-2.252.318.559 3.96Zm1.337-.402a.699.699 0 0 1 .082.031c.007.004-.009-.003-.04-.027l2.405-3.196a4.125 4.125 0 0 0-1.175-.601l-1.272 3.793Zm3.179-1.087c.279-1.064.502-1.967.669-2.703l-3.902-.882a80.849 80.849 0 0 1-.636 2.571l3.869 1.014Zm.669-2.703c.183-.812.299-1.63.346-2.455l-3.993-.228a11.008 11.008 0 0 1-.255 1.801l3.902.882Zm.346-2.455a.202.202 0 0 1-.008.046c-.006.018-.01.026-.01.023a.79.79 0 0 1 .19-.185l-2.45-3.161c-.922.714-1.64 1.731-1.715 3.049l3.993.228Zm-1.415.27c.126.024.388.075.802.159l.791-3.921c-.41-.083-.706-.141-.87-.171l-.722 3.934Zm.802.159a.78.78 0 0 1 .15.042c.011.005-.015-.005-.06-.043l2.57-3.065c-.569-.477-1.236-.727-1.869-.855l-.79 3.92Zm.172.065a.468.468 0 0 1-.101-.104c-.021-.03-.021-.042-.013-.017l3.79-1.28a3.682 3.682 0 0 0-1.27-1.795l-2.406 3.196Zm-.186-1.122a9.862 9.862 0 0 0-.106.871l3.985.346c.026-.3.047-.449.055-.495l-3.934-.722Zm-.113 1.02a2.93 2.93 0 0 1-.01.191c-.001.012-.001.008.002-.009a.929.929 0 0 1 .03-.11l3.794 1.27c.152-.454.179-.938.183-1.293l-4-.05Zm-.017.207-.389 1.504 3.873 1 .389-1.504-3.873-1Zm-.405 1.57c-.034.157-.153.633-.369 1.477l3.876.991c.209-.818.346-1.367.398-1.6l-3.905-.868Zm-.363 1.457a23.423 23.423 0 0 0-.534 2.51l3.954.603c.098-.64.245-1.334.444-2.081l-3.864-1.032Zm-.534 2.51a23.245 23.245 0 0 0-.236 2.162l3.994.228c.03-.519.094-1.113.197-1.787l-3.955-.602Zm-.206 1.915c-.023.129-.086.567-.174 1.204l3.962.55.109-.775c.03-.207.04-.27.037-.257l-3.934-.722Zm-.16 1.119c-.11.598-.192 1.159-.203 1.607l3.999.1c.003-.119.035-.423.138-.985l-3.934-.722Zm-.203 1.699c.002.076-.011.055.02-.02a.563.563 0 0 1 .157-.215l2.542 3.088c.947-.78 1.302-1.87 1.28-2.936l-3.999.083Zm.925-.622-.545.148 1.046 3.86.545-.147-1.046-3.86Zm8.46.986-.846 1.812.436.204.482-.017-.071-1.999Zm-2.492-7.636 1.956.418.005-.022.004-.023-1.965-.373Zm1.456-3.458 1.68 1.086-1.68-1.086Zm2.534-2.584 1.023 1.719.165-.099.143-.128-1.331-1.492Zm.585-.365-.958-1.757-.019.01-.019.012.996 1.735Zm.777-.5-.28-1.98-.467.066-.388.269 1.135 1.646Zm1.644.122-.924 1.774 2.804 1.46.118-3.16-1.998-.074Zm.007-1.697 1.98-.28-.065-.468-.268-.388-1.647 1.136Zm-.222-.323-1.696 1.06.024.039.026.037 1.646-1.136Zm-.138-.475 1.943.476.184-.753-.37-.68-1.757.957Zm-.34-.659-1.867.718.034.089.043.085 1.79-.892Zm-.271-.668 1.827-.813-.018-.04-.019-.039-1.79.892Zm-1.266-1.2-.766 1.847.031.013.033.012.703-1.872Zm-3.088.153-.752-1.853-.203.082-.181.125 1.136 1.646Zm-.53.252.28 1.98.123-.018.12-.032-.523-1.93Zm-.476.137-.395 1.96.672.137.615-.306-.892-1.79Zm-1.112-.62-1.457 1.37.02.021.02.02 1.416-1.411Zm1.262-3.077.78 1.842.016-.007.017-.008-.813-1.827Zm.465-.207-.475-1.943-.174.043-.164.073.813 1.827Zm.342-.084.157-1.993-.32-.026-.312.077.475 1.942Zm1.4-.091-.126-1.996.127 1.996Zm.867.125-.703 1.872.158.06.166.032.379-1.964Zm1.722.428-.685 1.88.024.008.025.009.636-1.897Zm1.137.794 1.493-1.331-.009-.01-.008-.008-1.476 1.35Zm.356.268-1.077 1.686 1.077-1.686Zm.36.303-1.645 1.135.039.057.043.054 1.564-1.247Zm1.614 2.918-1.873.698.008.022.008.022 1.858-.742Zm.822 9.074-1.97-.338-.02.11-.006.113 1.996.115Zm-.174.52-1.803-.867-.012.027-.012.027 1.827.812Zm-.07.504 1.897.636.206-.617-.195-.62-1.908.6Zm-1.114 3.126 1.85.76.006-.013.005-.014-1.86-.733Zm-1.206 2.22-1.661-1.113 1.66 1.114Zm-1.914 1.968-1.172-1.621-.017.012-.017.013 1.206 1.596Zm-.896.41-.602-1.908-.05.016-.051.019.703 1.872Zm-1.055.29.059 1.999.11-.004.11-.015-.28-1.98Zm-.317.009-.06-2-.01.001.07 1.999Zm-.133-3.693.813-1.827-.017-.008-.016-.007-.78 1.842Zm2.31-1.422-1.736-.995 1.735.995Zm1.232-3.284-1.934-.508-.008.029-.007.029 1.95.45Zm.294-3.93 1.967-.362-.504-2.736-2.433 1.349.97 1.749Zm-2.612 2.03 1.479 1.347-1.48-1.347Zm-1.39 2.423 1.936.501.002-.005-1.938-.496Zm.478 6.088c-1.132-.53-1.587-1.207-1.712-2.096l-3.96.56c.337 2.392 1.78 4.132 3.978 5.16l1.694-3.624Zm-1.712-2.096c-.084-.595-.026-1.655.328-3.31l-3.911-.838c-.384 1.795-.561 3.408-.378 4.707l3.96-.559Zm.337-3.356c.16-.839.53-1.753 1.171-2.745l-3.36-2.171c-.866 1.341-1.467 2.733-1.74 4.17l3.93.746Zm1.171-2.745c.632-.978 1.27-1.59 1.877-1.951l-2.046-3.438c-1.262.751-2.314 1.862-3.19 3.218l3.36 2.171Zm2.185-2.178a1.582 1.582 0 0 1-.123.1c-.002 0 .011-.008.045-.03.067-.041.173-.105.327-.193l-1.99-3.47c-.174.1-.329.191-.457.271-.083.052-.288.18-.464.337l2.662 2.985Zm.21-.101c.273-.149.604-.365.957-.609l-2.271-3.292a8.03 8.03 0 0 1-.6.388l1.915 3.513Zm.101-.275a2.72 2.72 0 0 1 .538-.034c.097.008.036.02-.098-.05l1.847-3.549c-.928-.483-2-.447-2.846-.327l.56 3.96Zm3.362-1.784c.032-.846.05-1.625-.01-2.052l-3.961.56c-.007-.054-.005-.063-.002.012.002.062.003.153.002.279 0 .252-.01.6-.026 1.052l3.997.149Zm-.344-2.908-.223-.322-3.292 2.271.222.322 3.293-2.271Zm-.173-.246a.971.971 0 0 1 .1.238c.044.154.1.452.009.822l-3.885-.952c-.23.941.192 1.704.384 2.011l3.392-2.12Zm-.078-.373c-.08-.146-.18-.342-.306-.593l-3.58 1.783c.137.277.263.52.374.724l3.512-1.914Zm-.23-.42c-.115-.3-.22-.561-.31-.763l-3.655 1.625c.048.108.124.294.232.574l3.734-1.436Zm-.347-.842c-.489-.981-1.267-1.773-2.353-2.18l-1.405 3.744c.025.01.038.018.053.033a.66.66 0 0 1 .124.186l3.581-1.783Zm-2.289-2.156c-.924-.383-1.901-.471-2.877-.334l.559 3.961c.364-.052.607-.006.785.068l1.533-3.695Zm-2.877-.334a7.354 7.354 0 0 0-1.73.482l1.503 3.706c.325-.131.585-.199.786-.227l-.56-3.96Zm-2.114.689c-.006.004.023-.017.082-.033l1.047 3.86a3.726 3.726 0 0 0 1.142-.535l-2.271-3.292Zm.326-.083a3.55 3.55 0 0 0-1.087.328l1.783 3.58c-.104.052-.162.057-.137.053l-.56-3.96Zm.2.158c-.002 0-.003 0-.01-.004a.398.398 0 0 1-.082-.068l-2.833 2.824c.576.578 1.293 1 2.134 1.169l.79-3.921Zm-.052-.03a.516.516 0 0 1-.077-.098l.007.02a.25.25 0 0 1 .012.049l-3.961.559c.125.886.555 1.624 1.106 2.21l2.913-2.74Zm-.058-.03c-.005-.035.015.059-.038.223-.06.186-.177.351-.316.464l-2.517-3.109c-1.008.817-1.23 1.985-1.09 2.982l3.96-.56Zm-.354.687c.101-.082.392-.265.998-.522l-1.56-3.683c-.729.308-1.422.664-1.955 1.096l2.517 3.109Zm1.03-.537.466-.207-1.626-3.654-.465.207 1.626 3.654Zm.129-.091.341-.084L71.7 6.6l-.342.083.95 3.886Zm-.29-.033c.428.034.886-.006 1.312-.066l-.56-3.96c-.145.02-.256.03-.337.035-.084.006-.114.003-.102.004l-.314 3.987Zm1.312-.066a1.39 1.39 0 0 1-.05.006h.004l.08-.007.338-.022-.254-3.992c-.252.016-.533.034-.677.054l.559 3.96Zm.372-.023a.16.16 0 0 1 .036.001l1.406-3.745a4.063 4.063 0 0 0-1.696-.248l.254 3.992Zm.36.093c.752.145 1.198.264 1.416.343l1.37-3.758c-.528-.192-1.23-.359-2.028-.513l-.758 3.928Zm1.465.36a.113.113 0 0 0 .017.008.67.67 0 0 1 .055.034c.051.036.127.099.224.205l2.953-2.698c-.527-.577-1.18-1.074-1.978-1.341l-1.27 3.793Zm.28.23c.263.293.603.514.772.622l2.153-3.372a2.875 2.875 0 0 1-.099-.066 1.137 1.137 0 0 1 .159.153l-2.985 2.662Zm.772.622c.043.027.043.03.018.01a1.456 1.456 0 0 1-.227-.257l3.293-2.272c-.3-.435-.713-.713-.93-.853l-2.154 3.372Zm-.126-.137c.51.641.95 1.423 1.303 2.37l3.748-1.397c-.481-1.292-1.117-2.455-1.924-3.466l-3.127 2.493Zm1.32 2.414c.374.934.642 1.948.797 3.048l3.96-.56a17.104 17.104 0 0 0-1.043-3.973l-3.713 1.485Zm.797 3.048a15.91 15.91 0 0 1-.089 4.946l3.943.676c.356-2.08.394-4.143.107-6.181l-3.96.559Zm-.114 5.17a1.383 1.383 0 0 1 .051-.303c.005-.015 0 .005-.032.07l3.606 1.732c.124-.258.337-.734.368-1.271l-3.993-.229Zm-.005-.18c-.183.412-.402 1.121-.15 1.92l3.815-1.204c.166.528-.006.9-.01.91l-3.655-1.625Zm-.14.682a66.014 66.014 0 0 1-1.078 3.03l3.722 1.465c.314-.795.698-1.875 1.15-3.223l-3.793-1.272Zm-1.067 3.002c-.24.584-.574 1.206-1.017 1.867l3.322 2.228a14.626 14.626 0 0 0 1.395-2.574l-3.7-1.52Zm-1.017 1.867a5.732 5.732 0 0 1-1.425 1.46l2.344 3.242a9.73 9.73 0 0 0 2.403-2.474l-3.322-2.228Zm-1.459 1.485c.054-.04.069-.04.008-.013a2.705 2.705 0 0 1-.3.11l1.203 3.816c.483-.153 1.038-.372 1.501-.722l-2.412-3.19Zm-.393.133a3.18 3.18 0 0 1-.632.182l.56 3.96a7.08 7.08 0 0 0 1.477-.397l-1.405-3.745Zm-.411.163-.317.01.118 3.998.317-.01-.118-3.998Zm-.329.01-.668.024.142 3.997.668-.023-.142-3.998Zm-.874.134a3.103 3.103 0 0 0 1.706.242l-.56-3.96a.92.92 0 0 1 .479.063l-1.625 3.655Zm1.706.242c1.548-.218 2.536-1.426 3.15-2.497l-3.47-1.99c-.197.345-.345.51-.417.573-.06.054 0-.021.177-.046l.56 3.96Zm3.15-2.497c.646-1.126 1.12-2.412 1.447-3.83l-3.898-.9c-.257 1.117-.606 2.02-1.019 2.74l3.47 1.99Zm1.433-3.771c.445-1.695.598-3.317.326-4.8l-3.934.724c.133.722.09 1.72-.261 3.06l3.869 1.016Zm-2.61-6.187c-1.198.663-2.246 1.471-3.122 2.433l2.958 2.693c.552-.607 1.245-1.153 2.102-1.628l-1.939-3.498Zm-3.122 2.433c-.883.97-1.538 2.06-1.849 3.274l3.876.99c.114-.447.386-.973.93-1.571l-2.957-2.693Zm-1.847 3.268c-.37 1.426-.538 2.789-.366 4.008l3.96-.56c-.07-.49-.024-1.279.278-2.446l-3.872-1.002Zm-.366 4.008c.054.386.158.838.377 1.267.227.445.633.964 1.312 1.251l1.559-3.684c.428.181.627.488.691.614.057.11.042.137.021-.008l-3.96.56Zm25.38-6.553 1.464 1.363.024-.026.023-.026-1.51-1.311Zm-1.288 1.383 1.455 1.372.008-.008-1.463-1.364Zm-.615.653-1.456-1.372-1.198 1.272 1.1 1.358 1.554-1.258Zm.385.476 1.563-1.249-.008-.01-1.555 1.259Zm1.754 1.908L95.3 26.311l.009.009.009.009 1.404-1.424Zm1.631 1.537 1.47-1.357-.093-.1-.106-.087-1.27 1.544Zm-.666 1.79.28 1.981.028-.004.028-.005-.336-1.971Zm-2.923-1.424L93.3 28.17l.015.016.015.016 1.434-1.395Zm-2.79-3.99 1.763-.943-2.495-4.663-1.215 5.147 1.947.46Zm-.304 1.351 1.976.31-3.873-.945 1.897.635Zm-.13.832-1.976-.31-.002.011-.001.01 1.979.289Zm-.484 2.33-1.907-.602 1.907.602Zm-.784.96-.41-1.958-.038.008-.037.009.485 1.94Zm-.648.161-.115 1.997.305.017.295-.073-.486-1.94Zm-1.282-.561-1.646 1.136.028.04.03.039 1.588-1.215Zm-.497-1.52-1.912-.588-.13.426.062.441 1.98-.28Zm.727-2.365-1.843-.78-.04.095-.03.098 1.912.587Zm.462-1.48 1.928.531-3.485-1.786 1.557 1.256Zm-.932 1.157 1.549 1.266.008-.01-1.557-1.256Zm-2.698 3.421 1.537 1.28.031-.038.03-.04-1.598-1.202Zm-1.732 2.507 1.73 1.003.049-.083.04-.088-1.819-.832Zm-1.966.596-1.094 1.674.405.264.48.05.209-1.988Zm-.48-.392-1.71 1.037.096.157.122.137 1.493-1.331Zm-.306-.416-1.942.475.118.484.332.372 1.492-1.331Zm-.043-1.055 1.897.636-1.897-.636Zm.541-.677 1.185 1.611.182-.134.148-.17-1.515-1.307Zm2.386-2.882-1.545-1.27-.027.033-.026.035 1.598 1.202Zm.977-1.092-1.456-1.372 1.456 1.372Zm.748-.707.752 1.854.59-.24.344-.537-1.686-1.077Zm.665-.8 1.465 1.36-1.465-1.36Zm.614-.653 1.412 1.417 1.301-1.297-1.181-1.407-1.532 1.287Zm-.805-.947-1.546 1.269.013.015.013.015 1.52-1.299ZM85 19.491l-1.514 1.306.08.093.092.083L85 19.491Zm-1.526-1.8-1.647 1.136.044.064.048.06 1.555-1.26Zm-.336-.871-1.975-.315-.016.1-.005.1 1.996.115Zm2.2-.947 1.076-1.685-.246-.158-.282-.08-.548 1.923Zm1.843 2.037-1.744.98.073.13.09.116 1.58-1.226Zm.691.892 1.58-1.225-1.58 1.225Zm.524.704 1.696-1.06-.024-.038-.026-.038-1.646 1.136Zm.666.966-1.624 1.167 3.135 4.366.481-5.354-1.992-.178Zm.151-1.682 1.992.179.002-.011v-.011l-1.993-.157Zm.094-2.841-1.98.28.039.277.114.256 1.827-.813Zm.007-.956 1.967.361.014-.075.008-.076-1.99-.21Zm.213-.49-1.378-1.448-.054.051-.05.056 1.482 1.342Zm1.218-.136-1.076 1.686.097.062.104.05.875-1.798Zm1.793 2.433 1.92.559.05-.172.02-.178-1.99-.209Zm-1.404 4.83-1.92-.56-1.874 6.447 5.096-4.37-1.302-1.518Zm2.752-2.546 1.394 1.434.009-.008.008-.009-1.411-1.417Zm1.676-1.898 1.542 1.273.01-.011.01-.012-1.562-1.25Zm1.518-2.017-1.66-1.117-.006.01 1.666 1.107Zm.486-.563 1.225 1.58.08-.061.073-.07-1.378-1.449Zm.99-.246.88-1.796-.362-.178-.404-.023-.114 1.997Zm1.35 1.294 1.979-.28-.03-.212-.074-.202-1.876.694Zm-.166 1.084 1.51 1.311.046-.053.042-.055-1.598-1.203Zm-4.717 2.383-1.289 1.384 2.927 2.727 1.29-1.384-2.928-2.727Zm-1.28 1.376-.616.652 2.911 2.743.615-.652-2.91-2.743Zm-.714 3.282.385.476 3.109-2.517-.386-.476-3.108 2.517Zm.376.466c.44.55 1.084 1.246 1.895 2.066l2.845-2.812c-.784-.792-1.31-1.369-1.614-1.75l-3.126 2.496Zm1.913 2.084c.784.773 1.39 1.35 1.764 1.657l2.542-3.088c-.212-.175-.693-.624-1.497-1.417l-2.81 2.848Zm1.566 1.47c.061.066-.044-.02-.077-.255l3.961-.56c-.112-.79-.506-1.423-.946-1.899l-2.938 2.714Zm-.077-.255c-.02-.14-.02-.356.067-.602a1.34 1.34 0 0 1 .37-.556c.226-.197.363-.168.107-.125l.672 3.943c.55-.093 1.273-.294 1.864-.815a2.657 2.657 0 0 0 .881-2.404l-3.96.56Zm.6-1.291s-.013.002-.045-.004a.835.835 0 0 1-.205-.075c-.216-.105-.539-.328-.959-.76l-2.868 2.788c1.203 1.237 2.782 2.273 4.637 2.011l-.56-3.96Zm-1.18-.808c-.891-.959-1.725-2.142-2.49-3.57l-3.526 1.887c.9 1.683 1.926 3.16 3.09 4.408l2.927-2.725Zm-6.2-3.086c-.118.5-.204.871-.257 1.107a11.156 11.156 0 0 0-.08.382 2.278 2.278 0 0 0-.026.308 2.014 2.014 0 0 0 .184.866 2 2 0 0 0 3.285.518c.175-.19.271-.37.292-.409.064-.119.102-.22.11-.239l.031-.087-3.793-1.271.026-.072a1.99 1.99 0 0 1 .106-.23 2 2 0 0 1 3.758.974 1.769 1.769 0 0 1-.024.28l-.004.027a.59.59 0 0 1-.002.009l.003-.013.008-.037.028-.127c.048-.214.13-.568.248-1.067l-3.893-.919Zm-.333 1.501-.13.832 3.952.618.13-.832-3.952-.618Zm-.133.853c-.137.94-.28 1.597-.412 2.016l3.814 1.204c.226-.715.406-1.612.556-2.645l-3.958-.575Zm-.412 2.016c-.044.14-.056.105.028.002.105-.129.333-.324.684-.398l.822 3.915c1.444-.303 2.04-1.555 2.28-2.315l-3.814-1.204Zm.638-.38-.649.163.971 3.88.649-.162-.971-3.88Zm-.05.107c-.121-.007-.132-.025-.076-.001.03.013.074.037.126.076.052.04.101.09.144.145l-3.178 2.43c.737.963 1.817 1.29 2.756 1.343l.229-3.993Zm.252.3c.016.022-.009-.006-.048-.125a3.215 3.215 0 0 1-.116-.54l-3.96.56c.114.807.341 1.666.831 2.376l3.293-2.272Zm-.232.202.726-2.365-3.823-1.174-.727 2.364 3.824 1.175Zm.656-2.173c.165-.39.351-1.007.55-1.728l-3.857-1.061c-.207.75-.33 1.12-.377 1.23l3.684 1.559Zm-2.936-3.514-.932 1.157 3.114 2.51.932-1.156-3.114-2.51Zm-.924 1.147a112.451 112.451 0 0 0-2.748 3.484l3.197 2.405c.733-.975 1.616-2.094 2.648-3.358l-3.097-2.531Zm-2.687 3.407c-.893 1.074-1.61 2.075-2.013 2.954l3.638 1.664c.174-.38.611-1.051 1.45-2.06l-3.075-2.558Zm-1.924 2.782a.74.74 0 0 1 .227-.232.72.72 0 0 1 .287-.117l.56 3.96a3.226 3.226 0 0 0 2.386-1.604l-3.46-2.007Zm.514-.35c.057-.007.047 0-.073-.004a6.55 6.55 0 0 1-.468-.035l-.418 3.978c.487.05 1.045.09 1.518.022l-.56-3.96Zm.344.275a1.279 1.279 0 0 1-.104-.074c-.016-.013-.004-.005.023.026l-2.985 2.662c.27.303.586.544.878.735l2.188-3.349Zm.137.246a4.815 4.815 0 0 0-.524-.71l-2.985 2.662a.87.87 0 0 1 .088.122l3.42-2.074Zm-.074.145a1.917 1.917 0 0 1-.037-.196l-.001-.011v-.003.015l-.004.049a1.007 1.007 0 0 1-.047.203l-3.793-1.271c-.265.791-.143 1.595-.003 2.165l3.885-.95Zm-.09.057c-.083.25-.22.335-.17.298l-2.37-3.222c-.504.37-1.002.907-1.252 1.653l3.793 1.27Zm.16-.007c1.135-1.317 1.969-2.321 2.469-2.985l-3.196-2.405c-.413.548-1.17 1.465-2.302 2.778l3.029 2.612Zm2.415-2.917c.202-.245.494-.573.888-.992l-2.911-2.743a24.58 24.58 0 0 0-1.066 1.193l3.089 2.542Zm.888-.992c.195-.206.329-.341.412-.42.043-.04.052-.046.036-.033a1.272 1.272 0 0 1-.197.13 1.81 1.81 0 0 1-.206.099l-1.504-3.707c-.316.128-.544.316-.596.358-.101.08-.197.167-.279.245-.166.157-.362.357-.577.585l2.911 2.743Zm.979-1.001c-.006.008.02-.033.106-.136.08-.096.191-.222.338-.38l-2.931-2.722c-.334.36-.664.74-.885 1.085l3.372 2.153Zm.444-.517c.338-.364.513-.548.561-.596l-2.823-2.834a35.53 35.53 0 0 0-.67.709l2.932 2.721Zm.68-3.3c-.147-.175-.42-.497-.815-.959l-3.041 2.599c.395.463.659.772.794.934l3.063-2.574Zm-.79-.928c-.423-.516-.83-.968-1.207-1.31l-2.684 2.965c.163.148.425.426.799.882l3.092-2.537Zm-1.034-1.133a92.004 92.004 0 0 1-1.487-1.752l-3.109 2.517c.28.345.808.968 1.566 1.847l3.03-2.612Zm-1.395-1.63c-.057-.082-.058-.1-.041-.057.016.042.07.198.056.436l-3.993-.228c-.052.909.366 1.658.685 2.121l3.293-2.271Zm-.007.58a.777.777 0 0 1-.233.387c-.188.18-.358.203-.342.201l-.559-3.96c-.63.088-1.31.337-1.872.876-.565.543-.84 1.222-.944 1.866l3.95.63Zm-.575.588c-.075.01-.096.002-.042.008.052.007.147.024.293.065l1.097-3.846c-.56-.16-1.23-.283-1.907-.188l.56 3.961Zm-.277-.164c.4.255.803.668 1.176 1.332l3.487-1.961c-.634-1.126-1.46-2.071-2.51-2.742l-2.153 3.37Zm1.339 1.577.691.892 3.162-2.45-.692-.893-3.161 2.45Zm.691.892c.223.287.371.488.458.614l3.293-2.271a18.76 18.76 0 0 0-.59-.794l-3.16 2.45Zm.408.538c.16.255.416.624.739 1.073l3.249-2.333a19.36 19.36 0 0 1-.595-.86l-3.392 2.12Zm4.355.085.151-1.682-3.983-.358-.152 1.683 3.984.357Zm.153-1.704.112-1.472-3.989-.3-.11 1.458 3.987.314Zm.112-1.472c.03-.407.048-.778.044-1.091a4.673 4.673 0 0 0-.03-.504 2.607 2.607 0 0 0-.198-.744l-3.655 1.626a1.608 1.608 0 0 1-.118-.398c-.003-.02 0-.003.002.07.001.146-.007.385-.034.74l3.99.3Zm-.031-1.806-.025-.173-3.96.56.024.172 3.96-.559Zm-.025-.173c.004.03-.006-.01.018-.142l-3.934-.721c-.083.448-.114.93-.045 1.422l3.961-.56Zm.04-.293a1.182 1.182 0 0 1-.293.644l-2.965-2.685a2.84 2.84 0 0 0-.72 1.622l3.978.419Zm-.397.75a1.016 1.016 0 0 1-.534.275l-.56-3.961a2.994 2.994 0 0 0-1.663.788l2.757 2.898Zm-.534.275a.907.907 0 0 1-.287-.01 1.174 1.174 0 0 1-.416-.165l2.153-3.371c-.659-.42-1.378-.504-2.01-.415l.56 3.96Zm-.502-.063c.393.192.583.352.663.44.063.07.038.068.03.015l3.961-.56c-.245-1.738-1.547-2.83-2.903-3.491l-1.751 3.596Zm.693.455a.92.92 0 0 1-.008-.097v-.006.005a.473.473 0 0 1-.006.07l3.978.418a3.92 3.92 0 0 0-.003-.95l-3.96.56Zm.055-.378-1.404 4.829 3.84 1.116 1.404-4.828-3.84-1.117Zm1.818 6.905a63.71 63.71 0 0 0 2.844-2.629l-2.789-2.867a59.858 59.858 0 0 1-2.658 2.46l2.603 3.036Zm2.861-2.646c.484-.482 1.091-1.174 1.807-2.042l-3.085-2.545c-.692.839-1.202 1.412-1.545 1.754l2.823 2.833Zm1.827-2.065c.709-.887 1.26-1.616 1.621-2.16l-3.331-2.213c-.26.392-.721 1.008-1.414 1.874l3.124 2.499Zm1.615-2.15c.054-.08.09-.126.108-.146.008-.01.009-.01.001-.002a.67.67 0 0 1-.057.049l-2.45-3.162c-.393.304-.695.692-.92 1.027l3.318 2.234Zm.205-.231a1.078 1.078 0 0 1-.569.28l-.559-3.961c-.6.085-1.167.343-1.629.783l2.757 2.898Zm-.569.28a1.231 1.231 0 0 1-.098.01l-.043.003h.004a2.92 2.92 0 0 1 .204.009l.228-3.994c-.185-.01-.55-.032-.854.011l.56 3.96Zm-.7-.18c.217.107.323.192.365.233.037.034.012.022-.01-.04l3.751-1.388c-.434-1.172-1.376-1.92-2.344-2.396l-1.762 3.592Zm.25-.221.02.138 3.96-.559-.02-.139-3.96.56Zm.02.138c.003.026-.008-.026.012-.132.023-.115.078-.262.185-.405l3.196 2.405c.593-.788.671-1.69.567-2.427l-3.96.56Zm.285-.645-3.253 3.746 3.02 2.623 3.253-3.747-3.02-2.622Zm12.7 10.936 1.598 1.202-2.489-2.992.891 1.79Zm-1.217-.111-.965 1.752.034.018.034.017.897-1.787Zm-.831-.625-1.492 1.331.037.042.039.039 1.416-1.412Zm-.696-1.174-1.869.711.004.01.004.01 1.861-.731Zm-.423-1.496-1.98.28.116.82.661.498 1.203-1.598Zm-.039-.03-1.599-1.202-.026.035-.024.035 1.649 1.132Zm-1.835 2.027-1.349-1.477-.009.009-.01.008 1.368 1.46Zm-3.372.653-1.322 1.5.02.019.021.017 1.281-1.536Zm-.993-1.274-1.853.752.004.011.005.012 1.844-.775Zm.022-4.598 1.986.24-1.986-.24Zm1.018-4.81-1.896-.635-.005.013 1.901.622Zm3.254-.99-1.699 1.057.009.014.009.013 1.681-1.083Zm.241.956 1.752.965.049-.09.041-.096-1.842-.779Zm-.229.386 1.598 1.203.055-.073.048-.077-1.701-1.053Zm-.059.08-1.598-1.204-.04.054-.037.055 1.675 1.094Zm-.93 2.675-1.938-.493 1.938.493Zm-.803 3.578-1.967-.361 3.565 1.563-1.598-1.202Zm.03-.04 1.979.286-3.577-1.488 1.598 1.202Zm-.121 1.148-2 .032.042 2.593 2.497-.699-.539-1.926Zm1.954-1.937-1.727-1.009-.008.013-.007.012 1.742.984Zm2.185-4.55-1.838-.79-.003.007-.003.008 1.844.775Zm1.237-2.755-1.766-.939-.015.027-.013.027 1.794.885Zm.823-.93-.403-1.958-.027.005-.028.007.458 1.947Zm1.267.21-.821 1.824.021.01.021.009.779-1.842Zm.685 1.848 1.942.476-1.942-.476Zm-.37 1.396 1.919.565.002-.008.002-.008-1.923-.549Zm-.239.812-1.918-.565-.009.03-.008.031 1.935.504Zm-.692 2.855 1.95.44.003-.01.002-.011-1.955-.42Zm-.256 2.192-1.981.28 3.98-.25-1.999-.03Zm-.005-.035 1.98-.28-3.977.166 1.997.114Zm1.199 2.482 1.437-1.39-.046-.048-.049-.045-1.342 1.483Zm.071 1.51-1.482-1.343-.032.035-.03.037 1.544 1.27Zm-.906.587-1.598-1.202-3.505 4.657 5.626-1.524-.523-1.93Zm-.862-1.83c.112-.055.202-.083.251-.096.051-.014.083-.019.088-.02l.56 3.961c.219-.031.547-.096.884-.264l-1.783-3.58Zm.339-.116a.623.623 0 0 1 .202.003c.045.01.056.019.03.006l-1.794 3.574c.613.308 1.338.489 2.122.378l-.56-3.96Zm.299.044a1.66 1.66 0 0 1-.378-.285l-2.833 2.824c.381.382.81.705 1.282.965l1.929-3.504Zm-.302-.204a1.883 1.883 0 0 1-.327-.574l-3.723 1.461a5.826 5.826 0 0 0 1.065 1.775l2.985-2.662Zm-.32-.555a4.695 4.695 0 0 1-.267-.999l-3.961.56a8.64 8.64 0 0 0 .49 1.862l3.738-1.423Zm-.267-.999a2.102 2.102 0 0 0-.822-1.383l-2.406 3.196a1.905 1.905 0 0 1-.733-1.254l3.961-.559Zm-.045-.064a2.023 2.023 0 0 0-.792-1.36 2.009 2.009 0 0 0-2.105-.194c-.423.21-.654.513-.721.6l3.197 2.406c-.057.075-.279.369-.693.575a1.99 1.99 0 0 1-2.759-1.113c-.059-.167-.08-.3-.087-.355l3.96-.56Zm-3.668-.883c-.316.46-.812 1.022-1.535 1.682l2.698 2.953c.863-.788 1.59-1.578 2.134-2.37l-3.297-2.265Zm-1.554 1.7a4.475 4.475 0 0 1-.739.583c-.183.109-.242.107-.194.1l.559 3.96c1.2-.169 2.251-.92 3.109-1.725l-2.735-2.919Zm-.933.683a.816.816 0 0 1 .403.033c.014.005.003.002-.033-.02a1.542 1.542 0 0 1-.16-.12l-2.562 3.072c.664.553 1.68 1.17 2.911.996l-.559-3.961Zm.251-.072c-.345-.303-.448-.493-.471-.547l-3.688 1.549c.332.79.891 1.45 1.515 2l2.644-3.002Zm-.461-.525a1.391 1.391 0 0 1 .049.144c.005.017.004.019.001.001a1.052 1.052 0 0 1-.015-.081c-.006-.039-.014-.085-.021-.141l-3.961.56c.034.24.096.667.24 1.02l3.707-1.503Zm.014-.077c-.09-.633-.073-1.769.14-3.53l-3.971-.48c-.222 1.837-.295 3.4-.13 4.57l3.961-.56Zm.14-3.53c.205-1.695.52-3.166.933-4.427l-3.802-1.244c-.509 1.556-.872 3.291-1.102 5.192l3.971.48Zm.928-4.413c.213-.636.393-.98.501-1.136.05-.07.048-.048-.025.007a1.093 1.093 0 0 1-.505.2l-.559-3.961c-1.089.153-1.79.89-2.19 1.465-.422.603-.747 1.355-1.014 2.154l3.792 1.27Zm-.029-.93c-.188.027-.36.004-.495-.04-.125-.04-.188-.09-.191-.091-.002-.002.035.027.107.113.07.084.16.207.267.379l3.397-2.113c-.353-.567-.785-1.128-1.328-1.547-.568-.438-1.368-.795-2.316-.661l.559 3.96Zm-.294.388a3.044 3.044 0 0 1 .087.147l-.007-.017a1.346 1.346 0 0 1-.079-.305l3.961-.559c-.087-.618-.422-1.157-.601-1.433l-3.361 2.167Zm.001-.175a1.388 1.388 0 0 1 .079-.732l3.684 1.558c.133-.315.28-.806.198-1.385l-3.961.56Zm.168-.917a6.7 6.7 0 0 1-.176.297l3.401 2.106c.105-.17.2-.33.28-.474l-3.505-1.93Zm-.074.147-.059.08 3.196 2.405.059-.08-3.196-2.405Zm-.136.188c-.272.417-.481.93-.65 1.418a22.95 22.95 0 0 0-.543 1.859l3.876.987c.166-.653.315-1.16.445-1.533.14-.404.222-.544.221-.543l-3.349-2.188Zm-1.193 3.277a57.058 57.058 0 0 0-.832 3.71l3.934.722c.176-.959.433-2.105.774-3.445l-3.876-.987Zm2.733 5.273.03-.04-3.196-2.404-.03.04 3.196 2.404Zm-3.548-1.528c-.079.547-.147 1.09-.141 1.466l4-.063c0 .032-.001-.012.017-.188.017-.156.044-.368.083-.643l-3.959-.572Zm2.398 3.36c1.467-.41 2.462-1.65 3.156-2.879l-3.483-1.968c-.252.447-.466.72-.622.874-.154.153-.201.142-.129.121l1.078 3.852Zm3.141-2.854c.708-1.211 1.475-2.818 2.302-4.783l-3.687-1.552c-.796 1.893-1.486 3.32-2.068 4.317l3.453 2.018Zm2.296-4.77a66.057 66.057 0 0 1 1.193-2.66l-3.587-1.768c-.3.607-.73 1.567-1.281 2.85l3.675 1.579Zm1.166-2.605c.051-.097.093-.166.124-.213.032-.049.044-.062.036-.052-.007.007-.054.06-.147.125-.093.066-.26.163-.498.219l-.916-3.894c-.705.166-1.174.605-1.433.897-.282.318-.51.686-.698 1.04l3.532 1.878Zm-.54.09c-.09.02-.142.01-.139.01a.846.846 0 0 1 .182.065l1.642-3.647c-.712-.32-1.576-.533-2.491-.345l.806 3.918Zm.085.094c.096.04.04.035-.064-.07a1.18 1.18 0 0 1-.312-.655l3.96-.559c-.193-1.372-1.26-2.076-2.026-2.4l-1.558 3.684Zm-.376-.725c-.016-.109-.013-.18-.013-.192.001-.016.002-.009-.004.028-.01.078-.035.212-.086.418l3.885.952a8.33 8.33 0 0 0 .163-.82c.032-.227.067-.576.015-.945l-3.96.56Zm-.103.254c-.114.466-.23.907-.349 1.323l3.846 1.097c.134-.468.263-.958.388-1.468l-3.885-.952Zm-.344 1.306-.239.812 3.837 1.13.239-.812-3.837-1.13Zm-.256.873a72.822 72.822 0 0 0-.713 2.94l3.911.838c.148-.69.371-1.61.673-2.77l-3.871-1.008Zm-.708 2.918a12.582 12.582 0 0 0-.305 2.603l3.999.06c.01-.624.08-1.216.207-1.782l-3.901-.881Zm3.675 2.353-.005-.034-3.961.559.005.035 3.961-.56Zm-3.982.131c-.018.322.018.656.055.919l3.961-.56a2.51 2.51 0 0 1-.02-.172l-.001-.015-.002.056-3.993-.228Zm.055.919c.181 1.28.882 2.33 1.798 3.16l2.685-2.966c-.435-.393-.507-.648-.522-.754l-3.961.56Zm1.703 3.068c.024.024 0 .005-.038-.061a1.106 1.106 0 0 1-.13-.396l3.961-.56c-.112-.79-.546-1.38-.918-1.765l-2.875 2.782Zm-.168-.457a1.088 1.088 0 0 1 .052-.509.76.76 0 0 1 .143-.258l2.965 2.685c.554-.612.943-1.47.801-2.478l-3.961.56Zm.133-.695c.003-.003.019-.021.049-.04a.27.27 0 0 1 .065-.032l1.047 3.86a3.742 3.742 0 0 0 1.928-1.246l-3.089-2.542Zm2.236 3.061.029-.04-3.196-2.405-.029.04 3.196 2.405Zm10.033-3.587-1.001 1.732 1.001-1.732Zm-2.734-2.336-1.98.28.094.669.481.474 1.405-1.423Zm-.553-.912-1.604 1.194 1.604-1.194Zm-.642-.793 1.203-1.598-3.858-2.903.675 4.781 1.98-.28Zm-.227-.356-1.841.78.032.076.038.073 1.771-.93Zm-1.04.394-1.873-.703-.005.016-.006.016 1.884.67Zm-.449 1.83 1.971.34.002-.01.002-.01-1.975-.32Zm-.237 2.827 1.752.964.019-.033.017-.034-1.788-.897Zm-.807.538-.173 1.992.227.02.225-.032-.279-1.98Zm-1.326-.874-1.416 1.412.012.013.013.012 1.391-1.437Zm-.943-1.422-1.967-.36-.058.319.045.32 1.98-.279Zm.28-1.524 1.967.361.003-.015.002-.015-1.972-.33Zm.365-2.172-1.788-.898-.135.27-.05.297 1.973.33Zm.333-1.143-1.972-.33-.006.035-.005.034 1.983.261Zm.135-.797-1.896-.635-.045.135-.026.14 1.967.36Zm.772-2.795 1.937.499.005-.019.004-.019-1.946-.461Zm.598-2.276-1.882-.677-.008.02-.007.021 1.897.636Zm.482-1.34 1.882.676.168-.466-.07-.49-1.98.28Zm.382-.55-1.084-1.68 1.084 1.68Zm1.96.113-1.511 1.31.027.03.027.03 1.457-1.37Zm.531 2.258 1.896.635.01-.03.009-.03-1.915-.575Zm-.462.984 1.71 1.037.01-.016.01-.018-1.73-1.003Zm-.382.796 1.866.717.016-.04.014-.041-1.896-.636Zm-.017.886.28 1.98.467-.066.389-.268-1.136-1.646Zm.263-.143.891 1.79.128-.063.117-.08-1.136-1.647Zm.446-.346-1.225-1.58-.032.024-.03.025 1.287 1.531Zm.907-.835 1.391 1.437.033-.032.031-.033-1.455-1.372Zm1.73-1.516.78 1.84.325-.136.257-.24-1.362-1.464Zm2.59-.932-1.321 1.501.027.025.029.023 1.265-1.549Zm-.385 2.529 1.362 1.465.014-.014.015-.014-1.391-1.437Zm-2.82 2.307 1.181 1.613.012-.008.011-.008-1.204-1.597Zm-1.016.815-1.598-1.203-.498.662.115.82 1.981-.28Zm1.003 1.095 1.616-1.178-.074-.101-.086-.091-1.456 1.37Zm.582.873-1.72 1.02.053.09.063.083 1.604-1.193Zm.48.639 1.66-1.114-.031-.047-.034-.045-1.595 1.206Zm1.042 1.373-1.417 1.412.03.03.031.028 1.356-1.47Zm1.529.066.752 1.854.071-.029.069-.034-.892-1.79Zm1.52-.002-1.203 1.598 1.203-1.598Zm-.057 1.599-1.437-1.392-.019.02-.019.02 1.475 1.352Zm-1.235 1.022-1.074-1.687-.031.02-.03.021 1.135 1.646Zm-1.334-1.442c.097-.014.135.005.087-.008a1.588 1.588 0 0 1-.351-.162l-2.001 3.464c.781.45 1.761.817 2.824.666l-.559-3.96Zm-.264-.17c-.341-.197-1.088-.803-2.329-2.027l-2.81 2.846c1.224 1.208 2.299 2.16 3.138 2.645l2.001-3.464Zm-1.753-.884c-.075-.525-.344-.957-.424-1.089a9.618 9.618 0 0 0-.505-.736l-3.209 2.387c.076.103.139.19.189.263.051.074.085.126.105.16l.016.026-.015-.03a1.461 1.461 0 0 1-.048-.12c-.01-.032-.023-.072-.035-.12a1.685 1.685 0 0 1-.035-.181l3.961-.56Zm-.929-1.825a19.799 19.799 0 0 0-.473-.615 5.442 5.442 0 0 0-.207-.244c-.045-.05-.181-.2-.364-.339l-2.405 3.196a1.58 1.58 0 0 1-.163-.138l-.025-.026-.008-.008.017.02.047.056c.082.101.204.26.372.485l3.209-2.387Zm-4.227.68a1.938 1.938 0 0 1-.019-.308c.002-.091.009-.464.225-.878A1.995 1.995 0 0 1 118.713 18c.605.034.999.333 1.083.396.236.177.371.367.376.374.039.05.063.088.068.096.012.019-.013-.02-.094-.175l-3.542 1.859c.08.152.174.326.262.464.024.038.064.1.116.168.018.025.165.227.409.41.088.066.485.366 1.093.401a2.003 2.003 0 0 0 2.098-2.295l-3.96.559Zm3.594-1.417a2.888 2.888 0 0 0-.83-1.138 2.39 2.39 0 0 0-1.849-.513l.559 3.96a1.602 1.602 0 0 1-1.224-.336 1.376 1.376 0 0 1-.268-.287.712.712 0 0 1-.07-.125l3.682-1.56Zm-2.679-1.651a2.163 2.163 0 0 0-1.283.684 2.895 2.895 0 0 0-.383.53 6.577 6.577 0 0 0-.409.91l3.745 1.405a5.21 5.21 0 0 1 .103-.256c.029-.064.041-.086.037-.08a1.47 1.47 0 0 1-.158.207 1.746 1.746 0 0 1-.325.274 1.89 1.89 0 0 1-.768.287l-.559-3.961Zm-2.086 2.155a12.482 12.482 0 0 0-.539 2.182l3.949.64a8.476 8.476 0 0 1 .358-1.48l-3.768-1.342Zm-.535 2.162c-.141.816-.186 1.626-.077 2.396l3.961-.56c-.035-.246-.035-.62.057-1.157l-3.941-.68Zm-.077 2.396a.189.189 0 0 1 .003-.06.224.224 0 0 1 .02-.068l3.575 1.795c.35-.698.471-1.459.363-2.226l-3.961.559Zm.058-.195a.983.983 0 0 1 .665-.478l.559 3.961c.945-.133 1.785-.655 2.28-1.554l-3.504-1.929Zm1.117-.49c.185.016.307.063.349.081.046.02.052.028.015.003a2.022 2.022 0 0 1-.175-.134 5.446 5.446 0 0 1-.295-.267l-2.783 2.873c.336.325.689.629 1.052.868.329.217.849.506 1.492.561l.345-3.985Zm-.081-.293a3.411 3.411 0 0 1-.418-.482c-.028-.043-.029-.052-.019-.028.01.023.041.1.058.22l-3.961.56c.084.594.345 1.091.588 1.458.255.384.574.75.919 1.096l2.833-2.824Zm-.392.351.279-1.524-3.934-.722-.28 1.524 3.935.722Zm.284-1.553.365-2.173-3.945-.662-.364 2.172 3.944.662Zm.18-1.607a5.547 5.547 0 0 0 .529-1.78l-3.966-.52c-.032.25-.089.408-.138.505l3.575 1.795Zm.519-1.71c.078-.47.12-.713.129-.766l-3.934-.722c-.017.093-.065.38-.14.828l3.945.66Zm.059-.491c.176-.525.45-1.527.812-2.932l-3.874-.998c-.369 1.432-.608 2.293-.731 2.659l3.793 1.27Zm.821-2.97c.268-1.13.448-1.804.548-2.101l-3.793-1.271c-.165.494-.383 1.338-.647 2.45l3.892.922Zm.534-2.06.482-1.34-3.764-1.355-.482 1.341 3.764 1.354Zm.58-2.297a1.62 1.62 0 0 1-.263 1.146 1.194 1.194 0 0 1-.186.213.425.425 0 0 1-.048.04l-.017.012-2.168-3.361c-.395.255-1.481 1.072-1.278 2.51l3.96-.56ZM118.004 12l.009-.006.033-.013a.875.875 0 0 1 .164-.037l-.559-3.96a4.477 4.477 0 0 0-1.815.654l2.168 3.361Zm.206-.056a1.193 1.193 0 0 1-.682-.103c-.148-.072-.195-.141-.159-.1l3.022-2.62c-.54-.623-1.475-1.316-2.74-1.137l.559 3.96Zm-.787-.143c.036.038.06.068.075.088l.019.027a.218.218 0 0 1-.019-.045.682.682 0 0 1-.026-.11l3.961-.56c-.125-.886-.587-1.6-1.096-2.14l-2.914 2.74Zm.049-.04c.021.15.025.254.023.317-.003.063-.01.07.001.035l3.83 1.152c.209-.696.198-1.415.107-2.064l-3.961.56Zm.043.292a3.593 3.593 0 0 1-.296.616l3.46 2.008a7.36 7.36 0 0 0 .628-1.353l-3.792-1.27Zm-.276.582a6.035 6.035 0 0 0-.569 1.199l3.793 1.27c.025-.074.081-.204.196-.393l-3.42-2.076Zm-.539 1.117a3.553 3.553 0 0 0-.179 1.784l3.96-.56c-.007-.05.016.045-.048.21l-3.733-1.434Zm-.179 1.784c.013.092.054.377.209.688.131.264.773 1.299 2.1 1.111l-.559-3.96a1.98 1.98 0 0 1 1.466.378c.335.252.502.544.574.688.139.279.167.512.17.536l-3.96.559ZM119.686 17l-.029.02a.63.63 0 0 1-.021.013l-.025.016a.048.048 0 0 0-.006.003l.035-.018.064-.033-1.783-3.58a4.36 4.36 0 0 0-.507.287L119.686 17Zm.263-.143c.197-.136.397-.293.597-.46l-2.574-3.063a4.103 4.103 0 0 1-.295.23l2.272 3.293Zm.535-.411c.252-.196.637-.557 1.073-.979l-2.782-2.874a33.4 33.4 0 0 1-.532.506l-.159.142-.05.044 2.45 3.161Zm1.137-1.044c.388-.411.689-.705.911-.9.11-.096.185-.154.227-.184.052-.037.019-.006-.083.037l-1.561-3.683c-.48.204-.909.55-1.22.823-.355.31-.752.705-1.184 1.164l2.91 2.743Zm1.637-1.424c.427-.398.738-.662.947-.82.105-.08.152-.108.152-.107-.002 0-.035.02-.095.044a1.5 1.5 0 0 1-.362.095l-.559-3.96a2.72 2.72 0 0 0-.958.342 5.442 5.442 0 0 0-.59.395c-.367.277-.791.646-1.26 1.082l2.725 2.929Zm.642-.788a1.254 1.254 0 0 1-.663-.077c-.106-.046-.13-.08-.072-.03l2.643-3.002c-.475-.418-1.342-1.01-2.467-.852l.559 3.96Zm-.679-.06c.046.038.021.028-.025-.04a1.012 1.012 0 0 1-.152-.42l3.961-.56c-.137-.966-.726-1.646-1.253-2.076l-2.531 3.097Zm-.177-.46c-.042-.298.057-.466.039-.432a1.032 1.032 0 0 1-.099.14 3.424 3.424 0 0 1-.274.296l2.782 2.874c.742-.719 1.727-1.918 1.513-3.438l-3.961.56Zm-.305-.024c-.617.573-1.496 1.296-2.662 2.175l2.408 3.194c1.219-.92 2.22-1.735 2.978-2.44l-2.724-2.929Zm-2.64 2.158c-.309.226-.57.423-.772.586-.122.098-.441.35-.66.64l3.196 2.405a1.502 1.502 0 0 1-.128.151l-.022.022a2.38 2.38 0 0 1 .117-.098c.136-.109.343-.267.632-.479l-2.363-3.227Zm-1.815 2.708c.054.38.208.648.221.672a2.006 2.006 0 0 0 .209.315c.039.05.079.096.106.128.059.068.136.153.223.248.176.193.434.469.768.824l2.913-2.741a94.98 94.98 0 0 1-.731-.784l-.154-.172c-.015-.017-.008-.009.01.014.007.008.038.047.076.103.017.026.058.087.102.169a1.934 1.934 0 0 1 .155.377c.021.07.046.169.063.288l-3.961.56Zm1.368 1.995c.207.284.364.52.478.713l3.441-2.04a13.441 13.441 0 0 0-.687-1.03l-3.232 2.357Zm.594.887c.177.238.34.456.488.652l3.191-2.412-.47-.627-3.209 2.387Zm.423.56c.451.673.891 1.274 1.286 1.67l2.833-2.823c-.098-.1-.354-.414-.798-1.075l-3.321 2.228Zm1.347 1.73c.773.711 1.733.884 2.59.763l-.559-3.96a.695.695 0 0 1 .26.025c.157.042.305.124.42.23l-2.711 2.941Zm2.59.763c.387-.055.785-.208 1.047-.314l-1.504-3.707a3.28 3.28 0 0 1-.212.08l-.006.002a1.367 1.367 0 0 1 .116-.022l.559 3.96Zm1.187-.377a2.756 2.756 0 0 1 .16-.073c.003-.002.003-.001-.001 0a.824.824 0 0 1-.167.036l-.559-3.96c-.479.067-.924.27-1.216.416l1.783 3.58Zm-.008-.037a.837.837 0 0 1-.567-.158l2.405-3.196a3.184 3.184 0 0 0-2.397-.607l.559 3.961Zm-.567-.158a.755.755 0 0 1-.173-.197 1.038 1.038 0 0 1-.151-.408l3.961-.56c-.126-.895-.626-1.575-1.232-2.031l-2.405 3.196Zm-.324-.605c-.039-.28 0-.507.04-.647.038-.139.086-.226.103-.256.029-.05.017-.014-.11.117l2.873 2.783c.243-.25.501-.553.701-.899.18-.312.46-.91.354-1.657l-3.961.56Zm-.005-.745a4.1 4.1 0 0 1-.834.686l2.148 3.374a8.084 8.084 0 0 0 1.635-1.358l-2.949-2.702Zm-.895.727c-.193.133-.32.207-.391.243-.034.017-.038.017-.016.01.018-.007.091-.033.208-.05l.559 3.961a3.436 3.436 0 0 0 1.066-.357c.281-.143.566-.322.845-.515l-2.271-3.292Z" mask="url(#a)"/></svg>